<?xml version="1.0" encoding="UTF-8"?>
<svg width="100px" height="100px" viewBox="0 0 100 100" version="1.1" xmlns="http://www.w3.org/2000/svg" xmlns:xlink="http://www.w3.org/1999/xlink">
    <!-- Generator: Sketch 46.2 (44496) - http://www.bohemiancoding.com/sketch -->
    <title>adminca-simple</title>
    <desc>Created with Sketch.</desc>
    <defs></defs>
    <g id="Page-1" stroke="none" stroke-width="1" fill="none" fill-rule="evenodd">
        <g id="adminca-simple">
            <circle id="Oval" fill="#AED5F6" cx="65.5" cy="26.5" r="3.5"></circle>
            <path d="M35,54.5 C37.6082257,51.5 39.6082257,50 41,50 C43.5,50 48.5,57 52,57 C53.405522,57 56.0721886,55.3333333 60,52 L56,80.5 L38.5,80.5 L35,54.5 Z" id="Path-4" fill="#AED5F6"></path>
            <polygon id="Path-4" stroke="#3E81BB" stroke-width="2" points="31 41 59.5 41 54 78.5 36.5 78.5"></polygon>
            <circle id="Oval" stroke="#3E81BB" stroke-width="2" cx="64.5" cy="25.5" r="2.5"></circle>
            <path d="M33,52.5 C35,49.5 37,48 39,48 C42,48 46,55 49.5,55 C51.8333333,55 54.8333333,53.1666667 58.5,49.5" id="Path-5" stroke="#3E81BB" stroke-width="2"></path>
        </g>
        <path d="M49,55 L63.5,27.5" id="Line" stroke="#3E81BB" stroke-width="2"></path>
    </g>
</svg>