<?xml version="1.0" encoding="UTF-8"?>
<svg width="100px" height="100px" viewBox="0 0 100 100" version="1.1" xmlns="http://www.w3.org/2000/svg" xmlns:xlink="http://www.w3.org/1999/xlink">
    <!-- Generator: Sketch 46.2 (44496) - http://www.bohemiancoding.com/sketch -->
    <title>adminca-secure</title>
    <desc>Created with Sketch.</desc>
    <defs></defs>
    <g id="Page-1" stroke="none" stroke-width="1" fill="none" fill-rule="evenodd">
        <g id="adminca-secure">
            <path d="M53,24 C56.2070111,27.2222961 59.7070111,30.0556294 63.5,32.5 C67.2929889,34.9443706 71.2929889,36.9443706 75.5,38.5 C75.5833333,47.4166667 73.75,55.0833333 70,61.5 C66.25,67.9166667 60.5833333,73.0833333 53,77 C45.4166667,73.0833333 39.75,67.9166667 36,61.5 C32.25,55.0833333 30.4166667,47.4166667 30.5,38.5 C34.75,36.9166667 38.75,34.9166667 42.5,32.5 C46.25,30.0833333 49.75,27.25 53,24 Z" id="Path-2" fill="#AED5F6"></path>
            <path d="M50,23 C53.2070111,26.2222961 56.7070111,29.0556294 60.5,31.5 C64.2929889,33.9443706 68.2929889,35.9443706 72.5,37.5 C72.5833333,46.4166667 70.75,54.0833333 67,60.5 C63.25,66.9166667 57.5833333,72.0833333 50,76 C42.4166667,72.0833333 36.75,66.9166667 33,60.5 C29.25,54.0833333 27.4166667,46.4166667 27.5,37.5 C31.75,35.9166667 35.75,33.9166667 39.5,31.5 C43.25,29.0833333 46.75,26.25 50,23 Z" id="Path-2" stroke="#3E81BB" stroke-width="2"></path>
        </g>
        <path d="M32.5,41.5 L38.5,38.5 C38.4998544,42.8333333 38.999818,47.1666667 39.9998908,51.5 C40.9999636,55.8333333 43.5,61.5 47.5,68.5 C41.1666667,61.8333333 37.1666667,57 35.5,54 C33.8333333,51 32.8333333,46.8333333 32.5,41.5 Z" id="Path-3" stroke="#3E81BB" stroke-width="2" stroke-linejoin="bevel"></path>
    </g>
</svg>