<?xml version="1.0" encoding="UTF-8"?>
<svg width="3580px" height="2000px" viewBox="0 0 3580 2000" version="1.1" xmlns="http://www.w3.org/2000/svg" xmlns:xlink="http://www.w3.org/1999/xlink" style="background: #FFFFFF;">
    <!-- Generator: Sketch 46.2 (44496) - http://www.bohemiancoding.com/sketch -->
    <title>to outlines</title>
    <desc>Created with Sketch.</desc>
    <defs>
        <rect id="path-1" x="3141" y="1313" width="394" height="380"></rect>
        <rect id="path-2" x="2701" y="1313" width="394" height="380"></rect>
        <path d="M10.2318633,70.0883363 L10.2318633,173.924366 L10.2318633,255.506274 C10.2318633,259.641676 13.5923301,263 17.7376759,263 L33.0904671,263 C37.2307396,263 41.1461846,259.685838 41.8245267,255.597612 L53.8703415,183 L173.231863,183 L173.231863,255.506274 C173.231863,259.641676 176.590306,263 180.733156,263 L196.076701,263 C200.214481,263 203.992301,259.665419 204.503374,255.552004 L214.805463,172.634795 L236.231863,61.8328935 L41.5688262,61.1154883 C17.7470329,43.3306626 1.27758647,10 1.27758647,10 C1.27758647,10 -4.28071432,51.5671702 10.2318633,70.0883363 Z" id="path-3"></path>
        <path d="M267.713458,77.9005869 C264.120752,72.7261632 264.120752,58.6642368 264.120752,54.9552252 L264.120752,40.6242335 C264.120752,18.2646327 246.013158,0 223.676308,0 L183.231863,0 L183.231863,81.3757665 C183.231863,103.735367 201.339458,122 223.676308,122 L248.855248,122 C262.820927,122 274.231863,110.620571 274.231863,96.5833333 C274.231863,88.2278689 271.306164,83.0750106 267.713458,77.9005869 Z" id="path-4"></path>
        <rect id="path-5" x="162.231863" y="0" width="41" height="91" rx="20.5"></rect>
        <path d="M155.290101,176.905907 C219.672183,179.15261 267.159141,140.646591 267.987668,116.937223 C268.816196,93.2278552 227.84603,51.4830497 159.756055,49.1069546 C91.6660789,46.7308594 28.8496341,84.4852192 28.0082392,108.562805 C27.1668442,132.64039 90.9080181,174.659204 155.290101,176.905907 Z" id="path-6"></path>
        <circle id="path-7" cx="1537.5" cy="1501.5" r="260.5"></circle>
        <rect id="path-8" x="2871" y="1604" width="251" height="125"></rect>
        <rect id="path-9" x="1877" y="586" width="394" height="380"></rect>
        <path d="M155.290101,176.905907 C219.672183,179.15261 267.159141,140.646591 267.987668,116.937223 C268.816196,93.2278552 227.84603,51.4830497 159.756055,49.1069546 C91.6660789,46.7308594 28.8496341,84.4852192 28.0082392,108.562805 C27.1668442,132.64039 90.9080181,174.659204 155.290101,176.905907 Z" id="path-10"></path>
        <rect id="path-11" x="2046" y="877" width="251" height="125"></rect>
        <rect id="path-12" x="3311" y="1604" width="251" height="125"></rect>
        <path d="M135.698361,373 C253.181307,373 284,344.66187 284,344.66187 C284,344.66187 251.305023,211.341486 212.237368,181.119746 C173.169712,150.898007 97.6001883,150.914003 60.4714988,185.6868 C23.3428092,220.459598 -2.84217094e-14,342.546308 -2.84217094e-14,342.546308 C-2.84217094e-14,342.546308 18.2154145,373 135.698361,373 Z" id="path-13"></path>
        <ellipse id="path-14" cx="142" cy="97.5" rx="102" ry="97.5"></ellipse>
        <path d="M251.418749,309 C346.149716,309 371,286.223559 371,286.223559 C371,286.223559 344.636797,179.068858 313.135061,154.778488 C281.633325,130.488117 220.698743,130.500975 190.760469,158.449204 C160.822195,186.397434 142,284.523201 142,284.523201 C142,284.523201 156.687781,309 251.418749,309 Z" id="path-15"></path>
        <ellipse id="path-16" cx="256.5" cy="87.5" rx="82.5" ry="78.5"></ellipse>
        <path d="M251.418749,309 C346.149716,309 371,286.223559 371,286.223559 C371,286.223559 344.636797,179.068858 313.135061,154.778488 C281.633325,130.488117 220.698743,130.500975 190.760469,158.449204 C160.822195,186.397434 142,284.523201 142,284.523201 C142,284.523201 156.687781,309 251.418749,309 Z" id="path-17"></path>
        <ellipse id="path-18" cx="256.5" cy="87.5" rx="82.5" ry="78.5"></ellipse>
        <path d="M135.698361,373 C253.181307,373 284,344.66187 284,344.66187 C284,344.66187 251.305023,211.341486 212.237368,181.119746 C173.169712,150.898007 97.6001883,150.914003 60.4714988,185.6868 C23.3428092,220.459598 -2.84217094e-14,342.546308 -2.84217094e-14,342.546308 C-2.84217094e-14,342.546308 18.2154145,373 135.698361,373 Z" id="path-19"></path>
        <ellipse id="path-20" cx="142" cy="97.5" rx="102" ry="97.5"></ellipse>
        <rect id="path-21" x="159" y="1426" width="394" height="380"></rect>
        <path d="M155.290101,176.905907 C219.672183,179.15261 267.159141,140.646591 267.987668,116.937223 C268.816196,93.2278552 227.84603,51.4830497 159.756055,49.1069546 C91.6660789,46.7308594 28.8496341,84.4852192 28.0082392,108.562805 C27.1668442,132.64039 90.9080181,174.659204 155.290101,176.905907 Z" id="path-22"></path>
        <rect id="path-23" x="21" y="1337" width="394" height="380"></rect>
        <path d="M10.2318633,70.0883363 L10.2318633,173.924366 L10.2318633,255.506274 C10.2318633,259.641676 13.5923301,263 17.7376759,263 L33.0904671,263 C37.2307396,263 41.1461846,259.685838 41.8245267,255.597612 L53.8703415,183 L173.231863,183 L173.231863,255.506274 C173.231863,259.641676 176.590306,263 180.733156,263 L196.076701,263 C200.214481,263 203.992301,259.665419 204.503374,255.552004 L214.805463,172.634795 L236.231863,61.8328935 L41.5688262,61.1154883 C17.7470329,43.3306626 1.27758647,10 1.27758647,10 C1.27758647,10 -4.28071432,51.5671702 10.2318633,70.0883363 Z" id="path-24"></path>
        <path d="M267.713458,77.9005869 C264.120752,72.7261632 264.120752,58.6642368 264.120752,54.9552252 L264.120752,40.6242335 C264.120752,18.2646327 246.013158,0 223.676308,0 L183.231863,0 L183.231863,81.3757665 C183.231863,103.735367 201.339458,122 223.676308,122 L248.855248,122 C262.820927,122 274.231863,110.620571 274.231863,96.5833333 C274.231863,88.2278689 271.306164,83.0750106 267.713458,77.9005869 Z" id="path-25"></path>
        <rect id="path-26" x="162.231863" y="0" width="41" height="91" rx="20.5"></rect>
        <rect id="path-27" x="218" y="1201" width="394" height="380"></rect>
        <path d="M155.290101,176.905907 C219.672183,179.15261 267.159141,140.646591 267.987668,116.937223 C268.816196,93.2278552 227.84603,51.4830497 159.756055,49.1069546 C91.6660789,46.7308594 28.8496341,84.4852192 28.0082392,108.562805 C27.1668442,132.64039 90.9080181,174.659204 155.290101,176.905907 Z" id="path-28"></path>
    </defs>
    <g id="Page-1" stroke="none" stroke-width="1" fill="none" fill-rule="evenodd">
        <g id="to-outlines">
            <g id="Rectangle-7">
                <use fill="#D7DCE3" fill-rule="evenodd" xlink:href="#path-1"></use>
                <rect stroke="#31415C" stroke-width="14" x="3148" y="1320" width="380" height="366"></rect>
            </g>
            <g id="Rectangle-7">
                <use fill="#D7DCE3" fill-rule="evenodd" xlink:href="#path-2"></use>
                <rect stroke="#31415C" stroke-width="14" x="2708" y="1320" width="380" height="366"></rect>
            </g>
            <g id="Group" transform="translate(3211.000000, 1381.000000)">
                <g id="Combined-Shape">
                    <use fill="#6D7E9A" fill-rule="evenodd" xlink:href="#path-3"></use>
                    <path stroke="#31415C" stroke-width="10" d="M5.22454537,27.1932431 C5.18577589,32.7836923 5.46525078,38.3972561 6.15894484,43.7656335 C7.45746948,53.8146892 10.1074709,61.8229145 14.1675568,67.0044561 L15.2318633,68.3627399 L15.2318633,255.506274 C15.2318633,256.879913 16.3534186,258 17.7376759,258 L33.0904671,258 C34.787616,258 36.6143303,256.452423 36.8919657,254.779173 L49.6316093,178 L178.231863,178 L178.231863,255.506274 C178.231863,256.880588 179.352068,258 180.733156,258 L196.076701,258 C197.693141,258 199.341744,256.543471 199.541525,254.935517 L209.864399,171.851015 L230.176666,66.8106118 L39.9000588,66.1093722 L38.5776083,65.1220598 C31.2284879,59.6353686 24.1797291,52.5068272 17.4619524,44.127544 C13.0353928,38.6061642 8.94446736,32.787108 5.22681347,26.9064147 L5.22454537,27.1932431 Z"></path>
                </g>
                <g id="Combined-Shape">
                    <use fill="#8796AD" fill-rule="evenodd" xlink:href="#path-4"></use>
                    <path stroke="#31415C" stroke-width="9" d="M187.731863,4.5 L187.731863,81.3757665 C187.731863,101.282282 203.856821,117.5 223.676308,117.5 L248.855248,117.5 C260.352487,117.5 269.731863,108.118445 269.731863,96.5833333 C269.731863,90.3991023 268.161843,86.4365885 264.017078,80.4670578 C261.975754,77.5270251 260.848491,73.1484012 260.208474,67.4387586 C259.741789,63.2754283 259.620752,59.6045163 259.620752,54.9552252 L259.620752,40.6242335 C259.620752,20.717718 243.495795,4.5 223.676308,4.5 L187.731863,4.5 Z"></path>
                </g>
                <g id="Rectangle-23">
                    <use fill="#5A6A83" fill-rule="evenodd" xlink:href="#path-5"></use>
                    <rect stroke="#31415C" stroke-width="9" x="166.731863" y="4.5" width="32" height="82" rx="16"></rect>
                </g>
                <rect id="Rectangle-24" fill="#5A6A83" x="223.231863" y="41" width="20" height="30" rx="10"></rect>
            </g>
            <g id="Group-5" transform="translate(2763.000000, 1405.000000)">
                <path d="M140.271158,28.0244305 L119,60 C119,60 145.378319,58.3161765 161.604482,49.6129175 C177.830644,40.9096585 188,25 188,25 L140.271158,28.0244305 Z" id="Path-45" fill="#31415C" transform="translate(153.500000, 42.500000) scale(1, -1) translate(-153.500000, -42.500000) "></path>
                <path d="M140.271158,167.02443 L119,199 C119,199 145.378319,197.316176 161.604482,188.612917 C177.830644,179.909659 188,164 188,164 L140.271158,167.02443 Z" id="Path-45" fill="#31415C"></path>
                <polygon id="Rectangle-9" fill="#31415C" points="9.09494702e-13 58 53 111.949187 9.09494702e-13 167"></polygon>
                <g id="Oval-3" transform="translate(148.000000, 113.000000) rotate(-2.000000) translate(-148.000000, -113.000000) ">
                    <use fill="#6D7E9A" fill-rule="evenodd" xlink:href="#path-6"></use>
                    <path stroke="#31415C" stroke-width="11" d="M155.481914,171.409252 C184.153801,172.409798 211.32089,165.045667 232.591062,151.969661 C250.739005,140.81307 262.14393,126.677656 262.491024,116.745142 C262.848659,106.510942 253.094222,91.670866 236.460701,79.4550648 C216.607244,64.8745149 189.867419,55.6610806 159.564241,54.6036088 C128.850207,53.5317995 97.0124784,60.8992317 71.1221488,73.8348262 C48.3971908,85.1889049 33.832612,99.3765337 33.504884,108.754886 C33.1846998,117.917364 47.3463695,133.104309 69.9417627,146.158604 C95.2732443,160.793649 126.401673,170.394457 155.481914,171.409252 Z"></path>
                </g>
                <circle id="Oval-4" fill="#31415C" cx="216" cy="94" r="10"></circle>
                <circle id="Oval-5" fill="#6D7E9A" cx="252.5" cy="59.5" r="5.5"></circle>
                <circle id="Oval-5" fill="#6D7E9A" cx="234.5" cy="33.5" r="8.5"></circle>
                <circle id="Oval-5" fill="#6D7E9A" cx="255.5" cy="8.5" r="8.5"></circle>
            </g>
            <circle id="Oval-15" stroke="#FFC557" stroke-width="100" cx="1587" cy="856" r="493"></circle>
            <polygon id="Path-41" fill="#F4C2BF" transform="translate(2565.000000, 1510.000000) rotate(268.000000) translate(-2565.000000, -1510.000000) " points="2349 1410 2561.69855 1610 2781 1423.28443"></polygon>
            <polygon id="Path-41" fill="#EAECEF" transform="translate(1172.000000, 1501.000000) rotate(270.000000) translate(-1172.000000, -1501.000000) " points="956 1401 1168.74988 1601 1388 1401"></polygon>
            <path d="M248.5,1515 L1078,1515" id="Line" stroke="#EAECEF" stroke-width="200" stroke-linecap="square"></path>
            <path d="M1615,1511 L2448,1511" id="Path-40" stroke="#F4C2BF" stroke-width="200" stroke-linecap="square"></path>
            <path d="M806.115234,1549 L806.115234,1503.63867 L806.554688,1503.63867 L823.351562,1541.48047 L831.554688,1541.48047 L848.351562,1503.63867 L848.791016,1503.63867 L848.791016,1549 L859.435547,1549 L859.435547,1482.34961 L847.619141,1482.34961 L827.697266,1527.85742 L827.355469,1527.85742 L807.433594,1482.34961 L795.519531,1482.34961 L795.519531,1549 L806.115234,1549 Z M894.494141,1549.87891 C880.529297,1549.87891 871.59375,1540.8457 871.59375,1525.36719 L871.59375,1520.28906 C871.59375,1505.5918 880.431641,1496.46094 894.005859,1496.46094 C907.873047,1496.46094 916.369141,1506.08008 916.369141,1520.72852 L916.369141,1525.70898 L882.921875,1525.70898 L882.921875,1527.02734 C882.921875,1535.42578 887.511719,1540.94336 894.591797,1540.94336 C899.962891,1540.94336 903.722656,1538.25781 904.943359,1533.86328 L915.783203,1533.86328 C914.367188,1542.21289 907.580078,1549.87891 894.494141,1549.87891 Z M882.921875,1517.94531 L905.089844,1517.94531 L905.089844,1517.84766 C905.089844,1510.71875 900.744141,1505.25 894.054688,1505.25 C887.316406,1505.25 882.921875,1510.76758 882.921875,1517.84766 L882.921875,1517.94531 Z M945.519531,1496.60742 C952.453125,1496.60742 957.873047,1499.97656 960.265625,1504.76172 L960.65625,1504.76172 L960.65625,1478.83398 L972.228516,1478.83398 L972.228516,1549 L960.949219,1549 L960.949219,1541.08984 L960.509766,1541.08984 C957.921875,1546.41211 952.501953,1549.68359 945.519531,1549.68359 C932.677734,1549.68359 925.5,1540.16211 925.5,1525.36719 L925.5,1520.875 C925.5,1506.32422 932.970703,1496.60742 945.519531,1496.60742 Z M948.742188,1505.98242 C942.101562,1505.98242 937.267578,1511.06055 937.267578,1521.26562 L937.267578,1525.02539 C937.267578,1535.2793 942.101562,1540.30859 948.839844,1540.30859 C956.164062,1540.30859 960.753906,1534.9375 960.753906,1525.07422 L960.753906,1521.26562 C960.753906,1511.8418 956.115234,1505.98242 948.742188,1505.98242 Z M986.339844,1549 L997.814453,1549 L997.814453,1497.33984 L986.339844,1497.33984 L986.339844,1549 Z M985.363281,1484.64453 C985.363281,1488.35547 988.390625,1490.99219 992.052734,1490.99219 C995.763672,1490.99219 998.791016,1488.35547 998.791016,1484.64453 C998.791016,1480.93359 995.763672,1478.29688 992.052734,1478.29688 C988.390625,1478.29688 985.363281,1480.93359 985.363281,1484.64453 Z M1040.24609,1542.70117 C1038.04883,1546.60742 1033.55664,1549.78125 1025.93945,1549.78125 C1015.92969,1549.78125 1008.99609,1543.77539 1008.99609,1534.15625 C1008.99609,1524.92773 1015.39258,1519.06836 1027.30664,1519.01953 L1040.19727,1519.01953 L1040.19727,1514.23438 C1040.19727,1508.57031 1036.87695,1505.39648 1031.01758,1505.39648 C1025.35352,1505.39648 1022.08203,1508.42383 1021.74023,1512.81836 L1010.90039,1512.81836 C1011.33984,1504.07812 1017.10156,1496.50977 1031.26172,1496.50977 C1042.88281,1496.50977 1051.62305,1502.17383 1051.62305,1513.89258 L1051.62305,1549 L1040.68555,1549 L1040.68555,1542.70117 L1040.24609,1542.70117 Z M1029.55273,1541.13867 C1035.55859,1541.13867 1040.19727,1537.42773 1040.19727,1532.00781 L1040.19727,1526.39258 L1029.45508,1526.39258 C1023.40039,1526.39258 1020.51953,1529.27344 1020.51953,1533.42383 C1020.51953,1538.64844 1024.91406,1541.13867 1029.55273,1541.13867 Z" id="Media" fill="#6E798C"></path>
            <path d="M1366.69922,1803.7334 C1366.69922,1792.21973 1371.66504,1786.55078 1379.26758,1786.55078 C1386.82617,1786.55078 1390.8252,1792.26367 1390.8252,1798.41602 L1403.04199,1798.41602 L1403.04199,1797.1416 C1403.04199,1785.54004 1394.0332,1775.87207 1379.17969,1775.87207 C1363.27148,1775.87207 1353.7793,1786.15527 1353.7793,1803.68945 L1353.7793,1810.45703 C1353.7793,1827.99121 1363.18359,1838.14258 1379.13574,1838.14258 C1394.38477,1838.14258 1403.04199,1828.34277 1403.04199,1817.44434 L1403.04199,1816.12598 L1390.8252,1816.12598 C1390.8252,1822.32227 1386.91406,1827.46387 1379.35547,1827.46387 C1371.62109,1827.46387 1366.69922,1822.05859 1366.69922,1810.50098 L1366.69922,1803.7334 Z M1423.25684,1803.33789 L1423.25684,1810.98438 C1423.25684,1822.19043 1428.70605,1827.63965 1436.35254,1827.63965 C1444.04297,1827.63965 1449.44824,1822.19043 1449.44824,1810.98438 L1449.44824,1803.33789 C1449.44824,1792.17578 1444.04297,1786.375 1436.35254,1786.375 C1428.70605,1786.375 1423.25684,1792.17578 1423.25684,1803.33789 Z M1410.29297,1810.94043 L1410.29297,1803.46973 C1410.29297,1786.41895 1420.09277,1775.87207 1436.39648,1775.87207 C1452.74414,1775.87207 1462.41211,1786.50684 1462.41211,1803.46973 L1462.41211,1810.94043 C1462.41211,1827.85938 1452.65625,1838.14258 1436.30859,1838.14258 C1420.00488,1838.14258 1410.29297,1827.85938 1410.29297,1810.94043 Z M1519.93652,1796.39453 C1519.54102,1785.97949 1511.7627,1775.87207 1495.94238,1775.87207 C1479.59473,1775.87207 1469.9707,1786.59473 1469.9707,1803.07422 L1469.9707,1810.54492 C1469.9707,1826.32129 1477.83691,1838.14258 1495.72266,1838.14258 C1513.69629,1838.14258 1520.02441,1826.01367 1520.02441,1816.3457 L1520.02441,1804.48047 L1496.20605,1804.48047 L1496.20605,1813.75293 L1507.93945,1813.75293 L1507.93945,1817.18066 C1507.93945,1822.89355 1503.3252,1827.55176 1495.89844,1827.55176 C1486.49414,1827.55176 1482.80273,1820.38867 1482.80273,1810.50098 L1482.80273,1803.16211 C1482.80273,1791.69238 1488.20801,1786.46289 1495.7666,1786.46289 C1502.09473,1786.46289 1506.79688,1790.11035 1507.54395,1796.39453 L1519.93652,1796.39453 Z M1541.82129,1837 L1541.82129,1798.24023 L1542.26074,1798.24023 L1568.10059,1837 L1578.47168,1837 L1578.47168,1777.01465 L1566.65039,1777.01465 L1566.65039,1815.51074 L1566.21094,1815.51074 L1540.41504,1777.01465 L1530,1777.01465 L1530,1837 L1541.82129,1837 Z M1603.6084,1837 L1603.6084,1777.01465 L1590.86426,1777.01465 L1590.86426,1837 L1603.6084,1837 Z M1623.7793,1837 L1611.0791,1837 L1630.94238,1777.01465 L1646.01562,1777.01465 L1665.79102,1837 L1652.21191,1837 L1647.77344,1822.10254 L1628.26172,1822.10254 L1623.7793,1837 Z M1638.36914,1788.96777 L1637.79785,1788.96777 L1630.7666,1812.74219 L1645.3125,1812.74219 L1638.36914,1788.96777 Z M1682.00684,1803.7334 C1682.00684,1792.21973 1686.97266,1786.55078 1694.5752,1786.55078 C1702.13379,1786.55078 1706.13281,1792.26367 1706.13281,1798.41602 L1718.34961,1798.41602 L1718.34961,1797.1416 C1718.34961,1785.54004 1709.34082,1775.87207 1694.4873,1775.87207 C1678.5791,1775.87207 1669.08691,1786.15527 1669.08691,1803.68945 L1669.08691,1810.45703 C1669.08691,1827.99121 1678.49121,1838.14258 1694.44336,1838.14258 C1709.69238,1838.14258 1718.34961,1828.34277 1718.34961,1817.44434 L1718.34961,1816.12598 L1706.13281,1816.12598 C1706.13281,1822.32227 1702.22168,1827.46387 1694.66309,1827.46387 C1686.92871,1827.46387 1682.00684,1822.05859 1682.00684,1810.50098 L1682.00684,1803.7334 Z" id="Cogniac" fill="#6E798C"></path>
            <path d="M1962.32422,1477.34961 L1988.30078,1477.34961 C2002.16797,1477.34961 2010.41992,1486.67578 2010.41992,1499.12695 C2010.41992,1511.77344 2002.07031,1520.80664 1988.20312,1520.80664 L1974.14062,1520.80664 L1974.14062,1544 L1962.32422,1544 L1962.32422,1477.34961 Z M1974.14062,1486.96875 L1974.14062,1511.28516 L1982.68555,1511.28516 C1992.54883,1511.28516 1998.4082,1508.74609 1998.4082,1499.12695 C1998.4082,1491.36328 1993.91602,1486.96875 1986.34766,1486.96875 L1974.14062,1486.96875 Z M2020.13672,1544 L2031.9043,1544 L2031.9043,1513.82422 C2031.9043,1506.8418 2034.83398,1501.61719 2043.42773,1501.61719 C2045.2832,1501.61719 2047.23633,1501.71484 2048.21289,1502.00781 L2048.21289,1491.90039 C2047.1875,1491.70508 2045.9668,1491.55859 2044.4043,1491.55859 C2037.27539,1491.55859 2033.41797,1496.00195 2032.14844,1499.22461 L2031.66016,1499.22461 L2031.66016,1492.33984 L2020.13672,1492.33984 L2020.13672,1544 Z M2077.26562,1544.87891 C2063.30078,1544.87891 2054.36523,1535.8457 2054.36523,1520.36719 L2054.36523,1515.28906 C2054.36523,1500.5918 2063.20312,1491.46094 2076.77734,1491.46094 C2090.64453,1491.46094 2099.14062,1501.08008 2099.14062,1515.72852 L2099.14062,1520.70898 L2065.69336,1520.70898 L2065.69336,1522.02734 C2065.69336,1530.42578 2070.2832,1535.94336 2077.36328,1535.94336 C2082.73438,1535.94336 2086.49414,1533.25781 2087.71484,1528.86328 L2098.55469,1528.86328 C2097.13867,1537.21289 2090.35156,1544.87891 2077.26562,1544.87891 Z M2065.69336,1512.94531 L2087.86133,1512.94531 L2087.86133,1512.84766 C2087.86133,1505.71875 2083.51562,1500.25 2076.82617,1500.25 C2070.08789,1500.25 2065.69336,1505.76758 2065.69336,1512.84766 L2065.69336,1512.94531 Z M2128.29102,1491.60742 C2135.22461,1491.60742 2140.64453,1494.97656 2143.03711,1499.76172 L2143.42773,1499.76172 L2143.42773,1473.83398 L2155,1473.83398 L2155,1544 L2143.7207,1544 L2143.7207,1536.08984 L2143.28125,1536.08984 C2140.69336,1541.41211 2135.27344,1544.68359 2128.29102,1544.68359 C2115.44922,1544.68359 2108.27148,1535.16211 2108.27148,1520.36719 L2108.27148,1515.875 C2108.27148,1501.32422 2115.74219,1491.60742 2128.29102,1491.60742 Z M2131.51367,1500.98242 C2124.87305,1500.98242 2120.03906,1506.06055 2120.03906,1516.26562 L2120.03906,1520.02539 C2120.03906,1530.2793 2124.87305,1535.30859 2131.61133,1535.30859 C2138.93555,1535.30859 2143.52539,1529.9375 2143.52539,1520.07422 L2143.52539,1516.26562 C2143.52539,1506.8418 2138.88672,1500.98242 2131.51367,1500.98242 Z M2169.11133,1544 L2180.58594,1544 L2180.58594,1492.33984 L2169.11133,1492.33984 L2169.11133,1544 Z M2168.13477,1479.64453 C2168.13477,1483.35547 2171.16211,1485.99219 2174.82422,1485.99219 C2178.53516,1485.99219 2181.5625,1483.35547 2181.5625,1479.64453 C2181.5625,1475.93359 2178.53516,1473.29688 2174.82422,1473.29688 C2171.16211,1473.29688 2168.13477,1475.93359 2168.13477,1479.64453 Z M2192.45117,1520.17188 C2192.45117,1534.86914 2200.84961,1544.87891 2214.91211,1544.87891 C2227.02148,1544.87891 2234.78516,1538.77539 2236.05469,1528.0332 L2225.26367,1528.0332 C2224.58008,1531.98828 2221.50391,1535.45508 2215.5957,1535.45508 C2208.4668,1535.45508 2204.02344,1529.54688 2204.02344,1520.17188 L2204.02344,1515.875 C2204.02344,1506.54883 2208.32031,1500.83594 2215.54688,1500.83594 C2220.52734,1500.83594 2224.14062,1504.64453 2224.9707,1508.94141 L2235.81055,1508.94141 C2235.41992,1499.61523 2227.70508,1491.46094 2214.96094,1491.46094 C2200.80078,1491.46094 2192.45117,1501.42188 2192.45117,1515.63086 L2192.45117,1520.17188 Z M2251.28906,1492.33984 L2243.86719,1492.33984 L2243.86719,1501.4707 L2251.09375,1501.4707 L2251.09375,1529.44922 C2251.09375,1539.84961 2254.80469,1544.3418 2267.5,1544.3418 C2269.84375,1544.3418 2271.94336,1544.09766 2272.87109,1543.95117 L2272.87109,1535.21094 C2272.23633,1535.30859 2271.30859,1535.30859 2270.33203,1535.30859 C2264.66797,1535.30859 2262.51953,1533.74609 2262.51953,1528.27734 L2262.51953,1501.4707 L2272.57812,1501.4707 L2272.57812,1492.33984 L2262.51953,1492.33984 L2262.51953,1479.83984 L2251.28906,1479.83984 L2251.28906,1492.33984 Z M2284.78516,1544 L2296.25977,1544 L2296.25977,1492.33984 L2284.78516,1492.33984 L2284.78516,1544 Z M2283.80859,1479.64453 C2283.80859,1483.35547 2286.83594,1485.99219 2290.49805,1485.99219 C2294.20898,1485.99219 2297.23633,1483.35547 2297.23633,1479.64453 C2297.23633,1475.93359 2294.20898,1473.29688 2290.49805,1473.29688 C2286.83594,1473.29688 2283.80859,1475.93359 2283.80859,1479.64453 Z M2331.36719,1491.46094 C2346.30859,1491.46094 2354.51172,1501.86133 2354.51172,1516.02148 L2354.51172,1520.02539 C2354.51172,1534.77148 2346.35742,1544.87891 2331.36719,1544.87891 C2316.32812,1544.87891 2308.125,1534.77148 2308.125,1520.07422 L2308.125,1516.07031 C2308.125,1501.91016 2316.37695,1491.46094 2331.36719,1491.46094 Z M2331.36719,1500.54297 C2323.50586,1500.54297 2319.74609,1507.08594 2319.74609,1516.11914 L2319.74609,1520.12305 C2319.74609,1528.96094 2323.45703,1535.69922 2331.36719,1535.69922 C2339.22852,1535.69922 2342.89062,1528.96094 2342.89062,1520.12305 L2342.89062,1516.11914 C2342.89062,1507.03711 2339.17969,1500.54297 2331.36719,1500.54297 Z M2365.83984,1544 L2377.36328,1544 L2377.36328,1513.38477 C2377.36328,1506.69531 2381.02539,1501.4707 2388.30078,1501.4707 C2394.4043,1501.4707 2399.14062,1505.03516 2399.14062,1513.18945 L2399.14062,1544 L2410.66406,1544 L2410.66406,1510.79688 C2410.66406,1498.15039 2403.14453,1491.50977 2392.59766,1491.50977 C2384.05273,1491.50977 2379.31641,1496.19727 2377.60742,1499.66406 L2377.16797,1499.66406 L2377.16797,1492.33984 L2365.83984,1492.33984 L2365.83984,1544 Z M2421.55273,1507.47656 C2421.55273,1516.99805 2429.21875,1520.31836 2438.59375,1522.27148 C2445.38086,1523.63867 2451.43555,1524.46875 2451.43555,1529.69336 C2451.43555,1533.35547 2448.4082,1536.5293 2441.81641,1536.5293 C2435.9082,1536.5293 2432.34375,1533.74609 2431.80664,1529.69336 L2420.57617,1529.69336 C2420.57617,1538.92188 2428.38867,1544.87891 2441.13281,1544.87891 C2454.36523,1544.87891 2462.66602,1538.77539 2462.66602,1528.22852 C2462.66602,1518.51172 2455.3418,1515.48438 2445.77148,1513.77539 C2439.91211,1512.70117 2432.63672,1511.72461 2432.63672,1506.35352 C2432.63672,1502.20312 2436.20117,1499.76172 2441.52344,1499.76172 C2448.31055,1499.76172 2450.50781,1503.66797 2450.84961,1507.13477 L2461.15234,1507.13477 C2461.15234,1497.80859 2454.07227,1491.46094 2441.81641,1491.46094 C2431.2207,1491.46094 2421.55273,1496.19727 2421.55273,1507.47656 Z" id="Predictions" fill="#DE6862"></path>
            <g id="Oval-16">
                <use fill="#F4C2BF" fill-rule="evenodd" xlink:href="#path-7"></use>
                <circle stroke="#FFFFFF" stroke-width="50" cx="1537.5" cy="1501.5" r="235.5"></circle>
            </g>
            <rect id="Rectangle-12" fill="#FFFFFF" transform="translate(1352.000000, 1303.500000) rotate(43.000000) translate(-1352.000000, -1303.500000) " x="1295" y="1211" width="114" height="185"></rect>
            <g id="Rectangle-10">
                <use fill="#DE7F7A" fill-rule="evenodd" xlink:href="#path-8"></use>
                <rect stroke="#9B1710" stroke-width="8" x="2875" y="1608" width="243" height="117"></rect>
            </g>
            <path d="M2922.48511,1697 L2922.48511,1672.25049 L2947.23462,1672.25049 L2947.23462,1663.4082 L2922.48511,1663.4082 L2922.48511,1645.36816 L2949.5896,1645.36816 L2949.5896,1636.34814 L2911.73218,1636.34814 L2911.73218,1697 L2922.48511,1697 Z M2969.45142,1697 L2969.45142,1636.34814 L2958.69849,1636.34814 L2958.69849,1697 L2969.45142,1697 Z M2978.8269,1680.02637 C2979.00464,1688.29102 2984.69214,1698.19971 3001.79907,1698.19971 C3015.84009,1698.19971 3025.43774,1691.35693 3025.43774,1679.44873 C3025.43774,1668.91797 3018.3728,1664.60791 3009.30835,1662.51953 L2999.53296,1660.16455 C2993.97876,1658.87598 2991.17944,1656.16553 2991.17944,1652.2998 C2991.17944,1646.92334 2995.71167,1643.72412 3002.46558,1643.72412 C3010.10815,1643.72412 3013.97388,1647.90088 3014.37378,1652.83301 L3024.59351,1652.83301 C3024.41577,1641.68018 3014.77368,1635.01514 3002.55444,1635.01514 C2990.55737,1635.01514 2980.38208,1641.45801 2980.38208,1653.14404 C2980.38208,1663.09717 2987.44702,1667.80713 2995.44507,1669.62891 L3005.17603,1671.98389 C3011.57446,1673.53906 3014.68481,1675.89404 3014.68481,1680.38184 C3014.68481,1685.8916 3010.24146,1689.44629 3002.55444,1689.44629 C2994.15649,1689.44629 2989.71313,1685.0918 2989.2688,1680.02637 L2978.8269,1680.02637 Z M3084.26782,1697 L3084.26782,1636.34814 L3073.51489,1636.34814 L3073.51489,1661.36426 L3046.49927,1661.36426 L3046.49927,1636.34814 L3035.74634,1636.34814 L3035.74634,1697 L3046.49927,1697 L3046.49927,1670.42871 L3073.51489,1670.42871 L3073.51489,1697 L3084.26782,1697 Z" id="FISH" fill="#9B1710"></path>
            <g id="Rectangle-7">
                <use fill="#D7DCE3" fill-rule="evenodd" xlink:href="#path-9"></use>
                <rect stroke="#31415C" stroke-width="14" x="1884" y="593" width="380" height="366"></rect>
            </g>
            <g id="Group-5" transform="translate(1939.000000, 678.000000)">
                <path d="M140.271158,28.0244305 L119,60 C119,60 145.378319,58.3161765 161.604482,49.6129175 C177.830644,40.9096585 188,25 188,25 L140.271158,28.0244305 Z" id="Path-45" fill="#31415C" transform="translate(153.500000, 42.500000) scale(1, -1) translate(-153.500000, -42.500000) "></path>
                <path d="M140.271158,167.02443 L119,199 C119,199 145.378319,197.316176 161.604482,188.612917 C177.830644,179.909659 188,164 188,164 L140.271158,167.02443 Z" id="Path-45" fill="#31415C"></path>
                <polygon id="Rectangle-9" fill="#31415C" points="0 58 53 111.949187 0 167"></polygon>
                <g id="Oval-3" transform="translate(148.000000, 113.000000) rotate(-2.000000) translate(-148.000000, -113.000000) ">
                    <use fill="#6D7E9A" fill-rule="evenodd" xlink:href="#path-10"></use>
                    <path stroke="#31415C" stroke-width="11" d="M155.481914,171.409252 C184.153801,172.409798 211.32089,165.045667 232.591062,151.969661 C250.739005,140.81307 262.14393,126.677656 262.491024,116.745142 C262.848659,106.510942 253.094222,91.670866 236.460701,79.4550648 C216.607244,64.8745149 189.867419,55.6610806 159.564241,54.6036088 C128.850207,53.5317995 97.0124784,60.8992317 71.1221488,73.8348262 C48.3971908,85.1889049 33.832612,99.3765337 33.504884,108.754886 C33.1846998,117.917364 47.3463695,133.104309 69.9417627,146.158604 C95.2732443,160.793649 126.401673,170.394457 155.481914,171.409252 Z"></path>
                </g>
                <circle id="Oval-4" fill="#31415C" cx="216" cy="94" r="10"></circle>
                <circle id="Oval-5" fill="#6D7E9A" cx="252.5" cy="59.5" r="5.5"></circle>
                <circle id="Oval-5" fill="#6D7E9A" cx="234.5" cy="33.5" r="8.5"></circle>
                <circle id="Oval-5" fill="#6D7E9A" cx="255.5" cy="8.5" r="8.5"></circle>
            </g>
            <g id="Rectangle-10">
                <use fill="#FFCB6A" fill-rule="evenodd" xlink:href="#path-11"></use>
                <rect stroke="#E79600" stroke-width="8" x="2050" y="881" width="243" height="117"></rect>
            </g>
            <path d="M2091.88647,909.348145 L2113.25903,909.348145 C2132.80981,909.348145 2140.23022,921.789551 2140.23022,939.562988 C2140.23022,957.158691 2132.98755,970 2113.25903,970 L2091.88647,970 L2091.88647,909.348145 Z M2102.6394,918.32373 L2102.6394,961.024414 L2111.97046,961.024414 C2123.25659,961.024414 2129.16626,954.714844 2129.16626,939.740723 C2129.16626,927.121582 2124.90063,918.32373 2111.97046,918.32373 L2102.6394,918.32373 Z M2158.89233,935.786133 L2158.89233,944.006348 C2158.89233,956.27002 2165.11304,962.09082 2173.51099,962.09082 C2181.95337,962.09082 2188.08521,956.27002 2188.08521,944.006348 L2188.08521,935.786133 C2188.08521,923.522461 2181.95337,917.257324 2173.51099,917.257324 C2165.11304,917.257324 2158.89233,923.522461 2158.89233,935.786133 Z M2148.0061,943.961914 L2148.0061,935.875 C2148.0061,918.634766 2157.82593,908.148438 2173.55542,908.148438 C2189.37378,908.148438 2199.01587,918.679199 2199.01587,935.875 L2199.01587,943.961914 C2199.01587,961.113281 2189.24048,971.199707 2173.46655,971.199707 C2157.69263,971.199707 2148.0061,961.113281 2148.0061,943.961914 Z M2256.37964,928.499023 C2255.89087,917.968262 2248.11499,908.148438 2232.9187,908.148438 C2217.18921,908.148438 2207.50269,918.634766 2207.50269,935.563965 L2207.50269,943.428711 C2207.50269,959.780273 2215.4563,971.199707 2232.69653,971.199707 C2250.46997,971.199707 2256.51294,958.891602 2256.51294,949.871582 L2256.51294,937.652344 L2232.82983,937.652344 L2232.82983,945.961426 L2246.24878,945.961426 L2246.24878,950.404785 C2246.24878,956.980957 2240.87231,962.046387 2232.7854,962.046387 C2222.78784,962.046387 2218.30005,954.581543 2218.30005,943.428711 L2218.30005,935.608398 C2218.30005,922.855957 2224.60962,917.301758 2232.7854,917.301758 C2239.49487,917.301758 2245.00464,921.078613 2245.89331,928.499023 L2256.37964,928.499023 Z" id="DOG" fill="#E79600"></path>
            <g id="Rectangle-10">
                <use fill="#DE7F7A" fill-rule="evenodd" xlink:href="#path-12"></use>
                <rect stroke="#9B1710" stroke-width="8" x="3315" y="1608" width="243" height="117"></rect>
            </g>
            <path d="M3354.88647,1637.34814 L3376.25903,1637.34814 C3395.80981,1637.34814 3403.23022,1649.78955 3403.23022,1667.56299 C3403.23022,1685.15869 3395.98755,1698 3376.25903,1698 L3354.88647,1698 L3354.88647,1637.34814 Z M3365.6394,1646.32373 L3365.6394,1689.02441 L3374.97046,1689.02441 C3386.25659,1689.02441 3392.16626,1682.71484 3392.16626,1667.74072 C3392.16626,1655.12158 3387.90063,1646.32373 3374.97046,1646.32373 L3365.6394,1646.32373 Z M3421.89233,1663.78613 L3421.89233,1672.00635 C3421.89233,1684.27002 3428.11304,1690.09082 3436.51099,1690.09082 C3444.95337,1690.09082 3451.08521,1684.27002 3451.08521,1672.00635 L3451.08521,1663.78613 C3451.08521,1651.52246 3444.95337,1645.25732 3436.51099,1645.25732 C3428.11304,1645.25732 3421.89233,1651.52246 3421.89233,1663.78613 Z M3411.0061,1671.96191 L3411.0061,1663.875 C3411.0061,1646.63477 3420.82593,1636.14844 3436.55542,1636.14844 C3452.37378,1636.14844 3462.01587,1646.6792 3462.01587,1663.875 L3462.01587,1671.96191 C3462.01587,1689.11328 3452.24048,1699.19971 3436.46655,1699.19971 C3420.69263,1699.19971 3411.0061,1689.11328 3411.0061,1671.96191 Z M3519.37964,1656.49902 C3518.89087,1645.96826 3511.11499,1636.14844 3495.9187,1636.14844 C3480.18921,1636.14844 3470.50269,1646.63477 3470.50269,1663.56396 L3470.50269,1671.42871 C3470.50269,1687.78027 3478.4563,1699.19971 3495.69653,1699.19971 C3513.46997,1699.19971 3519.51294,1686.8916 3519.51294,1677.87158 L3519.51294,1665.65234 L3495.82983,1665.65234 L3495.82983,1673.96143 L3509.24878,1673.96143 L3509.24878,1678.40479 C3509.24878,1684.98096 3503.87231,1690.04639 3495.7854,1690.04639 C3485.78784,1690.04639 3481.30005,1682.58154 3481.30005,1671.42871 L3481.30005,1663.6084 C3481.30005,1650.85596 3487.60962,1645.30176 3495.7854,1645.30176 C3502.49487,1645.30176 3508.00464,1649.07861 3508.89331,1656.49902 L3519.37964,1656.49902 Z" id="DOG" fill="#9B1710"></path>
            <circle id="Oval-14" fill="#ACB3BD" cx="999" cy="800" r="80"></circle>
            <circle id="Oval-14" fill="#31415C" cx="1198" cy="800" r="80"></circle>
            <path d="M988,791 L953,791 L953,811 L988,811 L988,846 L1008,846 L1008,811 L1043,811 L1043,791 L1008,791 L1008,756 L988,756 L988,791 Z" id="Combined-Shape" fill="#31415C" transform="translate(998.000000, 801.000000) rotate(45.000000) translate(-998.000000, -801.000000) "></path>
            <rect id="Rectangle-13" fill="#FFFFFF" x="1666" y="236" width="191" height="266"></rect>
            <polygon id="Path-43" fill="#ACB3BD" points="1153 800.221211 1190.36783 837 1243 775.338816 1231.33398 765 1188.89213 812.272555 1164.81879 788.123407"></polygon>
            <g id="Group-3" transform="translate(1382.000000, 149.000000)">
                <g id="Path-44" stroke-linecap="square">
                    <use fill="#ACB3BD" fill-rule="evenodd" xlink:href="#path-13"></use>
                    <path stroke="#FFFFFF" stroke-width="20" d="M135.698361,383 C83.1284364,383 45.4535926,377.099264 20.1134695,367.071568 C10.7886882,363.381528 3.64776149,359.313694 -1.59233916,355.091533 C-5.16391973,352.213766 -7.40226629,349.651817 -8.58198294,347.679491 L-10.5375035,344.410127 L-9.82207905,340.66834 C-9.80376981,340.57258 -9.77002475,340.398195 -9.72095588,340.147708 C-9.64098225,339.739459 -9.5459127,339.260175 -9.43585867,338.712377 C-9.12366001,337.158396 -8.75288708,335.360765 -8.32442256,333.339637 C-7.10399415,327.582703 -5.66363425,321.1751 -4.01017723,314.277601 C0.717674088,294.555073 6.21327415,274.824635 12.4331951,256.35462 C24.7142519,219.886102 38.205321,192.839333 53.6357868,178.387962 C93.6109884,140.94927 174.54325,139.317687 218.356038,173.21014 C235.491207,186.465469 251.403209,215.504245 266.879693,256.324777 C274.017112,275.150321 280.567169,295.268726 286.396888,315.38029 C288.435945,322.414696 290.240342,328.94915 291.792179,334.819217 C292.336783,336.879266 292.811383,338.711079 293.213716,340.294054 C293.355416,340.851568 293.478189,341.339108 293.581751,341.754096 C293.645118,342.008013 293.6887,342.184202 293.712214,342.280084 L295.120242,348.021605 L290.768616,352.022973 C290.238212,352.510685 289.425119,353.174041 288.303862,353.984397 C286.654814,355.176199 284.645348,356.459473 282.250021,357.806301 C275.732975,361.470665 267.359571,365.062456 256.922017,368.365049 C227.897807,377.548728 188.069905,383 135.698361,383 Z"></path>
                    <path stroke="#31415C" stroke-width="9" d="M278.904845,342.864571 C278.572021,341.566966 278.194614,340.117093 277.77377,338.525187 C276.250199,332.762043 274.476108,326.337339 272.470178,319.417212 C266.740678,299.65139 260.306416,279.888646 253.32144,261.465182 C238.777712,223.104875 223.783305,195.740672 209.483967,184.67907 C171.174688,155.04399 98.2026904,156.515096 63.5475692,188.971278 C50.3830656,201.300466 37.7323899,226.662423 26.1749205,260.982253 C20.1081872,278.997377 14.7245665,298.325785 10.0903394,317.657753 C8.46777907,324.426365 7.05522907,330.710253 5.86034196,336.346705 C5.46205275,338.225492 5.115809,339.901778 4.82242945,341.357943 C5.51157909,342.089028 6.39802156,342.908519 7.50520547,343.800622 C11.5695113,347.075397 17.4401685,350.419621 25.4488983,353.588868 C48.9169326,362.875734 84.8265827,368.5 135.698361,368.5 C186.65941,368.5 225.026701,363.248643 252.547756,354.540584 C262.054539,351.5325 269.512155,348.333538 275.143407,345.167233 C276.611263,344.341897 277.860888,343.570234 278.904845,342.864571 Z"></path>
                </g>
                <g id="Oval-17" stroke-linecap="square">
                    <use fill="#ACB3BD" fill-rule="evenodd" xlink:href="#path-14"></use>
                    <ellipse stroke="#FFFFFF" stroke-width="20" cx="142" cy="97.5" rx="112" ry="107.5"></ellipse>
                    <ellipse stroke="#31415C" stroke-width="9" cx="142" cy="97.5" rx="97.5" ry="93"></ellipse>
                </g>
                <g id="Path-44" stroke-linecap="square">
                    <use fill="#ACB3BD" fill-rule="evenodd" xlink:href="#path-15"></use>
                    <path stroke="#FFFFFF" stroke-width="20" d="M251.418749,319 C208.806325,319 178.195561,314.221117 157.515919,306.064069 C143.91172,300.697917 136.44533,294.701341 133.425334,289.668597 L131.459207,286.392098 L132.179043,282.639374 C132.234824,282.348569 132.340068,281.813054 132.494059,281.04903 C132.747169,279.793227 133.047566,278.341496 133.394547,276.710014 C134.382143,272.066406 135.547389,266.899388 136.884888,261.337916 C140.710015,245.432607 145.156729,229.519378 150.193139,214.612008 C160.194386,185.009122 171.187825,163.040636 183.936525,151.139363 C216.877404,120.388116 283.183355,119.055707 319.241366,146.859332 C333.440303,157.807853 346.396398,181.375985 359.002281,214.517864 C364.778378,229.703689 370.075846,245.922326 374.790342,262.134118 C376.439067,267.803606 377.898189,273.070644 379.153383,277.803304 C379.594171,279.465275 379.978452,280.943702 380.304409,282.222043 C380.502375,282.998422 380.638324,283.541432 380.710429,283.834508 L382.126554,289.590427 L377.756765,293.595542 C376.406577,294.833052 374.050072,296.530656 370.526065,298.505724 C365.153607,301.516776 358.280592,304.455467 349.741374,307.148688 C326.140056,314.592409 293.833297,319 251.418749,319 Z"></path>
                    <path stroke="#31415C" stroke-width="9" d="M365.889456,284.386478 C365.662093,283.508416 365.411425,282.551638 365.13794,281.520474 C363.911177,276.895012 362.482536,271.738003 360.867128,266.183081 C356.253412,250.317843 351.07238,234.455685 345.449544,219.672798 C333.779356,188.990934 321.745335,167.100125 310.387223,158.342108 C279.825537,134.776592 221.456677,135.949507 193.831244,161.738633 C183.354142,171.519305 173.205206,191.800199 163.930332,219.253078 C159.047968,233.704484 154.713881,249.214662 150.982923,264.728404 C149.676505,270.160638 148.539236,275.203597 147.577336,279.726387 C147.298282,281.038482 147.051019,282.227239 146.835985,283.283307 C147.312309,283.757371 147.894551,284.278236 148.592983,284.839176 C151.79955,287.414507 156.457278,290.05923 162.836466,292.575489 C181.648513,299.995868 210.499382,304.5 251.418749,304.5 C292.42716,304.5 323.277761,300.291071 345.379938,293.320171 C352.990259,290.919919 358.949068,288.372114 363.43688,285.856872 C364.36461,285.336916 365.180405,284.845104 365.889456,284.386478 Z"></path>
                </g>
                <g id="Oval-17" stroke-linecap="square">
                    <use fill="#ACB3BD" fill-rule="evenodd" xlink:href="#path-16"></use>
                    <ellipse stroke="#FFFFFF" stroke-width="20" cx="256.5" cy="87.5" rx="92.5" ry="88.5"></ellipse>
                    <ellipse stroke="#31415C" stroke-width="9" cx="256.5" cy="87.5" rx="78" ry="74"></ellipse>
                </g>
                <g id="Path-44">
                    <use fill="#6D7E9A" fill-rule="evenodd" xlink:href="#path-17"></use>
                    <path stroke="#31415C" stroke-width="14" d="M363.002523,283.225273 C362.911726,282.880122 362.81804,282.525422 362.721485,282.161366 C361.499623,277.554386 360.076237,272.416347 358.466574,266.881178 C353.870233,251.075691 348.709277,235.274995 343.112866,220.56158 C331.604004,190.303856 319.728961,168.702241 308.860647,160.321897 C279.246603,137.48709 222.246207,138.632505 195.53723,163.566093 C185.451783,172.981145 175.44845,192.971074 166.298814,220.053262 C161.443009,234.426054 157.12834,249.86674 153.413619,265.312971 C152.11256,270.722922 150.980114,275.744492 150.022644,280.246452 C149.860778,281.007535 149.70971,281.726686 149.569529,282.402047 C149.753423,282.559523 149.949597,282.722255 150.158453,282.889996 C153.162314,285.302525 157.601218,287.822997 163.753801,290.249872 C182.243849,297.543238 210.791289,302 251.418749,302 C292.184722,302 322.784262,297.825323 344.627967,290.935944 C352.078133,288.586204 357.87932,286.105794 362.214606,283.676036 C362.487973,283.522824 362.750559,283.372519 363.002523,283.225273 Z"></path>
                </g>
                <g id="Oval-17">
                    <use fill="#6D7E9A" fill-rule="evenodd" xlink:href="#path-18"></use>
                    <ellipse stroke="#31415C" stroke-width="14" cx="256.5" cy="87.5" rx="75.5" ry="71.5"></ellipse>
                </g>
                <g id="Path-44">
                    <use fill="#8796AD" fill-rule="evenodd" xlink:href="#path-19"></use>
                    <path stroke="#31415C" stroke-width="14" d="M276.033149,341.743182 C275.822031,340.931195 275.596511,340.070878 275.356803,339.164148 C273.838106,333.419439 272.06924,327.013657 270.069021,320.113233 C264.356801,300.407022 257.942503,280.705598 250.98381,262.351459 C236.600902,224.415329 221.764701,197.339845 207.954299,186.656471 C170.593901,157.755422 98.9943632,159.198859 65.2564971,190.795987 C52.4826767,202.759282 39.9768964,227.830754 28.5441835,261.78012 C22.5038619,279.716816 17.1395479,298.975908 12.521463,318.240538 C10.9042296,324.986928 9.49647446,331.249486 8.30599102,336.865165 C8.02478021,338.191676 7.76971087,339.416399 7.54107832,340.533038 C7.98451959,340.945456 8.49389905,341.386705 9.07374765,341.853913 C12.9353303,344.965346 18.5869754,348.184809 26.3687998,351.264264 C49.5140601,360.423401 85.1193666,366 135.698361,366 C186.416221,366 224.531682,360.783111 251.793573,352.157055 C261.139878,349.199749 268.439599,346.068516 273.918129,342.988084 C274.687478,342.555499 275.391786,342.139859 276.033149,341.743182 Z"></path>
                </g>
                <g id="Oval-17">
                    <use fill="#8796AD" fill-rule="evenodd" xlink:href="#path-20"></use>
                    <ellipse stroke="#31415C" stroke-width="14" cx="142" cy="97.5" rx="95" ry="90.5"></ellipse>
                </g>
            </g>
            <polygon id="Path-41" fill="#FFBE42" transform="translate(1864.500000, 440.000000) rotate(133.000000) translate(-1864.500000, -440.000000) " points="1716 372 1862.23025 508 2013 381.033415"></polygon>
            <polygon id="Path-41" fill="#FFBE42" transform="translate(1297.500000, 1259.000000) rotate(-48.000000) translate(-1297.500000, -1259.000000) " points="1149 1191 1295.23025 1327 1446 1200.03341"></polygon>
            <path d="M1431.19336,570.014648 L1418.53711,570.014648 L1418.53711,609.65332 C1418.53711,622.441406 1427.76562,631.142578 1443.05859,631.142578 C1458.30762,631.142578 1467.58008,622.441406 1467.58008,609.65332 L1467.58008,570.014648 L1454.87988,570.014648 L1454.87988,607.895508 C1454.87988,615.9375 1450.08984,620.375977 1443.05859,620.375977 C1435.9834,620.375977 1431.19336,615.981445 1431.19336,607.895508 L1431.19336,570.014648 Z M1475.66602,612.773438 C1475.8418,621.254883 1481.55469,631.142578 1499.2207,631.142578 C1514.07422,631.142578 1523.25879,623.891602 1523.25879,612.114258 C1523.25879,601.21582 1515.83203,596.953125 1507.04297,595.063477 L1497.94629,593.041992 C1492.58496,591.943359 1489.77246,589.614258 1489.77246,586.142578 C1489.77246,581.52832 1493.5957,578.62793 1499.74805,578.62793 C1506.69141,578.62793 1510.16309,582.539062 1510.4707,586.757812 L1522.33594,586.757812 C1522.2041,576.166992 1513.19531,568.78418 1499.79199,568.78418 C1487.0918,568.78418 1477.07227,575.332031 1477.07227,587.109375 C1477.07227,597.304688 1484.10352,602.050781 1492.54102,603.852539 L1501.5498,605.917969 C1507.61426,607.280273 1510.69043,609.257812 1510.69043,613.344727 C1510.69043,618.00293 1506.91113,621.166992 1499.83594,621.166992 C1492.2334,621.166992 1488.23438,617.211914 1487.88281,612.773438 L1475.66602,612.773438 Z M1571.90625,619.716797 L1545.36328,619.716797 L1545.36328,604.467773 L1570.32422,604.467773 L1570.32422,594.887695 L1545.36328,594.887695 L1545.36328,580.297852 L1571.90625,580.297852 L1571.90625,570.014648 L1532.75098,570.014648 L1532.75098,630 L1571.90625,630 L1571.90625,619.716797 Z M1606.97461,570.014648 C1621.38867,570.014648 1628.33203,578.364258 1628.33203,589.174805 C1628.33203,599.0625 1621.87207,604.291992 1617.47754,606.049805 L1629.51855,630 L1615.36816,630 L1604.95312,607.939453 L1595.06543,607.939453 L1595.06543,630 L1582.54102,630 L1582.54102,570.014648 L1606.97461,570.014648 Z M1595.06543,598.579102 L1604.95312,598.579102 C1611.28125,598.579102 1615.23633,595.415039 1615.23633,589.394531 C1615.23633,583.022461 1610.92969,579.814453 1605.12891,579.814453 L1595.06543,579.814453 L1595.06543,598.579102 Z M1634.74805,612.773438 C1634.92383,621.254883 1640.63672,631.142578 1658.30273,631.142578 C1673.15625,631.142578 1682.34082,623.891602 1682.34082,612.114258 C1682.34082,601.21582 1674.91406,596.953125 1666.125,595.063477 L1657.02832,593.041992 C1651.66699,591.943359 1648.85449,589.614258 1648.85449,586.142578 C1648.85449,581.52832 1652.67773,578.62793 1658.83008,578.62793 C1665.77344,578.62793 1669.24512,582.539062 1669.55273,586.757812 L1681.41797,586.757812 C1681.28613,576.166992 1672.27734,568.78418 1658.87402,568.78418 C1646.17383,568.78418 1636.1543,575.332031 1636.1543,587.109375 C1636.1543,597.304688 1643.18555,602.050781 1651.62305,603.852539 L1660.63184,605.917969 C1666.69629,607.280273 1669.77246,609.257812 1669.77246,613.344727 C1669.77246,618.00293 1665.99316,621.166992 1658.91797,621.166992 C1651.31543,621.166992 1647.31641,617.211914 1646.96484,612.773438 L1634.74805,612.773438 Z" id="Users" fill="#6E798C"></path>
            <g id="Group-4" transform="translate(1423.000000, 1386.000000)">
                <path d="M139.679775,223.059888 C139.679775,229.655408 134.424053,235 127.938202,235 C121.458502,235 116.196629,229.655408 116.196629,223.059888 L116.196629,196.415112 C116.196629,189.819592 121.458502,184.475 127.938202,184.475 C134.424053,184.475 139.679775,189.819592 139.679775,196.415112 L139.679775,223.059888 Z M121.72647,0 C128.400653,0 133.808989,5.25880581 133.808989,11.7484614 C133.808989,18.2350399 128.400653,23.5 121.72647,23.5 L101.276695,23.5 C94.5993468,23.5 89.1910112,18.2350399 89.1910112,11.7484614 C89.1910112,5.25880581 94.5993468,0 101.276695,0 L121.72647,0 Z M173.730337,214.43903 C173.730337,219.952117 169.261347,224.425 163.75,224.425 C158.23254,224.425 153.769663,219.952117 153.769663,214.43903 C153.769663,208.922883 158.23254,204.45 163.75,204.45 C169.261347,204.45 173.730337,208.922883 173.730337,214.43903 Z M138.505618,163.325 C138.505618,167.870395 134.821659,171.55 130.288018,171.55 C125.748372,171.55 122.067416,167.870395 122.067416,163.325 C122.067416,158.779605 125.748372,155.1 130.288018,155.1 C134.821659,155.1 138.505618,158.779605 138.505618,163.325 Z M96.2359551,133.951539 C96.2359551,140.441194 90.9822966,145.7 84.4989932,145.7 C78.0156897,145.7 72.752809,140.441194 72.752809,133.951539 C72.752809,127.458806 78.0156897,122.2 84.4989932,122.2 C90.9822966,122.2 96.2359551,127.458806 96.2359551,133.951539 Z M43.0587872,52.875 C49.7324974,52.875 55.1404494,58.1344945 55.1404494,64.625 C55.1404494,71.1093504 49.7324974,76.375 43.0587872,76.375 L22.6072986,76.375 C15.9335883,76.375 10.5224719,71.1093504 10.5224719,64.625 C10.5224719,58.1344945 15.9335883,52.875 22.6072986,52.875 L43.0587872,52.875 Z M173.730337,64.5459954 C173.730337,71.0801417 168.475303,76.375 161.987227,76.375 C155.508375,76.375 150.247191,71.0801417 150.247191,64.5459954 L150.247191,22.4071028 C150.247191,15.8698583 155.508375,10.575 161.987227,10.575 C168.475303,10.575 173.730337,15.8698583 173.730337,22.4071028 L173.730337,64.5459954 Z M45.5548289,152.75 C52.1483359,152.75 57.488764,158.008806 57.488764,164.501539 C57.488764,170.98504 52.1483359,176.25 45.5548289,176.25 L18.9308102,176.25 C12.3404282,176.25 7,170.98504 7,164.501539 C7,158.008806 12.3404282,152.75 18.9308102,152.75 L45.5548289,152.75 Z M195.895692,84.6 C189.487823,84.6 184.297753,79.343583 184.297753,72.85 C184.297753,66.3656496 189.487823,61.1 195.895692,61.1 L204.405098,61.1 C210.80993,61.1 216,66.3656496 216,72.85 C216,79.343583 210.80993,84.6 204.405098,84.6 L195.895692,84.6 Z" id="Combined-Shape" fill="#D9524B"></path>
                <path d="M121.262195,40.2247743 C121.262195,44.7730504 117.572862,48.4525547 113.028904,48.4525547 C108.475918,48.4525547 104.786585,44.7730504 104.786585,40.2247743 C104.786585,35.6795043 108.475918,32 113.028904,32 C117.572862,32 121.262195,35.6795043 121.262195,40.2247743 Z M177.75,181.166617 C177.75,187.704569 172.483007,193 165.983248,193 C159.489653,193 154.213415,187.704569 154.213415,181.166617 L154.213415,139.023164 C154.213415,132.488311 159.489653,127.189781 165.983248,127.189781 C172.483007,127.189781 177.75,132.488311 177.75,139.023164 L177.75,181.166617 Z M226,130.522798 C226,137.122062 220.733007,142.467153 214.233248,142.467153 C207.739653,142.467153 202.463415,137.122062 202.463415,130.522798 L202.463415,103.875534 C202.463415,97.2793976 207.739653,91.9343066 214.233248,91.9343066 C220.733007,91.9343066 226,97.2793976 226,103.875534 L226,130.522798 Z M215.408537,171.259124 C215.408537,178.073792 209.876728,183.59854 203.053352,183.59854 C196.229976,183.59854 190.695122,178.073792 190.695122,171.259124 C190.695122,164.444456 196.229976,158.919708 203.053352,158.919708 C209.876728,158.919708 215.408537,164.444456 215.408537,171.259124 Z M81.7551484,79.0072993 C74.9740642,79.0072993 69.4817073,73.750066 69.4817073,67.2554745 C69.4817073,60.770117 74.9740642,55.5036496 81.7551484,55.5036496 L96.0468459,55.5036496 C102.82793,55.5036496 108.317073,60.770117 108.317073,67.2554745 C108.317073,73.750066 102.82793,79.0072993 96.0468459,79.0072993 L81.7551484,79.0072993 Z M56.5365854,128.172433 C56.5365854,134.771697 51.2695925,140.116788 44.7667517,140.116788 C38.2731567,140.116788 33,134.771697 33,128.172433 L33,101.525169 C33,94.9290326 38.2731567,89.5839416 44.7667517,89.5839416 C51.2695925,89.5839416 56.5365854,94.9290326 56.5365854,101.525169 L56.5365854,128.172433 Z M200.109756,40.2247743 C200.109756,44.7730504 196.419749,48.4525547 191.874961,48.4525547 C187.324153,48.4525547 183.634146,44.7730504 183.634146,40.2247743 C183.634146,35.6795043 187.324153,32 191.874961,32 C196.419749,32 200.109756,35.6795043 200.109756,40.2247743 Z" id="Combined-Shape" fill="#9B1710"></path>
                <path d="M75.4871795,167.636295 C75.4871795,161.11215 80.766068,155.825397 87.2835957,155.825397 C93.7918568,155.825397 99.0769231,161.11215 99.0769231,167.636295 L99.0769231,219.189102 C99.0769231,225.713246 93.7918568,231 87.2835957,231 C80.766068,231 75.4871795,225.713246 75.4871795,219.189102 L75.4871795,167.636295 Z M82.629765,110.015873 C76.0782022,110.015873 70.7692308,104.758843 70.7692308,98.2713793 C70.7692308,91.7900676 76.0782022,86.5238095 82.629765,86.5238095 L119.062543,86.5238095 C125.614105,86.5238095 130.923077,91.7900676 130.923077,98.2713793 C130.923077,104.758843 125.614105,110.015873 119.062543,110.015873 L82.629765,110.015873 Z M56.6153846,199.287252 C56.6153846,205.774716 51.3385689,211.031746 44.8236005,211.031746 C38.3117197,211.031746 33.025641,205.774716 33.025641,199.287252 C33.025641,192.796712 38.3117197,187.539683 44.8236005,187.539683 C51.3385689,187.539683 56.6153846,192.796712 56.6153846,199.287252 Z M24.7692308,99.4459825 C24.7692308,105.933446 19.4917243,111.190476 12.975903,111.190476 C6.46316977,111.190476 1.17948718,105.933446 1.17948718,99.4459825 C1.17948718,92.9554425 6.46316977,87.6984127 12.975903,87.6984127 C19.4917243,87.6984127 24.7692308,92.9554425 24.7692308,99.4459825 Z M141.538462,66.5570579 C141.538462,71.1000873 137.840121,74.7777778 133.285068,74.7777778 C128.723982,74.7777778 125.025641,71.1000873 125.025641,66.5570579 C125.025641,62.0110238 128.723982,58.3333333 133.285068,58.3333333 C137.840121,58.3333333 141.538462,62.0110238 141.538462,66.5570579 Z M138,134.681002 C138,141.171542 132.723184,146.428571 126.208216,146.428571 C119.696335,146.428571 114.410256,141.171542 114.410256,134.681002 C114.410256,128.193538 119.696335,122.936508 126.208216,122.936508 C132.723184,122.936508 138,128.193538 138,134.681002 Z M49.5384615,20.5068345 C49.5384615,14.1493009 54.8173501,9 61.3348778,9 C67.8431388,9 73.1282051,14.1493009 73.1282051,20.5068345 L73.1282051,33.9058639 C73.1282051,40.2633975 67.8431388,45.4126984 61.3348778,45.4126984 C54.8173501,45.4126984 49.5384615,40.2633975 49.5384615,33.9058639 L49.5384615,20.5068345 Z M16.5128205,134.684042 C16.5128205,139.227071 12.8151551,142.904762 8.26093432,142.904762 C3.69766538,142.904762 0,139.227071 0,134.684042 C0,130.138008 3.69766538,126.460317 8.26093432,126.460317 C12.8151551,126.460317 16.5128205,130.138008 16.5128205,134.684042 Z M172.375583,91.2222222 C178.798081,91.2222222 184,96.479252 184,102.969792 C184,109.451104 178.798081,114.714286 172.375583,114.714286 L162.595732,114.714286 C156.176278,114.714286 150.974359,109.451104 150.974359,102.969792 C150.974359,96.479252 156.176278,91.2222222 162.595732,91.2222222 L172.375583,91.2222222 Z" id="Combined-Shape" fill="#C23C35"></path>
            </g>
            <g id="Rectangle-7">
                <use fill="#D7DCE3" fill-rule="evenodd" xlink:href="#path-21"></use>
                <rect stroke="#31415C" stroke-width="14" x="166" y="1433" width="380" height="366"></rect>
            </g>
            <g id="Group-5" transform="translate(221.000000, 1518.000000)">
                <path d="M140.271158,28.0244305 L119,60 C119,60 145.378319,58.3161765 161.604482,49.6129175 C177.830644,40.9096585 188,25 188,25 L140.271158,28.0244305 Z" id="Path-45" fill="#31415C" transform="translate(153.500000, 42.500000) scale(1, -1) translate(-153.500000, -42.500000) "></path>
                <path d="M140.271158,167.02443 L119,199 C119,199 145.378319,197.316176 161.604482,188.612917 C177.830644,179.909659 188,164 188,164 L140.271158,167.02443 Z" id="Path-45" fill="#31415C"></path>
                <polygon id="Rectangle-9" fill="#31415C" points="0 58 53 111.949187 0 167"></polygon>
                <g id="Oval-3" transform="translate(148.000000, 113.000000) rotate(-2.000000) translate(-148.000000, -113.000000) ">
                    <use fill="#6D7E9A" fill-rule="evenodd" xlink:href="#path-22"></use>
                    <path stroke="#31415C" stroke-width="11" d="M155.481914,171.409252 C184.153801,172.409798 211.32089,165.045667 232.591062,151.969661 C250.739005,140.81307 262.14393,126.677656 262.491024,116.745142 C262.848659,106.510942 253.094222,91.670866 236.460701,79.4550648 C216.607244,64.8745149 189.867419,55.6610806 159.564241,54.6036088 C128.850207,53.5317995 97.0124784,60.8992317 71.1221488,73.8348262 C48.3971908,85.1889049 33.832612,99.3765337 33.504884,108.754886 C33.1846998,117.917364 47.3463695,133.104309 69.9417627,146.158604 C95.2732443,160.793649 126.401673,170.394457 155.481914,171.409252 Z"></path>
                </g>
                <circle id="Oval-4" fill="#31415C" cx="216" cy="94" r="10"></circle>
                <circle id="Oval-5" fill="#6D7E9A" cx="252.5" cy="59.5" r="5.5"></circle>
                <circle id="Oval-5" fill="#6D7E9A" cx="234.5" cy="33.5" r="8.5"></circle>
                <circle id="Oval-5" fill="#6D7E9A" cx="255.5" cy="8.5" r="8.5"></circle>
            </g>
            <g id="Rectangle-7">
                <use fill="#D7DCE3" fill-rule="evenodd" xlink:href="#path-23"></use>
                <rect stroke="#31415C" stroke-width="14" x="28" y="1344" width="380" height="366"></rect>
            </g>
            <g id="Group" transform="translate(91.000000, 1405.000000)">
                <g id="Combined-Shape">
                    <use fill="#6D7E9A" fill-rule="evenodd" xlink:href="#path-24"></use>
                    <path stroke="#31415C" stroke-width="10" d="M5.22454537,27.1932431 C5.18577589,32.7836923 5.46525078,38.3972561 6.15894484,43.7656335 C7.45746948,53.8146892 10.1074709,61.8229145 14.1675568,67.0044561 L15.2318633,68.3627399 L15.2318633,255.506274 C15.2318633,256.879913 16.3534186,258 17.7376759,258 L33.0904671,258 C34.787616,258 36.6143303,256.452423 36.8919657,254.779173 L49.6316093,178 L178.231863,178 L178.231863,255.506274 C178.231863,256.880588 179.352068,258 180.733156,258 L196.076701,258 C197.693141,258 199.341744,256.543471 199.541525,254.935517 L209.864399,171.851015 L230.176666,66.8106118 L39.9000588,66.1093722 L38.5776083,65.1220598 C31.2284879,59.6353686 24.1797291,52.5068272 17.4619524,44.127544 C13.0353928,38.6061642 8.94446736,32.787108 5.22681347,26.9064147 L5.22454537,27.1932431 Z"></path>
                </g>
                <g id="Combined-Shape">
                    <use fill="#8796AD" fill-rule="evenodd" xlink:href="#path-25"></use>
                    <path stroke="#31415C" stroke-width="9" d="M187.731863,4.5 L187.731863,81.3757665 C187.731863,101.282282 203.856821,117.5 223.676308,117.5 L248.855248,117.5 C260.352487,117.5 269.731863,108.118445 269.731863,96.5833333 C269.731863,90.3991023 268.161843,86.4365885 264.017078,80.4670578 C261.975754,77.5270251 260.848491,73.1484012 260.208474,67.4387586 C259.741789,63.2754283 259.620752,59.6045163 259.620752,54.9552252 L259.620752,40.6242335 C259.620752,20.717718 243.495795,4.5 223.676308,4.5 L187.731863,4.5 Z"></path>
                </g>
                <g id="Rectangle-23">
                    <use fill="#5A6A83" fill-rule="evenodd" xlink:href="#path-26"></use>
                    <rect stroke="#31415C" stroke-width="9" x="166.731863" y="4.5" width="32" height="82" rx="16"></rect>
                </g>
                <rect id="Rectangle-24" fill="#5A6A83" x="223.231863" y="41" width="20" height="30" rx="10"></rect>
            </g>
            <g id="Rectangle-7">
                <use fill="#D7DCE3" fill-rule="evenodd" xlink:href="#path-27"></use>
                <rect stroke="#31415C" stroke-width="14" x="225" y="1208" width="380" height="366"></rect>
            </g>
            <g id="Group-5" transform="translate(280.000000, 1293.000000)">
                <path d="M140.271158,28.0244305 L119,60 C119,60 145.378319,58.3161765 161.604482,49.6129175 C177.830644,40.9096585 188,25 188,25 L140.271158,28.0244305 Z" id="Path-45" fill="#31415C" transform="translate(153.500000, 42.500000) scale(1, -1) translate(-153.500000, -42.500000) "></path>
                <path d="M140.271158,167.02443 L119,199 C119,199 145.378319,197.316176 161.604482,188.612917 C177.830644,179.909659 188,164 188,164 L140.271158,167.02443 Z" id="Path-45" fill="#31415C"></path>
                <polygon id="Rectangle-9" fill="#31415C" points="0 58 53 111.949187 0 167"></polygon>
                <g id="Oval-3" transform="translate(148.000000, 113.000000) rotate(-2.000000) translate(-148.000000, -113.000000) ">
                    <use fill="#6D7E9A" fill-rule="evenodd" xlink:href="#path-28"></use>
                    <path stroke="#31415C" stroke-width="11" d="M155.481914,171.409252 C184.153801,172.409798 211.32089,165.045667 232.591062,151.969661 C250.739005,140.81307 262.14393,126.677656 262.491024,116.745142 C262.848659,106.510942 253.094222,91.670866 236.460701,79.4550648 C216.607244,64.8745149 189.867419,55.6610806 159.564241,54.6036088 C128.850207,53.5317995 97.0124784,60.8992317 71.1221488,73.8348262 C48.3971908,85.1889049 33.832612,99.3765337 33.504884,108.754886 C33.1846998,117.917364 47.3463695,133.104309 69.9417627,146.158604 C95.2732443,160.793649 126.401673,170.394457 155.481914,171.409252 Z"></path>
                </g>
                <circle id="Oval-4" fill="#31415C" cx="216" cy="94" r="10"></circle>
                <circle id="Oval-5" fill="#6D7E9A" cx="252.5" cy="59.5" r="5.5"></circle>
                <circle id="Oval-5" fill="#6D7E9A" cx="234.5" cy="33.5" r="8.5"></circle>
                <circle id="Oval-5" fill="#6D7E9A" cx="255.5" cy="8.5" r="8.5"></circle>
            </g>
            <rect id="Rectangle-5" fill="#FFFFFF" x="1668" y="1069" width="552" height="190"></rect>
            <path d="M1781.06641,1094.01465 L1770.51953,1094.01465 L1770.51953,1133.8291 C1770.51953,1146.44141 1779.44043,1155.18652 1794.29395,1155.18652 C1809.14746,1155.18652 1818.06836,1146.44141 1818.06836,1133.8291 L1818.06836,1094.01465 L1807.52148,1094.01465 L1807.52148,1132.37891 C1807.52148,1140.94824 1802.24805,1146.0459 1794.29395,1146.0459 C1786.33984,1146.0459 1781.06641,1140.99219 1781.06641,1132.37891 L1781.06641,1094.01465 Z M1830.02148,1154 L1840.39258,1154 L1840.39258,1126.44629 C1840.39258,1120.42578 1843.68848,1115.72363 1850.23633,1115.72363 C1855.72949,1115.72363 1859.99219,1118.93164 1859.99219,1126.27051 L1859.99219,1154 L1870.36328,1154 L1870.36328,1124.11719 C1870.36328,1112.73535 1863.5957,1106.75879 1854.10352,1106.75879 C1846.41309,1106.75879 1842.15039,1110.97754 1840.6123,1114.09766 L1840.2168,1114.09766 L1840.2168,1107.50586 L1830.02148,1107.50586 L1830.02148,1154 Z M1879.9873,1132.55469 C1879.9873,1145.78223 1887.5459,1154.79102 1900.20215,1154.79102 C1911.10059,1154.79102 1918.08789,1149.29785 1919.23047,1139.62988 L1909.51855,1139.62988 C1908.90332,1143.18945 1906.13477,1146.30957 1900.81738,1146.30957 C1894.40137,1146.30957 1890.40234,1140.99219 1890.40234,1132.55469 L1890.40234,1128.6875 C1890.40234,1120.29395 1894.26953,1115.15234 1900.77344,1115.15234 C1905.25586,1115.15234 1908.50781,1118.58008 1909.25488,1122.44727 L1919.01074,1122.44727 C1918.65918,1114.05371 1911.71582,1106.71484 1900.24609,1106.71484 C1887.50195,1106.71484 1879.9873,1115.67969 1879.9873,1128.46777 L1879.9873,1132.55469 Z M1947.35547,1154.79102 C1934.78711,1154.79102 1926.74512,1146.66113 1926.74512,1132.73047 L1926.74512,1128.16016 C1926.74512,1114.93262 1934.69922,1106.71484 1946.91602,1106.71484 C1959.39648,1106.71484 1967.04297,1115.37207 1967.04297,1128.55566 L1967.04297,1133.03809 L1936.94043,1133.03809 L1936.94043,1134.22461 C1936.94043,1141.7832 1941.07129,1146.74902 1947.44336,1146.74902 C1952.27734,1146.74902 1955.66113,1144.33203 1956.75977,1140.37695 L1966.51562,1140.37695 C1965.24121,1147.8916 1959.13281,1154.79102 1947.35547,1154.79102 Z M1936.94043,1126.05078 L1956.8916,1126.05078 L1956.8916,1125.96289 C1956.8916,1119.54688 1952.98047,1114.625 1946.95996,1114.625 C1940.89551,1114.625 1936.94043,1119.59082 1936.94043,1125.96289 L1936.94043,1126.05078 Z M1977.0625,1154 L1987.65332,1154 L1987.65332,1126.8418 C1987.65332,1120.55762 1990.29004,1115.85547 1998.02441,1115.85547 C1999.69434,1115.85547 2001.45215,1115.94336 2002.33105,1116.20703 L2002.33105,1107.11035 C2001.4082,1106.93457 2000.30957,1106.80273 1998.90332,1106.80273 C1992.4873,1106.80273 1989.01562,1110.80176 1987.87305,1113.70215 L1987.43359,1113.70215 L1987.43359,1107.50586 L1977.0625,1107.50586 L1977.0625,1154 Z M2015.82227,1107.50586 L2009.14258,1107.50586 L2009.14258,1115.72363 L2015.64648,1115.72363 L2015.64648,1140.9043 C2015.64648,1150.26465 2018.98633,1154.30762 2030.41211,1154.30762 C2032.52148,1154.30762 2034.41113,1154.08789 2035.24609,1153.95605 L2035.24609,1146.08984 C2034.6748,1146.17773 2033.83984,1146.17773 2032.96094,1146.17773 C2027.86328,1146.17773 2025.92969,1144.77148 2025.92969,1139.84961 L2025.92969,1115.72363 L2034.98242,1115.72363 L2034.98242,1107.50586 L2025.92969,1107.50586 L2025.92969,1096.25586 L2015.82227,1096.25586 L2015.82227,1107.50586 Z M2070.40234,1148.33105 C2068.4248,1151.84668 2064.38184,1154.70312 2057.52637,1154.70312 C2048.51758,1154.70312 2042.27734,1149.29785 2042.27734,1140.64062 C2042.27734,1132.33496 2048.03418,1127.06152 2058.75684,1127.01758 L2070.3584,1127.01758 L2070.3584,1122.71094 C2070.3584,1117.61328 2067.37012,1114.75684 2062.09668,1114.75684 C2056.99902,1114.75684 2054.05469,1117.48145 2053.74707,1121.43652 L2043.99121,1121.43652 C2044.38672,1113.57031 2049.57227,1106.75879 2062.31641,1106.75879 C2072.77539,1106.75879 2080.6416,1111.85645 2080.6416,1122.40332 L2080.6416,1154 L2070.79785,1154 L2070.79785,1148.33105 L2070.40234,1148.33105 Z M2060.77832,1146.9248 C2066.18359,1146.9248 2070.3584,1143.58496 2070.3584,1138.70703 L2070.3584,1133.65332 L2060.69043,1133.65332 C2055.24121,1133.65332 2052.64844,1136.24609 2052.64844,1139.98145 C2052.64844,1144.68359 2056.60352,1146.9248 2060.77832,1146.9248 Z M2092.77051,1154 L2103.09766,1154 L2103.09766,1107.50586 L2092.77051,1107.50586 L2092.77051,1154 Z M2091.8916,1096.08008 C2091.8916,1099.41992 2094.61621,1101.79297 2097.91211,1101.79297 C2101.25195,1101.79297 2103.97656,1099.41992 2103.97656,1096.08008 C2103.97656,1092.74023 2101.25195,1090.36719 2097.91211,1090.36719 C2094.61621,1090.36719 2091.8916,1092.74023 2091.8916,1096.08008 Z M2115.62207,1154 L2125.99316,1154 L2125.99316,1126.44629 C2125.99316,1120.42578 2129.28906,1115.72363 2135.83691,1115.72363 C2141.33008,1115.72363 2145.59277,1118.93164 2145.59277,1126.27051 L2145.59277,1154 L2155.96387,1154 L2155.96387,1124.11719 C2155.96387,1112.73535 2149.19629,1106.75879 2139.7041,1106.75879 C2132.01367,1106.75879 2127.75098,1110.97754 2126.21289,1114.09766 L2125.81738,1114.09766 L2125.81738,1107.50586 L2115.62207,1107.50586 L2115.62207,1154 Z M1739.38428,1174.01465 L1762.76318,1174.01465 C1775.24365,1174.01465 1782.67041,1182.4082 1782.67041,1193.61426 C1782.67041,1204.99609 1775.15576,1213.12598 1762.67529,1213.12598 L1750.01904,1213.12598 L1750.01904,1234 L1739.38428,1234 L1739.38428,1174.01465 Z M1750.01904,1182.67188 L1750.01904,1204.55664 L1757.70947,1204.55664 C1766.58643,1204.55664 1771.85986,1202.27148 1771.85986,1193.61426 C1771.85986,1186.62695 1767.81689,1182.67188 1761.00537,1182.67188 L1750.01904,1182.67188 Z M1791.41553,1234 L1802.00635,1234 L1802.00635,1206.8418 C1802.00635,1200.55762 1804.64307,1195.85547 1812.37744,1195.85547 C1814.04736,1195.85547 1815.80518,1195.94336 1816.68408,1196.20703 L1816.68408,1187.11035 C1815.76123,1186.93457 1814.6626,1186.80273 1813.25635,1186.80273 C1806.84033,1186.80273 1803.36865,1190.80176 1802.22607,1193.70215 L1801.78662,1193.70215 L1801.78662,1187.50586 L1791.41553,1187.50586 L1791.41553,1234 Z M1842.83154,1234.79102 C1830.26318,1234.79102 1822.22119,1226.66113 1822.22119,1212.73047 L1822.22119,1208.16016 C1822.22119,1194.93262 1830.17529,1186.71484 1842.39209,1186.71484 C1854.87256,1186.71484 1862.51904,1195.37207 1862.51904,1208.55566 L1862.51904,1213.03809 L1832.4165,1213.03809 L1832.4165,1214.22461 C1832.4165,1221.7832 1836.54736,1226.74902 1842.91943,1226.74902 C1847.75342,1226.74902 1851.13721,1224.33203 1852.23584,1220.37695 L1861.9917,1220.37695 C1860.71729,1227.8916 1854.60889,1234.79102 1842.83154,1234.79102 Z M1832.4165,1206.05078 L1852.36768,1206.05078 L1852.36768,1205.96289 C1852.36768,1199.54688 1848.45654,1194.625 1842.43604,1194.625 C1836.37158,1194.625 1832.4165,1199.59082 1832.4165,1205.96289 L1832.4165,1206.05078 Z M1888.75439,1186.84668 C1894.99463,1186.84668 1899.87256,1189.87891 1902.02588,1194.18555 L1902.37744,1194.18555 L1902.37744,1170.85059 L1912.79248,1170.85059 L1912.79248,1234 L1902.64111,1234 L1902.64111,1226.88086 L1902.24561,1226.88086 C1899.9165,1231.6709 1895.03857,1234.61523 1888.75439,1234.61523 C1877.19678,1234.61523 1870.73682,1226.0459 1870.73682,1212.73047 L1870.73682,1208.6875 C1870.73682,1195.5918 1877.46045,1186.84668 1888.75439,1186.84668 Z M1891.65479,1195.28418 C1885.67822,1195.28418 1881.32764,1199.85449 1881.32764,1209.03906 L1881.32764,1212.42285 C1881.32764,1221.65137 1885.67822,1226.17773 1891.74268,1226.17773 C1898.33447,1226.17773 1902.46533,1221.34375 1902.46533,1212.4668 L1902.46533,1209.03906 C1902.46533,1200.55762 1898.29053,1195.28418 1891.65479,1195.28418 Z M1925.49268,1234 L1935.81982,1234 L1935.81982,1187.50586 L1925.49268,1187.50586 L1925.49268,1234 Z M1924.61377,1176.08008 C1924.61377,1179.41992 1927.33838,1181.79297 1930.63428,1181.79297 C1933.97412,1181.79297 1936.69873,1179.41992 1936.69873,1176.08008 C1936.69873,1172.74023 1933.97412,1170.36719 1930.63428,1170.36719 C1927.33838,1170.36719 1924.61377,1172.74023 1924.61377,1176.08008 Z M1946.49854,1212.55469 C1946.49854,1225.78223 1954.05713,1234.79102 1966.71338,1234.79102 C1977.61182,1234.79102 1984.59912,1229.29785 1985.7417,1219.62988 L1976.02979,1219.62988 C1975.41455,1223.18945 1972.646,1226.30957 1967.32861,1226.30957 C1960.9126,1226.30957 1956.91357,1220.99219 1956.91357,1212.55469 L1956.91357,1208.6875 C1956.91357,1200.29395 1960.78076,1195.15234 1967.28467,1195.15234 C1971.76709,1195.15234 1975.01904,1198.58008 1975.76611,1202.44727 L1985.52197,1202.44727 C1985.17041,1194.05371 1978.22705,1186.71484 1966.75732,1186.71484 C1954.01318,1186.71484 1946.49854,1195.67969 1946.49854,1208.46777 L1946.49854,1212.55469 Z M1999.45264,1187.50586 L1992.77295,1187.50586 L1992.77295,1195.72363 L1999.27686,1195.72363 L1999.27686,1220.9043 C1999.27686,1230.26465 2002.6167,1234.30762 2014.04248,1234.30762 C2016.15186,1234.30762 2018.0415,1234.08789 2018.87646,1233.95605 L2018.87646,1226.08984 C2018.30518,1226.17773 2017.47021,1226.17773 2016.59131,1226.17773 C2011.49365,1226.17773 2009.56006,1224.77148 2009.56006,1219.84961 L2009.56006,1195.72363 L2018.61279,1195.72363 L2018.61279,1187.50586 L2009.56006,1187.50586 L2009.56006,1176.25586 L1999.45264,1176.25586 L1999.45264,1187.50586 Z M2029.59912,1234 L2039.92627,1234 L2039.92627,1187.50586 L2029.59912,1187.50586 L2029.59912,1234 Z M2028.72021,1176.08008 C2028.72021,1179.41992 2031.44482,1181.79297 2034.74072,1181.79297 C2038.08057,1181.79297 2040.80518,1179.41992 2040.80518,1176.08008 C2040.80518,1172.74023 2038.08057,1170.36719 2034.74072,1170.36719 C2031.44482,1170.36719 2028.72021,1172.74023 2028.72021,1176.08008 Z M2071.52295,1186.71484 C2084.97021,1186.71484 2092.35303,1196.0752 2092.35303,1208.81934 L2092.35303,1212.42285 C2092.35303,1225.69434 2085.01416,1234.79102 2071.52295,1234.79102 C2057.98779,1234.79102 2050.60498,1225.69434 2050.60498,1212.4668 L2050.60498,1208.86328 C2050.60498,1196.11914 2058.03174,1186.71484 2071.52295,1186.71484 Z M2071.52295,1194.88867 C2064.44775,1194.88867 2061.06396,1200.77734 2061.06396,1208.90723 L2061.06396,1212.51074 C2061.06396,1220.46484 2064.40381,1226.5293 2071.52295,1226.5293 C2078.59814,1226.5293 2081.89404,1220.46484 2081.89404,1212.51074 L2081.89404,1208.90723 C2081.89404,1200.7334 2078.5542,1194.88867 2071.52295,1194.88867 Z M2102.54834,1234 L2112.91943,1234 L2112.91943,1206.44629 C2112.91943,1200.42578 2116.21533,1195.72363 2122.76318,1195.72363 C2128.25635,1195.72363 2132.51904,1198.93164 2132.51904,1206.27051 L2132.51904,1234 L2142.89014,1234 L2142.89014,1204.11719 C2142.89014,1192.73535 2136.12256,1186.75879 2126.63037,1186.75879 C2118.93994,1186.75879 2114.67725,1190.97754 2113.13916,1194.09766 L2112.74365,1194.09766 L2112.74365,1187.50586 L2102.54834,1187.50586 L2102.54834,1234 Z M2152.68994,1201.12891 C2152.68994,1209.69824 2159.58936,1212.68652 2168.02686,1214.44434 C2174.13525,1215.6748 2179.58447,1216.42188 2179.58447,1221.12402 C2179.58447,1224.41992 2176.85986,1227.27637 2170.92725,1227.27637 C2165.60986,1227.27637 2162.40186,1224.77148 2161.91846,1221.12402 L2151.81104,1221.12402 C2151.81104,1229.42969 2158.84229,1234.79102 2170.31201,1234.79102 C2182.22119,1234.79102 2189.69189,1229.29785 2189.69189,1219.80566 C2189.69189,1211.06055 2183.1001,1208.33594 2174.48682,1206.79785 C2169.21338,1205.83105 2162.66553,1204.95215 2162.66553,1200.11816 C2162.66553,1196.38281 2165.87354,1194.18555 2170.66357,1194.18555 C2176.77197,1194.18555 2178.74951,1197.70117 2179.05713,1200.82129 L2188.32959,1200.82129 C2188.32959,1192.42773 2181.95752,1186.71484 2170.92725,1186.71484 C2161.39111,1186.71484 2152.68994,1190.97754 2152.68994,1201.12891 Z" id="Uncertain-Prediction" fill="#F3BE71"></path>
            <rect id="Rectangle-5" fill="#FFFFFF" x="823" y="933" width="552" height="136"></rect>
            <path d="M897.140625,1034 L897.140625,1006.80273 L924.337891,1006.80273 L924.337891,997.085938 L897.140625,997.085938 L897.140625,977.261719 L926.925781,977.261719 L926.925781,967.349609 L885.324219,967.349609 L885.324219,1034 L897.140625,1034 Z M957.150391,1034.87891 C943.185547,1034.87891 934.25,1025.8457 934.25,1010.36719 L934.25,1005.28906 C934.25,990.591797 943.087891,981.460938 956.662109,981.460938 C970.529297,981.460938 979.025391,991.080078 979.025391,1005.72852 L979.025391,1010.70898 L945.578125,1010.70898 L945.578125,1012.02734 C945.578125,1020.42578 950.167969,1025.94336 957.248047,1025.94336 C962.619141,1025.94336 966.378906,1023.25781 967.599609,1018.86328 L978.439453,1018.86328 C977.023438,1027.21289 970.236328,1034.87891 957.150391,1034.87891 Z M945.578125,1002.94531 L967.746094,1002.94531 L967.746094,1002.84766 C967.746094,995.71875 963.400391,990.25 956.710938,990.25 C949.972656,990.25 945.578125,995.767578 945.578125,1002.84766 L945.578125,1002.94531 Z M1011.00781,1034.87891 C997.042969,1034.87891 988.107422,1025.8457 988.107422,1010.36719 L988.107422,1005.28906 C988.107422,990.591797 996.945312,981.460938 1010.51953,981.460938 C1024.38672,981.460938 1032.88281,991.080078 1032.88281,1005.72852 L1032.88281,1010.70898 L999.435547,1010.70898 L999.435547,1012.02734 C999.435547,1020.42578 1004.02539,1025.94336 1011.10547,1025.94336 C1016.47656,1025.94336 1020.23633,1023.25781 1021.45703,1018.86328 L1032.29688,1018.86328 C1030.88086,1027.21289 1024.09375,1034.87891 1011.00781,1034.87891 Z M999.435547,1002.94531 L1021.60352,1002.94531 L1021.60352,1002.84766 C1021.60352,995.71875 1017.25781,990.25 1010.56836,990.25 C1003.83008,990.25 999.435547,995.767578 999.435547,1002.84766 L999.435547,1002.94531 Z M1062.0332,981.607422 C1068.9668,981.607422 1074.38672,984.976562 1076.7793,989.761719 L1077.16992,989.761719 L1077.16992,963.833984 L1088.74219,963.833984 L1088.74219,1034 L1077.46289,1034 L1077.46289,1026.08984 L1077.02344,1026.08984 C1074.43555,1031.41211 1069.01562,1034.68359 1062.0332,1034.68359 C1049.19141,1034.68359 1042.01367,1025.16211 1042.01367,1010.36719 L1042.01367,1005.875 C1042.01367,991.324219 1049.48438,981.607422 1062.0332,981.607422 Z M1065.25586,990.982422 C1058.61523,990.982422 1053.78125,996.060547 1053.78125,1006.26562 L1053.78125,1010.02539 C1053.78125,1020.2793 1058.61523,1025.30859 1065.35352,1025.30859 C1072.67773,1025.30859 1077.26758,1019.9375 1077.26758,1010.07422 L1077.26758,1006.26562 C1077.26758,996.841797 1072.62891,990.982422 1065.25586,990.982422 Z M1129.36719,1034.68359 C1122.04297,1034.68359 1116.91602,1031.41211 1114.23047,1026.08984 L1113.79102,1026.08984 L1113.79102,1034 L1102.51172,1034 L1102.51172,963.833984 L1114.03516,963.833984 L1114.03516,989.712891 L1114.52344,989.712891 C1116.91602,985.025391 1122.72656,981.607422 1129.46484,981.607422 C1141.28125,981.607422 1149.33789,990.103516 1149.33789,1005.77734 L1149.33789,1010.46484 C1149.33789,1025.74805 1141.47656,1034.68359 1129.36719,1034.68359 Z M1126.24219,1025.30859 C1132.93164,1025.30859 1137.57031,1019.9375 1137.57031,1010.02539 L1137.57031,1006.31445 C1137.57031,996.353516 1132.93164,991.03125 1126.24219,991.03125 C1118.72266,991.03125 1113.9375,996.304688 1113.9375,1006.31445 L1113.9375,1009.92773 C1113.9375,1019.98633 1118.67383,1025.30859 1126.24219,1025.30859 Z M1189.23047,1027.70117 C1187.0332,1031.60742 1182.54102,1034.78125 1174.92383,1034.78125 C1164.91406,1034.78125 1157.98047,1028.77539 1157.98047,1019.15625 C1157.98047,1009.92773 1164.37695,1004.06836 1176.29102,1004.01953 L1189.18164,1004.01953 L1189.18164,999.234375 C1189.18164,993.570312 1185.86133,990.396484 1180.00195,990.396484 C1174.33789,990.396484 1171.06641,993.423828 1170.72461,997.818359 L1159.88477,997.818359 C1160.32422,989.078125 1166.08594,981.509766 1180.24609,981.509766 C1191.86719,981.509766 1200.60742,987.173828 1200.60742,998.892578 L1200.60742,1034 L1189.66992,1034 L1189.66992,1027.70117 L1189.23047,1027.70117 Z M1178.53711,1026.13867 C1184.54297,1026.13867 1189.18164,1022.42773 1189.18164,1017.00781 L1189.18164,1011.39258 L1178.43945,1011.39258 C1172.38477,1011.39258 1169.50391,1014.27344 1169.50391,1018.42383 C1169.50391,1023.64844 1173.89844,1026.13867 1178.53711,1026.13867 Z M1211.49609,1010.17188 C1211.49609,1024.86914 1219.89453,1034.87891 1233.95703,1034.87891 C1246.06641,1034.87891 1253.83008,1028.77539 1255.09961,1018.0332 L1244.30859,1018.0332 C1243.625,1021.98828 1240.54883,1025.45508 1234.64062,1025.45508 C1227.51172,1025.45508 1223.06836,1019.54688 1223.06836,1010.17188 L1223.06836,1005.875 C1223.06836,996.548828 1227.36523,990.835938 1234.5918,990.835938 C1239.57227,990.835938 1243.18555,994.644531 1244.01562,998.941406 L1254.85547,998.941406 C1254.46484,989.615234 1246.75,981.460938 1234.00586,981.460938 C1219.8457,981.460938 1211.49609,991.421875 1211.49609,1005.63086 L1211.49609,1010.17188 Z M1277.16992,1016.03125 L1281.125,1011.44141 L1296.70117,1034 L1310.4707,1034 L1289.86523,1004.6543 L1309.20117,982.339844 L1295.62695,982.339844 L1277.6582,1004.01953 L1277.16992,1004.01953 L1277.16992,963.833984 L1265.59766,963.833984 L1265.59766,1034 L1277.16992,1034 L1277.16992,1016.03125 Z" id="Feedback" fill="#F3BE71"></path>
        </g>
    </g>
</svg>