<?xml version="1.0" encoding="UTF-8"?>
<svg width="400px" height="330px" viewBox="0 0 400 330" version="1.1" xmlns="http://www.w3.org/2000/svg" xmlns:xlink="http://www.w3.org/1999/xlink">
    <!-- Generator: Sketch 57.1 (83088) - https://sketch.com -->
    <title>new-orleans-atlanta</title>
    <desc>Created with Sketch.</desc>
    <g id="new-orleans-atlanta" stroke="none" stroke-width="1" fill="none" fill-rule="evenodd">
        <polygon id="Path-55" fill="#3561D9" points="-3 257 16.9458259 259.454028 38.2069272 267.253081 46.7113677 265.126066 49.5461812 255.2 58.4049734 259.454028 69.3898757 271.152607 73.6420959 281.078673 89.2335702 288.877725 96.3206039 281.078673 105.888099 281.078673 111.912078 286.041706 111.912078 271.152607 131.047069 279.306161 143.449378 286.041706 131.047069 272.216114 128.566607 265.126066 136.362345 259.454028 128.566607 256.972512 121.833925 253.427488 109.431616 250.591469 96.3206039 246.337441 102.344583 237.474882 116.164298 241.72891 131.047069 243.855924 149.473357 239.601896 170.734458 239.601896 178.175844 239.601896 179.238899 231.448341 183.491119 230.384834 185.617229 239.601896 190.578153 243.855924 203.689165 241.72891 211.130551 234.638863 216.445826 237.474882 221.761101 238.538389 233.454707 236.056872 242.667851 236.056872 241.604796 239.601896 249.754885 246.337441 257.550622 250.591469 262.865897 253.427488 271.015986 258.036019 271.015986 265.126066 277.748668 267.253081 287.316163 260.517536 308.222913 250.591469 322.042629 255.2 329.129663 262.290047 337.634103 271.152607 346.847247 279.306161 351.453819 284.269194 360.312611 292.422749 360.312611 306.602844 360.312611 316.52891 357.832149 324.327962 356.060391 330 400 330 400 -44 -8 -44"></polygon>
        <polygon id="Path-69" fill="#339783" points="270.8125 258.036019 279.330357 259.808531 285.363839 256.618009 285.363839 250.591469 287.493304 227.548815 276.845982 215.850237 276.845982 204.860664 279.330357 198.125118 275.071429 187.135545 279.330357 177.918483 279.330357 155.230332 271.522321 134.669194 257.680804 63.0597156 265.84375 52.0701422 275.071429 37.8900474 279.330357 29.7364929 265.84375 19.1014218 276.845982 10.2388626 275.071429 -1.81421801 265.84375 -1.81421801 262.294643 -14.5763033 265.84375 -22.7298578 262.294643 -37.264455 247.033482 -37.264455 241 -44 400 -44 400 330 355.991071 330 360.25 315.819905 360.25 292.422749 321.919643 255.2 308.078125 250.591469 287.138393 260.517536 276.845982 266.898578 271.522321 264.771564"></polygon>
        <polyline id="Path-56" stroke="#080A23" points="400 -2 283.388742 -2 182.727353 -2 177.765172 4.44776119 137.358839 4.44776119 129.206684 22 110.421284 22 120.345646 10.1791045 115.383465 4.44776119 -3 -2"></polyline>
        <polyline id="Path-57" stroke="#080A23" points="137.529412 5 146 -1.4379562 146 -11.810219 141.764706 -16.1021898 141.764706 -29.6934307 137.529412 -41.1386861 134 -44"></polyline>
        <polyline id="Path-59" stroke="#080A23" points="129.274775 22 129.274775 29.7952756 125.716216 35.8188976 119.310811 43.6141732 116.81982 53.8897638 110.77027 63.1023622 102.585586 71.9606299 100.45045 80.1102362 90.1306306 91.0944882 85.8603604 104.913386 81.9459459 118.023622 81.9459459 129.362205 81.9459459 140.700787 81.9459459 156.645669 81.9459459 164.795276 81.9459459 176.84252 71.6261261 191.724409 67 201.645669 67 212.275591 125.716216 212.275591 122.157658 226.448819 129.274775 247 146 247"></polyline>
        <polyline id="Path-60" stroke="#080A23" points="82 135 48.2133891 135 11.2259414 132.5 -3 130"></polyline>
        <polyline id="Path-61" stroke="#080A23" points="112 59.4516129 180.992629 63 260.599509 63 297.395577 61.2258065 336.314496 59.4516129 358.958231 52 400 52"></polyline>
        <polyline id="Path-62" stroke="#080A23" points="258 63 270.74813 132.129098 279.600998 161.19877 279.600998 177.860656 275.351621 187.077869 279.600998 198.067623 275.351621 206.221311 279.600998 215.793033 283.496259 224.30123 287.745636 227.491803 365.296758 227.491803 369.900249 233.163934 378.753117 236 378.753117 227.491803 378.753117 219.338115 384.418953 219.338115 393.98005 219.338115 400 224.30123"></polyline>
        <polyline id="Path-63" stroke="#080A23" points="279 216 195.132231 216 193 222.693182 199.752066 228.329545 199.752066 236.079545 197.975207 247"></polyline>
        <polyline id="Path-64" stroke="#080A23" points="180 63 167 176.803468 167 247"></polyline>
        <polyline id="Path-67" stroke="#080A23" points="379 -2 376.515152 4.7247191 370.835498 8.26404494 367.285714 13.2191011 359.47619 18.5280899 352.731602 21.7134831 347.406926 20.2977528 340.307359 26.6685393 334.627706 30.2078652 324.333333 36.9325843 317.233766 40.1179775 310.489177 44.011236 306.229437 51.7977528 300.549784 51.7977528 297 61"></polyline>
        <polyline id="Path-68" stroke="#080A23" points="336.647059 59 333.470588 64.6928839 331 70.741573 333.470588 74.6554307 338.764706 74.6554307 342.647059 78.2134831 347.235294 84.6179775 351.823529 91.3782772 357.823529 98.1385768 362.764706 104.898876 368.411765 111.303371 379.352941 123.044944 383.588235 130.161049 391 133.007491 395.235294 149.374532 403 154"></polyline>
        <circle id="Oval-Copy-8" stroke="#000000" stroke-width="2" fill="#FFFFFF" cx="111" cy="251" r="5"></circle>
        <text id="New-Orleans" font-family="NunitoSans-Regular, Nunito Sans" font-size="18" font-weight="normal" line-spacing="20" fill="#FFFFFF">
            <tspan x="58.5" y="235">New Orleans</tspan>
        </text>
        <circle id="Oval-Copy-9" stroke="#000000" stroke-width="2" fill="#FFFFFF" cx="295" cy="99" r="5"></circle>
        <text id="Atlanta" font-family="NunitoSans-Regular, Nunito Sans" font-size="18" font-weight="normal" line-spacing="20" fill="#FFFFFF">
            <tspan x="265.5" y="85">Atlanta</tspan>
        </text>
    </g>
</svg>