<?xml version="1.0" encoding="UTF-8"?>
<svg width="400px" height="330px" viewBox="0 0 400 330" version="1.1" xmlns="http://www.w3.org/2000/svg" xmlns:xlink="http://www.w3.org/1999/xlink">
    <!-- Generator: Sketch 57.1 (83088) - https://sketch.com -->
    <title>new-orleans-atlanta</title>
    <desc>Created with Sketch.</desc>
    <defs>
        <linearGradient x1="50%" y1="0%" x2="50%" y2="100%" id="linearGradient-1">
            <stop stop-color="#080A23" offset="0%"></stop>
            <stop stop-color="#080A23" stop-opacity="0.976470588" offset="1.38241923%"></stop>
            <stop stop-color="#080A23" stop-opacity="0.91372549" offset="5.30728775%"></stop>
            <stop stop-color="#080A23" stop-opacity="0.815686275" offset="11.4410218%"></stop>
            <stop stop-color="#080A23" stop-opacity="0.698039216" offset="19.4500376%"></stop>
            <stop stop-color="#080A23" stop-opacity="0.568627451" offset="29.0007513%"></stop>
            <stop stop-color="#080A23" stop-opacity="0.431372549" offset="39.7595793%"></stop>
            <stop stop-color="#080A23" stop-opacity="0.301960784" offset="51.3929376%"></stop>
            <stop stop-color="#080A23" stop-opacity="0.184313725" offset="63.5672427%"></stop>
            <stop stop-color="#080A23" stop-opacity="0.0862745098" offset="75.9489106%"></stop>
            <stop stop-color="#080A23" stop-opacity="0.0235294118" offset="88.2043576%"></stop>
            <stop stop-color="#080A23" stop-opacity="0" offset="100%"></stop>
        </linearGradient>
        <path d="M73.688,224.72 L74.92,224.72 L74.92,236 L73.912,236 L67.112,226.928 L67.112,236 L65.88,236 L65.88,224.72 L66.888,224.72 L73.688,233.792 L73.688,224.72 Z M84.04,232.304 L78.344,232.304 C78.3866669,233.210671 78.6319978,233.895998 79.08,234.36 C79.5280022,234.824002 80.1626626,235.056 80.984,235.056 C81.8906712,235.056 82.7226629,234.74667 83.48,234.128 L83.912,235.072 C83.570665,235.392002 83.133336,235.645332 82.6,235.832 C82.066664,236.018668 81.5226694,236.112 80.968,236.112 C79.7519939,236.112 78.7946702,235.75467 78.096,235.04 C77.3973298,234.32533 77.048,233.338673 77.048,232.08 C77.048,231.279996 77.2026651,230.573336 77.512,229.96 C77.8213349,229.346664 78.2559972,228.869335 78.816,228.528 C79.3760028,228.186665 80.0133298,228.016 80.728,228.016 C81.7626718,228.016 82.5733304,228.354663 83.16,229.032 C83.7466696,229.709337 84.04,230.639994 84.04,231.824 L84.04,232.304 Z M80.744,229.024 C80.0613299,229.024 79.5146687,229.237331 79.104,229.664 C78.6933313,230.090669 78.450667,230.693329 78.376,231.472 L82.904,231.472 C82.8826666,230.682663 82.6853352,230.077335 82.312,229.656 C81.9386648,229.234665 81.4160034,229.024 80.744,229.024 Z M96.424,228.208 L97.72,228.208 L94.824,236 L93.576,236 L91.384,229.968 L89.176,236 L87.944,236 L85.048,228.208 L86.392,228.208 L88.6,234.464 L90.856,228.208 L91.976,228.208 L94.2,234.464 L96.424,228.208 Z M108.36,236.128 C107.314661,236.128 106.405337,235.893336 105.632,235.424 C104.858663,234.954664 104.264002,234.288004 103.848,233.424 C103.431998,232.559996 103.224,231.541339 103.224,230.368 C103.224,229.183994 103.429331,228.157338 103.84,227.288 C104.250669,226.418662 104.842663,225.752002 105.616,225.288 C106.389337,224.823998 107.303995,224.592 108.36,224.592 C109.416005,224.592 110.330663,224.823998 111.104,225.288 C111.877337,225.752002 112.469331,226.418662 112.88,227.288 C113.290669,228.157338 113.496,229.178661 113.496,230.352 C113.496,231.525339 113.288002,232.546662 112.872,233.416 C112.455998,234.285338 111.861337,234.954664 111.088,235.424 C110.314663,235.893336 109.405339,236.128 108.36,236.128 Z M108.36,235.008 C109.554673,235.008 110.48533,234.605337 111.152,233.8 C111.81867,232.994663 112.152,231.845341 112.152,230.352 C112.152,228.858659 111.821337,227.712 111.16,226.912 C110.498663,226.111996 109.565339,225.712 108.36,225.712 C107.165327,225.712 106.23467,226.114663 105.568,226.92 C104.90133,227.725337 104.568,228.869326 104.568,230.352 C104.568,231.834674 104.90133,232.981329 105.568,233.792 C106.23467,234.602671 107.165327,235.008 108.36,235.008 Z M120.088,229.136 L119.24,229.216 C118.439996,229.290667 117.861335,229.541331 117.504,229.968 C117.146665,230.394669 116.968,230.922664 116.968,231.552 L116.968,236 L115.672,236 L115.672,228.208 L116.936,228.208 L116.936,229.568 C117.373336,228.661329 118.231994,228.154667 119.512,228.048 L119.976,228.016 L120.088,229.136 Z M121.32,236 L121.32,224.72 L122.616,224.72 L122.616,236 L121.32,236 Z M131.56,232.304 L125.864,232.304 C125.906667,233.210671 126.151998,233.895998 126.6,234.36 C127.048002,234.824002 127.682663,235.056 128.504,235.056 C129.410671,235.056 130.242663,234.74667 131,234.128 L131.432,235.072 C131.090665,235.392002 130.653336,235.645332 130.12,235.832 C129.586664,236.018668 129.042669,236.112 128.488,236.112 C127.271994,236.112 126.31467,235.75467 125.616,235.04 C124.91733,234.32533 124.568,233.338673 124.568,232.08 C124.568,231.279996 124.722665,230.573336 125.032,229.96 C125.341335,229.346664 125.775997,228.869335 126.336,228.528 C126.896003,228.186665 127.53333,228.016 128.248,228.016 C129.282672,228.016 130.09333,228.354663 130.68,229.032 C131.26667,229.709337 131.56,230.639994 131.56,231.824 L131.56,232.304 Z M128.264,229.024 C127.58133,229.024 127.034669,229.237331 126.624,229.664 C126.213331,230.090669 125.970667,230.693329 125.896,231.472 L130.424,231.472 C130.402667,230.682663 130.205335,230.077335 129.832,229.656 C129.458665,229.234665 128.936003,229.024 128.264,229.024 Z M136.632,228.016 C137.624005,228.016 138.362664,228.269331 138.848,228.776 C139.333336,229.282669 139.576,230.053328 139.576,231.088 L139.576,236 L138.312,236 L138.312,234.672 C138.109332,235.130669 137.800002,235.485332 137.384,235.736 C136.967998,235.986668 136.488003,236.112 135.944,236.112 C135.442664,236.112 134.981335,236.010668 134.56,235.808 C134.138665,235.605332 133.805335,235.322668 133.56,234.96 C133.314665,234.597332 133.192,234.197336 133.192,233.76 C133.192,233.17333 133.341332,232.717335 133.64,232.392 C133.938668,232.066665 134.42933,231.832001 135.112,231.688 C135.79467,231.543999 136.743994,231.472 137.96,231.472 L138.312,231.472 L138.312,230.944 C138.312,230.29333 138.178668,229.821335 137.912,229.528 C137.645332,229.234665 137.213336,229.088 136.616,229.088 C135.719996,229.088 134.829338,229.365331 133.944,229.92 L133.512,228.976 C133.917335,228.687999 134.40533,228.456001 134.976,228.28 C135.54667,228.103999 136.098664,228.016 136.632,228.016 Z M136.12,235.088 C136.760003,235.088 137.285331,234.872002 137.696,234.44 C138.106669,234.007998 138.312,233.45067 138.312,232.768 L138.312,232.304 L138.024,232.304 C137.085329,232.304 136.370669,232.344 135.88,232.424 C135.389331,232.504 135.040001,232.637332 134.832,232.824 C134.623999,233.010668 134.52,233.285332 134.52,233.648 C134.52,234.064002 134.671998,234.407999 134.976,234.68 C135.280002,234.952001 135.661331,235.088 136.12,235.088 Z M145.864,228.016 C147.730676,228.016 148.664,229.045323 148.664,231.104 L148.664,236 L147.368,236 L147.368,231.184 C147.368,230.458663 147.226668,229.930668 146.944,229.6 C146.661332,229.269332 146.21067,229.104 145.592,229.104 C144.87733,229.104 144.306669,229.322664 143.88,229.76 C143.453331,230.197336 143.24,230.78933 143.24,231.536 L143.24,236 L141.944,236 L141.944,228.208 L143.224,228.208 L143.224,229.488 C143.480001,229.007998 143.837331,228.642668 144.296,228.392 C144.754669,228.141332 145.27733,228.016 145.864,228.016 Z M153.672,236.112 C152.359993,236.112 151.320004,235.776003 150.552,235.104 L150.984,234.144 C151.400002,234.474668 151.823998,234.711999 152.256,234.856 C152.688002,235.000001 153.175997,235.072 153.72,235.072 C154.296003,235.072 154.735998,234.973334 155.04,234.776 C155.344002,234.578666 155.496,234.293335 155.496,233.92 C155.496,233.610665 155.394668,233.365334 155.192,233.184 C154.989332,233.002666 154.653336,232.858667 154.184,232.752 L152.872,232.448 C152.210663,232.298666 151.704002,232.042668 151.352,231.68 C150.999998,231.317332 150.824,230.869336 150.824,230.336 C150.824,229.642663 151.095997,229.082669 151.64,228.656 C152.184003,228.229331 152.909329,228.016 153.816,228.016 C154.360003,228.016 154.877331,228.103999 155.368,228.28 C155.858669,228.456001 156.269332,228.709332 156.6,229.04 L156.168,229.984 C155.45333,229.375997 154.669338,229.072 153.816,229.072 C153.271997,229.072 152.848002,229.175999 152.544,229.384 C152.239998,229.592001 152.088,229.882665 152.088,230.256 C152.088,230.565335 152.181332,230.813332 152.368,231 C152.554668,231.186668 152.855998,231.328 153.272,231.424 L154.6,231.744 C155.325337,231.914668 155.863998,232.173332 156.216,232.52 C156.568002,232.866668 156.744,233.317331 156.744,233.872 C156.744,234.55467 156.469336,235.098665 155.92,235.504 C155.370664,235.909335 154.621338,236.112 153.672,236.112 Z" id="path-2"></path>
        <filter x="-0.8%" y="-6.5%" width="101.7%" height="113.0%" filterUnits="objectBoundingBox" id="filter-3">
            <feOffset dx="0" dy="0.5" in="SourceAlpha" result="shadowOffsetOuter1"></feOffset>
            <feColorMatrix values="0 0 0 0 0   0 0 0 0 0   0 0 0 0 0  0 0 0 1 0" type="matrix" in="shadowOffsetOuter1" result="shadowMatrixOuter1"></feColorMatrix>
            <feOffset dx="0" dy="-0.5" in="SourceAlpha" result="shadowOffsetOuter2"></feOffset>
            <feColorMatrix values="0 0 0 0 0   0 0 0 0 0   0 0 0 0 0  0 0 0 1 0" type="matrix" in="shadowOffsetOuter2" result="shadowMatrixOuter2"></feColorMatrix>
            <feOffset dx="0.5" dy="0" in="SourceAlpha" result="shadowOffsetOuter3"></feOffset>
            <feColorMatrix values="0 0 0 0 0   0 0 0 0 0   0 0 0 0 0  0 0 0 1 0" type="matrix" in="shadowOffsetOuter3" result="shadowMatrixOuter3"></feColorMatrix>
            <feOffset dx="-0.5" dy="0" in="SourceAlpha" result="shadowOffsetOuter4"></feOffset>
            <feColorMatrix values="0 0 0 0 0   0 0 0 0 0   0 0 0 0 0  0 0 0 1 0" type="matrix" in="shadowOffsetOuter4" result="shadowMatrixOuter4"></feColorMatrix>
            <feMerge>
                <feMergeNode in="shadowMatrixOuter1"></feMergeNode>
                <feMergeNode in="shadowMatrixOuter2"></feMergeNode>
                <feMergeNode in="shadowMatrixOuter3"></feMergeNode>
                <feMergeNode in="shadowMatrixOuter4"></feMergeNode>
            </feMerge>
        </filter>
        <path d="M278.968,84 L277.72,81.104 L271.832,81.104 L270.584,84 L269.24,84 L274.2,72.72 L275.336,72.72 L280.296,84 L278.968,84 Z M272.296,80.016 L277.256,80.016 L274.776,74.24 L272.296,80.016 Z M285.032,83.072 C285.266668,83.072 285.501332,83.0560002 285.736,83.024 L285.672,84.048 C285.426665,84.0906669 285.160001,84.112 284.872,84.112 C283.933329,84.112 283.226669,83.8666691 282.752,83.376 C282.277331,82.8853309 282.04,82.202671 282.04,81.328 L282.04,77.232 L280.52,77.232 L280.52,76.208 L282.04,76.208 L282.04,73.84 L283.336,73.84 L283.336,76.208 L285.544,76.208 L285.544,77.232 L283.336,77.232 L283.336,81.232 C283.336,82.4586728 283.901328,83.072 285.032,83.072 Z M287.048,84 L287.048,72.72 L288.344,72.72 L288.344,84 L287.048,84 Z M293.928,76.016 C294.920005,76.016 295.658664,76.2693308 296.144,76.776 C296.629336,77.2826692 296.872,78.0533282 296.872,79.088 L296.872,84 L295.608,84 L295.608,82.672 C295.405332,83.130669 295.096002,83.4853321 294.68,83.736 C294.263998,83.9866679 293.784003,84.112 293.24,84.112 C292.738664,84.112 292.277335,84.0106677 291.856,83.808 C291.434665,83.6053323 291.101335,83.3226685 290.856,82.96 C290.610665,82.5973315 290.488,82.1973355 290.488,81.76 C290.488,81.1733304 290.637332,80.717335 290.936,80.392 C291.234668,80.066665 291.72533,79.8320007 292.408,79.688 C293.09067,79.5439993 294.039994,79.472 295.256,79.472 L295.608,79.472 L295.608,78.944 C295.608,78.2933301 295.474668,77.8213348 295.208,77.528 C294.941332,77.2346652 294.509336,77.088 293.912,77.088 C293.015996,77.088 292.125338,77.3653306 291.24,77.92 L290.808,76.976 C291.213335,76.6879986 291.70133,76.4560009 292.272,76.28 C292.84267,76.1039991 293.394664,76.016 293.928,76.016 Z M293.416,83.088 C294.056003,83.088 294.581331,82.8720022 294.992,82.44 C295.402669,82.0079978 295.608,81.4506701 295.608,80.768 L295.608,80.304 L295.32,80.304 C294.381329,80.304 293.666669,80.3439996 293.176,80.424 C292.685331,80.5040004 292.336001,80.6373324 292.128,80.824 C291.919999,81.0106676 291.816,81.2853315 291.816,81.648 C291.816,82.0640021 291.967998,82.4079986 292.272,82.68 C292.576002,82.9520014 292.957331,83.088 293.416,83.088 Z M303.16,76.016 C305.026676,76.016 305.96,77.045323 305.96,79.104 L305.96,84 L304.664,84 L304.664,79.184 C304.664,78.458663 304.522668,77.9306683 304.24,77.6 C303.957332,77.2693317 303.50667,77.104 302.888,77.104 C302.17333,77.104 301.602669,77.3226645 301.176,77.76 C300.749331,78.1973355 300.536,78.7893296 300.536,79.536 L300.536,84 L299.24,84 L299.24,76.208 L300.52,76.208 L300.52,77.488 C300.776001,77.0079976 301.133331,76.6426679 301.592,76.392 C302.050669,76.1413321 302.57333,76.016 303.16,76.016 Z M311.752,83.072 C311.986668,83.072 312.221332,83.0560002 312.456,83.024 L312.392,84.048 C312.146665,84.0906669 311.880001,84.112 311.592,84.112 C310.653329,84.112 309.946669,83.8666691 309.472,83.376 C308.997331,82.8853309 308.76,82.202671 308.76,81.328 L308.76,77.232 L307.24,77.232 L307.24,76.208 L308.76,76.208 L308.76,73.84 L310.056,73.84 L310.056,76.208 L312.264,76.208 L312.264,77.232 L310.056,77.232 L310.056,81.232 C310.056,82.4586728 310.621328,83.072 311.752,83.072 Z M316.936,76.016 C317.928005,76.016 318.666664,76.2693308 319.152,76.776 C319.637336,77.2826692 319.88,78.0533282 319.88,79.088 L319.88,84 L318.616,84 L318.616,82.672 C318.413332,83.130669 318.104002,83.4853321 317.688,83.736 C317.271998,83.9866679 316.792003,84.112 316.248,84.112 C315.746664,84.112 315.285335,84.0106677 314.864,83.808 C314.442665,83.6053323 314.109335,83.3226685 313.864,82.96 C313.618665,82.5973315 313.496,82.1973355 313.496,81.76 C313.496,81.1733304 313.645332,80.717335 313.944,80.392 C314.242668,80.066665 314.73333,79.8320007 315.416,79.688 C316.09867,79.5439993 317.047994,79.472 318.264,79.472 L318.616,79.472 L318.616,78.944 C318.616,78.2933301 318.482668,77.8213348 318.216,77.528 C317.949332,77.2346652 317.517336,77.088 316.92,77.088 C316.023996,77.088 315.133338,77.3653306 314.248,77.92 L313.816,76.976 C314.221335,76.6879986 314.70933,76.4560009 315.28,76.28 C315.85067,76.1039991 316.402664,76.016 316.936,76.016 Z M316.424,83.088 C317.064003,83.088 317.589331,82.8720022 318,82.44 C318.410669,82.0079978 318.616,81.4506701 318.616,80.768 L318.616,80.304 L318.328,80.304 C317.389329,80.304 316.674669,80.3439996 316.184,80.424 C315.693331,80.5040004 315.344001,80.6373324 315.136,80.824 C314.927999,81.0106676 314.824,81.2853315 314.824,81.648 C314.824,82.0640021 314.975998,82.4079986 315.28,82.68 C315.584002,82.9520014 315.965331,83.088 316.424,83.088 Z" id="path-4"></path>
        <filter x="-1.5%" y="-6.6%" width="103.0%" height="113.2%" filterUnits="objectBoundingBox" id="filter-5">
            <feOffset dx="0" dy="0.5" in="SourceAlpha" result="shadowOffsetOuter1"></feOffset>
            <feColorMatrix values="0 0 0 0 0   0 0 0 0 0   0 0 0 0 0  0 0 0 1 0" type="matrix" in="shadowOffsetOuter1" result="shadowMatrixOuter1"></feColorMatrix>
            <feOffset dx="0" dy="-0.5" in="SourceAlpha" result="shadowOffsetOuter2"></feOffset>
            <feColorMatrix values="0 0 0 0 0   0 0 0 0 0   0 0 0 0 0  0 0 0 1 0" type="matrix" in="shadowOffsetOuter2" result="shadowMatrixOuter2"></feColorMatrix>
            <feOffset dx="0.5" dy="0" in="SourceAlpha" result="shadowOffsetOuter3"></feOffset>
            <feColorMatrix values="0 0 0 0 0   0 0 0 0 0   0 0 0 0 0  0 0 0 1 0" type="matrix" in="shadowOffsetOuter3" result="shadowMatrixOuter3"></feColorMatrix>
            <feOffset dx="-0.5" dy="0" in="SourceAlpha" result="shadowOffsetOuter4"></feOffset>
            <feColorMatrix values="0 0 0 0 0   0 0 0 0 0   0 0 0 0 0  0 0 0 1 0" type="matrix" in="shadowOffsetOuter4" result="shadowMatrixOuter4"></feColorMatrix>
            <feMerge>
                <feMergeNode in="shadowMatrixOuter1"></feMergeNode>
                <feMergeNode in="shadowMatrixOuter2"></feMergeNode>
                <feMergeNode in="shadowMatrixOuter3"></feMergeNode>
                <feMergeNode in="shadowMatrixOuter4"></feMergeNode>
            </feMerge>
        </filter>
        <path d="M201.135,103.38 C201.541669,103.486667 201.856666,103.686665 202.08,103.98 C202.303334,104.273335 202.415,104.639998 202.415,105.08 C202.415,105.700003 202.211669,106.174998 201.805,106.505 C201.398331,106.835002 200.82167,107 200.075,107 L197.135,107 L197.135,99.95 L199.965,99.95 C200.69167,99.95 201.254998,100.109998 201.655,100.43 C202.055002,100.750002 202.255,101.20333 202.255,101.79 C202.255,102.170002 202.156668,102.496665 201.96,102.77 C201.763332,103.043335 201.488335,103.246666 201.135,103.38 Z M197.945,103.08 L199.845,103.08 C200.371669,103.08 200.769999,102.973334 201.04,102.76 C201.310001,102.546666 201.445,102.236669 201.445,101.83 C201.445,101.029996 200.911672,100.63 199.845,100.63 L197.945,100.63 L197.945,103.08 Z M199.995,106.32 C200.548336,106.32 200.956665,106.218334 201.22,106.015 C201.483335,105.811666 201.615,105.493336 201.615,105.06 C201.615,104.193329 201.075005,103.76 199.995,103.76 L197.945,103.76 L197.945,106.32 L199.995,106.32 Z M203.755,107 L203.755,102.13 L204.565,102.13 L204.565,107 L203.755,107 Z M203.675,100.02 L204.655,100.02 L204.655,100.93 L203.675,100.93 L203.675,100.02 Z M208.835,102.71 L208.305,102.76 C207.804998,102.806667 207.443334,102.963332 207.22,103.23 C206.996666,103.496668 206.885,103.826665 206.885,104.22 L206.885,107 L206.075,107 L206.075,102.13 L206.865,102.13 L206.865,102.98 C207.138335,102.413331 207.674996,102.096667 208.475,102.03 L208.765,102.01 L208.835,102.71 Z M215.025,102.01 C216.105,102.01 216.645,102.653327 216.645,103.94 L216.645,107 L215.835,107 L215.835,103.98 C215.835,103.533331 215.756667,103.206668 215.6,103 C215.443333,102.793332 215.191668,102.69 214.845,102.69 C214.438331,102.69 214.118335,102.826665 213.885,103.1 C213.651666,103.373335 213.535,103.746664 213.535,104.22 L213.535,107 L212.725,107 L212.725,103.98 C212.725,103.526664 212.645001,103.198334 212.485,102.995 C212.324999,102.791666 212.071668,102.69 211.725,102.69 C211.318331,102.69 210.998334,102.826665 210.765,103.1 C210.531666,103.373335 210.415,103.746664 210.415,104.22 L210.415,107 L209.605,107 L209.605,102.13 L210.405,102.13 L210.405,102.9 C210.551667,102.613332 210.754999,102.393334 211.015,102.24 C211.275001,102.086666 211.574998,102.01 211.915,102.01 C212.668337,102.01 213.164999,102.329997 213.405,102.97 C213.545001,102.669998 213.758332,102.435001 214.045,102.265 C214.331668,102.094999 214.658332,102.01 215.025,102.01 Z M218.125,107 L218.125,102.13 L218.935,102.13 L218.935,107 L218.125,107 Z M218.045,100.02 L219.025,100.02 L219.025,100.93 L218.045,100.93 L218.045,100.02 Z M222.895,102.01 C224.061672,102.01 224.645,102.653327 224.645,103.94 L224.645,107 L223.835,107 L223.835,103.99 C223.835,103.536664 223.746668,103.206668 223.57,103 C223.393332,102.793332 223.111669,102.69 222.725,102.69 C222.278331,102.69 221.921668,102.826665 221.655,103.1 C221.388332,103.373335 221.255,103.743331 221.255,104.21 L221.255,107 L220.445,107 L220.445,102.13 L221.245,102.13 L221.245,102.93 C221.405001,102.629998 221.628332,102.401667 221.915,102.245 C222.201668,102.088333 222.528332,102.01 222.895,102.01 Z M230.485,102.13 L230.485,106.67 C230.485,107.39667 230.298335,107.944998 229.925,108.315 C229.551665,108.685002 228.998337,108.87 228.265,108.87 C227.411662,108.87 226.695003,108.650002 226.115,108.21 L226.385,107.61 C226.711668,107.823334 227.018332,107.976666 227.305,108.07 C227.591668,108.163334 227.911665,108.21 228.265,108.21 C228.731669,108.21 229.084999,108.085001 229.325,107.835 C229.565001,107.584999 229.685,107.220002 229.685,106.74 L229.685,105.88 C229.544999,106.193335 229.330001,106.433333 229.04,106.6 C228.749999,106.766667 228.408335,106.85 228.015,106.85 C227.588331,106.85 227.210002,106.750001 226.88,106.55 C226.549998,106.349999 226.293334,106.066669 226.11,105.7 C225.926666,105.333331 225.835,104.910002 225.835,104.43 C225.835,103.949998 225.926666,103.526668 226.11,103.16 C226.293334,102.793331 226.549998,102.51 226.88,102.31 C227.210002,102.109999 227.588331,102.01 228.015,102.01 C228.401669,102.01 228.738332,102.093333 229.025,102.26 C229.311668,102.426667 229.528333,102.663332 229.675,102.97 L229.675,102.13 L230.485,102.13 Z M228.175,106.18 C228.641669,106.18 229.008332,106.025002 229.275,105.715 C229.541668,105.404998 229.675,104.976669 229.675,104.43 C229.675,103.889997 229.543335,103.465002 229.28,103.155 C229.016665,102.844998 228.648336,102.69 228.175,102.69 C227.701664,102.69 227.330001,102.844998 227.06,103.155 C226.789999,103.465002 226.655,103.889997 226.655,104.43 C226.655,104.976669 226.789999,105.404998 227.06,105.715 C227.330001,106.025002 227.701664,106.18 228.175,106.18 Z M234.435,102.01 C235.601673,102.01 236.185,102.653327 236.185,103.94 L236.185,107 L235.375,107 L235.375,103.99 C235.375,103.536664 235.286668,103.206668 235.11,103 C234.933332,102.793332 234.651669,102.69 234.265,102.69 C233.818331,102.69 233.461668,102.826665 233.195,103.1 C232.928332,103.373335 232.795,103.743331 232.795,104.21 L232.795,107 L231.985,107 L231.985,99.95 L232.795,99.95 L232.795,102.91 C232.955001,102.616665 233.176665,102.393334 233.46,102.24 C233.743335,102.086666 234.068331,102.01 234.435,102.01 Z M239.645,102.01 C240.265003,102.01 240.726665,102.168332 241.03,102.485 C241.333335,102.801668 241.485,103.28333 241.485,103.93 L241.485,107 L240.695,107 L240.695,106.17 C240.568333,106.456668 240.375001,106.678333 240.115,106.835 C239.854999,106.991667 239.555002,107.07 239.215,107.07 C238.901665,107.07 238.613335,107.006667 238.35,106.88 C238.086665,106.753333 237.878334,106.576668 237.725,106.35 C237.571666,106.123332 237.495,105.873335 237.495,105.6 C237.495,105.233332 237.588332,104.948334 237.775,104.745 C237.961668,104.541666 238.268331,104.395 238.695,104.305 C239.121669,104.215 239.714996,104.17 240.475,104.17 L240.695,104.17 L240.695,103.84 C240.695,103.433331 240.611668,103.138334 240.445,102.955 C240.278333,102.771666 240.008335,102.68 239.635,102.68 C239.074997,102.68 238.518336,102.853332 237.965,103.2 L237.695,102.61 C237.948335,102.429999 238.253332,102.285001 238.61,102.175 C238.966668,102.064999 239.311665,102.01 239.645,102.01 Z M239.325,106.43 C239.725002,106.43 240.053332,106.295001 240.31,106.025 C240.566668,105.754999 240.695,105.406669 240.695,104.98 L240.695,104.69 L240.515,104.69 C239.92833,104.69 239.481668,104.715 239.175,104.765 C238.868332,104.815 238.650001,104.898333 238.52,105.015 C238.389999,105.131667 238.325,105.303332 238.325,105.53 C238.325,105.790001 238.419999,106.004999 238.61,106.175 C238.800001,106.345001 239.038332,106.43 239.325,106.43 Z M248.385,102.01 C249.465,102.01 250.005,102.653327 250.005,103.94 L250.005,107 L249.195,107 L249.195,103.98 C249.195,103.533331 249.116667,103.206668 248.96,103 C248.803333,102.793332 248.551668,102.69 248.205,102.69 C247.798331,102.69 247.478335,102.826665 247.245,103.1 C247.011665,103.373335 246.895,103.746664 246.895,104.22 L246.895,107 L246.085,107 L246.085,103.98 C246.085,103.526664 246.005001,103.198334 245.845,102.995 C245.684999,102.791666 245.431668,102.69 245.085,102.69 C244.678331,102.69 244.358335,102.826665 244.125,103.1 C243.891665,103.373335 243.775,103.746664 243.775,104.22 L243.775,107 L242.965,107 L242.965,102.13 L243.765,102.13 L243.765,102.9 C243.911667,102.613332 244.114999,102.393334 244.375,102.24 C244.635001,102.086666 244.934998,102.01 245.275,102.01 C246.028337,102.01 246.524999,102.329997 246.765,102.97 C246.905001,102.669998 247.118332,102.435001 247.405,102.265 C247.691668,102.094999 248.018331,102.01 248.385,102.01 Z" id="path-6"></path>
        <filter x="-1.4%" y="-8.4%" width="102.8%" height="116.8%" filterUnits="objectBoundingBox" id="filter-7">
            <feOffset dx="0" dy="0.5" in="SourceAlpha" result="shadowOffsetOuter1"></feOffset>
            <feColorMatrix values="0 0 0 0 0   0 0 0 0 0   0 0 0 0 0  0 0 0 1 0" type="matrix" in="shadowOffsetOuter1" result="shadowMatrixOuter1"></feColorMatrix>
            <feOffset dx="0" dy="-0.5" in="SourceAlpha" result="shadowOffsetOuter2"></feOffset>
            <feColorMatrix values="0 0 0 0 0   0 0 0 0 0   0 0 0 0 0  0 0 0 1 0" type="matrix" in="shadowOffsetOuter2" result="shadowMatrixOuter2"></feColorMatrix>
            <feOffset dx="0.5" dy="0" in="SourceAlpha" result="shadowOffsetOuter3"></feOffset>
            <feColorMatrix values="0 0 0 0 0   0 0 0 0 0   0 0 0 0 0  0 0 0 1 0" type="matrix" in="shadowOffsetOuter3" result="shadowMatrixOuter3"></feColorMatrix>
            <feOffset dx="-0.5" dy="0" in="SourceAlpha" result="shadowOffsetOuter4"></feOffset>
            <feColorMatrix values="0 0 0 0 0   0 0 0 0 0   0 0 0 0 0  0 0 0 1 0" type="matrix" in="shadowOffsetOuter4" result="shadowMatrixOuter4"></feColorMatrix>
            <feMerge>
                <feMergeNode in="shadowMatrixOuter1"></feMergeNode>
                <feMergeNode in="shadowMatrixOuter2"></feMergeNode>
                <feMergeNode in="shadowMatrixOuter3"></feMergeNode>
                <feMergeNode in="shadowMatrixOuter4"></feMergeNode>
            </feMerge>
        </filter>
    </defs>
    <g id="new-orleans-atlanta" stroke="none" stroke-width="1" fill="none" fill-rule="evenodd">
        <g id="Group" transform="translate(-8.000000, -44.000000)">
            <polygon id="Path-55" fill="#3561D9" points="5 301 24.9458259 303.454028 46.2069272 311.253081 54.7113677 309.126066 57.5461812 299.2 66.4049734 303.454028 77.3898757 315.152607 81.6420959 325.078673 97.2335702 332.877725 104.320604 325.078673 113.888099 325.078673 119.912078 330.041706 119.912078 315.152607 139.047069 323.306161 151.449378 330.041706 139.047069 316.216114 136.566607 309.126066 144.362345 303.454028 136.566607 300.972512 129.833925 297.427488 117.431616 294.591469 104.320604 290.337441 110.344583 281.474882 124.164298 285.72891 139.047069 287.855924 157.473357 283.601896 178.734458 283.601896 186.175844 283.601896 187.238899 275.448341 191.491119 274.384834 193.617229 283.601896 198.578153 287.855924 211.689165 285.72891 219.130551 278.638863 224.445826 281.474882 229.761101 282.538389 241.454707 280.056872 250.667851 280.056872 249.604796 283.601896 257.754885 290.337441 265.550622 294.591469 270.865897 297.427488 279.015986 302.036019 279.015986 309.126066 285.748668 311.253081 295.316163 304.517536 316.222913 294.591469 330.042629 299.2 337.129663 306.290047 345.634103 315.152607 354.847247 323.306161 359.453819 328.269194 368.312611 336.422749 368.312611 350.602844 368.312611 360.52891 365.832149 368.327962 364.060391 374 408 374 408 -6.64357458e-13 0 0"></polygon>
            <polygon id="Path-69" fill="#339783" points="279.015986 302.036019 287.330357 303.808531 293.363839 300.618009 293.363839 294.591469 295.493304 271.548815 291.496259 268.30123 287.590927 260 283.351621 250.221311 287.330357 242.125118 283.071429 231.135545 287.330357 221.918483 287.590927 205.052677 279.522321 178.669194 265.680804 107.059716 273.84375 96.0701422 283.071429 81.8900474 287.330357 73.7364929 273.84375 63.1014218 284.845982 54.2388626 283.071429 42.185782 273.84375 42.185782 270.294643 29.4236967 273.84375 21.2701422 270.294643 6.73554502 255.033482 6.73554502 249 0 408 0 408 374 363.991071 374 368.25 359.819905 368.25 336.422749 345.027488 314.742656 329.919643 299.2 316.078125 294.591469 295.142896 304.827052 285.748668 311.253081 279.015986 309.126066"></polygon>
            <polyline id="Path-56" stroke="#080A23" points="408 42 291.388742 42 190.727353 42 185.765172 48.4477612 145.358839 48.4477612 137.206684 66 118.421284 66 128.345646 54.1791045 123.383465 48.4477612 5 42"></polyline>
            <polyline id="Path-57" stroke="#080A23" points="145.529412 49 154 42.5620438 154 32.189781 149.764706 27.8978102 149.764706 14.3065693 145.529412 2.86131387 142 0"></polyline>
            <polyline id="Path-59" stroke="#080A23" points="137.274775 66 137.274775 73.7952756 133.716216 79.8188976 127.310811 87.6141732 124.81982 97.8897638 118.77027 107.102362 110.585586 115.96063 108.45045 124.110236 98.1306306 135.094488 93.8603604 148.913386 89.9459459 162.023622 89.9459459 173.362205 89.9459459 184.700787 89.9459459 200.645669 89.9459459 208.795276 89.9459459 220.84252 79.6261261 235.724409 75 245.645669 75 256.275591 133.716216 256.275591 130.157658 270.448819 137.274775 291 154 291"></polyline>
            <polyline id="Path-60" stroke="#080A23" points="90 179 56.2133891 179 19.2259414 176.5 5 174"></polyline>
            <polyline id="Path-61" stroke="#080A23" points="120 103.451613 188.992629 107 268.599509 107 305.395577 105.225806 344.314496 103.451613 366.958231 96 408 96"></polyline>
            <polyline id="Path-62" stroke="#080A23" points="266 107 278.74813 176.129098 287.600998 205.19877 287.600998 221.860656 283.351621 231.077869 287.600998 242.067623 283.351621 250.221311 287.600998 259.793033 291.496259 268.30123 295.745636 271.491803 373.296758 271.491803 377.900249 277.163934 386.753117 280 386.753117 271.491803 386.753117 263.338115 392.418953 263.338115 401.98005 263.338115 408 268.30123"></polyline>
            <polyline id="Path-63" stroke="#080A23" points="287.590927 260 203.132231 260 201 266.693182 207.752066 272.329545 207.752066 280.079545 205.975207 291"></polyline>
            <polyline id="Path-64" stroke="#080A23" points="188 107 175 220.803468 175 291"></polyline>
            <polyline id="Path-67" stroke="#080A23" points="387 42 384.515152 48.7247191 378.835498 52.2640449 375.285714 57.2191011 367.47619 62.5280899 360.731602 65.7134831 355.406926 64.2977528 348.307359 70.6685393 342.627706 74.2078652 332.333333 80.9325843 325.233766 84.1179775 318.489177 88.011236 314.229437 95.7977528 308.549784 95.7977528 305 105"></polyline>
            <polyline id="Path-68" stroke="#080A23" points="344.647059 103 341.470588 108.692884 339 114.741573 341.470588 118.655431 346.764706 118.655431 350.647059 122.213483 355.235294 128.617978 359.823529 135.378277 365.823529 142.138577 370.764706 148.898876 376.411765 155.303371 387.352941 167.044944 391.588235 174.161049 399 177.007491 403.235294 193.374532 411 198"></polyline>
        </g>
        <rect id="Rectangle-🌈ease-out;lrgb;12" fill="url(#linearGradient-1)" x="0" y="-1" width="400" height="200"></rect>
        <circle id="Oval-Copy-8" stroke="#000000" stroke-width="2" fill="#FFFFFF" cx="111" cy="251" r="5"></circle>
        <g id="NewOrleans" fill-rule="nonzero">
            <use fill="black" fill-opacity="1" filter="url(#filter-3)" xlink:href="#path-2"></use>
            <use fill="#FFFFFF" xlink:href="#path-2"></use>
        </g>
        <circle id="Oval-Copy-9" stroke="#000000" stroke-width="2" fill="#FFFFFF" cx="295" cy="99" r="5"></circle>
        <circle id="Oval-Copy-10" stroke="#000000" fill="#FFFFFF" cx="222" cy="115" r="2.5"></circle>
        <g id="Atlanta" fill-rule="nonzero">
            <use fill="black" fill-opacity="1" filter="url(#filter-5)" xlink:href="#path-4"></use>
            <use fill="#FFFFFF" xlink:href="#path-4"></use>
        </g>
        <g id="Birmingham" fill-rule="nonzero">
            <use fill="black" fill-opacity="1" filter="url(#filter-7)" xlink:href="#path-6"></use>
            <use fill="#FFFFFF" xlink:href="#path-6"></use>
        </g>
        <path d="M289.87,303 L289.87,295.95 L294.33,295.95 L294.33,296.63 L290.68,296.63 L290.68,299.08 L294.13,299.08 L294.13,299.76 L290.68,299.76 L290.68,302.32 L294.33,302.32 L294.33,303 L289.87,303 Z M297.55,298.01 C298.170003,298.01 298.631665,298.168332 298.935,298.485 C299.238335,298.801668 299.39,299.28333 299.39,299.93 L299.39,303 L298.6,303 L298.6,302.17 C298.473333,302.456668 298.280001,302.678333 298.02,302.835 C297.759999,302.991667 297.460002,303.07 297.12,303.07 C296.806665,303.07 296.518335,303.006667 296.255,302.88 C295.991665,302.753333 295.783334,302.576668 295.63,302.35 C295.476666,302.123332 295.4,301.873335 295.4,301.6 C295.4,301.233332 295.493332,300.948334 295.68,300.745 C295.866668,300.541666 296.173331,300.395 296.6,300.305 C297.026669,300.215 297.619996,300.17 298.38,300.17 L298.6,300.17 L298.6,299.84 C298.6,299.433331 298.516667,299.138334 298.35,298.955 C298.183333,298.771666 297.913335,298.68 297.54,298.68 C296.979997,298.68 296.423336,298.853332 295.87,299.2 L295.6,298.61 C295.853335,298.429999 296.158332,298.285001 296.515,298.175 C296.871668,298.064999 297.216665,298.01 297.55,298.01 Z M297.23,302.43 C297.630002,302.43 297.958332,302.295001 298.215,302.025 C298.471668,301.754999 298.6,301.406669 298.6,300.98 L298.6,300.69 L298.42,300.69 C297.83333,300.69 297.386668,300.715 297.08,300.765 C296.773332,300.815 296.555001,300.898333 296.425,301.015 C296.294999,301.131667 296.23,301.303332 296.23,301.53 C296.23,301.790001 296.324999,302.004999 296.515,302.175 C296.705001,302.345001 296.943332,302.43 297.23,302.43 Z M302.52,303.07 C301.699996,303.07 301.050002,302.860002 300.57,302.44 L300.84,301.84 C301.100001,302.046668 301.364999,302.195 301.635,302.285 C301.905001,302.375 302.209998,302.42 302.55,302.42 C302.910002,302.42 303.184999,302.358334 303.375,302.235 C303.565001,302.111666 303.66,301.933335 303.66,301.7 C303.66,301.506666 303.596667,301.353334 303.47,301.24 C303.343333,301.126666 303.133335,301.036667 302.84,300.97 L302.02,300.78 C301.606665,300.686666 301.290001,300.526668 301.07,300.3 C300.849999,300.073332 300.74,299.793335 300.74,299.46 C300.74,299.026664 300.909998,298.676668 301.25,298.41 C301.590002,298.143332 302.043331,298.01 302.61,298.01 C302.950002,298.01 303.273332,298.064999 303.58,298.175 C303.886668,298.285001 304.143332,298.443332 304.35,298.65 L304.08,299.24 C303.633331,298.859998 303.143336,298.67 302.61,298.67 C302.269998,298.67 302.005001,298.734999 301.815,298.865 C301.624999,298.995001 301.53,299.176666 301.53,299.41 C301.53,299.603334 301.588333,299.758333 301.705,299.875 C301.821667,299.991667 302.009999,300.08 302.27,300.14 L303.1,300.34 C303.553336,300.446667 303.889999,300.608332 304.11,300.825 C304.330001,301.041668 304.44,301.323332 304.44,301.67 C304.44,302.096669 304.268335,302.436665 303.925,302.69 C303.581665,302.943335 303.113336,303.07 302.52,303.07 Z M307.76,302.42 C307.906667,302.42 308.053333,302.41 308.2,302.39 L308.16,303.03 C308.006666,303.056667 307.840001,303.07 307.66,303.07 C307.07333,303.07 306.631668,302.916668 306.335,302.61 C306.038332,302.303332 305.89,301.876669 305.89,301.33 L305.89,298.77 L304.94,298.77 L304.94,298.13 L305.89,298.13 L305.89,296.65 L306.7,296.65 L306.7,298.13 L308.08,298.13 L308.08,298.77 L306.7,298.77 L306.7,301.27 C306.7,302.036671 307.05333,302.42 307.76,302.42 Z M313.1,300.69 L309.54,300.69 C309.566667,301.256669 309.719999,301.684999 310,301.975 C310.280001,302.265001 310.676664,302.41 311.19,302.41 C311.756669,302.41 312.276664,302.216669 312.75,301.83 L313.02,302.42 C312.806666,302.620001 312.533335,302.778333 312.2,302.895 C311.866665,303.011667 311.526668,303.07 311.18,303.07 C310.419996,303.07 309.821669,302.846669 309.385,302.4 C308.948331,301.953331 308.73,301.336671 308.73,300.55 C308.73,300.049998 308.826666,299.608335 309.02,299.225 C309.213334,298.841665 309.484998,298.543334 309.835,298.33 C310.185002,298.116666 310.583331,298.01 311.03,298.01 C311.67667,298.01 312.183332,298.221665 312.55,298.645 C312.916669,299.068335 313.1,299.649996 313.1,300.39 L313.1,300.69 Z M311.04,298.64 C310.613331,298.64 310.271668,298.773332 310.015,299.04 C309.758332,299.306668 309.606667,299.683331 309.56,300.17 L312.39,300.17 C312.376667,299.676664 312.253334,299.298335 312.02,299.035 C311.786666,298.771665 311.460002,298.64 311.04,298.64 Z M317.05,298.71 L316.52,298.76 C316.019997,298.806667 315.658334,298.963332 315.435,299.23 C315.211666,299.496668 315.1,299.826665 315.1,300.22 L315.1,303 L314.29,303 L314.29,298.13 L315.08,298.13 L315.08,298.98 C315.353335,298.413331 315.889996,298.096667 316.69,298.03 L316.98,298.01 L317.05,298.71 Z M320.27,298.01 C321.436672,298.01 322.02,298.653327 322.02,299.94 L322.02,303 L321.21,303 L321.21,299.99 C321.21,299.536664 321.121668,299.206668 320.945,299 C320.768332,298.793332 320.486669,298.69 320.1,298.69 C319.653331,298.69 319.296668,298.826665 319.03,299.1 C318.763332,299.373335 318.63,299.743331 318.63,300.21 L318.63,303 L317.82,303 L317.82,298.13 L318.62,298.13 L318.62,298.93 C318.780001,298.629998 319.003332,298.401667 319.29,298.245 C319.576668,298.088333 319.903331,298.01 320.27,298.01 Z M292.11,315.08 C291.009995,315.08 290.130003,314.783336 289.47,314.19 L289.79,313.56 C290.136668,313.853335 290.491665,314.063333 290.855,314.19 C291.218335,314.316667 291.639998,314.38 292.12,314.38 C292.686669,314.38 293.123332,314.270001 293.43,314.05 C293.736668,313.829999 293.89,313.520002 293.89,313.12 C293.89,312.886665 293.816667,312.696667 293.67,312.55 C293.523333,312.403333 293.330001,312.286667 293.09,312.2 C292.849999,312.113333 292.526669,312.023334 292.12,311.93 C291.573331,311.803333 291.125002,311.670001 290.775,311.53 C290.424998,311.389999 290.141668,311.190001 289.925,310.93 C289.708332,310.669999 289.6,310.330002 289.6,309.91 C289.6,309.509998 289.704999,309.155002 289.915,308.845 C290.125001,308.534998 290.424998,308.295001 290.815,308.125 C291.205002,307.954999 291.656664,307.87 292.17,307.87 C292.656669,307.87 293.111665,307.946666 293.535,308.1 C293.958335,308.253334 294.316665,308.473332 294.61,308.76 L294.3,309.39 C293.966665,309.103332 293.628335,308.895001 293.285,308.765 C292.941665,308.634999 292.570002,308.57 292.17,308.57 C291.623331,308.57 291.195002,308.684999 290.885,308.915 C290.574998,309.145001 290.42,309.466665 290.42,309.88 C290.42,310.233335 290.556665,310.499999 290.83,310.68 C291.103335,310.860001 291.516664,311.013333 292.07,311.14 C292.67667,311.286667 293.153332,311.421666 293.5,311.545 C293.846668,311.668334 294.134999,311.853332 294.365,312.1 C294.595001,312.346668 294.71,312.676665 294.71,313.09 C294.71,313.490002 294.605001,313.839998 294.395,314.14 C294.184999,314.440001 293.883335,314.671666 293.49,314.835 C293.096665,314.998334 292.636669,315.08 292.11,315.08 Z M298.03,314.42 C298.176667,314.42 298.323333,314.41 298.47,314.39 L298.43,315.03 C298.276666,315.056667 298.110001,315.07 297.93,315.07 C297.34333,315.07 296.901668,314.916668 296.605,314.61 C296.308332,314.303332 296.16,313.876669 296.16,313.33 L296.16,310.77 L295.21,310.77 L295.21,310.13 L296.16,310.13 L296.16,308.65 L296.97,308.65 L296.97,310.13 L298.35,310.13 L298.35,310.77 L296.97,310.77 L296.97,313.27 C296.97,314.036671 297.32333,314.42 298.03,314.42 Z M301.27,310.01 C301.890003,310.01 302.351665,310.168332 302.655,310.485 C302.958335,310.801668 303.11,311.28333 303.11,311.93 L303.11,315 L302.32,315 L302.32,314.17 C302.193333,314.456668 302.000001,314.678333 301.74,314.835 C301.479999,314.991667 301.180002,315.07 300.84,315.07 C300.526665,315.07 300.238335,315.006667 299.975,314.88 C299.711665,314.753333 299.503334,314.576668 299.35,314.35 C299.196666,314.123332 299.12,313.873335 299.12,313.6 C299.12,313.233332 299.213332,312.948334 299.4,312.745 C299.586668,312.541666 299.893331,312.395 300.32,312.305 C300.746669,312.215 301.339996,312.17 302.1,312.17 L302.32,312.17 L302.32,311.84 C302.32,311.433331 302.236668,311.138334 302.07,310.955 C301.903332,310.771666 301.633335,310.68 301.26,310.68 C300.699997,310.68 300.143336,310.853332 299.59,311.2 L299.32,310.61 C299.573335,310.429999 299.878332,310.285001 300.235,310.175 C300.591668,310.064999 300.936665,310.01 301.27,310.01 Z M300.95,314.43 C301.350002,314.43 301.678332,314.295001 301.935,314.025 C302.191668,313.754999 302.32,313.406669 302.32,312.98 L302.32,312.69 L302.14,312.69 C301.55333,312.69 301.106668,312.715 300.8,312.765 C300.493332,312.815 300.275001,312.898333 300.145,313.015 C300.014999,313.131667 299.95,313.303332 299.95,313.53 C299.95,313.790001 300.044999,314.004999 300.235,314.175 C300.425001,314.345001 300.663332,314.43 300.95,314.43 Z M307.04,310.01 C308.206673,310.01 308.79,310.653327 308.79,311.94 L308.79,315 L307.98,315 L307.98,311.99 C307.98,311.536664 307.891668,311.206668 307.715,311 C307.538332,310.793332 307.256669,310.69 306.87,310.69 C306.423331,310.69 306.066668,310.826665 305.8,311.1 C305.533332,311.373335 305.4,311.743331 305.4,312.21 L305.4,315 L304.59,315 L304.59,310.13 L305.39,310.13 L305.39,310.93 C305.550001,310.629998 305.773332,310.401667 306.06,310.245 C306.346668,310.088333 306.673332,310.01 307.04,310.01 Z M314.59,307.95 L314.59,315 L313.78,315 L313.78,314.11 C313.633333,314.416668 313.418335,314.653332 313.135,314.82 C312.851665,314.986668 312.520002,315.07 312.14,315.07 C311.713331,315.07 311.336668,314.963334 311.01,314.75 C310.683332,314.536666 310.430001,314.238335 310.25,313.855 C310.069999,313.471665 309.98,313.026669 309.98,312.52 C309.98,312.019997 310.069999,311.580002 310.25,311.2 C310.430001,310.819998 310.683332,310.526668 311.01,310.32 C311.336668,310.113332 311.713331,310.01 312.14,310.01 C312.520002,310.01 312.851665,310.093332 313.135,310.26 C313.418335,310.426668 313.633333,310.663332 313.78,310.97 L313.78,307.95 L314.59,307.95 Z M312.3,314.4 C312.773336,314.4 313.138332,314.238335 313.395,313.915 C313.651668,313.591665 313.78,313.133336 313.78,312.54 C313.78,311.946664 313.651668,311.490002 313.395,311.17 C313.138332,310.849998 312.773336,310.69 312.3,310.69 C311.826664,310.69 311.458335,310.849998 311.195,311.17 C310.931665,311.490002 310.8,311.939997 310.8,312.52 C310.8,313.113336 310.931665,313.574998 311.195,313.905 C311.458335,314.235002 311.826664,314.4 312.3,314.4 Z M318.07,310.01 C318.690003,310.01 319.151665,310.168332 319.455,310.485 C319.758335,310.801668 319.91,311.28333 319.91,311.93 L319.91,315 L319.12,315 L319.12,314.17 C318.993333,314.456668 318.800001,314.678333 318.54,314.835 C318.279999,314.991667 317.980002,315.07 317.64,315.07 C317.326665,315.07 317.038335,315.006667 316.775,314.88 C316.511665,314.753333 316.303334,314.576668 316.15,314.35 C315.996666,314.123332 315.92,313.873335 315.92,313.6 C315.92,313.233332 316.013332,312.948334 316.2,312.745 C316.386668,312.541666 316.693331,312.395 317.12,312.305 C317.546669,312.215 318.139996,312.17 318.9,312.17 L319.12,312.17 L319.12,311.84 C319.12,311.433331 319.036668,311.138334 318.87,310.955 C318.703332,310.771666 318.433335,310.68 318.06,310.68 C317.499997,310.68 316.943336,310.853332 316.39,311.2 L316.12,310.61 C316.373335,310.429999 316.678332,310.285001 317.035,310.175 C317.391668,310.064999 317.736665,310.01 318.07,310.01 Z M317.75,314.43 C318.150002,314.43 318.478332,314.295001 318.735,314.025 C318.991668,313.754999 319.12,313.406669 319.12,312.98 L319.12,312.69 L318.94,312.69 C318.35333,312.69 317.906668,312.715 317.6,312.765 C317.293332,312.815 317.075001,312.898333 316.945,313.015 C316.814999,313.131667 316.75,313.303332 316.75,313.53 C316.75,313.790001 316.844999,314.004999 317.035,314.175 C317.225001,314.345001 317.463332,314.43 317.75,314.43 Z M324.15,310.71 L323.62,310.76 C323.119998,310.806667 322.758334,310.963332 322.535,311.23 C322.311666,311.496668 322.2,311.826665 322.2,312.22 L322.2,315 L321.39,315 L321.39,310.13 L322.18,310.13 L322.18,310.98 C322.453335,310.413331 322.989996,310.096667 323.79,310.03 L324.08,310.01 L324.15,310.71 Z M329.14,307.95 L329.14,315 L328.33,315 L328.33,314.11 C328.183333,314.416668 327.968335,314.653332 327.685,314.82 C327.401665,314.986668 327.070002,315.07 326.69,315.07 C326.263331,315.07 325.886668,314.963334 325.56,314.75 C325.233332,314.536666 324.980001,314.238335 324.8,313.855 C324.619999,313.471665 324.53,313.026669 324.53,312.52 C324.53,312.019997 324.619999,311.580002 324.8,311.2 C324.980001,310.819998 325.233332,310.526668 325.56,310.32 C325.886668,310.113332 326.263331,310.01 326.69,310.01 C327.070002,310.01 327.401665,310.093332 327.685,310.26 C327.968335,310.426668 328.183333,310.663332 328.33,310.97 L328.33,307.95 L329.14,307.95 Z M326.85,314.4 C327.323336,314.4 327.688332,314.238335 327.945,313.915 C328.201668,313.591665 328.33,313.133336 328.33,312.54 C328.33,311.946664 328.201668,311.490002 327.945,311.17 C327.688332,310.849998 327.323336,310.69 326.85,310.69 C326.376664,310.69 326.008335,310.849998 325.745,311.17 C325.481665,311.490002 325.35,311.939997 325.35,312.52 C325.35,313.113336 325.481665,313.574998 325.745,313.905 C326.008335,314.235002 326.376664,314.4 326.85,314.4 Z M291.57,327 L291.57,320.65 L289.12,320.65 L289.12,319.95 L294.86,319.95 L294.86,320.65 L292.4,320.65 L292.4,327 L291.57,327 Z M295.73,327 L295.73,322.13 L296.54,322.13 L296.54,327 L295.73,327 Z M295.65,320.02 L296.63,320.02 L296.63,320.93 L295.65,320.93 L295.65,320.02 Z M303.47,322.01 C304.55,322.01 305.09,322.653327 305.09,323.94 L305.09,327 L304.28,327 L304.28,323.98 C304.28,323.533331 304.201667,323.206668 304.045,323 C303.888333,322.793332 303.636668,322.69 303.29,322.69 C302.883331,322.69 302.563334,322.826665 302.33,323.1 C302.096665,323.373335 301.98,323.746664 301.98,324.22 L301.98,327 L301.17,327 L301.17,323.98 C301.17,323.526664 301.090001,323.198334 300.93,322.995 C300.769999,322.791666 300.516668,322.69 300.17,322.69 C299.763331,322.69 299.443334,322.826665 299.21,323.1 C298.976666,323.373335 298.86,323.746664 298.86,324.22 L298.86,327 L298.05,327 L298.05,322.13 L298.85,322.13 L298.85,322.9 C298.996667,322.613332 299.199999,322.393334 299.46,322.24 C299.720001,322.086666 300.019998,322.01 300.36,322.01 C301.113337,322.01 301.609999,322.329997 301.85,322.97 C301.990001,322.669999 302.203332,322.435001 302.49,322.265 C302.776668,322.094999 303.103332,322.01 303.47,322.01 Z M310.65,324.69 L307.09,324.69 C307.116667,325.256669 307.269999,325.684999 307.55,325.975 C307.830001,326.265001 308.226664,326.41 308.74,326.41 C309.306669,326.41 309.826664,326.216669 310.3,325.83 L310.57,326.42 C310.356666,326.620001 310.083335,326.778333 309.75,326.895 C309.416665,327.011667 309.076668,327.07 308.73,327.07 C307.969996,327.07 307.371669,326.846669 306.935,326.4 C306.498331,325.953331 306.28,325.336671 306.28,324.55 C306.28,324.049998 306.376666,323.608335 306.57,323.225 C306.763334,322.841665 307.034998,322.543334 307.385,322.33 C307.735002,322.116666 308.133331,322.01 308.58,322.01 C309.22667,322.01 309.733332,322.221665 310.1,322.645 C310.466669,323.068335 310.65,323.649996 310.65,324.39 L310.65,324.69 Z M308.59,322.64 C308.163331,322.64 307.821668,322.773332 307.565,323.04 C307.308332,323.306668 307.156667,323.683331 307.11,324.17 L309.94,324.17 C309.926667,323.676664 309.803335,323.298335 309.57,323.035 C309.336665,322.771665 309.010002,322.64 308.59,322.64 Z" id="EasternStandardTime" fill="#FFFFFF" fill-rule="nonzero" opacity="0.5"></path>
        <path d="M303,254.20732 L303,286.729769" id="Line-4-Copy" stroke="#FFFFFF" opacity="0.399251302" stroke-dasharray="1"></path>
        <path d="M190.5,245 L190.5,286.729769" id="Line-4-Copy-2" stroke="#FFFFFF" opacity="0.399251302" stroke-dasharray="1"></path>
        <path d="M178.88,303.08 C178.21333,303.08 177.633336,302.935001 177.14,302.645 C176.646664,302.354999 176.268335,301.938336 176.005,301.395 C175.741665,300.851664 175.61,300.210004 175.61,299.47 C175.61,298.729996 175.741665,298.090003 176.005,297.55 C176.268335,297.009997 176.646664,296.595001 177.14,296.305 C177.633336,296.014999 178.21333,295.87 178.88,295.87 C179.366669,295.87 179.813331,295.944999 180.22,296.095 C180.626669,296.245001 180.979998,296.466665 181.28,296.76 L180.97,297.39 C180.629998,297.103332 180.296668,296.896667 179.97,296.77 C179.643332,296.643333 179.283335,296.58 178.89,296.58 C178.116663,296.58 177.518335,296.831664 177.095,297.335 C176.671665,297.838336 176.46,298.549995 176.46,299.47 C176.46,300.396671 176.671665,301.111664 177.095,301.615 C177.518335,302.118336 178.116663,302.37 178.89,302.37 C179.283335,302.37 179.643332,302.306667 179.97,302.18 C180.296668,302.053333 180.629998,301.846668 180.97,301.56 L181.28,302.19 C180.979998,302.483335 180.626669,302.704999 180.22,302.855 C179.813331,303.005001 179.366669,303.08 178.88,303.08 Z M186.5,300.69 L182.94,300.69 C182.966667,301.256669 183.119999,301.684999 183.4,301.975 C183.680001,302.265001 184.076664,302.41 184.59,302.41 C185.156669,302.41 185.676664,302.216669 186.15,301.83 L186.42,302.42 C186.206666,302.620001 185.933335,302.778333 185.6,302.895 C185.266665,303.011667 184.926668,303.07 184.58,303.07 C183.819996,303.07 183.221669,302.846669 182.785,302.4 C182.348331,301.953331 182.13,301.336671 182.13,300.55 C182.13,300.049998 182.226666,299.608335 182.42,299.225 C182.613334,298.841665 182.884998,298.543334 183.235,298.33 C183.585002,298.116666 183.983331,298.01 184.43,298.01 C185.07667,298.01 185.583331,298.221665 185.95,298.645 C186.316668,299.068335 186.5,299.649996 186.5,300.39 L186.5,300.69 Z M184.44,298.64 C184.013331,298.64 183.671668,298.773332 183.415,299.04 C183.158332,299.306668 183.006667,299.683331 182.96,300.17 L185.79,300.17 C185.776667,299.676664 185.653334,299.298335 185.42,299.035 C185.186666,298.771665 184.860002,298.64 184.44,298.64 Z M190.14,298.01 C191.306672,298.01 191.89,298.653327 191.89,299.94 L191.89,303 L191.08,303 L191.08,299.99 C191.08,299.536664 190.991668,299.206668 190.815,299 C190.638332,298.793332 190.356669,298.69 189.97,298.69 C189.523331,298.69 189.166668,298.826665 188.9,299.1 C188.633332,299.373335 188.5,299.743331 188.5,300.21 L188.5,303 L187.69,303 L187.69,298.13 L188.49,298.13 L188.49,298.93 C188.650001,298.629998 188.873332,298.401667 189.16,298.245 C189.446668,298.088333 189.773332,298.01 190.14,298.01 Z M195.51,302.42 C195.656667,302.42 195.803333,302.41 195.95,302.39 L195.91,303.03 C195.756666,303.056667 195.590001,303.07 195.41,303.07 C194.82333,303.07 194.381668,302.916668 194.085,302.61 C193.788332,302.303332 193.64,301.876669 193.64,301.33 L193.64,298.77 L192.69,298.77 L192.69,298.13 L193.64,298.13 L193.64,296.65 L194.45,296.65 L194.45,298.13 L195.83,298.13 L195.83,298.77 L194.45,298.77 L194.45,301.27 C194.45,302.036671 194.80333,302.42 195.51,302.42 Z M199.53,298.71 L199,298.76 C198.499998,298.806667 198.138334,298.963332 197.915,299.23 C197.691666,299.496668 197.58,299.826665 197.58,300.22 L197.58,303 L196.77,303 L196.77,298.13 L197.56,298.13 L197.56,298.98 C197.833335,298.413331 198.369996,298.096667 199.17,298.03 L199.46,298.01 L199.53,298.71 Z M202.24,298.01 C202.860003,298.01 203.321665,298.168332 203.625,298.485 C203.928335,298.801668 204.08,299.28333 204.08,299.93 L204.08,303 L203.29,303 L203.29,302.17 C203.163333,302.456668 202.970001,302.678333 202.71,302.835 C202.449999,302.991667 202.150002,303.07 201.81,303.07 C201.496665,303.07 201.208335,303.006667 200.945,302.88 C200.681665,302.753333 200.473334,302.576668 200.32,302.35 C200.166666,302.123332 200.09,301.873335 200.09,301.6 C200.09,301.233332 200.183332,300.948334 200.37,300.745 C200.556668,300.541666 200.863331,300.395 201.29,300.305 C201.716669,300.215 202.309996,300.17 203.07,300.17 L203.29,300.17 L203.29,299.84 C203.29,299.433331 203.206668,299.138334 203.04,298.955 C202.873333,298.771666 202.603335,298.68 202.23,298.68 C201.669997,298.68 201.113336,298.853332 200.56,299.2 L200.29,298.61 C200.543335,298.429999 200.848332,298.285001 201.205,298.175 C201.561668,298.064999 201.906665,298.01 202.24,298.01 Z M201.92,302.43 C202.320002,302.43 202.648332,302.295001 202.905,302.025 C203.161668,301.754999 203.29,301.406669 203.29,300.98 L203.29,300.69 L203.11,300.69 C202.52333,300.69 202.076668,300.715 201.77,300.765 C201.463332,300.815 201.245001,300.898333 201.115,301.015 C200.984999,301.131667 200.92,301.303332 200.92,301.53 C200.92,301.790001 201.014999,302.004999 201.205,302.175 C201.395001,302.345001 201.633332,302.43 201.92,302.43 Z M205.56,303 L205.56,295.95 L206.37,295.95 L206.37,303 L205.56,303 Z M178.11,315.08 C177.009995,315.08 176.130003,314.783336 175.47,314.19 L175.79,313.56 C176.136668,313.853335 176.491665,314.063333 176.855,314.19 C177.218335,314.316667 177.639998,314.38 178.12,314.38 C178.686669,314.38 179.123332,314.270001 179.43,314.05 C179.736668,313.829999 179.89,313.520002 179.89,313.12 C179.89,312.886665 179.816667,312.696667 179.67,312.55 C179.523333,312.403333 179.330001,312.286667 179.09,312.2 C178.849999,312.113333 178.526669,312.023334 178.12,311.93 C177.573331,311.803333 177.125002,311.670001 176.775,311.53 C176.424998,311.389999 176.141668,311.190001 175.925,310.93 C175.708332,310.669999 175.6,310.330002 175.6,309.91 C175.6,309.509998 175.704999,309.155002 175.915,308.845 C176.125001,308.534998 176.424998,308.295001 176.815,308.125 C177.205002,307.954999 177.656664,307.87 178.17,307.87 C178.656669,307.87 179.111665,307.946666 179.535,308.1 C179.958335,308.253334 180.316665,308.473332 180.61,308.76 L180.3,309.39 C179.966665,309.103332 179.628335,308.895001 179.285,308.765 C178.941665,308.634999 178.570002,308.57 178.17,308.57 C177.623331,308.57 177.195002,308.684999 176.885,308.915 C176.574998,309.145001 176.42,309.466665 176.42,309.88 C176.42,310.233335 176.556665,310.499999 176.83,310.68 C177.103335,310.860001 177.516664,311.013333 178.07,311.14 C178.67667,311.286667 179.153332,311.421666 179.5,311.545 C179.846668,311.668334 180.134999,311.853332 180.365,312.1 C180.595001,312.346668 180.71,312.676665 180.71,313.09 C180.71,313.490002 180.605001,313.839998 180.395,314.14 C180.184999,314.440001 179.883335,314.671666 179.49,314.835 C179.096665,314.998334 178.636669,315.08 178.11,315.08 Z M184.03,314.42 C184.176667,314.42 184.323333,314.41 184.47,314.39 L184.43,315.03 C184.276666,315.056667 184.110001,315.07 183.93,315.07 C183.34333,315.07 182.901668,314.916668 182.605,314.61 C182.308332,314.303332 182.16,313.876669 182.16,313.33 L182.16,310.77 L181.21,310.77 L181.21,310.13 L182.16,310.13 L182.16,308.65 L182.97,308.65 L182.97,310.13 L184.35,310.13 L184.35,310.77 L182.97,310.77 L182.97,313.27 C182.97,314.036671 183.32333,314.42 184.03,314.42 Z M187.27,310.01 C187.890003,310.01 188.351665,310.168332 188.655,310.485 C188.958335,310.801668 189.11,311.28333 189.11,311.93 L189.11,315 L188.32,315 L188.32,314.17 C188.193333,314.456668 188.000001,314.678333 187.74,314.835 C187.479999,314.991667 187.180002,315.07 186.84,315.07 C186.526665,315.07 186.238335,315.006667 185.975,314.88 C185.711665,314.753333 185.503334,314.576668 185.35,314.35 C185.196666,314.123332 185.12,313.873335 185.12,313.6 C185.12,313.233332 185.213332,312.948334 185.4,312.745 C185.586668,312.541666 185.893331,312.395 186.32,312.305 C186.746669,312.215 187.339996,312.17 188.1,312.17 L188.32,312.17 L188.32,311.84 C188.32,311.433331 188.236668,311.138334 188.07,310.955 C187.903333,310.771666 187.633335,310.68 187.26,310.68 C186.699997,310.68 186.143336,310.853332 185.59,311.2 L185.32,310.61 C185.573335,310.429999 185.878332,310.285001 186.235,310.175 C186.591668,310.064999 186.936665,310.01 187.27,310.01 Z M186.95,314.43 C187.350002,314.43 187.678332,314.295001 187.935,314.025 C188.191668,313.754999 188.32,313.406669 188.32,312.98 L188.32,312.69 L188.14,312.69 C187.55333,312.69 187.106668,312.715 186.8,312.765 C186.493332,312.815 186.275001,312.898333 186.145,313.015 C186.014999,313.131667 185.95,313.303332 185.95,313.53 C185.95,313.790001 186.044999,314.004999 186.235,314.175 C186.425001,314.345001 186.663332,314.43 186.95,314.43 Z M193.04,310.01 C194.206672,310.01 194.79,310.653327 194.79,311.94 L194.79,315 L193.98,315 L193.98,311.99 C193.98,311.536664 193.891668,311.206668 193.715,311 C193.538332,310.793332 193.256669,310.69 192.87,310.69 C192.423331,310.69 192.066668,310.826665 191.8,311.1 C191.533332,311.373335 191.4,311.743331 191.4,312.21 L191.4,315 L190.59,315 L190.59,310.13 L191.39,310.13 L191.39,310.93 C191.550001,310.629998 191.773332,310.401667 192.06,310.245 C192.346668,310.088333 192.673331,310.01 193.04,310.01 Z M200.59,307.95 L200.59,315 L199.78,315 L199.78,314.11 C199.633333,314.416668 199.418335,314.653332 199.135,314.82 C198.851665,314.986668 198.520002,315.07 198.14,315.07 C197.713331,315.07 197.336668,314.963334 197.01,314.75 C196.683332,314.536666 196.430001,314.238335 196.25,313.855 C196.069999,313.471665 195.98,313.026669 195.98,312.52 C195.98,312.019997 196.069999,311.580002 196.25,311.2 C196.430001,310.819998 196.683332,310.526668 197.01,310.32 C197.336668,310.113332 197.713331,310.01 198.14,310.01 C198.520002,310.01 198.851665,310.093332 199.135,310.26 C199.418335,310.426668 199.633333,310.663332 199.78,310.97 L199.78,307.95 L200.59,307.95 Z M198.3,314.4 C198.773336,314.4 199.138332,314.238335 199.395,313.915 C199.651668,313.591665 199.78,313.133336 199.78,312.54 C199.78,311.946664 199.651668,311.490002 199.395,311.17 C199.138332,310.849998 198.773336,310.69 198.3,310.69 C197.826664,310.69 197.458335,310.849998 197.195,311.17 C196.931665,311.490002 196.8,311.939997 196.8,312.52 C196.8,313.113336 196.931665,313.574998 197.195,313.905 C197.458335,314.235002 197.826664,314.4 198.3,314.4 Z M204.07,310.01 C204.690003,310.01 205.151665,310.168332 205.455,310.485 C205.758335,310.801668 205.91,311.28333 205.91,311.93 L205.91,315 L205.12,315 L205.12,314.17 C204.993333,314.456668 204.800001,314.678333 204.54,314.835 C204.279999,314.991667 203.980002,315.07 203.64,315.07 C203.326665,315.07 203.038335,315.006667 202.775,314.88 C202.511665,314.753333 202.303334,314.576668 202.15,314.35 C201.996666,314.123332 201.92,313.873335 201.92,313.6 C201.92,313.233332 202.013332,312.948334 202.2,312.745 C202.386668,312.541666 202.693331,312.395 203.12,312.305 C203.546669,312.215 204.139996,312.17 204.9,312.17 L205.12,312.17 L205.12,311.84 C205.12,311.433331 205.036667,311.138334 204.87,310.955 C204.703332,310.771666 204.433335,310.68 204.06,310.68 C203.499997,310.68 202.943336,310.853332 202.39,311.2 L202.12,310.61 C202.373335,310.429999 202.678332,310.285001 203.035,310.175 C203.391668,310.064999 203.736665,310.01 204.07,310.01 Z M203.75,314.43 C204.150002,314.43 204.478332,314.295001 204.735,314.025 C204.991668,313.754999 205.12,313.406669 205.12,312.98 L205.12,312.69 L204.94,312.69 C204.35333,312.69 203.906668,312.715 203.6,312.765 C203.293332,312.815 203.075001,312.898333 202.945,313.015 C202.814999,313.131667 202.75,313.303332 202.75,313.53 C202.75,313.790001 202.844999,314.004999 203.035,314.175 C203.225001,314.345001 203.463332,314.43 203.75,314.43 Z M210.15,310.71 L209.62,310.76 C209.119998,310.806667 208.758334,310.963332 208.535,311.23 C208.311666,311.496668 208.2,311.826665 208.2,312.22 L208.2,315 L207.39,315 L207.39,310.13 L208.18,310.13 L208.18,310.98 C208.453335,310.413331 208.989996,310.096667 209.79,310.03 L210.08,310.01 L210.15,310.71 Z M215.14,307.95 L215.14,315 L214.33,315 L214.33,314.11 C214.183333,314.416668 213.968335,314.653332 213.685,314.82 C213.401665,314.986668 213.070002,315.07 212.69,315.07 C212.263331,315.07 211.886668,314.963334 211.56,314.75 C211.233332,314.536666 210.980001,314.238335 210.8,313.855 C210.619999,313.471665 210.53,313.026669 210.53,312.52 C210.53,312.019997 210.619999,311.580002 210.8,311.2 C210.980001,310.819998 211.233332,310.526668 211.56,310.32 C211.886668,310.113332 212.263331,310.01 212.69,310.01 C213.070002,310.01 213.401665,310.093332 213.685,310.26 C213.968335,310.426668 214.183333,310.663332 214.33,310.97 L214.33,307.95 L215.14,307.95 Z M212.85,314.4 C213.323336,314.4 213.688332,314.238335 213.945,313.915 C214.201668,313.591665 214.33,313.133336 214.33,312.54 C214.33,311.946664 214.201668,311.490002 213.945,311.17 C213.688332,310.849998 213.323336,310.69 212.85,310.69 C212.376664,310.69 212.008335,310.849998 211.745,311.17 C211.481665,311.490002 211.35,311.939997 211.35,312.52 C211.35,313.113336 211.481665,313.574998 211.745,313.905 C212.008335,314.235002 212.376664,314.4 212.85,314.4 Z M177.57,327 L177.57,320.65 L175.12,320.65 L175.12,319.95 L180.86,319.95 L180.86,320.65 L178.4,320.65 L178.4,327 L177.57,327 Z M181.73,327 L181.73,322.13 L182.54,322.13 L182.54,327 L181.73,327 Z M181.65,320.02 L182.63,320.02 L182.63,320.93 L181.65,320.93 L181.65,320.02 Z M189.47,322.01 C190.55,322.01 191.09,322.653327 191.09,323.94 L191.09,327 L190.28,327 L190.28,323.98 C190.28,323.533331 190.201667,323.206668 190.045,323 C189.888333,322.793332 189.636668,322.69 189.29,322.69 C188.883331,322.69 188.563334,322.826665 188.33,323.1 C188.096666,323.373335 187.98,323.746664 187.98,324.22 L187.98,327 L187.17,327 L187.17,323.98 C187.17,323.526664 187.090001,323.198334 186.93,322.995 C186.769999,322.791666 186.516668,322.69 186.17,322.69 C185.763331,322.69 185.443334,322.826665 185.21,323.1 C184.976665,323.373335 184.86,323.746664 184.86,324.22 L184.86,327 L184.05,327 L184.05,322.13 L184.85,322.13 L184.85,322.9 C184.996667,322.613332 185.199999,322.393334 185.46,322.24 C185.720001,322.086666 186.019998,322.01 186.36,322.01 C187.113337,322.01 187.609999,322.329997 187.85,322.97 C187.990001,322.669999 188.203332,322.435001 188.49,322.265 C188.776668,322.094999 189.103331,322.01 189.47,322.01 Z M196.65,324.69 L193.09,324.69 C193.116667,325.256669 193.269999,325.684999 193.55,325.975 C193.830001,326.265001 194.226664,326.41 194.74,326.41 C195.306669,326.41 195.826664,326.216669 196.3,325.83 L196.57,326.42 C196.356666,326.620001 196.083335,326.778333 195.75,326.895 C195.416665,327.011667 195.076668,327.07 194.73,327.07 C193.969996,327.07 193.371669,326.846669 192.935,326.4 C192.498331,325.953331 192.28,325.336671 192.28,324.55 C192.28,324.049998 192.376666,323.608335 192.57,323.225 C192.763334,322.841665 193.034998,322.543334 193.385,322.33 C193.735002,322.116666 194.133331,322.01 194.58,322.01 C195.22667,322.01 195.733331,322.221665 196.1,322.645 C196.466668,323.068335 196.65,323.649996 196.65,324.39 L196.65,324.69 Z M194.59,322.64 C194.163331,322.64 193.821668,322.773332 193.565,323.04 C193.308332,323.306668 193.156667,323.683331 193.11,324.17 L195.94,324.17 C195.926667,323.676664 195.803335,323.298335 195.57,323.035 C195.336666,322.771665 195.010002,322.64 194.59,322.64 Z" id="CentralStandardTime" fill="#FFFFFF" fill-rule="nonzero" opacity="0.5"></path>
    </g>
</svg>