<?xml version="1.0" encoding="UTF-8"?>
<svg width="400px" height="250px" viewBox="0 0 400 250" version="1.1" xmlns="http://www.w3.org/2000/svg" xmlns:xlink="http://www.w3.org/1999/xlink">
    <!-- Generator: Sketch 57.1 (83088) - https://sketch.com -->
    <title>phoenix</title>
    <desc>Created with Sketch.</desc>
    <defs>
        <polygon id="path-1" points="12.2042252 0 0 36.0563235 26.3596683 49.6624474 28.8908919 50.2373913 36.5242252 7.42105263"></polygon>
        <path d="M65.488,142.72 L69.952,142.72 C71.1360059,142.72 72.0559967,143.007997 72.712,143.584 C73.3680033,144.160003 73.696,144.975995 73.696,146.032 C73.696,147.088005 73.3653366,147.90933 72.704,148.496 C72.0426634,149.08267 71.1253392,149.376 69.952,149.376 L66.8,149.376 L66.8,154 L65.488,154 L65.488,142.72 Z M69.824,148.288 C71.5413419,148.288 72.4,147.536008 72.4,146.032 C72.4,144.549326 71.5413419,143.808 69.824,143.808 L66.8,143.808 L66.8,148.288 L69.824,148.288 Z M79.536,146.016 C81.402676,146.016 82.336,147.045323 82.336,149.104 L82.336,154 L81.04,154 L81.04,149.184 C81.04,148.458663 80.8986681,147.930668 80.616,147.6 C80.3333319,147.269332 79.8826698,147.104 79.264,147.104 C78.5493298,147.104 77.9786688,147.322664 77.552,147.76 C77.1253312,148.197336 76.912,148.78933 76.912,149.536 L76.912,154 L75.616,154 L75.616,142.72 L76.912,142.72 L76.912,147.456 C77.1680013,146.986664 77.5226644,146.629335 77.976,146.384 C78.4293356,146.138665 78.9493304,146.016 79.536,146.016 Z M87.936,154.112 C87.1999963,154.112 86.5520028,153.946668 85.992,153.616 C85.4319972,153.285332 85.0000015,152.813336 84.696,152.2 C84.3919985,151.586664 84.24,150.874671 84.24,150.064 C84.24,149.253329 84.3919985,148.541336 84.696,147.928 C85.0000015,147.314664 85.4319972,146.842668 85.992,146.512 C86.5520028,146.181332 87.1999963,146.016 87.936,146.016 C88.6720037,146.016 89.3226638,146.181332 89.888,146.512 C90.4533362,146.842668 90.8879985,147.314664 91.192,147.928 C91.4960015,148.541336 91.648,149.253329 91.648,150.064 C91.648,150.874671 91.4960015,151.586664 91.192,152.2 C90.8879985,152.813336 90.4533362,153.285332 89.888,153.616 C89.3226638,153.946668 88.6720037,154.112 87.936,154.112 Z M87.936,153.04 C88.7040038,153.04 89.2933313,152.786669 89.704,152.28 C90.1146687,151.773331 90.32,151.034672 90.32,150.064 C90.32,149.114662 90.1120021,148.381336 89.696,147.864 C89.2799979,147.346664 88.6933371,147.088 87.936,147.088 C87.1786629,147.088 86.5920021,147.346664 86.176,147.864 C85.7599979,148.381336 85.552,149.114662 85.552,150.064 C85.552,151.024005 85.7573313,151.759997 86.168,152.272 C86.5786687,152.784003 87.1679962,153.04 87.936,153.04 Z M100.112,150.304 L94.416,150.304 C94.4586669,151.210671 94.7039978,151.895998 95.152,152.36 C95.6000022,152.824002 96.2346626,153.056 97.056,153.056 C97.9626712,153.056 98.7946629,152.74667 99.552,152.128 L99.984,153.072 C99.642665,153.392002 99.205336,153.645332 98.672,153.832 C98.138664,154.018668 97.5946694,154.112 97.04,154.112 C95.8239939,154.112 94.8666702,153.75467 94.168,153.04 C93.4693298,152.32533 93.12,151.338673 93.12,150.08 C93.12,149.279996 93.2746651,148.573336 93.584,147.96 C93.8933349,147.346664 94.3279972,146.869335 94.888,146.528 C95.4480028,146.186665 96.0853298,146.016 96.8,146.016 C97.8346718,146.016 98.6453304,146.354663 99.232,147.032 C99.8186696,147.709337 100.112,148.639994 100.112,149.824 L100.112,150.304 Z M96.816,147.024 C96.1333299,147.024 95.5866687,147.237331 95.176,147.664 C94.7653313,148.090669 94.522667,148.693329 94.448,149.472 L98.976,149.472 C98.9546666,148.682663 98.7573352,148.077335 98.384,147.656 C98.0106648,147.234665 97.4880034,147.024 96.816,147.024 Z M105.936,146.016 C107.802676,146.016 108.736,147.045323 108.736,149.104 L108.736,154 L107.44,154 L107.44,149.184 C107.44,148.458663 107.298668,147.930668 107.016,147.6 C106.733332,147.269332 106.28267,147.104 105.664,147.104 C104.94933,147.104 104.378669,147.322664 103.952,147.76 C103.525331,148.197336 103.312,148.78933 103.312,149.536 L103.312,154 L102.016,154 L102.016,146.208 L103.296,146.208 L103.296,147.488 C103.552001,147.007998 103.909331,146.642668 104.368,146.392 C104.826669,146.141332 105.34933,146.016 105.936,146.016 Z M111.104,154 L111.104,146.208 L112.4,146.208 L112.4,154 L111.104,154 Z M110.976,142.832 L112.544,142.832 L112.544,144.288 L110.976,144.288 L110.976,142.832 Z M118.528,149.984 L121.76,154 L120.192,154 L117.76,150.96 L115.344,154 L113.76,154 L116.992,149.984 L113.952,146.208 L115.52,146.208 L117.76,149.04 L120,146.208 L121.584,146.208 L118.528,149.984 Z" id="path-3"></path>
        <filter x="-1.3%" y="-6.6%" width="102.7%" height="113.2%" filterUnits="objectBoundingBox" id="filter-4">
            <feOffset dx="0" dy="0.5" in="SourceAlpha" result="shadowOffsetOuter1"></feOffset>
            <feColorMatrix values="0 0 0 0 0   0 0 0 0 0   0 0 0 0 0  0 0 0 1 0" type="matrix" in="shadowOffsetOuter1" result="shadowMatrixOuter1"></feColorMatrix>
            <feOffset dx="0" dy="-0.5" in="SourceAlpha" result="shadowOffsetOuter2"></feOffset>
            <feColorMatrix values="0 0 0 0 0   0 0 0 0 0   0 0 0 0 0  0 0 0 1 0" type="matrix" in="shadowOffsetOuter2" result="shadowMatrixOuter2"></feColorMatrix>
            <feOffset dx="0.5" dy="0" in="SourceAlpha" result="shadowOffsetOuter3"></feOffset>
            <feColorMatrix values="0 0 0 0 0   0 0 0 0 0   0 0 0 0 0  0 0 0 1 0" type="matrix" in="shadowOffsetOuter3" result="shadowMatrixOuter3"></feColorMatrix>
            <feOffset dx="-0.5" dy="0" in="SourceAlpha" result="shadowOffsetOuter4"></feOffset>
            <feColorMatrix values="0 0 0 0 0   0 0 0 0 0   0 0 0 0 0  0 0 0 1 0" type="matrix" in="shadowOffsetOuter4" result="shadowMatrixOuter4"></feColorMatrix>
            <feMerge>
                <feMergeNode in="shadowMatrixOuter1"></feMergeNode>
                <feMergeNode in="shadowMatrixOuter2"></feMergeNode>
                <feMergeNode in="shadowMatrixOuter3"></feMergeNode>
                <feMergeNode in="shadowMatrixOuter4"></feMergeNode>
            </feMerge>
        </filter>
        <path d="M79.15,101.08 C78.0499945,101.08 77.1700033,100.783336 76.51,100.19 L76.83,99.56 C77.1766684,99.8533348 77.5316648,100.063333 77.895,100.19 C78.2583351,100.316667 78.6799976,100.38 79.16,100.38 C79.7266695,100.38 80.1633318,100.270001 80.47,100.05 C80.7766682,99.8299989 80.93,99.520002 80.93,99.12 C80.93,98.8866655 80.8566674,98.6966674 80.71,98.55 C80.5633326,98.4033326 80.3700012,98.2866671 80.13,98.2 C79.8899988,98.1133329 79.5666687,98.0233338 79.16,97.93 C78.6133306,97.8033327 78.1650018,97.6700007 77.815,97.53 C77.4649982,97.3899993 77.1816678,97.1900013 76.965,96.93 C76.7483323,96.6699987 76.64,96.3300021 76.64,95.91 C76.64,95.509998 76.7449989,95.1550015 76.955,94.845 C77.1650011,94.5349985 77.4649981,94.2950008 77.855,94.125 C78.245002,93.9549991 78.6966641,93.87 79.21,93.87 C79.6966691,93.87 80.1516645,93.9466659 80.575,94.1 C80.9983354,94.2533341 81.3566652,94.4733319 81.65,94.76 L81.34,95.39 C81.006665,95.1033319 80.668335,94.8950007 80.325,94.765 C79.9816649,94.6349994 79.610002,94.57 79.21,94.57 C78.6633306,94.57 78.2350015,94.6849988 77.925,94.915 C77.6149985,95.1450011 77.46,95.4666646 77.46,95.88 C77.46,96.2333351 77.5966653,96.4999991 77.87,96.68 C78.1433347,96.8600009 78.5566639,97.0133327 79.11,97.14 C79.7166697,97.2866674 80.1933316,97.421666 80.54,97.545 C80.8866684,97.668334 81.1749988,97.8533321 81.405,98.1 C81.6350011,98.3466679 81.75,98.6766646 81.75,99.09 C81.75,99.490002 81.6450011,99.8399985 81.435,100.14 C81.2249989,100.440001 80.9233353,100.671666 80.53,100.835 C80.1366647,100.998334 79.6766693,101.08 79.15,101.08 Z M84.94,96.01 C85.5600031,96.01 86.0216652,96.1683317 86.325,96.485 C86.6283349,96.8016683 86.78,97.2833301 86.78,97.93 L86.78,101 L85.99,101 L85.99,100.17 C85.8633327,100.456668 85.6700013,100.678333 85.41,100.835 C85.1499987,100.991667 84.8500017,101.07 84.51,101.07 C84.1966651,101.07 83.9083347,101.006667 83.645,100.88 C83.3816653,100.753333 83.1733341,100.576668 83.02,100.35 C82.8666659,100.123332 82.79,99.8733347 82.79,99.6 C82.79,99.2333315 82.8833324,98.9483343 83.07,98.745 C83.2566676,98.5416656 83.5633312,98.3950004 83.99,98.305 C84.4166688,98.2149996 85.0099962,98.17 85.77,98.17 L85.99,98.17 L85.99,97.84 C85.99,97.4333313 85.9066675,97.1383342 85.74,96.955 C85.5733325,96.7716657 85.3033352,96.68 84.93,96.68 C84.3699972,96.68 83.8133361,96.8533316 83.26,97.2 L82.99,96.61 C83.2433346,96.4299991 83.5483316,96.2850006 83.905,96.175 C84.2616685,96.0649995 84.606665,96.01 84.94,96.01 Z M84.62,100.43 C85.020002,100.43 85.348332,100.295001 85.605,100.025 C85.8616679,99.7549987 85.99,99.4066688 85.99,98.98 L85.99,98.69 L85.81,98.69 C85.2233304,98.69 84.7766682,98.7149998 84.47,98.765 C84.1633318,98.8150002 83.9450006,98.8983327 83.815,99.015 C83.6849993,99.1316672 83.62,99.3033322 83.62,99.53 C83.62,99.7900013 83.7149991,100.004999 83.905,100.175 C84.0950009,100.345001 84.3333319,100.43 84.62,100.43 Z M88.26,101 L88.26,93.95 L89.07,93.95 L89.07,101 L88.26,101 Z M92.72,100.42 C92.8666674,100.42 93.0133326,100.41 93.16,100.39 L93.12,101.03 C92.9666659,101.056667 92.8000009,101.07 92.62,101.07 C92.0333304,101.07 91.5916682,100.916668 91.295,100.61 C90.9983318,100.303332 90.85,99.8766694 90.85,99.33 L90.85,96.77 L89.9,96.77 L89.9,96.13 L90.85,96.13 L90.85,94.65 L91.66,94.65 L91.66,96.13 L93.04,96.13 L93.04,96.77 L91.66,96.77 L91.66,99.27 C91.66,100.03667 92.0133298,100.42 92.72,100.42 Z M96.68,101 L96.68,93.95 L97.5,93.95 L97.5,100.3 L101.03,100.3 L101.03,101 L96.68,101 Z M103.94,96.01 C104.560003,96.01 105.021665,96.1683317 105.325,96.485 C105.628335,96.8016683 105.78,97.2833301 105.78,97.93 L105.78,101 L104.99,101 L104.99,100.17 C104.863333,100.456668 104.670001,100.678333 104.41,100.835 C104.149999,100.991667 103.850002,101.07 103.51,101.07 C103.196665,101.07 102.908335,101.006667 102.645,100.88 C102.381665,100.753333 102.173334,100.576668 102.02,100.35 C101.866666,100.123332 101.79,99.8733347 101.79,99.6 C101.79,99.2333315 101.883332,98.9483343 102.07,98.745 C102.256668,98.5416656 102.563331,98.3950004 102.99,98.305 C103.416669,98.2149996 104.009996,98.17 104.77,98.17 L104.99,98.17 L104.99,97.84 C104.99,97.4333313 104.906667,97.1383342 104.74,96.955 C104.573332,96.7716657 104.303335,96.68 103.93,96.68 C103.369997,96.68 102.813336,96.8533316 102.26,97.2 L101.99,96.61 C102.243335,96.4299991 102.548332,96.2850006 102.905,96.175 C103.261668,96.0649995 103.606665,96.01 103.94,96.01 Z M103.62,100.43 C104.020002,100.43 104.348332,100.295001 104.605,100.025 C104.861668,99.7549987 104.99,99.4066688 104.99,98.98 L104.99,98.69 L104.81,98.69 C104.22333,98.69 103.776668,98.7149998 103.47,98.765 C103.163332,98.8150002 102.945001,98.8983327 102.815,99.015 C102.684999,99.1316672 102.62,99.3033322 102.62,99.53 C102.62,99.7900013 102.714999,100.004999 102.905,100.175 C103.095001,100.345001 103.333332,100.43 103.62,100.43 Z M111.6,101 L110.55,101 L108.07,98.67 L108.07,101 L107.26,101 L107.26,93.95 L108.07,93.95 L108.07,98.34 L110.34,96.14 L111.37,96.14 L108.95,98.47 L111.6,101 Z M116.25,98.69 L112.69,98.69 C112.716667,99.2566695 112.869999,99.6849986 113.15,99.975 C113.430001,100.265001 113.826664,100.41 114.34,100.41 C114.906669,100.41 115.426664,100.216669 115.9,99.83 L116.17,100.42 C115.956666,100.620001 115.683335,100.778333 115.35,100.895 C115.016665,101.011667 114.676668,101.07 114.33,101.07 C113.569996,101.07 112.971669,100.846669 112.535,100.4 C112.098331,99.9533311 111.88,99.3366706 111.88,98.55 C111.88,98.0499975 111.976666,97.6083352 112.17,97.225 C112.363334,96.8416648 112.634998,96.5433344 112.985,96.33 C113.335002,96.1166656 113.733331,96.01 114.18,96.01 C114.82667,96.01 115.333331,96.2216645 115.7,96.645 C116.066668,97.0683355 116.25,97.6499963 116.25,98.39 L116.25,98.69 Z M114.19,96.64 C113.763331,96.64 113.421668,96.773332 113.165,97.04 C112.908332,97.306668 112.756667,97.6833309 112.71,98.17 L115.54,98.17 C115.526667,97.6766642 115.403334,97.2983347 115.17,97.035 C114.936665,96.7716654 114.610002,96.64 114.19,96.64 Z M123.15,101.08 C122.48333,101.08 121.903336,100.935001 121.41,100.645 C120.916664,100.354999 120.538335,99.9383361 120.275,99.395 C120.011665,98.851664 119.88,98.2100037 119.88,97.47 C119.88,96.7299963 120.011665,96.0900027 120.275,95.55 C120.538335,95.0099973 120.916664,94.5950014 121.41,94.305 C121.903336,94.0149986 122.48333,93.87 123.15,93.87 C123.636669,93.87 124.083331,93.9449992 124.49,94.095 C124.896669,94.2450008 125.249998,94.4666652 125.55,94.76 L125.24,95.39 C124.899998,95.1033319 124.566668,94.8966673 124.24,94.77 C123.913332,94.6433327 123.553335,94.58 123.16,94.58 C122.386663,94.58 121.788335,94.8316641 121.365,95.335 C120.941665,95.8383358 120.73,96.5499954 120.73,97.47 C120.73,98.3966713 120.941665,99.1116641 121.365,99.615 C121.788335,100.118336 122.386663,100.37 123.16,100.37 C123.553335,100.37 123.913332,100.306667 124.24,100.18 C124.566668,100.053333 124.899998,99.8466681 125.24,99.56 L125.55,100.19 C125.249998,100.483335 124.896669,100.704999 124.49,100.855 C124.083331,101.005001 123.636669,101.08 123.15,101.08 Z M126.79,101 L126.79,96.13 L127.6,96.13 L127.6,101 L126.79,101 Z M126.71,94.02 L127.69,94.02 L127.69,94.93 L126.71,94.93 L126.71,94.02 Z M131.25,100.42 C131.396667,100.42 131.543333,100.41 131.69,100.39 L131.65,101.03 C131.496666,101.056667 131.330001,101.07 131.15,101.07 C130.56333,101.07 130.121668,100.916668 129.825,100.61 C129.528332,100.303332 129.38,99.8766694 129.38,99.33 L129.38,96.77 L128.43,96.77 L128.43,96.13 L129.38,96.13 L129.38,94.65 L130.19,94.65 L130.19,96.13 L131.57,96.13 L131.57,96.77 L130.19,96.77 L130.19,99.27 C130.19,100.03667 130.54333,100.42 131.25,100.42 Z M136.06,96.14 L136.87,96.14 L133.99,102.8 L133.16,102.8 L133.98,100.94 L131.92,96.14 L132.78,96.14 L134.41,100.12 L136.06,96.14 Z" id="path-5"></path>
        <filter x="-1.2%" y="-8.4%" width="102.5%" height="116.8%" filterUnits="objectBoundingBox" id="filter-6">
            <feOffset dx="0" dy="0.5" in="SourceAlpha" result="shadowOffsetOuter1"></feOffset>
            <feColorMatrix values="0 0 0 0 0   0 0 0 0 0   0 0 0 0 0  0 0 0 1 0" type="matrix" in="shadowOffsetOuter1" result="shadowMatrixOuter1"></feColorMatrix>
            <feOffset dx="0" dy="-0.5" in="SourceAlpha" result="shadowOffsetOuter2"></feOffset>
            <feColorMatrix values="0 0 0 0 0   0 0 0 0 0   0 0 0 0 0  0 0 0 1 0" type="matrix" in="shadowOffsetOuter2" result="shadowMatrixOuter2"></feColorMatrix>
            <feOffset dx="0.5" dy="0" in="SourceAlpha" result="shadowOffsetOuter3"></feOffset>
            <feColorMatrix values="0 0 0 0 0   0 0 0 0 0   0 0 0 0 0  0 0 0 1 0" type="matrix" in="shadowOffsetOuter3" result="shadowMatrixOuter3"></feColorMatrix>
            <feOffset dx="-0.5" dy="0" in="SourceAlpha" result="shadowOffsetOuter4"></feOffset>
            <feColorMatrix values="0 0 0 0 0   0 0 0 0 0   0 0 0 0 0  0 0 0 1 0" type="matrix" in="shadowOffsetOuter4" result="shadowMatrixOuter4"></feColorMatrix>
            <feMerge>
                <feMergeNode in="shadowMatrixOuter1"></feMergeNode>
                <feMergeNode in="shadowMatrixOuter2"></feMergeNode>
                <feMergeNode in="shadowMatrixOuter3"></feMergeNode>
                <feMergeNode in="shadowMatrixOuter4"></feMergeNode>
            </feMerge>
        </filter>
        <path d="M57.04,128 L57.04,120.95 L57.86,120.95 L57.86,127.3 L61.39,127.3 L61.39,128 L57.04,128 Z M64.3,123.01 C64.9200031,123.01 65.3816652,123.168332 65.685,123.485 C65.9883349,123.801668 66.14,124.28333 66.14,124.93 L66.14,128 L65.35,128 L65.35,127.17 C65.2233327,127.456668 65.0300013,127.678333 64.77,127.835 C64.5099987,127.991667 64.2100017,128.07 63.87,128.07 C63.5566651,128.07 63.2683346,128.006667 63.005,127.88 C62.7416654,127.753333 62.5333341,127.576668 62.38,127.35 C62.2266659,127.123332 62.15,126.873335 62.15,126.6 C62.15,126.233332 62.2433324,125.948334 62.43,125.745 C62.6166676,125.541666 62.9233312,125.395 63.35,125.305 C63.7766688,125.215 64.3699962,125.17 65.13,125.17 L65.35,125.17 L65.35,124.84 C65.35,124.433331 65.2666675,124.138334 65.1,123.955 C64.9333325,123.771666 64.6633352,123.68 64.29,123.68 C63.7299972,123.68 63.1733361,123.853332 62.62,124.2 L62.35,123.61 C62.6033346,123.429999 62.9083315,123.285001 63.265,123.175 C63.6216685,123.064999 63.966665,123.01 64.3,123.01 Z M63.98,127.43 C64.380002,127.43 64.708332,127.295001 64.965,127.025 C65.2216679,126.754999 65.35,126.406669 65.35,125.98 L65.35,125.69 L65.17,125.69 C64.5833304,125.69 64.1366682,125.715 63.83,125.765 C63.5233318,125.815 63.3050007,125.898333 63.175,126.015 C63.0449994,126.131667 62.98,126.303332 62.98,126.53 C62.98,126.790001 63.0749991,127.004999 63.265,127.175 C63.4550009,127.345001 63.6933319,127.43 63.98,127.43 Z M69.27,128.07 C68.4499959,128.07 67.8000024,127.860002 67.32,127.44 L67.59,126.84 C67.8500013,127.046668 68.1149987,127.195 68.385,127.285 C68.6550014,127.375 68.9599983,127.42 69.3,127.42 C69.6600018,127.42 69.9349991,127.358334 70.125,127.235 C70.3150009,127.111666 70.41,126.933335 70.41,126.7 C70.41,126.506666 70.3466673,126.353334 70.22,126.24 C70.0933327,126.126666 69.8833348,126.036667 69.59,125.97 L68.77,125.78 C68.3566646,125.686666 68.0400011,125.526668 67.82,125.3 C67.5999989,125.073332 67.49,124.793335 67.49,124.46 C67.49,124.026664 67.6599983,123.676668 68,123.41 C68.3400017,123.143332 68.7933305,123.01 69.36,123.01 C69.7000017,123.01 70.0233318,123.064999 70.33,123.175 C70.6366682,123.285001 70.8933323,123.443332 71.1,123.65 L70.83,124.24 C70.3833311,123.859998 69.893336,123.67 69.36,123.67 C69.0199983,123.67 68.7550009,123.734999 68.565,123.865 C68.374999,123.995001 68.28,124.176665 68.28,124.41 C68.28,124.603334 68.3383328,124.758333 68.455,124.875 C68.5716673,124.991667 68.7599987,125.08 69.02,125.14 L69.85,125.34 C70.3033356,125.446667 70.6399989,125.608332 70.86,125.825 C71.0800011,126.041668 71.19,126.323332 71.19,126.67 C71.19,127.096669 71.0183351,127.436665 70.675,127.69 C70.331665,127.943335 69.8633363,128.07 69.27,128.07 Z M80.3,120.95 L81.14,120.95 L78.06,128 L77.35,128 L74.27,120.95 L75.13,120.95 L77.71,126.97 L80.3,120.95 Z M85.43,125.69 L81.87,125.69 C81.8966668,126.25667 82.0499986,126.684999 82.33,126.975 C82.6100014,127.265001 83.0066641,127.41 83.52,127.41 C84.0866695,127.41 84.6066643,127.216669 85.08,126.83 L85.35,127.42 C85.1366656,127.620001 84.863335,127.778333 84.53,127.895 C84.196665,128.011667 83.8566684,128.07 83.51,128.07 C82.7499962,128.07 82.1516688,127.846669 81.715,127.4 C81.2783311,126.953331 81.06,126.336671 81.06,125.55 C81.06,125.049998 81.1566657,124.608335 81.35,124.225 C81.5433343,123.841665 81.8149983,123.543334 82.165,123.33 C82.5150018,123.116666 82.9133311,123.01 83.36,123.01 C84.0066699,123.01 84.5133315,123.221665 84.88,123.645 C85.2466685,124.068335 85.43,124.649996 85.43,125.39 L85.43,125.69 Z M83.37,123.64 C82.9433312,123.64 82.601668,123.773332 82.345,124.04 C82.088332,124.306668 81.9366669,124.683331 81.89,125.17 L84.72,125.17 C84.7066666,124.676664 84.5833345,124.298335 84.35,124.035 C84.1166655,123.771665 83.7900021,123.64 83.37,123.64 Z M90.98,123.13 L90.98,127.67 C90.98,128.39667 90.7933352,128.944998 90.42,129.315 C90.0466648,129.685002 89.493337,129.87 88.76,129.87 C87.9066624,129.87 87.1900029,129.650002 86.61,129.21 L86.88,128.61 C87.2066683,128.823334 87.5133319,128.976666 87.8,129.07 C88.0866681,129.163334 88.4066649,129.21 88.76,129.21 C89.226669,129.21 89.5799988,129.085001 89.82,128.835 C90.0600012,128.584999 90.18,128.220002 90.18,127.74 L90.18,126.88 C90.0399993,127.193335 89.8250015,127.433333 89.535,127.6 C89.2449986,127.766667 88.9033353,127.85 88.51,127.85 C88.0833312,127.85 87.7050016,127.750001 87.375,127.55 C87.0449984,127.349999 86.7883342,127.066669 86.605,126.7 C86.4216658,126.333331 86.33,125.910002 86.33,125.43 C86.33,124.949998 86.4216658,124.526668 86.605,124.16 C86.7883342,123.793331 87.0449984,123.51 87.375,123.31 C87.7050016,123.109999 88.0833312,123.01 88.51,123.01 C88.8966686,123.01 89.2333319,123.093333 89.52,123.26 C89.8066681,123.426667 90.0233326,123.663332 90.17,123.97 L90.17,123.13 L90.98,123.13 Z M88.67,127.18 C89.136669,127.18 89.503332,127.025002 89.77,126.715 C90.036668,126.404998 90.17,125.976669 90.17,125.43 C90.17,124.889997 90.0383346,124.465002 89.775,124.155 C89.5116654,123.844998 89.1433357,123.69 88.67,123.69 C88.1966643,123.69 87.8250014,123.844998 87.555,124.155 C87.2849987,124.465002 87.15,124.889997 87.15,125.43 C87.15,125.976669 87.2849987,126.404998 87.555,126.715 C87.8250014,127.025002 88.1966643,127.18 88.67,127.18 Z M94.46,123.01 C95.0800031,123.01 95.5416652,123.168332 95.845,123.485 C96.1483348,123.801668 96.3,124.28333 96.3,124.93 L96.3,128 L95.51,128 L95.51,127.17 C95.3833327,127.456668 95.1900013,127.678333 94.93,127.835 C94.6699987,127.991667 94.3700017,128.07 94.03,128.07 C93.7166651,128.07 93.4283347,128.006667 93.165,127.88 C92.9016654,127.753333 92.6933341,127.576668 92.54,127.35 C92.3866659,127.123332 92.31,126.873335 92.31,126.6 C92.31,126.233332 92.4033324,125.948334 92.59,125.745 C92.7766676,125.541666 93.0833312,125.395 93.51,125.305 C93.9366688,125.215 94.5299962,125.17 95.29,125.17 L95.51,125.17 L95.51,124.84 C95.51,124.433331 95.4266675,124.138334 95.26,123.955 C95.0933325,123.771666 94.8233352,123.68 94.45,123.68 C93.8899972,123.68 93.3333361,123.853332 92.78,124.2 L92.51,123.61 C92.7633346,123.429999 93.0683316,123.285001 93.425,123.175 C93.7816685,123.064999 94.126665,123.01 94.46,123.01 Z M94.14,127.43 C94.540002,127.43 94.8683321,127.295001 95.125,127.025 C95.381668,126.754999 95.51,126.406669 95.51,125.98 L95.51,125.69 L95.33,125.69 C94.7433304,125.69 94.2966682,125.715 93.99,125.765 C93.6833318,125.815 93.4650007,125.898333 93.335,126.015 C93.2049994,126.131667 93.14,126.303332 93.14,126.53 C93.14,126.790001 93.234999,127.004999 93.425,127.175 C93.6150009,127.345001 93.8533319,127.43 94.14,127.43 Z M99.43,128.07 C98.6099959,128.07 97.9600024,127.860002 97.48,127.44 L97.75,126.84 C98.0100013,127.046668 98.2749987,127.195 98.545,127.285 C98.8150014,127.375 99.1199983,127.42 99.46,127.42 C99.8200018,127.42 100.094999,127.358334 100.285,127.235 C100.475001,127.111666 100.57,126.933335 100.57,126.7 C100.57,126.506666 100.506667,126.353334 100.38,126.24 C100.253333,126.126666 100.043335,126.036667 99.75,125.97 L98.93,125.78 C98.5166646,125.686666 98.2000011,125.526668 97.98,125.3 C97.7599989,125.073332 97.65,124.793335 97.65,124.46 C97.65,124.026664 97.8199983,123.676668 98.16,123.41 C98.5000017,123.143332 98.9533305,123.01 99.52,123.01 C99.8600017,123.01 100.183332,123.064999 100.49,123.175 C100.796668,123.285001 101.053332,123.443332 101.26,123.65 L100.99,124.24 C100.543331,123.859998 100.053336,123.67 99.52,123.67 C99.1799983,123.67 98.915001,123.734999 98.725,123.865 C98.534999,123.995001 98.44,124.176665 98.44,124.41 C98.44,124.603334 98.4983328,124.758333 98.615,124.875 C98.7316673,124.991667 98.9199987,125.08 99.18,125.14 L100.01,125.34 C100.463336,125.446667 100.799999,125.608332 101.02,125.825 C101.240001,126.041668 101.35,126.323332 101.35,126.67 C101.35,127.096669 101.178335,127.436665 100.835,127.69 C100.491665,127.943335 100.023336,128.07 99.43,128.07 Z" id="path-7"></path>
        <filter x="-1.7%" y="-8.4%" width="103.4%" height="116.8%" filterUnits="objectBoundingBox" id="filter-8">
            <feOffset dx="0" dy="0.5" in="SourceAlpha" result="shadowOffsetOuter1"></feOffset>
            <feColorMatrix values="0 0 0 0 0   0 0 0 0 0   0 0 0 0 0  0 0 0 1 0" type="matrix" in="shadowOffsetOuter1" result="shadowMatrixOuter1"></feColorMatrix>
            <feOffset dx="0" dy="-0.5" in="SourceAlpha" result="shadowOffsetOuter2"></feOffset>
            <feColorMatrix values="0 0 0 0 0   0 0 0 0 0   0 0 0 0 0  0 0 0 1 0" type="matrix" in="shadowOffsetOuter2" result="shadowMatrixOuter2"></feColorMatrix>
            <feOffset dx="0.5" dy="0" in="SourceAlpha" result="shadowOffsetOuter3"></feOffset>
            <feColorMatrix values="0 0 0 0 0   0 0 0 0 0   0 0 0 0 0  0 0 0 1 0" type="matrix" in="shadowOffsetOuter3" result="shadowMatrixOuter3"></feColorMatrix>
            <feOffset dx="-0.5" dy="0" in="SourceAlpha" result="shadowOffsetOuter4"></feOffset>
            <feColorMatrix values="0 0 0 0 0   0 0 0 0 0   0 0 0 0 0  0 0 0 1 0" type="matrix" in="shadowOffsetOuter4" result="shadowMatrixOuter4"></feColorMatrix>
            <feMerge>
                <feMergeNode in="shadowMatrixOuter1"></feMergeNode>
                <feMergeNode in="shadowMatrixOuter2"></feMergeNode>
                <feMergeNode in="shadowMatrixOuter3"></feMergeNode>
                <feMergeNode in="shadowMatrixOuter4"></feMergeNode>
            </feMerge>
        </filter>
        <path d="M138.26,113.95 L140.63,113.95 C141.756672,113.95 142.62833,114.254997 143.245,114.865 C143.86167,115.475003 144.17,116.343328 144.17,117.47 C144.17,118.596672 143.86167,119.466664 143.245,120.08 C142.62833,120.693336 141.756672,121 140.63,121 L138.26,121 L138.26,113.95 Z M140.58,120.3 C142.406676,120.3 143.32,119.356676 143.32,117.47 C143.32,115.589991 142.406676,114.65 140.58,114.65 L139.08,114.65 L139.08,120.3 L140.58,120.3 Z M149.61,118.69 L146.05,118.69 C146.076667,119.25667 146.229999,119.684999 146.51,119.975 C146.790001,120.265001 147.186664,120.41 147.7,120.41 C148.26667,120.41 148.786664,120.216669 149.26,119.83 L149.53,120.42 C149.316666,120.620001 149.043335,120.778333 148.71,120.895 C148.376665,121.011667 148.036668,121.07 147.69,121.07 C146.929996,121.07 146.331669,120.846669 145.895,120.4 C145.458331,119.953331 145.24,119.336671 145.24,118.55 C145.24,118.049998 145.336666,117.608335 145.53,117.225 C145.723334,116.841665 145.994998,116.543334 146.345,116.33 C146.695002,116.116666 147.093331,116.01 147.54,116.01 C148.18667,116.01 148.693331,116.221665 149.06,116.645 C149.426669,117.068335 149.61,117.649996 149.61,118.39 L149.61,118.69 Z M147.55,116.64 C147.123331,116.64 146.781668,116.773332 146.525,117.04 C146.268332,117.306668 146.116667,117.683331 146.07,118.17 L148.9,118.17 C148.886667,117.676664 148.763335,117.298335 148.53,117.035 C148.296665,116.771665 147.970002,116.64 147.55,116.64 Z M153.25,116.01 C154.416673,116.01 155,116.653327 155,117.94 L155,121 L154.19,121 L154.19,117.99 C154.19,117.536664 154.101668,117.206668 153.925,117 C153.748332,116.793332 153.466669,116.69 153.08,116.69 C152.633331,116.69 152.276668,116.826665 152.01,117.1 C151.743332,117.373335 151.61,117.743331 151.61,118.21 L151.61,121 L150.8,121 L150.8,116.13 L151.6,116.13 L151.6,116.93 C151.760001,116.629998 151.983332,116.401667 152.27,116.245 C152.556668,116.088333 152.883331,116.01 153.25,116.01 Z M159.97,116.14 L160.78,116.14 L158.68,121 L157.92,121 L155.83,116.14 L156.69,116.14 L158.32,120.12 L159.97,116.14 Z M165.64,118.69 L162.08,118.69 C162.106667,119.25667 162.259999,119.684999 162.54,119.975 C162.820001,120.265001 163.216664,120.41 163.73,120.41 C164.29667,120.41 164.816664,120.216669 165.29,119.83 L165.56,120.42 C165.346666,120.620001 165.073335,120.778333 164.74,120.895 C164.406665,121.011667 164.066668,121.07 163.72,121.07 C162.959996,121.07 162.361669,120.846669 161.925,120.4 C161.488331,119.953331 161.27,119.336671 161.27,118.55 C161.27,118.049998 161.366666,117.608335 161.56,117.225 C161.753334,116.841665 162.024998,116.543334 162.375,116.33 C162.725002,116.116666 163.123331,116.01 163.57,116.01 C164.21667,116.01 164.723332,116.221665 165.09,116.645 C165.456669,117.068335 165.64,117.649996 165.64,118.39 L165.64,118.69 Z M163.58,116.64 C163.153331,116.64 162.811668,116.773332 162.555,117.04 C162.298332,117.306668 162.146667,117.683331 162.1,118.17 L164.93,118.17 C164.916667,117.676664 164.793335,117.298335 164.56,117.035 C164.326665,116.771665 164.000002,116.64 163.58,116.64 Z M169.59,116.71 L169.06,116.76 C168.559998,116.806667 168.198334,116.963332 167.975,117.23 C167.751666,117.496668 167.64,117.826665 167.64,118.22 L167.64,121 L166.83,121 L166.83,116.13 L167.62,116.13 L167.62,116.98 C167.893335,116.413331 168.429996,116.096667 169.23,116.03 L169.52,116.01 L169.59,116.71 Z" id="path-9"></path>
        <filter x="-2.4%" y="-10.5%" width="104.8%" height="121.1%" filterUnits="objectBoundingBox" id="filter-10">
            <feOffset dx="0" dy="0.5" in="SourceAlpha" result="shadowOffsetOuter1"></feOffset>
            <feColorMatrix values="0 0 0 0 0   0 0 0 0 0   0 0 0 0 0  0 0 0 1 0" type="matrix" in="shadowOffsetOuter1" result="shadowMatrixOuter1"></feColorMatrix>
            <feOffset dx="0" dy="-0.5" in="SourceAlpha" result="shadowOffsetOuter2"></feOffset>
            <feColorMatrix values="0 0 0 0 0   0 0 0 0 0   0 0 0 0 0  0 0 0 1 0" type="matrix" in="shadowOffsetOuter2" result="shadowMatrixOuter2"></feColorMatrix>
            <feOffset dx="0.5" dy="0" in="SourceAlpha" result="shadowOffsetOuter3"></feOffset>
            <feColorMatrix values="0 0 0 0 0   0 0 0 0 0   0 0 0 0 0  0 0 0 1 0" type="matrix" in="shadowOffsetOuter3" result="shadowMatrixOuter3"></feColorMatrix>
            <feOffset dx="-0.5" dy="0" in="SourceAlpha" result="shadowOffsetOuter4"></feOffset>
            <feColorMatrix values="0 0 0 0 0   0 0 0 0 0   0 0 0 0 0  0 0 0 1 0" type="matrix" in="shadowOffsetOuter4" result="shadowMatrixOuter4"></feColorMatrix>
            <feMerge>
                <feMergeNode in="shadowMatrixOuter1"></feMergeNode>
                <feMergeNode in="shadowMatrixOuter2"></feMergeNode>
                <feMergeNode in="shadowMatrixOuter3"></feMergeNode>
                <feMergeNode in="shadowMatrixOuter4"></feMergeNode>
            </feMerge>
        </filter>
        <path d="M12.48,176 L12.48,167.54 L13.464,167.54 L13.464,176 L12.48,176 Z M18.348,170.012 C19.748007,170.012 20.448,170.783992 20.448,172.328 L20.448,176 L19.476,176 L19.476,172.388 C19.476,171.843997 19.3700011,171.448001 19.158,171.2 C18.9459989,170.951999 18.6080023,170.828 18.144,170.828 C17.6079973,170.828 17.1800016,170.991998 16.86,171.32 C16.5399984,171.648002 16.38,172.091997 16.38,172.652 L16.38,176 L15.408,176 L15.408,170.156 L16.368,170.156 L16.368,171.116 C16.560001,170.755998 16.8279983,170.482001 17.172,170.294 C17.5160017,170.105999 17.908,170.012 18.348,170.012 Z M28.152,176.096 C26.8319934,176.096 25.776004,175.740004 24.984,175.028 L25.368,174.272 C25.7840021,174.624002 26.2099978,174.875999 26.646,175.028 C27.0820022,175.180001 27.5879971,175.256 28.164,175.256 C28.8440034,175.256 29.3679982,175.124001 29.736,174.86 C30.1040018,174.595999 30.288,174.224002 30.288,173.744 C30.288,173.463999 30.2000009,173.236001 30.024,173.06 C29.8479991,172.883999 29.6160014,172.744001 29.328,172.64 C29.0399986,172.535999 28.6520024,172.428001 28.164,172.316 C27.5079967,172.163999 26.9700021,172.004001 26.55,171.836 C26.1299979,171.667999 25.7900013,171.428002 25.53,171.116 C25.2699987,170.803998 25.14,170.396003 25.14,169.892 C25.14,169.411998 25.2659987,168.986002 25.518,168.614 C25.7700013,168.241998 26.1299977,167.954001 26.598,167.75 C27.0660023,167.545999 27.6079969,167.444 28.224,167.444 C28.8080029,167.444 29.3539975,167.535999 29.862,167.72 C30.3700025,167.904001 30.7999982,168.167998 31.152,168.512 L30.78,169.268 C30.379998,168.923998 29.9740021,168.674001 29.562,168.518 C29.1499979,168.361999 28.7040024,168.284 28.224,168.284 C27.5679967,168.284 27.0540019,168.421999 26.682,168.698 C26.3099981,168.974001 26.124,169.359998 26.124,169.856 C26.124,170.280002 26.2879984,170.599999 26.616,170.816 C26.9440016,171.032001 27.4399967,171.215999 28.104,171.368 C28.8320036,171.544001 29.4039979,171.705999 29.82,171.854 C30.2360021,172.002001 30.5819986,172.223999 30.858,172.52 C31.1340014,172.816001 31.272,173.211998 31.272,173.708 C31.272,174.188002 31.1460013,174.607998 30.894,174.968 C30.6419987,175.328002 30.2800024,175.605999 29.808,175.802 C29.3359976,175.998001 28.7840032,176.096 28.152,176.096 Z M37.644,170.156 L37.644,176 L36.696,176 L36.696,175.004 C36.5119991,175.356002 36.2540017,175.623999 35.922,175.808 C35.5899983,175.992001 35.2160021,176.084 34.8,176.084 C34.1039965,176.084 33.5800018,175.890002 33.228,175.502 C32.8759982,175.113998 32.7,174.540004 32.7,173.78 L32.7,170.156 L33.672,170.156 L33.672,173.756 C33.672,174.276003 33.775999,174.657999 33.984,174.902 C34.192001,175.146001 34.5199978,175.268 34.968,175.268 C35.4800026,175.268 35.8919984,175.102002 36.204,174.77 C36.5160016,174.437998 36.672,174.000003 36.672,173.456 L36.672,170.156 L37.644,170.156 Z M45.96,170.012 C47.2560065,170.012 47.904,170.783992 47.904,172.328 L47.904,176 L46.932,176 L46.932,172.376 C46.932,171.839997 46.8380009,171.448001 46.65,171.2 C46.4619991,170.951999 46.1600021,170.828 45.744,170.828 C45.2559976,170.828 44.8720014,170.991998 44.592,171.32 C44.3119986,171.648002 44.172,172.095997 44.172,172.664 L44.172,176 L43.2,176 L43.2,172.376 C43.2,171.831997 43.104001,171.438001 42.912,171.194 C42.719999,170.949999 42.4160021,170.828 42,170.828 C41.5119976,170.828 41.1280014,170.991998 40.848,171.32 C40.5679986,171.648002 40.428,172.095997 40.428,172.664 L40.428,176 L39.456,176 L39.456,170.156 L40.416,170.156 L40.416,171.08 C40.5920009,170.735998 40.8359984,170.472001 41.148,170.288 C41.4600016,170.103999 41.819998,170.012 42.228,170.012 C43.1320045,170.012 43.7279986,170.395996 44.016,171.164 C44.1840008,170.803998 44.4399983,170.522001 44.784,170.318 C45.1280017,170.113999 45.5199978,170.012 45.96,170.012 Z M56.184,170.012 C57.4800065,170.012 58.128,170.783992 58.128,172.328 L58.128,176 L57.156,176 L57.156,172.376 C57.156,171.839997 57.0620009,171.448001 56.874,171.2 C56.6859991,170.951999 56.3840021,170.828 55.968,170.828 C55.4799976,170.828 55.0960014,170.991998 54.816,171.32 C54.5359986,171.648002 54.396,172.095997 54.396,172.664 L54.396,176 L53.424,176 L53.424,172.376 C53.424,171.831997 53.328001,171.438001 53.136,171.194 C52.943999,170.949999 52.6400021,170.828 52.224,170.828 C51.7359976,170.828 51.3520014,170.991998 51.072,171.32 C50.7919986,171.648002 50.652,172.095997 50.652,172.664 L50.652,176 L49.68,176 L49.68,170.156 L50.64,170.156 L50.64,171.08 C50.8160009,170.735998 51.0599984,170.472001 51.372,170.288 C51.6840016,170.103999 52.043998,170.012 52.452,170.012 C53.3560045,170.012 53.9519986,170.395996 54.24,171.164 C54.4080008,170.803998 54.6639983,170.522001 55.008,170.318 C55.3520017,170.113999 55.7439978,170.012 56.184,170.012 Z M64.8,173.228 L60.528,173.228 C60.5600002,173.908003 60.7439983,174.421998 61.08,174.77 C61.4160017,175.118002 61.8919969,175.292 62.508,175.292 C63.1880034,175.292 63.8119972,175.060002 64.38,174.596 L64.704,175.304 C64.4479987,175.544001 64.120002,175.733999 63.72,175.874 C63.319998,176.014001 62.9120021,176.084 62.496,176.084 C61.5839954,176.084 60.8660026,175.816003 60.342,175.28 C59.8179974,174.743997 59.556,174.004005 59.556,173.06 C59.556,172.459997 59.6719988,171.930002 59.904,171.47 C60.1360012,171.009998 60.4619979,170.652001 60.882,170.396 C61.3020021,170.139999 61.7799973,170.012 62.316,170.012 C63.0920039,170.012 63.6999978,170.265997 64.14,170.774 C64.5800022,171.282003 64.8,171.979996 64.8,172.868 L64.8,173.228 Z M62.328,170.768 C61.8159974,170.768 61.4060015,170.927998 61.098,171.248 C60.7899985,171.568002 60.6080003,172.019997 60.552,172.604 L63.948,172.604 C63.9319999,172.011997 63.7840014,171.558002 63.504,171.242 C63.2239986,170.925998 62.8320025,170.768 62.328,170.768 Z M69.54,170.852 L68.904,170.912 C68.303997,170.968 67.8700013,171.155998 67.602,171.476 C67.3339987,171.796002 67.2,172.191998 67.2,172.664 L67.2,176 L66.228,176 L66.228,170.156 L67.176,170.156 L67.176,171.176 C67.5040016,170.495997 68.1479952,170.116 69.108,170.036 L69.456,170.012 L69.54,170.852 Z" id="path-11"></path>
        <filter x="-1.3%" y="-8.7%" width="102.6%" height="117.3%" filterUnits="objectBoundingBox" id="filter-12">
            <feOffset dx="0" dy="0.5" in="SourceAlpha" result="shadowOffsetOuter1"></feOffset>
            <feColorMatrix values="0 0 0 0 0   0 0 0 0 0   0 0 0 0 0  0 0 0 1 0" type="matrix" in="shadowOffsetOuter1" result="shadowMatrixOuter1"></feColorMatrix>
            <feOffset dx="0" dy="-0.5" in="SourceAlpha" result="shadowOffsetOuter2"></feOffset>
            <feColorMatrix values="0 0 0 0 0   0 0 0 0 0   0 0 0 0 0  0 0 0 1 0" type="matrix" in="shadowOffsetOuter2" result="shadowMatrixOuter2"></feColorMatrix>
            <feOffset dx="0.5" dy="0" in="SourceAlpha" result="shadowOffsetOuter3"></feOffset>
            <feColorMatrix values="0 0 0 0 0   0 0 0 0 0   0 0 0 0 0  0 0 0 1 0" type="matrix" in="shadowOffsetOuter3" result="shadowMatrixOuter3"></feColorMatrix>
            <feOffset dx="-0.5" dy="0" in="SourceAlpha" result="shadowOffsetOuter4"></feOffset>
            <feColorMatrix values="0 0 0 0 0   0 0 0 0 0   0 0 0 0 0  0 0 0 1 0" type="matrix" in="shadowOffsetOuter4" result="shadowMatrixOuter4"></feColorMatrix>
            <feMerge>
                <feMergeNode in="shadowMatrixOuter1"></feMergeNode>
                <feMergeNode in="shadowMatrixOuter2"></feMergeNode>
                <feMergeNode in="shadowMatrixOuter3"></feMergeNode>
                <feMergeNode in="shadowMatrixOuter4"></feMergeNode>
            </feMerge>
        </filter>
        <path d="M100.326,196 L100.326,187.54 L101.31,187.54 L101.31,196 L100.326,196 Z M106.194,190.012 C107.594007,190.012 108.294,190.783992 108.294,192.328 L108.294,196 L107.322,196 L107.322,192.388 C107.322,191.843997 107.216001,191.448001 107.004,191.2 C106.791999,190.951999 106.454002,190.828 105.99,190.828 C105.453997,190.828 105.026002,190.991998 104.706,191.32 C104.385998,191.648002 104.226,192.091997 104.226,192.652 L104.226,196 L103.254,196 L103.254,190.156 L104.214,190.156 L104.214,191.116 C104.406001,190.755998 104.673998,190.482001 105.018,190.294 C105.362002,190.105999 105.754,190.012 106.194,190.012 Z M124.11,187.54 L125.07,187.54 L122.118,196 L121.278,196 L118.866,189.076 L116.454,196 L115.626,196 L112.662,187.54 L113.658,187.54 L116.058,194.608 L118.518,187.54 L119.262,187.552 L121.686,194.62 L124.11,187.54 Z M126.378,196 L126.378,190.156 L127.35,190.156 L127.35,196 L126.378,196 Z M126.282,187.624 L127.458,187.624 L127.458,188.716 L126.282,188.716 L126.282,187.624 Z M132.102,190.012 C133.502007,190.012 134.202,190.783992 134.202,192.328 L134.202,196 L133.23,196 L133.23,192.388 C133.23,191.843997 133.124001,191.448001 132.912,191.2 C132.699999,190.951999 132.362002,190.828 131.898,190.828 C131.361997,190.828 130.934002,190.991998 130.614,191.32 C130.293998,191.648002 130.134,192.091997 130.134,192.652 L130.134,196 L129.162,196 L129.162,190.156 L130.122,190.156 L130.122,191.116 C130.314001,190.755998 130.581998,190.482001 130.926,190.294 C131.270002,190.105999 131.662,190.012 132.102,190.012 Z M138.546,195.304 C138.722001,195.304 138.897999,195.292 139.074,195.268 L139.026,196.036 C138.841999,196.068 138.642001,196.084 138.426,196.084 C137.721996,196.084 137.192002,195.900002 136.836,195.532 C136.479998,195.163998 136.302,194.652003 136.302,193.996 L136.302,190.924 L135.162,190.924 L135.162,190.156 L136.302,190.156 L136.302,188.38 L137.274,188.38 L137.274,190.156 L138.93,190.156 L138.93,190.924 L137.274,190.924 L137.274,193.924 C137.274,194.844005 137.697996,195.304 138.546,195.304 Z M144.954,193.228 L140.682,193.228 C140.714,193.908003 140.897998,194.421998 141.234,194.77 C141.570002,195.118002 142.045997,195.292 142.662,195.292 C143.342003,195.292 143.965997,195.060002 144.534,194.596 L144.858,195.304 C144.601999,195.544001 144.274002,195.733999 143.874,195.874 C143.473998,196.014001 143.066002,196.084 142.65,196.084 C141.737995,196.084 141.020003,195.816003 140.496,195.28 C139.971997,194.743997 139.71,194.004005 139.71,193.06 C139.71,192.459997 139.825999,191.930002 140.058,191.47 C140.290001,191.009998 140.615998,190.652001 141.036,190.396 C141.456002,190.139999 141.933997,190.012 142.47,190.012 C143.246004,190.012 143.853998,190.265997 144.294,190.774 C144.734002,191.282003 144.954,191.979996 144.954,192.868 L144.954,193.228 Z M142.482,190.768 C141.969997,190.768 141.560002,190.927998 141.252,191.248 C140.943998,191.568002 140.762,192.019997 140.706,192.604 L144.102,192.604 C144.086,192.011997 143.938001,191.558002 143.658,191.242 C143.377999,190.925998 142.986003,190.768 142.482,190.768 Z M149.694,190.852 L149.058,190.912 C148.457997,190.968 148.024001,191.155998 147.756,191.476 C147.487999,191.796002 147.354,192.191998 147.354,192.664 L147.354,196 L146.382,196 L146.382,190.156 L147.33,190.156 L147.33,191.176 C147.658002,190.495997 148.301995,190.116 149.262,190.036 L149.61,190.012 L149.694,190.852 Z" id="path-13"></path>
        <filter x="-1.5%" y="-8.8%" width="103.0%" height="117.6%" filterUnits="objectBoundingBox" id="filter-14">
            <feOffset dx="0" dy="0.5" in="SourceAlpha" result="shadowOffsetOuter1"></feOffset>
            <feColorMatrix values="0 0 0 0 0   0 0 0 0 0   0 0 0 0 0  0 0 0 1 0" type="matrix" in="shadowOffsetOuter1" result="shadowMatrixOuter1"></feColorMatrix>
            <feOffset dx="0" dy="-0.5" in="SourceAlpha" result="shadowOffsetOuter2"></feOffset>
            <feColorMatrix values="0 0 0 0 0   0 0 0 0 0   0 0 0 0 0  0 0 0 1 0" type="matrix" in="shadowOffsetOuter2" result="shadowMatrixOuter2"></feColorMatrix>
            <feOffset dx="0.5" dy="0" in="SourceAlpha" result="shadowOffsetOuter3"></feOffset>
            <feColorMatrix values="0 0 0 0 0   0 0 0 0 0   0 0 0 0 0  0 0 0 1 0" type="matrix" in="shadowOffsetOuter3" result="shadowMatrixOuter3"></feColorMatrix>
            <feOffset dx="-0.5" dy="0" in="SourceAlpha" result="shadowOffsetOuter4"></feOffset>
            <feColorMatrix values="0 0 0 0 0   0 0 0 0 0   0 0 0 0 0  0 0 0 1 0" type="matrix" in="shadowOffsetOuter4" result="shadowMatrixOuter4"></feColorMatrix>
            <feMerge>
                <feMergeNode in="shadowMatrixOuter1"></feMergeNode>
                <feMergeNode in="shadowMatrixOuter2"></feMergeNode>
                <feMergeNode in="shadowMatrixOuter3"></feMergeNode>
                <feMergeNode in="shadowMatrixOuter4"></feMergeNode>
            </feMerge>
        </filter>
    </defs>
    <g id="phoenix" stroke="none" stroke-width="1" fill="none" fill-rule="evenodd">
        <polygon id="Path-8" fill="#3057C2" points="47.6756875 29 47.6756875 49.8434238 35 83.4244955 35 105.715379 41.3378437 134.664579 62.0798778 166.942937 75.4757748 170.561587 101.835443 184.167711 134.821039 190.68128 152.826277 209.49826 163.629419 205.011134 180.914448 229.328462 196.759057 237 196.759057 219.485734 204.393278 209.49826 224.703186 205.011134 242.996508 205.011134 258.26495 197.339596 280.447403 197.339596 290.530336 201.681976 297.012222 215.577592 304.502401 229.328462 310.696203 233.670842 314.153208 219.485734 310.696203 205.011134 304.502401 191.983994 304.502401 184.167711 318.762549 166.942937 333.742907 145.375783 328.269315 132.927627 328.269315 116.426583 333.742907 105.715379 333.742907 97.3201113 345.266259 90.3723034 345.266259 69.2393876 365 53.6068198 352.324313 39.4217119 345.266259 39.4217119 338.784374 61.4231037 318.762549 69.2393876 304.502401 83.4244955 290.530336 97.3201113 276.990397 101.083507 276.990397 76.3319415 261.433872 76.3319415 258.26495 105.715379 249.19031 105.715379 249.19031 83.4244955 255.096028 69.2393876 242.996508 61.4231037 228.304234 69.2393876 228.304234 57.3702157 210.010912 49.8434238 163.629419 49.8434238 113.502837 42.7508699 75.4757748 33.631872"></polygon>
        <polygon id="Path-35-Copy" fill="#3AAE93" points="47.6756875 29 74.254902 33.3707992 99.84 39.2289446 104.45098 62.2429581 99.84 71.4422701 85.3155556 71.4422701 74 85.9150821 74 93.0038063 99.84 100.092531 87.68 134.679598 112 142.112913 104.366667 185 101.835443 184.424106 75.1941438 170.595652 62.0798778 167.17087 41.4492962 134.812485 35 107 35 84.5569962 47.6756875 49.877865"></polygon>
        <g id="Group-2" transform="translate(75.000000, 134.000000)">
            <mask id="mask-2" fill="white">
                <use xlink:href="#path-1"></use>
            </mask>
            <g id="Mask"></g>
            <g mask="url(#mask-2)">
                <g transform="translate(20.000000, 23.000000) rotate(60.000000) translate(-20.000000, -23.000000) translate(-10.000000, -2.000000)">
                    <rect id="Rectangle" fill="#3AAE93" x="0" y="20" width="60" height="5"></rect>
                    <rect id="Rectangle-Copy-6" fill="#3AAE93" x="0" y="10" width="60" height="5"></rect>
                    <rect id="Rectangle-Copy-8" fill="#3AAE93" x="0" y="0" width="60" height="5"></rect>
                    <rect id="Rectangle-Copy-2" fill="#3AAE93" x="0" y="30" width="60" height="5"></rect>
                    <rect id="Rectangle-Copy-4" fill="#3AAE93" x="0" y="40" width="60" height="5"></rect>
                    <rect id="Rectangle-Copy" fill="#3057C2" x="0" y="25" width="60" height="5"></rect>
                    <rect id="Rectangle-Copy-7" fill="#3057C2" x="0" y="15" width="60" height="5"></rect>
                    <rect id="Rectangle-Copy-9" fill="#3057C2" x="0" y="5" width="60" height="5"></rect>
                    <rect id="Rectangle-Copy-3" fill="#3057C2" x="0" y="35" width="60" height="5"></rect>
                    <rect id="Rectangle-Copy-5" fill="#3057C2" x="0" y="45" width="60" height="5"></rect>
                </g>
            </g>
        </g>
        <polygon id="Path-8" stroke="#080A23" points="47.6756875 29 47.6756875 49.8434238 35 83.4244955 35 105.715379 41.3378437 134.664579 62.0798778 166.942937 75.4757748 170.561587 101.835443 184.167711 134.821039 190.68128 152.826277 209.49826 163.629419 205.011134 180.914448 229.328462 196.759057 237 196.759057 219.485734 204.393278 209.49826 224.703186 205.011134 242.996508 205.011134 258.26495 197.339596 280.447403 197.339596 290.530336 201.681976 297.012222 215.577592 304.502401 229.328462 310.696203 233.670842 314.153208 219.485734 310.696203 205.011134 304.502401 191.983994 304.502401 184.167711 318.762549 166.942937 333.742907 145.375783 328.269315 132.927627 328.269315 116.426583 333.742907 105.715379 333.742907 97.3201113 345.266259 90.3723034 345.266259 69.2393876 365 53.6068198 352.324313 39.4217119 345.266259 39.4217119 338.784374 61.4231037 318.762549 69.2393876 304.502401 83.4244955 290.530336 97.3201113 276.990397 101.083507 276.990397 76.3319415 261.433872 76.3319415 258.26495 105.715379 249.19031 105.715379 249.19031 83.4244955 255.096028 69.2393876 242.996508 61.4231037 228.304234 69.2393876 228.304234 57.3702157 210.010912 49.8434238 163.629419 49.8434238 113.502837 42.7508699 75.4757748 33.631872"></polygon>
        <polyline id="Path-9" stroke="#080A23" points="98.9281439 37 104.4 63.5484413 99.84 71.5179419 85.3155556 71.5179419 74 85.9811096 74 93.0651101 99.84 100.149111 87.68 134.71313 112 142.141491 104.366667 185"></polyline>
        <polyline id="Path-10" stroke="#080A23" points="160.067265 47 160.067265 64.2206703 170.927436 64.2206703 175 76.307983 175 100.336978 170.927436 115.628157 164.139829 141.259085 160.067265 152.035725 154.335508 187.423881 141.363636 187.423881 138 198"></polyline>
        <polyline id="Path-11" stroke="#080A23" points="252 104 252 113.062772 252 130.90946 270.965035 142.760777 270.965035 157.261211 276 177.896445 276 200"></polyline>
        <g id="Phoenix" fill-rule="nonzero">
            <use fill="black" fill-opacity="1" filter="url(#filter-4)" xlink:href="#path-3"></use>
            <use fill="#FFFFFF" xlink:href="#path-3"></use>
        </g>
        <circle id="Oval-Copy-8" stroke="#000000" stroke-width="2" fill="#FFFFFF" cx="92" cy="166" r="5"></circle>
        <circle id="Oval-Copy-11" stroke="#000000" fill="#FFFFFF" cx="106" cy="109" r="2.5"></circle>
        <circle id="Oval-Copy-13" stroke="#000000" fill="#FFFFFF" cx="78" cy="136" r="2.5"></circle>
        <circle id="Oval-Copy-12" stroke="#000000" fill="#FFFFFF" cx="153" cy="129" r="2.5"></circle>
        <g id="SaltLakeCity" fill-rule="nonzero">
            <use fill="black" fill-opacity="1" filter="url(#filter-6)" xlink:href="#path-5"></use>
            <use fill="#FFFFFF" xlink:href="#path-5"></use>
        </g>
        <g id="LasVegas" fill-rule="nonzero">
            <use fill="black" fill-opacity="1" filter="url(#filter-8)" xlink:href="#path-7"></use>
            <use fill="#FFFFFF" xlink:href="#path-7"></use>
        </g>
        <g id="Denver" fill-rule="nonzero">
            <use fill="black" fill-opacity="1" filter="url(#filter-10)" xlink:href="#path-9"></use>
            <use fill="#FFFFFF" xlink:href="#path-9"></use>
        </g>
        <g id="InSummer" fill-rule="nonzero">
            <use fill="black" fill-opacity="1" filter="url(#filter-12)" xlink:href="#path-11"></use>
            <use fill="#FFFFFF" xlink:href="#path-11"></use>
        </g>
        <g id="InWinter" fill-rule="nonzero">
            <use fill="black" fill-opacity="1" filter="url(#filter-14)" xlink:href="#path-13"></use>
            <use fill="#FFFFFF" xlink:href="#path-13"></use>
        </g>
        <polygon id="Path-13-Copy-4" fill="#FFFFFF" transform="translate(124.000000, 176.000000) rotate(193.000000) translate(-124.000000, -176.000000) " points="127 178 121 176 127 174"></polygon>
        <polygon id="Path-13-Copy-4" fill="#FFFFFF" transform="translate(69.000000, 160.000000) rotate(16.000000) translate(-69.000000, -160.000000) " points="72 162 66 160 72 158"></polygon>
        <path d="M103.5,170.5 L124,176" id="Line-5" stroke="#FFFFFF" stroke-linecap="square"></path>
        <path d="M70.75,160.75 L81.75,163.75" id="Line-5-Copy" stroke="#FFFFFF" stroke-linecap="square"></path>
        <path d="M0.87,45.95 L3.66,45.95 C4.4000037,45.95 4.97499795,46.1299982 5.385,46.49 C5.79500205,46.8500018 6,47.3599967 6,48.02 C6,48.6800033 5.7933354,49.1933315 5.38,49.56 C4.9666646,49.9266685 4.393337,50.11 3.66,50.11 L1.69,50.11 L1.69,53 L0.87,53 L0.87,45.95 Z M3.58,49.43 C4.6533387,49.43 5.19,48.9600047 5.19,48.02 C5.19,47.0933287 4.6533387,46.63 3.58,46.63 L1.69,46.63 L1.69,49.43 L3.58,49.43 Z M9.07,48.01 C9.6900031,48.01 10.1516651,48.1683318 10.455,48.485 C10.7583348,48.8016682 10.91,49.2833301 10.91,49.93 L10.91,53 L10.12,53 L10.12,52.17 C9.9933327,52.4566681 9.8000013,52.6783326 9.54,52.835 C9.2799987,52.9916675 8.9800017,53.07 8.64,53.07 C8.3266651,53.07 8.03833465,53.0066673 7.775,52.88 C7.51166535,52.7533327 7.3033341,52.5766678 7.15,52.35 C6.9966659,52.1233322 6.92,51.8733347 6.92,51.6 C6.92,51.2333315 7.0133324,50.9483344 7.2,50.745 C7.3866676,50.5416656 7.6933312,50.3950004 8.12,50.305 C8.5466688,50.2149996 9.1399962,50.17 9.9,50.17 L10.12,50.17 L10.12,49.84 C10.12,49.4333313 10.0366675,49.1383342 9.87,48.955 C9.7033325,48.7716657 9.4333352,48.68 9.06,48.68 C8.4999972,48.68 7.9433361,48.8533316 7.39,49.2 L7.12,48.61 C7.3733346,48.4299991 7.67833155,48.2850005 8.035,48.175 C8.39166845,48.0649995 8.736665,48.01 9.07,48.01 Z M8.75,52.43 C9.150002,52.43 9.47833205,52.2950013 9.735,52.025 C9.99166795,51.7549987 10.12,51.4066688 10.12,50.98 L10.12,50.69 L9.94,50.69 C9.3533304,50.69 8.9066682,50.7149998 8.6,50.765 C8.2933318,50.8150002 8.07500065,50.8983328 7.945,51.015 C7.81499935,51.1316672 7.75,51.3033322 7.75,51.53 C7.75,51.7900013 7.84499905,52.0049992 8.035,52.175 C8.22500095,52.3450008 8.4633319,52.43 8.75,52.43 Z M14.45,53.07 C13.9699976,53.07 13.5533351,52.9666677 13.2,52.76 C12.8466649,52.5533323 12.5750009,52.2616685 12.385,51.885 C12.194999,51.5083315 12.1,51.0666692 12.1,50.56 C12.1,50.0533308 12.1983323,49.6083353 12.395,49.225 C12.5916676,48.8416647 12.8683316,48.5433344 13.225,48.33 C13.5816685,48.1166656 13.9999976,48.01 14.48,48.01 C14.8066683,48.01 15.1266651,48.0683327 15.44,48.185 C15.7533349,48.3016673 16.0066657,48.4566657 16.2,48.65 L15.93,49.25 C15.4699977,48.8766648 15.0033357,48.69 14.53,48.69 C14.0299975,48.69 13.6400014,48.8533317 13.36,49.18 C13.0799986,49.5066683 12.94,49.9666637 12.94,50.56 C12.94,51.1466696 13.0799986,51.5999984 13.36,51.92 C13.6400014,52.2400016 14.0299975,52.4 14.53,52.4 C15.0033357,52.4 15.4699977,52.2133352 15.93,51.84 L16.2,52.44 C15.9933323,52.6333343 15.7333349,52.7866661 15.42,52.9 C15.1066651,53.0133339 14.783335,53.07 14.45,53.07 Z M17.18,53 L17.18,48.13 L17.99,48.13 L17.99,53 L17.18,53 Z M17.1,46.02 L18.08,46.02 L18.08,46.93 L17.1,46.93 L17.1,46.02 Z M20.58,48.13 L23.58,48.13 L23.58,53 L22.77,53 L22.77,48.77 L20.58,48.77 L20.58,53 L19.77,53 L19.77,48.77 L18.82,48.77 L18.82,48.13 L19.77,48.13 L19.77,47.97 C19.77,47.3166634 19.9333317,46.823335 20.26,46.49 C20.5866683,46.156665 21.0866633,45.9733335 21.76,45.94 L22.13,45.92 L22.18,46.55 L21.72,46.58 C21.32,46.6066668 21.0300009,46.7233323 20.85,46.93 C20.6699991,47.1366677 20.58,47.4466646 20.58,47.86 L20.58,48.13 Z M22.68,46.01 L23.68,46.01 L23.68,46.94 L22.68,46.94 L22.68,46.01 Z M27.15,53.07 C26.6699976,53.07 26.2533351,52.9666677 25.9,52.76 C25.5466649,52.5533323 25.2750009,52.2616685 25.085,51.885 C24.894999,51.5083315 24.8,51.0666692 24.8,50.56 C24.8,50.0533308 24.8983323,49.6083353 25.095,49.225 C25.2916677,48.8416647 25.5683315,48.5433344 25.925,48.33 C26.2816685,48.1166656 26.6999976,48.01 27.18,48.01 C27.5066683,48.01 27.8266651,48.0683327 28.14,48.185 C28.4533349,48.3016673 28.7066657,48.4566657 28.9,48.65 L28.63,49.25 C28.1699977,48.8766648 27.7033357,48.69 27.23,48.69 C26.7299975,48.69 26.3400014,48.8533317 26.06,49.18 C25.7799986,49.5066683 25.64,49.9666637 25.64,50.56 C25.64,51.1466696 25.7799986,51.5999984 26.06,51.92 C26.3400014,52.2400016 26.7299975,52.4 27.23,52.4 C27.7033357,52.4 28.1699977,52.2133352 28.63,51.84 L28.9,52.44 C28.6933323,52.6333343 28.4333349,52.7866661 28.12,52.9 C27.8066651,53.0133339 27.483335,53.07 27.15,53.07 Z M2.57,65 L2.57,58.65 L0.12,58.65 L0.12,57.95 L5.86,57.95 L5.86,58.65 L3.4,58.65 L3.4,65 L2.57,65 Z M6.73,65 L6.73,60.13 L7.54,60.13 L7.54,65 L6.73,65 Z M6.65,58.02 L7.63,58.02 L7.63,58.93 L6.65,58.93 L6.65,58.02 Z M14.47,60.01 C15.55,60.01 16.09,60.6533269 16.09,61.94 L16.09,65 L15.28,65 L15.28,61.98 C15.28,61.5333311 15.2016675,61.2066677 15.045,61 C14.8883326,60.7933323 14.6366684,60.69 14.29,60.69 C13.8833313,60.69 13.5633345,60.8266653 13.33,61.1 C13.0966655,61.3733347 12.98,61.7466643 12.98,62.22 L12.98,65 L12.17,65 L12.17,61.98 C12.17,61.5266644 12.0900008,61.1983343 11.93,60.995 C11.7699992,60.7916656 11.5166684,60.69 11.17,60.69 C10.7633313,60.69 10.4433345,60.8266653 10.21,61.1 C9.9766655,61.3733347 9.86,61.7466643 9.86,62.22 L9.86,65 L9.05,65 L9.05,60.13 L9.85,60.13 L9.85,60.9 C9.9966674,60.6133319 10.1999987,60.3933341 10.46,60.24 C10.7200013,60.0866659 11.0199983,60.01 11.36,60.01 C12.1133371,60.01 12.6099988,60.3299968 12.85,60.97 C12.9900007,60.6699985 13.2033319,60.4350009 13.49,60.265 C13.7766681,60.0949991 14.1033315,60.01 14.47,60.01 Z M21.65,62.69 L18.09,62.69 C18.1166668,63.2566695 18.2699986,63.6849986 18.55,63.975 C18.8300014,64.2650014 19.2266641,64.41 19.74,64.41 C20.3066695,64.41 20.8266643,64.2166686 21.3,63.83 L21.57,64.42 C21.3566656,64.620001 21.083335,64.7783328 20.75,64.895 C20.416665,65.0116673 20.0766684,65.07 19.73,65.07 C18.9699962,65.07 18.3716688,64.8466689 17.935,64.4 C17.4983312,63.9533311 17.28,63.3366706 17.28,62.55 C17.28,62.0499975 17.3766657,61.6083352 17.57,61.225 C17.7633343,60.8416647 18.0349983,60.5433344 18.385,60.33 C18.7350017,60.1166656 19.1333311,60.01 19.58,60.01 C20.2266699,60.01 20.7333315,60.2216645 21.1,60.645 C21.4666685,61.0683354 21.65,61.6499963 21.65,62.39 L21.65,62.69 Z M19.59,60.64 C19.1633312,60.64 18.821668,60.773332 18.565,61.04 C18.3083321,61.306668 18.1566669,61.6833309 18.11,62.17 L20.94,62.17 C20.9266666,61.6766642 20.8033345,61.2983347 20.57,61.035 C20.3366655,60.7716653 20.0100021,60.64 19.59,60.64 Z" id="PacifcTime" fill="#FFFFFF" fill-rule="nonzero" opacity="0.5"></path>
        <path d="M125.86,1.95 L126.53,1.95 L126.53,9 L125.78,9 L125.79,3.54 L123.5,7.88 L122.92,7.88 L120.62,3.58 L120.63,9 L119.87,9 L119.87,1.95 L120.55,1.95 L123.22,7.06 L125.86,1.95 Z M130.18,9.07 C129.719998,9.07 129.315002,8.9666677 128.965,8.76 C128.614998,8.5533323 128.345001,8.25833525 128.155,7.875 C127.964999,7.49166475 127.87,7.0466692 127.87,6.54 C127.87,6.0333308 127.964999,5.58833525 128.155,5.205 C128.345001,4.82166475 128.614998,4.5266677 128.965,4.32 C129.315002,4.1133323 129.719998,4.01 130.18,4.01 C130.640002,4.01 131.046665,4.1133323 131.4,4.32 C131.753335,4.5266677 132.024999,4.82166475 132.215,5.205 C132.405001,5.58833525 132.5,6.0333308 132.5,6.54 C132.5,7.0466692 132.405001,7.49166475 132.215,7.875 C132.024999,8.25833525 131.753335,8.5533323 131.4,8.76 C131.046665,8.9666677 130.640002,9.07 130.18,9.07 Z M130.18,8.4 C130.660002,8.4 131.028332,8.24166825 131.285,7.925 C131.541668,7.60833175 131.67,7.1466697 131.67,6.54 C131.67,5.9466637 131.540001,5.48833495 131.28,5.165 C131.019999,4.84166505 130.653336,4.68 130.18,4.68 C129.706664,4.68 129.340001,4.84166505 129.08,5.165 C128.819999,5.48833495 128.69,5.9466637 128.69,6.54 C128.69,7.140003 128.818332,7.5999984 129.075,7.92 C129.331668,8.2400016 129.699998,8.4 130.18,8.4 Z M137.81,4.13 L137.81,9 L137.02,9 L137.02,8.17 C136.866666,8.4633348 136.651668,8.6866659 136.375,8.84 C136.098332,8.9933341 135.786668,9.07 135.44,9.07 C134.859997,9.07 134.423335,8.90833495 134.13,8.585 C133.836665,8.26166505 133.69,7.7833365 133.69,7.15 L133.69,4.13 L134.5,4.13 L134.5,7.13 C134.5,7.5633355 134.586666,7.88166565 134.76,8.085 C134.933334,8.28833435 135.206665,8.39 135.58,8.39 C136.006669,8.39 136.349999,8.25166805 136.61,7.975 C136.870001,7.69833195 137,7.3333356 137,6.88 L137,4.13 L137.81,4.13 Z M141.77,4.01 C142.936672,4.01 143.52,4.6533269 143.52,5.94 L143.52,9 L142.71,9 L142.71,5.99 C142.71,5.5366644 142.621668,5.2066677 142.445,5 C142.268332,4.7933323 141.986669,4.69 141.6,4.69 C141.153331,4.69 140.796668,4.8266653 140.53,5.1 C140.263332,5.3733347 140.13,5.743331 140.13,6.21 L140.13,9 L139.32,9 L139.32,4.13 L140.12,4.13 L140.12,4.93 C140.280001,4.6299985 140.503332,4.40166745 140.79,4.245 C141.076668,4.08833255 141.403332,4.01 141.77,4.01 Z M147.14,8.42 C147.286667,8.42 147.433333,8.4100001 147.58,8.39 L147.54,9.03 C147.386666,9.0566668 147.220001,9.07 147.04,9.07 C146.45333,9.07 146.011668,8.9166682 145.715,8.61 C145.418332,8.3033318 145.27,7.8766694 145.27,7.33 L145.27,4.77 L144.32,4.77 L144.32,4.13 L145.27,4.13 L145.27,2.65 L146.08,2.65 L146.08,4.13 L147.46,4.13 L147.46,4.77 L146.08,4.77 L146.08,7.27 C146.08,8.0366705 146.43333,8.42 147.14,8.42 Z M150.38,4.01 C151.000003,4.01 151.461665,4.16833175 151.765,4.485 C152.068335,4.80166825 152.22,5.2833301 152.22,5.93 L152.22,9 L151.43,9 L151.43,8.17 C151.303333,8.4566681 151.110001,8.67833255 150.85,8.835 C150.589999,8.99166745 150.290002,9.07 149.95,9.07 C149.636665,9.07 149.348335,9.0066673 149.085,8.88 C148.821665,8.7533327 148.613334,8.5766678 148.46,8.35 C148.306666,8.1233322 148.23,7.8733347 148.23,7.6 C148.23,7.2333315 148.323332,6.94833435 148.51,6.745 C148.696668,6.54166565 149.003331,6.39500045 149.43,6.305 C149.856669,6.21499955 150.449996,6.17 151.21,6.17 L151.43,6.17 L151.43,5.84 C151.43,5.4333313 151.346667,5.13833425 151.18,4.955 C151.013332,4.77166575 150.743335,4.68 150.37,4.68 C149.809997,4.68 149.253336,4.8533316 148.7,5.2 L148.43,4.61 C148.683335,4.4299991 148.988332,4.28500055 149.345,4.175 C149.701668,4.06499945 150.046665,4.01 150.38,4.01 Z M150.06,8.43 C150.460002,8.43 150.788332,8.29500135 151.045,8.025 C151.301668,7.75499865 151.43,7.4066688 151.43,6.98 L151.43,6.69 L151.25,6.69 C150.66333,6.69 150.216668,6.71499975 149.91,6.765 C149.603332,6.81500025 149.385001,6.89833275 149.255,7.015 C149.124999,7.13166725 149.06,7.3033322 149.06,7.53 C149.06,7.7900013 149.154999,8.00499915 149.345,8.175 C149.535001,8.34500085 149.773332,8.43 150.06,8.43 Z M153.7,9 L153.7,4.13 L154.51,4.13 L154.51,9 L153.7,9 Z M153.62,2.02 L154.6,2.02 L154.6,2.93 L153.62,2.93 L153.62,2.02 Z M158.47,4.01 C159.636673,4.01 160.22,4.6533269 160.22,5.94 L160.22,9 L159.41,9 L159.41,5.99 C159.41,5.5366644 159.321668,5.2066677 159.145,5 C158.968332,4.7933323 158.686669,4.69 158.3,4.69 C157.853331,4.69 157.496668,4.8266653 157.23,5.1 C156.963332,5.3733347 156.83,5.743331 156.83,6.21 L156.83,9 L156.02,9 L156.02,4.13 L156.82,4.13 L156.82,4.93 C156.980001,4.6299985 157.203332,4.40166745 157.49,4.245 C157.776668,4.08833255 158.103331,4.01 158.47,4.01 Z M121.57,21 L121.57,14.65 L119.12,14.65 L119.12,13.95 L124.86,13.95 L124.86,14.65 L122.4,14.65 L122.4,21 L121.57,21 Z M125.73,21 L125.73,16.13 L126.54,16.13 L126.54,21 L125.73,21 Z M125.65,14.02 L126.63,14.02 L126.63,14.93 L125.65,14.93 L125.65,14.02 Z M133.47,16.01 C134.55,16.01 135.09,16.6533269 135.09,17.94 L135.09,21 L134.28,21 L134.28,17.98 C134.28,17.5333311 134.201667,17.2066677 134.045,17 C133.888333,16.7933323 133.636668,16.69 133.29,16.69 C132.883331,16.69 132.563334,16.8266653 132.33,17.1 C132.096666,17.3733347 131.98,17.7466643 131.98,18.22 L131.98,21 L131.17,21 L131.17,17.98 C131.17,17.5266644 131.090001,17.1983343 130.93,16.995 C130.769999,16.7916656 130.516668,16.69 130.17,16.69 C129.763331,16.69 129.443334,16.8266653 129.21,17.1 C128.976665,17.3733347 128.86,17.7466643 128.86,18.22 L128.86,21 L128.05,21 L128.05,16.13 L128.85,16.13 L128.85,16.9 C128.996667,16.6133319 129.199999,16.3933341 129.46,16.24 C129.720001,16.0866659 130.019998,16.01 130.36,16.01 C131.113337,16.01 131.609999,16.3299968 131.85,16.97 C131.990001,16.6699985 132.203332,16.4350009 132.49,16.265 C132.776668,16.0949991 133.103331,16.01 133.47,16.01 Z M140.65,18.69 L137.09,18.69 C137.116667,19.2566695 137.269999,19.6849985 137.55,19.975 C137.830001,20.2650014 138.226664,20.41 138.74,20.41 C139.306669,20.41 139.826664,20.2166686 140.3,19.83 L140.57,20.42 C140.356666,20.620001 140.083335,20.7783328 139.75,20.895 C139.416665,21.0116672 139.076668,21.07 138.73,21.07 C137.969996,21.07 137.371669,20.8466689 136.935,20.4 C136.498331,19.9533311 136.28,19.3366706 136.28,18.55 C136.28,18.0499975 136.376666,17.6083352 136.57,17.225 C136.763334,16.8416647 137.034998,16.5433344 137.385,16.33 C137.735002,16.1166656 138.133331,16.01 138.58,16.01 C139.22667,16.01 139.733331,16.2216645 140.1,16.645 C140.466668,17.0683354 140.65,17.6499963 140.65,18.39 L140.65,18.69 Z M138.59,16.64 C138.163331,16.64 137.821668,16.773332 137.565,17.04 C137.308332,17.306668 137.156667,17.6833309 137.11,18.17 L139.94,18.17 C139.926667,17.6766642 139.803335,17.2983347 139.57,17.035 C139.336666,16.7716653 139.010002,16.64 138.59,16.64 Z" id="MountainTime" fill="#FFFFFF" fill-rule="nonzero" opacity="0.5"></path>
        <path d="M130,29 L130,44.1413675" id="Line-4-Copy" stroke="#FFFFFF" opacity="0.399251302" stroke-dasharray="1"></path>
        <path d="M35,56 L44.7110615,56" id="Line-4-Copy" stroke="#FFFFFF" opacity="0.399251302" stroke-dasharray="1"></path>
    </g>
</svg>