<?xml version="1.0" encoding="UTF-8"?>
<svg width="400px" height="240px" viewBox="0 0 400 240" version="1.1" xmlns="http://www.w3.org/2000/svg" xmlns:xlink="http://www.w3.org/1999/xlink">
    <!-- Generator: Sketch 57.1 (83088) - https://sketch.com -->
    <title>phoenix</title>
    <desc>Created with Sketch.</desc>
    <defs>
        <polygon id="path-1" points="12.2042252 0 0 36.0563235 26.3596683 49.6624474 28.8908919 50.2373913 36.5242252 7.42105263"></polygon>
    </defs>
    <g id="phoenix" stroke="none" stroke-width="1" fill="none" fill-rule="evenodd">
        <polygon id="Path-8" fill="#3057C2" points="47.6756875 14 47.6756875 34.8434238 35 68.4244955 35 90.7153793 41.3378437 119.664579 62.0798778 151.942937 75.4757748 155.561587 101.835443 169.167711 134.821039 175.68128 152.826277 194.49826 163.629419 190.011134 180.914448 214.328462 196.759057 222 196.759057 204.485734 204.393278 194.49826 224.703186 190.011134 242.996508 190.011134 258.26495 182.339596 280.447403 182.339596 290.530336 186.681976 297.012222 200.577592 304.502401 214.328462 310.696203 218.670842 314.153208 204.485734 310.696203 190.011134 304.502401 176.983994 304.502401 169.167711 318.762549 151.942937 333.742907 130.375783 328.269315 117.927627 328.269315 101.426583 333.742907 90.7153793 333.742907 82.3201113 345.266259 75.3723034 345.266259 54.2393876 365 38.6068198 352.324313 24.4217119 345.266259 24.4217119 338.784374 46.4231037 318.762549 54.2393876 304.502401 68.4244955 290.530336 82.3201113 276.990397 86.0835073 276.990397 61.3319415 261.433872 61.3319415 258.26495 90.7153793 249.19031 90.7153793 249.19031 68.4244955 255.096028 54.2393876 242.996508 46.4231037 228.304234 54.2393876 228.304234 42.3702157 210.010912 34.8434238 163.629419 34.8434238 113.502837 27.7508699 75.4757748 18.631872"></polygon>
        <polygon id="Path-35-Copy" fill="#3AAE93" points="47.6756875 14 74.254902 18.3707992 99.84 24.2289446 104.45098 47.2429581 99.84 56.4422701 85.3155556 56.4422701 74 70.9150821 74 78.0038063 99.84 85.0925305 87.68 119.679598 112 127.112913 104.366667 170 101.835443 169.424106 75.1941438 155.595652 62.0798778 152.17087 41.4492962 119.812485 35 92 35 69.5569962 47.6756875 34.877865"></polygon>
        <g id="Group-2" transform="translate(75.000000, 119.000000)">
            <mask id="mask-2" fill="white">
                <use xlink:href="#path-1"></use>
            </mask>
            <g id="Mask"></g>
            <g mask="url(#mask-2)">
                <g transform="translate(20.000000, 23.000000) rotate(60.000000) translate(-20.000000, -23.000000) translate(-10.000000, -2.000000)">
                    <rect id="Rectangle" fill="#3AAE93" x="0" y="20" width="60" height="5"></rect>
                    <rect id="Rectangle-Copy-6" fill="#3AAE93" x="0" y="10" width="60" height="5"></rect>
                    <rect id="Rectangle-Copy-8" fill="#3AAE93" x="0" y="0" width="60" height="5"></rect>
                    <rect id="Rectangle-Copy-2" fill="#3AAE93" x="0" y="30" width="60" height="5"></rect>
                    <rect id="Rectangle-Copy-4" fill="#3AAE93" x="0" y="40" width="60" height="5"></rect>
                    <rect id="Rectangle-Copy" fill="#3057C2" x="0" y="25" width="60" height="5"></rect>
                    <rect id="Rectangle-Copy-7" fill="#3057C2" x="0" y="15" width="60" height="5"></rect>
                    <rect id="Rectangle-Copy-9" fill="#3057C2" x="0" y="5" width="60" height="5"></rect>
                    <rect id="Rectangle-Copy-3" fill="#3057C2" x="0" y="35" width="60" height="5"></rect>
                    <rect id="Rectangle-Copy-5" fill="#3057C2" x="0" y="45" width="60" height="5"></rect>
                </g>
            </g>
        </g>
        <polygon id="Path-8" stroke="#080A23" points="47.6756875 14 47.6756875 34.8434238 35 68.4244955 35 90.7153793 41.3378437 119.664579 62.0798778 151.942937 75.4757748 155.561587 101.835443 169.167711 134.821039 175.68128 152.826277 194.49826 163.629419 190.011134 180.914448 214.328462 196.759057 222 196.759057 204.485734 204.393278 194.49826 224.703186 190.011134 242.996508 190.011134 258.26495 182.339596 280.447403 182.339596 290.530336 186.681976 297.012222 200.577592 304.502401 214.328462 310.696203 218.670842 314.153208 204.485734 310.696203 190.011134 304.502401 176.983994 304.502401 169.167711 318.762549 151.942937 333.742907 130.375783 328.269315 117.927627 328.269315 101.426583 333.742907 90.7153793 333.742907 82.3201113 345.266259 75.3723034 345.266259 54.2393876 365 38.6068198 352.324313 24.4217119 345.266259 24.4217119 338.784374 46.4231037 318.762549 54.2393876 304.502401 68.4244955 290.530336 82.3201113 276.990397 86.0835073 276.990397 61.3319415 261.433872 61.3319415 258.26495 90.7153793 249.19031 90.7153793 249.19031 68.4244955 255.096028 54.2393876 242.996508 46.4231037 228.304234 54.2393876 228.304234 42.3702157 210.010912 34.8434238 163.629419 34.8434238 113.502837 27.7508699 75.4757748 18.631872"></polygon>
        <polyline id="Path-9" stroke="#080A23" points="98.9281439 22 104.4 48.5484413 99.84 56.5179419 85.3155556 56.5179419 74 70.9811096 74 78.0651101 99.84 85.1491106 87.68 119.71313 112 127.141491 104.366667 170"></polyline>
        <polyline id="Path-10" stroke="#080A23" points="160.067265 32 160.067265 49.2206703 170.927436 49.2206703 175 61.307983 175 85.3369781 170.927436 100.628157 164.139829 126.259085 160.067265 137.035725 154.335508 172.423881 141.363636 172.423881 138 183"></polyline>
        <polyline id="Path-11" stroke="#080A23" points="252 89 252 98.0627716 252 115.90946 270.965035 127.760777 270.965035 142.261211 276 162.896445 276 185"></polyline>
        <text id="Phoenix" font-family="NunitoSans-Regular, Nunito Sans" font-size="18" font-weight="normal" line-spacing="20" fill="#FFFFFF">
            <tspan x="59.5" y="135">Phoenix</tspan>
        </text>
        <circle id="Oval-Copy-8" stroke="#000000" stroke-width="2" fill="#FFFFFF" cx="92" cy="151" r="5"></circle>
    </g>
</svg>