<?xml version="1.0" encoding="UTF-8"?>
<svg width="400px" height="300px" viewBox="0 0 400 300" version="1.1" xmlns="http://www.w3.org/2000/svg" xmlns:xlink="http://www.w3.org/1999/xlink">
    <!-- Generator: Sketch 57.1 (83088) - https://sketch.com -->
    <title>phoenix</title>
    <desc>Created with Sketch.</desc>
    <defs>
        <path d="M65.488,142.72 L69.952,142.72 C71.1360059,142.72 72.0559967,143.007997 72.712,143.584 C73.3680033,144.160003 73.696,144.975995 73.696,146.032 C73.696,147.088005 73.3653366,147.90933 72.704,148.496 C72.0426634,149.08267 71.1253392,149.376 69.952,149.376 L66.8,149.376 L66.8,154 L65.488,154 L65.488,142.72 Z M69.824,148.288 C71.5413419,148.288 72.4,147.536008 72.4,146.032 C72.4,144.549326 71.5413419,143.808 69.824,143.808 L66.8,143.808 L66.8,148.288 L69.824,148.288 Z M79.536,146.016 C81.402676,146.016 82.336,147.045323 82.336,149.104 L82.336,154 L81.04,154 L81.04,149.184 C81.04,148.458663 80.8986681,147.930668 80.616,147.6 C80.3333319,147.269332 79.8826698,147.104 79.264,147.104 C78.5493298,147.104 77.9786688,147.322664 77.552,147.76 C77.1253312,148.197336 76.912,148.78933 76.912,149.536 L76.912,154 L75.616,154 L75.616,142.72 L76.912,142.72 L76.912,147.456 C77.1680013,146.986664 77.5226644,146.629335 77.976,146.384 C78.4293356,146.138665 78.9493304,146.016 79.536,146.016 Z M87.936,154.112 C87.1999963,154.112 86.5520028,153.946668 85.992,153.616 C85.4319972,153.285332 85.0000015,152.813336 84.696,152.2 C84.3919985,151.586664 84.24,150.874671 84.24,150.064 C84.24,149.253329 84.3919985,148.541336 84.696,147.928 C85.0000015,147.314664 85.4319972,146.842668 85.992,146.512 C86.5520028,146.181332 87.1999963,146.016 87.936,146.016 C88.6720037,146.016 89.3226638,146.181332 89.888,146.512 C90.4533362,146.842668 90.8879985,147.314664 91.192,147.928 C91.4960015,148.541336 91.648,149.253329 91.648,150.064 C91.648,150.874671 91.4960015,151.586664 91.192,152.2 C90.8879985,152.813336 90.4533362,153.285332 89.888,153.616 C89.3226638,153.946668 88.6720037,154.112 87.936,154.112 Z M87.936,153.04 C88.7040038,153.04 89.2933313,152.786669 89.704,152.28 C90.1146687,151.773331 90.32,151.034672 90.32,150.064 C90.32,149.114662 90.1120021,148.381336 89.696,147.864 C89.2799979,147.346664 88.6933371,147.088 87.936,147.088 C87.1786629,147.088 86.5920021,147.346664 86.176,147.864 C85.7599979,148.381336 85.552,149.114662 85.552,150.064 C85.552,151.024005 85.7573313,151.759997 86.168,152.272 C86.5786687,152.784003 87.1679962,153.04 87.936,153.04 Z M100.112,150.304 L94.416,150.304 C94.4586669,151.210671 94.7039978,151.895998 95.152,152.36 C95.6000022,152.824002 96.2346626,153.056 97.056,153.056 C97.9626712,153.056 98.7946629,152.74667 99.552,152.128 L99.984,153.072 C99.642665,153.392002 99.205336,153.645332 98.672,153.832 C98.138664,154.018668 97.5946694,154.112 97.04,154.112 C95.8239939,154.112 94.8666702,153.75467 94.168,153.04 C93.4693298,152.32533 93.12,151.338673 93.12,150.08 C93.12,149.279996 93.2746651,148.573336 93.584,147.96 C93.8933349,147.346664 94.3279972,146.869335 94.888,146.528 C95.4480028,146.186665 96.0853298,146.016 96.8,146.016 C97.8346718,146.016 98.6453304,146.354663 99.232,147.032 C99.8186696,147.709337 100.112,148.639994 100.112,149.824 L100.112,150.304 Z M96.816,147.024 C96.1333299,147.024 95.5866687,147.237331 95.176,147.664 C94.7653313,148.090669 94.522667,148.693329 94.448,149.472 L98.976,149.472 C98.9546666,148.682663 98.7573352,148.077335 98.384,147.656 C98.0106648,147.234665 97.4880034,147.024 96.816,147.024 Z M105.936,146.016 C107.802676,146.016 108.736,147.045323 108.736,149.104 L108.736,154 L107.44,154 L107.44,149.184 C107.44,148.458663 107.298668,147.930668 107.016,147.6 C106.733332,147.269332 106.28267,147.104 105.664,147.104 C104.94933,147.104 104.378669,147.322664 103.952,147.76 C103.525331,148.197336 103.312,148.78933 103.312,149.536 L103.312,154 L102.016,154 L102.016,146.208 L103.296,146.208 L103.296,147.488 C103.552001,147.007998 103.909331,146.642668 104.368,146.392 C104.826669,146.141332 105.34933,146.016 105.936,146.016 Z M111.104,154 L111.104,146.208 L112.4,146.208 L112.4,154 L111.104,154 Z M110.976,142.832 L112.544,142.832 L112.544,144.288 L110.976,144.288 L110.976,142.832 Z M118.528,149.984 L121.76,154 L120.192,154 L117.76,150.96 L115.344,154 L113.76,154 L116.992,149.984 L113.952,146.208 L115.52,146.208 L117.76,149.04 L120,146.208 L121.584,146.208 L118.528,149.984 Z" id="path-1"></path>
        <filter x="-1.3%" y="-6.6%" width="102.7%" height="113.2%" filterUnits="objectBoundingBox" id="filter-2">
            <feOffset dx="0" dy="0.5" in="SourceAlpha" result="shadowOffsetOuter1"></feOffset>
            <feColorMatrix values="0 0 0 0 0   0 0 0 0 0   0 0 0 0 0  0 0 0 1 0" type="matrix" in="shadowOffsetOuter1" result="shadowMatrixOuter1"></feColorMatrix>
            <feOffset dx="0" dy="-0.5" in="SourceAlpha" result="shadowOffsetOuter2"></feOffset>
            <feColorMatrix values="0 0 0 0 0   0 0 0 0 0   0 0 0 0 0  0 0 0 1 0" type="matrix" in="shadowOffsetOuter2" result="shadowMatrixOuter2"></feColorMatrix>
            <feOffset dx="0.5" dy="0" in="SourceAlpha" result="shadowOffsetOuter3"></feOffset>
            <feColorMatrix values="0 0 0 0 0   0 0 0 0 0   0 0 0 0 0  0 0 0 1 0" type="matrix" in="shadowOffsetOuter3" result="shadowMatrixOuter3"></feColorMatrix>
            <feOffset dx="-0.5" dy="0" in="SourceAlpha" result="shadowOffsetOuter4"></feOffset>
            <feColorMatrix values="0 0 0 0 0   0 0 0 0 0   0 0 0 0 0  0 0 0 1 0" type="matrix" in="shadowOffsetOuter4" result="shadowMatrixOuter4"></feColorMatrix>
            <feMerge>
                <feMergeNode in="shadowMatrixOuter1"></feMergeNode>
                <feMergeNode in="shadowMatrixOuter2"></feMergeNode>
                <feMergeNode in="shadowMatrixOuter3"></feMergeNode>
                <feMergeNode in="shadowMatrixOuter4"></feMergeNode>
            </feMerge>
        </filter>
        <path d="M79.15,101.08 C78.0499945,101.08 77.1700033,100.783336 76.51,100.19 L76.83,99.56 C77.1766684,99.8533348 77.5316648,100.063333 77.895,100.19 C78.2583351,100.316667 78.6799976,100.38 79.16,100.38 C79.7266695,100.38 80.1633318,100.270001 80.47,100.05 C80.7766682,99.8299989 80.93,99.520002 80.93,99.12 C80.93,98.8866655 80.8566674,98.6966674 80.71,98.55 C80.5633326,98.4033326 80.3700012,98.2866671 80.13,98.2 C79.8899988,98.1133329 79.5666687,98.0233338 79.16,97.93 C78.6133306,97.8033327 78.1650018,97.6700007 77.815,97.53 C77.4649982,97.3899993 77.1816678,97.1900013 76.965,96.93 C76.7483323,96.6699987 76.64,96.3300021 76.64,95.91 C76.64,95.509998 76.7449989,95.1550015 76.955,94.845 C77.1650011,94.5349985 77.4649981,94.2950008 77.855,94.125 C78.245002,93.9549991 78.6966641,93.87 79.21,93.87 C79.6966691,93.87 80.1516645,93.9466659 80.575,94.1 C80.9983354,94.2533341 81.3566652,94.4733319 81.65,94.76 L81.34,95.39 C81.006665,95.1033319 80.668335,94.8950007 80.325,94.765 C79.9816649,94.6349994 79.610002,94.57 79.21,94.57 C78.6633306,94.57 78.2350015,94.6849988 77.925,94.915 C77.6149985,95.1450011 77.46,95.4666646 77.46,95.88 C77.46,96.2333351 77.5966653,96.4999991 77.87,96.68 C78.1433347,96.8600009 78.5566639,97.0133327 79.11,97.14 C79.7166697,97.2866674 80.1933316,97.421666 80.54,97.545 C80.8866684,97.668334 81.1749988,97.8533321 81.405,98.1 C81.6350011,98.3466679 81.75,98.6766646 81.75,99.09 C81.75,99.490002 81.6450011,99.8399985 81.435,100.14 C81.2249989,100.440001 80.9233353,100.671666 80.53,100.835 C80.1366647,100.998334 79.6766693,101.08 79.15,101.08 Z M84.94,96.01 C85.5600031,96.01 86.0216652,96.1683317 86.325,96.485 C86.6283349,96.8016683 86.78,97.2833301 86.78,97.93 L86.78,101 L85.99,101 L85.99,100.17 C85.8633327,100.456668 85.6700013,100.678333 85.41,100.835 C85.1499987,100.991667 84.8500017,101.07 84.51,101.07 C84.1966651,101.07 83.9083347,101.006667 83.645,100.88 C83.3816653,100.753333 83.1733341,100.576668 83.02,100.35 C82.8666659,100.123332 82.79,99.8733347 82.79,99.6 C82.79,99.2333315 82.8833324,98.9483343 83.07,98.745 C83.2566676,98.5416656 83.5633312,98.3950004 83.99,98.305 C84.4166688,98.2149996 85.0099962,98.17 85.77,98.17 L85.99,98.17 L85.99,97.84 C85.99,97.4333313 85.9066675,97.1383342 85.74,96.955 C85.5733325,96.7716657 85.3033352,96.68 84.93,96.68 C84.3699972,96.68 83.8133361,96.8533316 83.26,97.2 L82.99,96.61 C83.2433346,96.4299991 83.5483316,96.2850006 83.905,96.175 C84.2616685,96.0649995 84.606665,96.01 84.94,96.01 Z M84.62,100.43 C85.020002,100.43 85.348332,100.295001 85.605,100.025 C85.8616679,99.7549987 85.99,99.4066688 85.99,98.98 L85.99,98.69 L85.81,98.69 C85.2233304,98.69 84.7766682,98.7149998 84.47,98.765 C84.1633318,98.8150002 83.9450006,98.8983327 83.815,99.015 C83.6849993,99.1316672 83.62,99.3033322 83.62,99.53 C83.62,99.7900013 83.7149991,100.004999 83.905,100.175 C84.0950009,100.345001 84.3333319,100.43 84.62,100.43 Z M88.26,101 L88.26,93.95 L89.07,93.95 L89.07,101 L88.26,101 Z M92.72,100.42 C92.8666674,100.42 93.0133326,100.41 93.16,100.39 L93.12,101.03 C92.9666659,101.056667 92.8000009,101.07 92.62,101.07 C92.0333304,101.07 91.5916682,100.916668 91.295,100.61 C90.9983318,100.303332 90.85,99.8766694 90.85,99.33 L90.85,96.77 L89.9,96.77 L89.9,96.13 L90.85,96.13 L90.85,94.65 L91.66,94.65 L91.66,96.13 L93.04,96.13 L93.04,96.77 L91.66,96.77 L91.66,99.27 C91.66,100.03667 92.0133298,100.42 92.72,100.42 Z M96.68,101 L96.68,93.95 L97.5,93.95 L97.5,100.3 L101.03,100.3 L101.03,101 L96.68,101 Z M103.94,96.01 C104.560003,96.01 105.021665,96.1683317 105.325,96.485 C105.628335,96.8016683 105.78,97.2833301 105.78,97.93 L105.78,101 L104.99,101 L104.99,100.17 C104.863333,100.456668 104.670001,100.678333 104.41,100.835 C104.149999,100.991667 103.850002,101.07 103.51,101.07 C103.196665,101.07 102.908335,101.006667 102.645,100.88 C102.381665,100.753333 102.173334,100.576668 102.02,100.35 C101.866666,100.123332 101.79,99.8733347 101.79,99.6 C101.79,99.2333315 101.883332,98.9483343 102.07,98.745 C102.256668,98.5416656 102.563331,98.3950004 102.99,98.305 C103.416669,98.2149996 104.009996,98.17 104.77,98.17 L104.99,98.17 L104.99,97.84 C104.99,97.4333313 104.906667,97.1383342 104.74,96.955 C104.573332,96.7716657 104.303335,96.68 103.93,96.68 C103.369997,96.68 102.813336,96.8533316 102.26,97.2 L101.99,96.61 C102.243335,96.4299991 102.548332,96.2850006 102.905,96.175 C103.261668,96.0649995 103.606665,96.01 103.94,96.01 Z M103.62,100.43 C104.020002,100.43 104.348332,100.295001 104.605,100.025 C104.861668,99.7549987 104.99,99.4066688 104.99,98.98 L104.99,98.69 L104.81,98.69 C104.22333,98.69 103.776668,98.7149998 103.47,98.765 C103.163332,98.8150002 102.945001,98.8983327 102.815,99.015 C102.684999,99.1316672 102.62,99.3033322 102.62,99.53 C102.62,99.7900013 102.714999,100.004999 102.905,100.175 C103.095001,100.345001 103.333332,100.43 103.62,100.43 Z M111.6,101 L110.55,101 L108.07,98.67 L108.07,101 L107.26,101 L107.26,93.95 L108.07,93.95 L108.07,98.34 L110.34,96.14 L111.37,96.14 L108.95,98.47 L111.6,101 Z M116.25,98.69 L112.69,98.69 C112.716667,99.2566695 112.869999,99.6849986 113.15,99.975 C113.430001,100.265001 113.826664,100.41 114.34,100.41 C114.906669,100.41 115.426664,100.216669 115.9,99.83 L116.17,100.42 C115.956666,100.620001 115.683335,100.778333 115.35,100.895 C115.016665,101.011667 114.676668,101.07 114.33,101.07 C113.569996,101.07 112.971669,100.846669 112.535,100.4 C112.098331,99.9533311 111.88,99.3366706 111.88,98.55 C111.88,98.0499975 111.976666,97.6083352 112.17,97.225 C112.363334,96.8416648 112.634998,96.5433344 112.985,96.33 C113.335002,96.1166656 113.733331,96.01 114.18,96.01 C114.82667,96.01 115.333331,96.2216645 115.7,96.645 C116.066668,97.0683355 116.25,97.6499963 116.25,98.39 L116.25,98.69 Z M114.19,96.64 C113.763331,96.64 113.421668,96.773332 113.165,97.04 C112.908332,97.306668 112.756667,97.6833309 112.71,98.17 L115.54,98.17 C115.526667,97.6766642 115.403334,97.2983347 115.17,97.035 C114.936665,96.7716654 114.610002,96.64 114.19,96.64 Z M123.15,101.08 C122.48333,101.08 121.903336,100.935001 121.41,100.645 C120.916664,100.354999 120.538335,99.9383361 120.275,99.395 C120.011665,98.851664 119.88,98.2100037 119.88,97.47 C119.88,96.7299963 120.011665,96.0900027 120.275,95.55 C120.538335,95.0099973 120.916664,94.5950014 121.41,94.305 C121.903336,94.0149986 122.48333,93.87 123.15,93.87 C123.636669,93.87 124.083331,93.9449992 124.49,94.095 C124.896669,94.2450008 125.249998,94.4666652 125.55,94.76 L125.24,95.39 C124.899998,95.1033319 124.566668,94.8966673 124.24,94.77 C123.913332,94.6433327 123.553335,94.58 123.16,94.58 C122.386663,94.58 121.788335,94.8316641 121.365,95.335 C120.941665,95.8383358 120.73,96.5499954 120.73,97.47 C120.73,98.3966713 120.941665,99.1116641 121.365,99.615 C121.788335,100.118336 122.386663,100.37 123.16,100.37 C123.553335,100.37 123.913332,100.306667 124.24,100.18 C124.566668,100.053333 124.899998,99.8466681 125.24,99.56 L125.55,100.19 C125.249998,100.483335 124.896669,100.704999 124.49,100.855 C124.083331,101.005001 123.636669,101.08 123.15,101.08 Z M126.79,101 L126.79,96.13 L127.6,96.13 L127.6,101 L126.79,101 Z M126.71,94.02 L127.69,94.02 L127.69,94.93 L126.71,94.93 L126.71,94.02 Z M131.25,100.42 C131.396667,100.42 131.543333,100.41 131.69,100.39 L131.65,101.03 C131.496666,101.056667 131.330001,101.07 131.15,101.07 C130.56333,101.07 130.121668,100.916668 129.825,100.61 C129.528332,100.303332 129.38,99.8766694 129.38,99.33 L129.38,96.77 L128.43,96.77 L128.43,96.13 L129.38,96.13 L129.38,94.65 L130.19,94.65 L130.19,96.13 L131.57,96.13 L131.57,96.77 L130.19,96.77 L130.19,99.27 C130.19,100.03667 130.54333,100.42 131.25,100.42 Z M136.06,96.14 L136.87,96.14 L133.99,102.8 L133.16,102.8 L133.98,100.94 L131.92,96.14 L132.78,96.14 L134.41,100.12 L136.06,96.14 Z" id="path-3"></path>
        <filter x="-1.2%" y="-8.4%" width="102.5%" height="116.8%" filterUnits="objectBoundingBox" id="filter-4">
            <feOffset dx="0" dy="0.5" in="SourceAlpha" result="shadowOffsetOuter1"></feOffset>
            <feColorMatrix values="0 0 0 0 0   0 0 0 0 0   0 0 0 0 0  0 0 0 1 0" type="matrix" in="shadowOffsetOuter1" result="shadowMatrixOuter1"></feColorMatrix>
            <feOffset dx="0" dy="-0.5" in="SourceAlpha" result="shadowOffsetOuter2"></feOffset>
            <feColorMatrix values="0 0 0 0 0   0 0 0 0 0   0 0 0 0 0  0 0 0 1 0" type="matrix" in="shadowOffsetOuter2" result="shadowMatrixOuter2"></feColorMatrix>
            <feOffset dx="0.5" dy="0" in="SourceAlpha" result="shadowOffsetOuter3"></feOffset>
            <feColorMatrix values="0 0 0 0 0   0 0 0 0 0   0 0 0 0 0  0 0 0 1 0" type="matrix" in="shadowOffsetOuter3" result="shadowMatrixOuter3"></feColorMatrix>
            <feOffset dx="-0.5" dy="0" in="SourceAlpha" result="shadowOffsetOuter4"></feOffset>
            <feColorMatrix values="0 0 0 0 0   0 0 0 0 0   0 0 0 0 0  0 0 0 1 0" type="matrix" in="shadowOffsetOuter4" result="shadowMatrixOuter4"></feColorMatrix>
            <feMerge>
                <feMergeNode in="shadowMatrixOuter1"></feMergeNode>
                <feMergeNode in="shadowMatrixOuter2"></feMergeNode>
                <feMergeNode in="shadowMatrixOuter3"></feMergeNode>
                <feMergeNode in="shadowMatrixOuter4"></feMergeNode>
            </feMerge>
        </filter>
        <path d="M57.04,128 L57.04,120.95 L57.86,120.95 L57.86,127.3 L61.39,127.3 L61.39,128 L57.04,128 Z M64.3,123.01 C64.9200031,123.01 65.3816652,123.168332 65.685,123.485 C65.9883349,123.801668 66.14,124.28333 66.14,124.93 L66.14,128 L65.35,128 L65.35,127.17 C65.2233327,127.456668 65.0300013,127.678333 64.77,127.835 C64.5099987,127.991667 64.2100017,128.07 63.87,128.07 C63.5566651,128.07 63.2683346,128.006667 63.005,127.88 C62.7416654,127.753333 62.5333341,127.576668 62.38,127.35 C62.2266659,127.123332 62.15,126.873335 62.15,126.6 C62.15,126.233332 62.2433324,125.948334 62.43,125.745 C62.6166676,125.541666 62.9233312,125.395 63.35,125.305 C63.7766688,125.215 64.3699962,125.17 65.13,125.17 L65.35,125.17 L65.35,124.84 C65.35,124.433331 65.2666675,124.138334 65.1,123.955 C64.9333325,123.771666 64.6633352,123.68 64.29,123.68 C63.7299972,123.68 63.1733361,123.853332 62.62,124.2 L62.35,123.61 C62.6033346,123.429999 62.9083315,123.285001 63.265,123.175 C63.6216685,123.064999 63.966665,123.01 64.3,123.01 Z M63.98,127.43 C64.380002,127.43 64.708332,127.295001 64.965,127.025 C65.2216679,126.754999 65.35,126.406669 65.35,125.98 L65.35,125.69 L65.17,125.69 C64.5833304,125.69 64.1366682,125.715 63.83,125.765 C63.5233318,125.815 63.3050007,125.898333 63.175,126.015 C63.0449994,126.131667 62.98,126.303332 62.98,126.53 C62.98,126.790001 63.0749991,127.004999 63.265,127.175 C63.4550009,127.345001 63.6933319,127.43 63.98,127.43 Z M69.27,128.07 C68.4499959,128.07 67.8000024,127.860002 67.32,127.44 L67.59,126.84 C67.8500013,127.046668 68.1149987,127.195 68.385,127.285 C68.6550014,127.375 68.9599983,127.42 69.3,127.42 C69.6600018,127.42 69.9349991,127.358334 70.125,127.235 C70.3150009,127.111666 70.41,126.933335 70.41,126.7 C70.41,126.506666 70.3466673,126.353334 70.22,126.24 C70.0933327,126.126666 69.8833348,126.036667 69.59,125.97 L68.77,125.78 C68.3566646,125.686666 68.0400011,125.526668 67.82,125.3 C67.5999989,125.073332 67.49,124.793335 67.49,124.46 C67.49,124.026664 67.6599983,123.676668 68,123.41 C68.3400017,123.143332 68.7933305,123.01 69.36,123.01 C69.7000017,123.01 70.0233318,123.064999 70.33,123.175 C70.6366682,123.285001 70.8933323,123.443332 71.1,123.65 L70.83,124.24 C70.3833311,123.859998 69.893336,123.67 69.36,123.67 C69.0199983,123.67 68.7550009,123.734999 68.565,123.865 C68.374999,123.995001 68.28,124.176665 68.28,124.41 C68.28,124.603334 68.3383328,124.758333 68.455,124.875 C68.5716673,124.991667 68.7599987,125.08 69.02,125.14 L69.85,125.34 C70.3033356,125.446667 70.6399989,125.608332 70.86,125.825 C71.0800011,126.041668 71.19,126.323332 71.19,126.67 C71.19,127.096669 71.0183351,127.436665 70.675,127.69 C70.331665,127.943335 69.8633363,128.07 69.27,128.07 Z M80.3,120.95 L81.14,120.95 L78.06,128 L77.35,128 L74.27,120.95 L75.13,120.95 L77.71,126.97 L80.3,120.95 Z M85.43,125.69 L81.87,125.69 C81.8966668,126.25667 82.0499986,126.684999 82.33,126.975 C82.6100014,127.265001 83.0066641,127.41 83.52,127.41 C84.0866695,127.41 84.6066643,127.216669 85.08,126.83 L85.35,127.42 C85.1366656,127.620001 84.863335,127.778333 84.53,127.895 C84.196665,128.011667 83.8566684,128.07 83.51,128.07 C82.7499962,128.07 82.1516688,127.846669 81.715,127.4 C81.2783311,126.953331 81.06,126.336671 81.06,125.55 C81.06,125.049998 81.1566657,124.608335 81.35,124.225 C81.5433343,123.841665 81.8149983,123.543334 82.165,123.33 C82.5150018,123.116666 82.9133311,123.01 83.36,123.01 C84.0066699,123.01 84.5133315,123.221665 84.88,123.645 C85.2466685,124.068335 85.43,124.649996 85.43,125.39 L85.43,125.69 Z M83.37,123.64 C82.9433312,123.64 82.601668,123.773332 82.345,124.04 C82.088332,124.306668 81.9366669,124.683331 81.89,125.17 L84.72,125.17 C84.7066666,124.676664 84.5833345,124.298335 84.35,124.035 C84.1166655,123.771665 83.7900021,123.64 83.37,123.64 Z M90.98,123.13 L90.98,127.67 C90.98,128.39667 90.7933352,128.944998 90.42,129.315 C90.0466648,129.685002 89.493337,129.87 88.76,129.87 C87.9066624,129.87 87.1900029,129.650002 86.61,129.21 L86.88,128.61 C87.2066683,128.823334 87.5133319,128.976666 87.8,129.07 C88.0866681,129.163334 88.4066649,129.21 88.76,129.21 C89.226669,129.21 89.5799988,129.085001 89.82,128.835 C90.0600012,128.584999 90.18,128.220002 90.18,127.74 L90.18,126.88 C90.0399993,127.193335 89.8250015,127.433333 89.535,127.6 C89.2449986,127.766667 88.9033353,127.85 88.51,127.85 C88.0833312,127.85 87.7050016,127.750001 87.375,127.55 C87.0449984,127.349999 86.7883342,127.066669 86.605,126.7 C86.4216658,126.333331 86.33,125.910002 86.33,125.43 C86.33,124.949998 86.4216658,124.526668 86.605,124.16 C86.7883342,123.793331 87.0449984,123.51 87.375,123.31 C87.7050016,123.109999 88.0833312,123.01 88.51,123.01 C88.8966686,123.01 89.2333319,123.093333 89.52,123.26 C89.8066681,123.426667 90.0233326,123.663332 90.17,123.97 L90.17,123.13 L90.98,123.13 Z M88.67,127.18 C89.136669,127.18 89.503332,127.025002 89.77,126.715 C90.036668,126.404998 90.17,125.976669 90.17,125.43 C90.17,124.889997 90.0383346,124.465002 89.775,124.155 C89.5116654,123.844998 89.1433357,123.69 88.67,123.69 C88.1966643,123.69 87.8250014,123.844998 87.555,124.155 C87.2849987,124.465002 87.15,124.889997 87.15,125.43 C87.15,125.976669 87.2849987,126.404998 87.555,126.715 C87.8250014,127.025002 88.1966643,127.18 88.67,127.18 Z M94.46,123.01 C95.0800031,123.01 95.5416652,123.168332 95.845,123.485 C96.1483348,123.801668 96.3,124.28333 96.3,124.93 L96.3,128 L95.51,128 L95.51,127.17 C95.3833327,127.456668 95.1900013,127.678333 94.93,127.835 C94.6699987,127.991667 94.3700017,128.07 94.03,128.07 C93.7166651,128.07 93.4283347,128.006667 93.165,127.88 C92.9016654,127.753333 92.6933341,127.576668 92.54,127.35 C92.3866659,127.123332 92.31,126.873335 92.31,126.6 C92.31,126.233332 92.4033324,125.948334 92.59,125.745 C92.7766676,125.541666 93.0833312,125.395 93.51,125.305 C93.9366688,125.215 94.5299962,125.17 95.29,125.17 L95.51,125.17 L95.51,124.84 C95.51,124.433331 95.4266675,124.138334 95.26,123.955 C95.0933325,123.771666 94.8233352,123.68 94.45,123.68 C93.8899972,123.68 93.3333361,123.853332 92.78,124.2 L92.51,123.61 C92.7633346,123.429999 93.0683316,123.285001 93.425,123.175 C93.7816685,123.064999 94.126665,123.01 94.46,123.01 Z M94.14,127.43 C94.540002,127.43 94.8683321,127.295001 95.125,127.025 C95.381668,126.754999 95.51,126.406669 95.51,125.98 L95.51,125.69 L95.33,125.69 C94.7433304,125.69 94.2966682,125.715 93.99,125.765 C93.6833318,125.815 93.4650007,125.898333 93.335,126.015 C93.2049994,126.131667 93.14,126.303332 93.14,126.53 C93.14,126.790001 93.234999,127.004999 93.425,127.175 C93.6150009,127.345001 93.8533319,127.43 94.14,127.43 Z M99.43,128.07 C98.6099959,128.07 97.9600024,127.860002 97.48,127.44 L97.75,126.84 C98.0100013,127.046668 98.2749987,127.195 98.545,127.285 C98.8150014,127.375 99.1199983,127.42 99.46,127.42 C99.8200018,127.42 100.094999,127.358334 100.285,127.235 C100.475001,127.111666 100.57,126.933335 100.57,126.7 C100.57,126.506666 100.506667,126.353334 100.38,126.24 C100.253333,126.126666 100.043335,126.036667 99.75,125.97 L98.93,125.78 C98.5166646,125.686666 98.2000011,125.526668 97.98,125.3 C97.7599989,125.073332 97.65,124.793335 97.65,124.46 C97.65,124.026664 97.8199983,123.676668 98.16,123.41 C98.5000017,123.143332 98.9533305,123.01 99.52,123.01 C99.8600017,123.01 100.183332,123.064999 100.49,123.175 C100.796668,123.285001 101.053332,123.443332 101.26,123.65 L100.99,124.24 C100.543331,123.859998 100.053336,123.67 99.52,123.67 C99.1799983,123.67 98.915001,123.734999 98.725,123.865 C98.534999,123.995001 98.44,124.176665 98.44,124.41 C98.44,124.603334 98.4983328,124.758333 98.615,124.875 C98.7316673,124.991667 98.9199987,125.08 99.18,125.14 L100.01,125.34 C100.463336,125.446667 100.799999,125.608332 101.02,125.825 C101.240001,126.041668 101.35,126.323332 101.35,126.67 C101.35,127.096669 101.178335,127.436665 100.835,127.69 C100.491665,127.943335 100.023336,128.07 99.43,128.07 Z" id="path-5"></path>
        <filter x="-1.7%" y="-8.4%" width="103.4%" height="116.8%" filterUnits="objectBoundingBox" id="filter-6">
            <feOffset dx="0" dy="0.5" in="SourceAlpha" result="shadowOffsetOuter1"></feOffset>
            <feColorMatrix values="0 0 0 0 0   0 0 0 0 0   0 0 0 0 0  0 0 0 1 0" type="matrix" in="shadowOffsetOuter1" result="shadowMatrixOuter1"></feColorMatrix>
            <feOffset dx="0" dy="-0.5" in="SourceAlpha" result="shadowOffsetOuter2"></feOffset>
            <feColorMatrix values="0 0 0 0 0   0 0 0 0 0   0 0 0 0 0  0 0 0 1 0" type="matrix" in="shadowOffsetOuter2" result="shadowMatrixOuter2"></feColorMatrix>
            <feOffset dx="0.5" dy="0" in="SourceAlpha" result="shadowOffsetOuter3"></feOffset>
            <feColorMatrix values="0 0 0 0 0   0 0 0 0 0   0 0 0 0 0  0 0 0 1 0" type="matrix" in="shadowOffsetOuter3" result="shadowMatrixOuter3"></feColorMatrix>
            <feOffset dx="-0.5" dy="0" in="SourceAlpha" result="shadowOffsetOuter4"></feOffset>
            <feColorMatrix values="0 0 0 0 0   0 0 0 0 0   0 0 0 0 0  0 0 0 1 0" type="matrix" in="shadowOffsetOuter4" result="shadowMatrixOuter4"></feColorMatrix>
            <feMerge>
                <feMergeNode in="shadowMatrixOuter1"></feMergeNode>
                <feMergeNode in="shadowMatrixOuter2"></feMergeNode>
                <feMergeNode in="shadowMatrixOuter3"></feMergeNode>
                <feMergeNode in="shadowMatrixOuter4"></feMergeNode>
            </feMerge>
        </filter>
        <path d="M138.26,113.95 L140.63,113.95 C141.756672,113.95 142.62833,114.254997 143.245,114.865 C143.86167,115.475003 144.17,116.343328 144.17,117.47 C144.17,118.596672 143.86167,119.466664 143.245,120.08 C142.62833,120.693336 141.756672,121 140.63,121 L138.26,121 L138.26,113.95 Z M140.58,120.3 C142.406676,120.3 143.32,119.356676 143.32,117.47 C143.32,115.589991 142.406676,114.65 140.58,114.65 L139.08,114.65 L139.08,120.3 L140.58,120.3 Z M149.61,118.69 L146.05,118.69 C146.076667,119.25667 146.229999,119.684999 146.51,119.975 C146.790001,120.265001 147.186664,120.41 147.7,120.41 C148.26667,120.41 148.786664,120.216669 149.26,119.83 L149.53,120.42 C149.316666,120.620001 149.043335,120.778333 148.71,120.895 C148.376665,121.011667 148.036668,121.07 147.69,121.07 C146.929996,121.07 146.331669,120.846669 145.895,120.4 C145.458331,119.953331 145.24,119.336671 145.24,118.55 C145.24,118.049998 145.336666,117.608335 145.53,117.225 C145.723334,116.841665 145.994998,116.543334 146.345,116.33 C146.695002,116.116666 147.093331,116.01 147.54,116.01 C148.18667,116.01 148.693331,116.221665 149.06,116.645 C149.426669,117.068335 149.61,117.649996 149.61,118.39 L149.61,118.69 Z M147.55,116.64 C147.123331,116.64 146.781668,116.773332 146.525,117.04 C146.268332,117.306668 146.116667,117.683331 146.07,118.17 L148.9,118.17 C148.886667,117.676664 148.763335,117.298335 148.53,117.035 C148.296665,116.771665 147.970002,116.64 147.55,116.64 Z M153.25,116.01 C154.416673,116.01 155,116.653327 155,117.94 L155,121 L154.19,121 L154.19,117.99 C154.19,117.536664 154.101668,117.206668 153.925,117 C153.748332,116.793332 153.466669,116.69 153.08,116.69 C152.633331,116.69 152.276668,116.826665 152.01,117.1 C151.743332,117.373335 151.61,117.743331 151.61,118.21 L151.61,121 L150.8,121 L150.8,116.13 L151.6,116.13 L151.6,116.93 C151.760001,116.629998 151.983332,116.401667 152.27,116.245 C152.556668,116.088333 152.883331,116.01 153.25,116.01 Z M159.97,116.14 L160.78,116.14 L158.68,121 L157.92,121 L155.83,116.14 L156.69,116.14 L158.32,120.12 L159.97,116.14 Z M165.64,118.69 L162.08,118.69 C162.106667,119.25667 162.259999,119.684999 162.54,119.975 C162.820001,120.265001 163.216664,120.41 163.73,120.41 C164.29667,120.41 164.816664,120.216669 165.29,119.83 L165.56,120.42 C165.346666,120.620001 165.073335,120.778333 164.74,120.895 C164.406665,121.011667 164.066668,121.07 163.72,121.07 C162.959996,121.07 162.361669,120.846669 161.925,120.4 C161.488331,119.953331 161.27,119.336671 161.27,118.55 C161.27,118.049998 161.366666,117.608335 161.56,117.225 C161.753334,116.841665 162.024998,116.543334 162.375,116.33 C162.725002,116.116666 163.123331,116.01 163.57,116.01 C164.21667,116.01 164.723332,116.221665 165.09,116.645 C165.456669,117.068335 165.64,117.649996 165.64,118.39 L165.64,118.69 Z M163.58,116.64 C163.153331,116.64 162.811668,116.773332 162.555,117.04 C162.298332,117.306668 162.146667,117.683331 162.1,118.17 L164.93,118.17 C164.916667,117.676664 164.793335,117.298335 164.56,117.035 C164.326665,116.771665 164.000002,116.64 163.58,116.64 Z M169.59,116.71 L169.06,116.76 C168.559998,116.806667 168.198334,116.963332 167.975,117.23 C167.751666,117.496668 167.64,117.826665 167.64,118.22 L167.64,121 L166.83,121 L166.83,116.13 L167.62,116.13 L167.62,116.98 C167.893335,116.413331 168.429996,116.096667 169.23,116.03 L169.52,116.01 L169.59,116.71 Z" id="path-7"></path>
        <filter x="-2.4%" y="-10.5%" width="104.8%" height="121.1%" filterUnits="objectBoundingBox" id="filter-8">
            <feOffset dx="0" dy="0.5" in="SourceAlpha" result="shadowOffsetOuter1"></feOffset>
            <feColorMatrix values="0 0 0 0 0   0 0 0 0 0   0 0 0 0 0  0 0 0 1 0" type="matrix" in="shadowOffsetOuter1" result="shadowMatrixOuter1"></feColorMatrix>
            <feOffset dx="0" dy="-0.5" in="SourceAlpha" result="shadowOffsetOuter2"></feOffset>
            <feColorMatrix values="0 0 0 0 0   0 0 0 0 0   0 0 0 0 0  0 0 0 1 0" type="matrix" in="shadowOffsetOuter2" result="shadowMatrixOuter2"></feColorMatrix>
            <feOffset dx="0.5" dy="0" in="SourceAlpha" result="shadowOffsetOuter3"></feOffset>
            <feColorMatrix values="0 0 0 0 0   0 0 0 0 0   0 0 0 0 0  0 0 0 1 0" type="matrix" in="shadowOffsetOuter3" result="shadowMatrixOuter3"></feColorMatrix>
            <feOffset dx="-0.5" dy="0" in="SourceAlpha" result="shadowOffsetOuter4"></feOffset>
            <feColorMatrix values="0 0 0 0 0   0 0 0 0 0   0 0 0 0 0  0 0 0 1 0" type="matrix" in="shadowOffsetOuter4" result="shadowMatrixOuter4"></feColorMatrix>
            <feMerge>
                <feMergeNode in="shadowMatrixOuter1"></feMergeNode>
                <feMergeNode in="shadowMatrixOuter2"></feMergeNode>
                <feMergeNode in="shadowMatrixOuter3"></feMergeNode>
                <feMergeNode in="shadowMatrixOuter4"></feMergeNode>
            </feMerge>
        </filter>
    </defs>
    <g id="phoenix" stroke="none" stroke-width="1" fill="none" fill-rule="evenodd">
        <polygon id="Path-8" fill="#3AAE93" points="47.6756875 29 47.6756875 49.8434238 35 83.4244955 35 105.715379 41.3378437 134.664579 62.0798778 166.942937 75.4757748 170.561587 101.835443 184.167711 134.821039 190.68128 152.826277 209.49826 163.629419 205.011134 180.914448 229.328462 196.759057 237 196.759057 219.485734 204.393278 209.49826 224.703186 205.011134 242.996508 205.011134 258.26495 197.339596 280.447403 197.339596 290.530336 201.681976 297.012222 215.577592 304.502401 229.328462 310.696203 233.670842 314.153208 219.485734 310.696203 205.011134 304.502401 191.983994 304.502401 184.167711 318.762549 166.942937 333.742907 145.375783 328.269315 132.927627 328.269315 116.426583 333.742907 105.715379 333.742907 97.3201113 345.266259 90.3723034 345.266259 69.2393876 365 53.6068198 352.324313 39.4217119 345.266259 39.4217119 338.784374 61.4231037 318.762549 69.2393876 304.502401 83.4244955 290.530336 97.3201113 276.990397 101.083507 276.990397 76.3319415 261.433872 76.3319415 258.26495 105.715379 249.19031 105.715379 249.19031 83.4244955 255.096028 69.2393876 242.996508 61.4231037 228.304234 69.2393876 228.304234 57.3702157 210.010912 49.8434238 163.629419 49.8434238 113.502837 42.7508699 75.4757748 33.631872"></polygon>
        <polygon id="Path-35-Copy" fill="#2C4FB5" points="47.6756875 29 74.254902 33.3707992 99.84 39.2289446 104.45098 62.2429581 99.84 71.4422701 85.3155556 71.4422701 74 85.9150821 74 93.0038063 99.84 100.092531 87.68 134.679598 75.1941438 170.595652 62.0798778 167.17087 41.4492962 134.812485 35 107 35 84.5569962 47.6756875 49.877865"></polygon>
        <polygon id="Path-8" stroke="#080A23" points="47.6756875 29 47.6756875 49.8434238 35 83.4244955 35 105.715379 41.3378437 134.664579 62.0798778 166.942937 75.4757748 170.561587 101.835443 184.167711 134.821039 190.68128 152.826277 209.49826 163.629419 205.011134 180.914448 229.328462 196.759057 237 196.759057 219.485734 204.393278 209.49826 224.703186 205.011134 242.996508 205.011134 258.26495 197.339596 280.447403 197.339596 290.530336 201.681976 297.012222 215.577592 304.502401 229.328462 310.696203 233.670842 314.153208 219.485734 310.696203 205.011134 304.502401 191.983994 304.502401 184.167711 318.762549 166.942937 333.742907 145.375783 328.269315 132.927627 328.269315 116.426583 333.742907 105.715379 333.742907 97.3201113 345.266259 90.3723034 345.266259 69.2393876 365 53.6068198 352.324313 39.4217119 345.266259 39.4217119 338.784374 61.4231037 318.762549 69.2393876 304.502401 83.4244955 290.530336 97.3201113 276.990397 101.083507 276.990397 76.3319415 261.433872 76.3319415 258.26495 105.715379 249.19031 105.715379 249.19031 83.4244955 255.096028 69.2393876 242.996508 61.4231037 228.304234 69.2393876 228.304234 57.3702157 210.010912 49.8434238 163.629419 49.8434238 113.502837 42.7508699 75.4757748 33.631872"></polygon>
        <polyline id="Path-9" stroke="#080A23" points="98.9281439 37 104.4 63.5484413 99.84 71.5179419 85.3155556 71.5179419 74 85.9811096 74 93.0651101 99.84 100.149111 87.68 134.71313 75 170.5"></polyline>
        <polyline id="Path-10" stroke="#080A23" points="160.067265 47 160.067265 64.2206703 170.927436 64.2206703 175 76.307983 175 100.336978 170.927436 115.628157 164.139829 141.259085 160.067265 152.035725 154.335508 187.423881 141.363636 187.423881 138 198"></polyline>
        <polyline id="Path-11" stroke="#080A23" points="252 104 252 113.062772 252 130.90946 270.965035 142.760777 270.965035 157.261211 276 177.896445 276 200"></polyline>
        <g id="Phoenix" fill-rule="nonzero">
            <use fill="black" fill-opacity="1" filter="url(#filter-2)" xlink:href="#path-1"></use>
            <use fill="#FFFFFF" xlink:href="#path-1"></use>
        </g>
        <circle id="Oval-Copy-8" stroke="#000000" stroke-width="2" fill="#FFFFFF" cx="92" cy="166" r="5"></circle>
        <circle id="Oval-Copy-11" stroke="#000000" fill="#FFFFFF" cx="106" cy="109" r="2.5"></circle>
        <circle id="Oval-Copy-13" stroke="#000000" fill="#FFFFFF" cx="78" cy="136" r="2.5"></circle>
        <circle id="Oval-Copy-12" stroke="#000000" fill="#FFFFFF" cx="153" cy="129" r="2.5"></circle>
        <g id="SaltLakeCity" fill-rule="nonzero">
            <use fill="black" fill-opacity="1" filter="url(#filter-4)" xlink:href="#path-3"></use>
            <use fill="#FFFFFF" xlink:href="#path-3"></use>
        </g>
        <g id="LasVegas" fill-rule="nonzero">
            <use fill="black" fill-opacity="1" filter="url(#filter-6)" xlink:href="#path-5"></use>
            <use fill="#FFFFFF" xlink:href="#path-5"></use>
        </g>
        <g id="Denver" fill-rule="nonzero">
            <use fill="black" fill-opacity="1" filter="url(#filter-8)" xlink:href="#path-7"></use>
            <use fill="#FFFFFF" xlink:href="#path-7"></use>
        </g>
        <path d="M52.87,198.95 L55.66,198.95 C56.4000037,198.95 56.974998,199.129998 57.385,199.49 C57.7950021,199.850002 58,200.359997 58,201.02 C58,201.680003 57.7933354,202.193331 57.38,202.56 C56.9666646,202.926669 56.393337,203.11 55.66,203.11 L53.69,203.11 L53.69,206 L52.87,206 L52.87,198.95 Z M55.58,202.43 C56.6533387,202.43 57.19,201.960005 57.19,201.02 C57.19,200.093329 56.6533387,199.63 55.58,199.63 L53.69,199.63 L53.69,202.43 L55.58,202.43 Z M61.07,201.01 C61.6900031,201.01 62.1516651,201.168332 62.455,201.485 C62.7583348,201.801668 62.91,202.28333 62.91,202.93 L62.91,206 L62.12,206 L62.12,205.17 C61.9933327,205.456668 61.8000013,205.678333 61.54,205.835 C61.2799987,205.991667 60.9800017,206.07 60.64,206.07 C60.3266651,206.07 60.0383346,206.006667 59.775,205.88 C59.5116654,205.753333 59.3033341,205.576668 59.15,205.35 C58.9966659,205.123332 58.92,204.873335 58.92,204.6 C58.92,204.233331 59.0133324,203.948334 59.2,203.745 C59.3866676,203.541666 59.6933312,203.395 60.12,203.305 C60.5466688,203.215 61.1399962,203.17 61.9,203.17 L62.12,203.17 L62.12,202.84 C62.12,202.433331 62.0366675,202.138334 61.87,201.955 C61.7033325,201.771666 61.4333352,201.68 61.06,201.68 C60.4999972,201.68 59.9433361,201.853332 59.39,202.2 L59.12,201.61 C59.3733346,201.429999 59.6783316,201.285001 60.035,201.175 C60.3916684,201.064999 60.736665,201.01 61.07,201.01 Z M60.75,205.43 C61.150002,205.43 61.478332,205.295001 61.735,205.025 C61.991668,204.754999 62.12,204.406669 62.12,203.98 L62.12,203.69 L61.94,203.69 C61.3533304,203.69 60.9066682,203.715 60.6,203.765 C60.2933318,203.815 60.0750006,203.898333 59.945,204.015 C59.8149994,204.131667 59.75,204.303332 59.75,204.53 C59.75,204.790001 59.844999,205.004999 60.035,205.175 C60.225001,205.345001 60.4633319,205.43 60.75,205.43 Z M66.45,206.07 C65.9699976,206.07 65.5533351,205.966668 65.2,205.76 C64.8466649,205.553332 64.575001,205.261669 64.385,204.885 C64.1949991,204.508331 64.1,204.066669 64.1,203.56 C64.1,203.053331 64.1983324,202.608335 64.395,202.225 C64.5916677,201.841665 64.8683316,201.543334 65.225,201.33 C65.5816684,201.116666 65.9999976,201.01 66.48,201.01 C66.8066683,201.01 67.1266651,201.068333 67.44,201.185 C67.7533349,201.301667 68.0066657,201.456666 68.2,201.65 L67.93,202.25 C67.4699977,201.876665 67.0033357,201.69 66.53,201.69 C66.0299975,201.69 65.6400014,201.853332 65.36,202.18 C65.0799986,202.506668 64.94,202.966664 64.94,203.56 C64.94,204.14667 65.0799986,204.599998 65.36,204.92 C65.6400014,205.240002 66.0299975,205.4 66.53,205.4 C67.0033357,205.4 67.4699977,205.213335 67.93,204.84 L68.2,205.44 C67.9933323,205.633334 67.7333349,205.786666 67.42,205.9 C67.1066651,206.013334 66.783335,206.07 66.45,206.07 Z M69.18,206 L69.18,201.13 L69.99,201.13 L69.99,206 L69.18,206 Z M69.1,199.02 L70.08,199.02 L70.08,199.93 L69.1,199.93 L69.1,199.02 Z M72.58,201.13 L75.58,201.13 L75.58,206 L74.77,206 L74.77,201.77 L72.58,201.77 L72.58,206 L71.77,206 L71.77,201.77 L70.82,201.77 L70.82,201.13 L71.77,201.13 L71.77,200.97 C71.77,200.316663 71.9333317,199.823335 72.26,199.49 C72.5866683,199.156665 73.0866633,198.973333 73.76,198.94 L74.13,198.92 L74.18,199.55 L73.72,199.58 C73.32,199.606667 73.0300009,199.723332 72.85,199.93 C72.6699991,200.136668 72.58,200.446665 72.58,200.86 L72.58,201.13 Z M74.68,199.01 L75.68,199.01 L75.68,199.94 L74.68,199.94 L74.68,199.01 Z M79.15,206.07 C78.6699976,206.07 78.2533351,205.966668 77.9,205.76 C77.5466649,205.553332 77.2750009,205.261669 77.085,204.885 C76.894999,204.508331 76.8,204.066669 76.8,203.56 C76.8,203.053331 76.8983324,202.608335 77.095,202.225 C77.2916676,201.841665 77.5683315,201.543334 77.925,201.33 C78.2816684,201.116666 78.6999976,201.01 79.18,201.01 C79.5066683,201.01 79.8266651,201.068333 80.14,201.185 C80.4533349,201.301667 80.7066657,201.456666 80.9,201.65 L80.63,202.25 C80.1699977,201.876665 79.7033357,201.69 79.23,201.69 C78.7299975,201.69 78.3400014,201.853332 78.06,202.18 C77.7799986,202.506668 77.64,202.966664 77.64,203.56 C77.64,204.14667 77.7799986,204.599998 78.06,204.92 C78.3400014,205.240002 78.7299975,205.4 79.23,205.4 C79.7033357,205.4 80.1699977,205.213335 80.63,204.84 L80.9,205.44 C80.6933323,205.633334 80.4333349,205.786666 80.12,205.9 C79.8066651,206.013334 79.483335,206.07 79.15,206.07 Z M55.11,218.08 C54.0099945,218.08 53.1300033,217.783336 52.47,217.19 L52.79,216.56 C53.1366684,216.853335 53.4916648,217.063333 53.855,217.19 C54.2183352,217.316667 54.6399976,217.38 55.12,217.38 C55.6866695,217.38 56.1233318,217.270001 56.43,217.05 C56.7366682,216.829999 56.89,216.520002 56.89,216.12 C56.89,215.886665 56.8166674,215.696667 56.67,215.55 C56.5233326,215.403333 56.3300012,215.286667 56.09,215.2 C55.8499988,215.113333 55.5266687,215.023334 55.12,214.93 C54.5733306,214.803333 54.1250018,214.670001 53.775,214.53 C53.4249983,214.389999 53.1416677,214.190001 52.925,213.93 C52.7083322,213.669999 52.6,213.330002 52.6,212.91 C52.6,212.509998 52.7049989,212.155002 52.915,211.845 C53.1250011,211.534998 53.424998,211.295001 53.815,211.125 C54.2050019,210.954999 54.6566641,210.87 55.17,210.87 C55.6566691,210.87 56.1116646,210.946666 56.535,211.1 C56.9583354,211.253334 57.3166652,211.473332 57.61,211.76 L57.3,212.39 C56.966665,212.103332 56.628335,211.895001 56.285,211.765 C55.941665,211.634999 55.570002,211.57 55.17,211.57 C54.6233306,211.57 54.1950016,211.684999 53.885,211.915 C53.5749985,212.145001 53.42,212.466665 53.42,212.88 C53.42,213.233335 53.5566653,213.499999 53.83,213.68 C54.1033347,213.860001 54.5166639,214.013333 55.07,214.14 C55.6766697,214.286667 56.1533316,214.421666 56.5,214.545 C56.8466684,214.668334 57.1349989,214.853332 57.365,215.1 C57.5950012,215.346668 57.71,215.676665 57.71,216.09 C57.71,216.490002 57.605001,216.839999 57.395,217.14 C57.184999,217.440001 56.8833353,217.671666 56.49,217.835 C56.0966647,217.998334 55.6366693,218.08 55.11,218.08 Z M61.03,217.42 C61.1766674,217.42 61.3233326,217.41 61.47,217.39 L61.43,218.03 C61.2766659,218.056667 61.1100009,218.07 60.93,218.07 C60.3433304,218.07 59.9016681,217.916668 59.605,217.61 C59.3083319,217.303332 59.16,216.876669 59.16,216.33 L59.16,213.77 L58.21,213.77 L58.21,213.13 L59.16,213.13 L59.16,211.65 L59.97,211.65 L59.97,213.13 L61.35,213.13 L61.35,213.77 L59.97,213.77 L59.97,216.27 C59.97,217.036671 60.3233298,217.42 61.03,217.42 Z M64.27,213.01 C64.8900031,213.01 65.3516652,213.168332 65.655,213.485 C65.9583348,213.801668 66.11,214.28333 66.11,214.93 L66.11,218 L65.32,218 L65.32,217.17 C65.1933327,217.456668 65.0000013,217.678333 64.74,217.835 C64.4799987,217.991667 64.1800017,218.07 63.84,218.07 C63.5266651,218.07 63.2383346,218.006667 62.975,217.88 C62.7116653,217.753333 62.5033341,217.576668 62.35,217.35 C62.1966659,217.123332 62.12,216.873335 62.12,216.6 C62.12,216.233331 62.2133324,215.948334 62.4,215.745 C62.5866676,215.541666 62.8933312,215.395 63.32,215.305 C63.7466688,215.215 64.3399962,215.17 65.1,215.17 L65.32,215.17 L65.32,214.84 C65.32,214.433331 65.2366675,214.138334 65.07,213.955 C64.9033325,213.771666 64.6333352,213.68 64.26,213.68 C63.6999972,213.68 63.1433361,213.853332 62.59,214.2 L62.32,213.61 C62.5733346,213.429999 62.8783315,213.285001 63.235,213.175 C63.5916685,213.064999 63.936665,213.01 64.27,213.01 Z M63.95,217.43 C64.350002,217.43 64.678332,217.295001 64.935,217.025 C65.1916679,216.754999 65.32,216.406669 65.32,215.98 L65.32,215.69 L65.14,215.69 C64.5533304,215.69 64.1066682,215.715 63.8,215.765 C63.4933318,215.815 63.2750006,215.898333 63.145,216.015 C63.0149993,216.131667 62.95,216.303332 62.95,216.53 C62.95,216.790001 63.0449991,217.004999 63.235,217.175 C63.4250009,217.345001 63.6633319,217.43 63.95,217.43 Z M70.04,213.01 C71.2066725,213.01 71.79,213.653327 71.79,214.94 L71.79,218 L70.98,218 L70.98,214.99 C70.98,214.536664 70.8916675,214.206668 70.715,214 C70.5383324,213.793332 70.2566686,213.69 69.87,213.69 C69.4233311,213.69 69.066668,213.826665 68.8,214.1 C68.533332,214.373335 68.4,214.743331 68.4,215.21 L68.4,218 L67.59,218 L67.59,213.13 L68.39,213.13 L68.39,213.93 C68.5500008,213.629998 68.7733319,213.401667 69.06,213.245 C69.3466681,213.088333 69.6733315,213.01 70.04,213.01 Z M77.59,210.95 L77.59,218 L76.78,218 L76.78,217.11 C76.6333326,217.416668 76.4183347,217.653333 76.135,217.82 C75.8516652,217.986668 75.5200019,218.07 75.14,218.07 C74.7133312,218.07 74.3366683,217.963334 74.01,217.75 C73.6833317,217.536666 73.4300009,217.238335 73.25,216.855 C73.0699991,216.471665 72.98,216.026669 72.98,215.52 C72.98,215.019997 73.0699991,214.580002 73.25,214.2 C73.4300009,213.819998 73.6833317,213.526668 74.01,213.32 C74.3366683,213.113332 74.7133312,213.01 75.14,213.01 C75.5200019,213.01 75.8516652,213.093333 76.135,213.26 C76.4183347,213.426668 76.6333326,213.663332 76.78,213.97 L76.78,210.95 L77.59,210.95 Z M75.3,217.4 C75.7733357,217.4 76.1383321,217.238335 76.395,216.915 C76.651668,216.591665 76.78,216.133336 76.78,215.54 C76.78,214.946664 76.651668,214.490002 76.395,214.17 C76.1383321,213.849998 75.7733357,213.69 75.3,213.69 C74.8266643,213.69 74.4583346,213.849998 74.195,214.17 C73.9316654,214.490002 73.8,214.939997 73.8,215.52 C73.8,216.113336 73.9316654,216.574998 74.195,216.905 C74.4583346,217.235002 74.8266643,217.4 75.3,217.4 Z M81.07,213.01 C81.6900031,213.01 82.1516651,213.168332 82.455,213.485 C82.7583348,213.801668 82.91,214.28333 82.91,214.93 L82.91,218 L82.12,218 L82.12,217.17 C81.9933327,217.456668 81.8000013,217.678333 81.54,217.835 C81.2799987,217.991667 80.9800017,218.07 80.64,218.07 C80.3266651,218.07 80.0383346,218.006667 79.775,217.88 C79.5116654,217.753333 79.3033341,217.576668 79.15,217.35 C78.9966659,217.123332 78.92,216.873335 78.92,216.6 C78.92,216.233331 79.0133324,215.948334 79.2,215.745 C79.3866676,215.541666 79.6933312,215.395 80.12,215.305 C80.5466688,215.215 81.1399962,215.17 81.9,215.17 L82.12,215.17 L82.12,214.84 C82.12,214.433331 82.0366675,214.138334 81.87,213.955 C81.7033325,213.771666 81.4333352,213.68 81.06,213.68 C80.4999972,213.68 79.9433361,213.853332 79.39,214.2 L79.12,213.61 C79.3733346,213.429999 79.6783315,213.285001 80.035,213.175 C80.3916684,213.064999 80.736665,213.01 81.07,213.01 Z M80.75,217.43 C81.150002,217.43 81.4783321,217.295001 81.735,217.025 C81.9916679,216.754999 82.12,216.406669 82.12,215.98 L82.12,215.69 L81.94,215.69 C81.3533304,215.69 80.9066682,215.715 80.6,215.765 C80.2933318,215.815 80.0750006,215.898333 79.945,216.015 C79.8149993,216.131667 79.75,216.303332 79.75,216.53 C79.75,216.790001 79.844999,217.004999 80.035,217.175 C80.225001,217.345001 80.4633319,217.43 80.75,217.43 Z M87.15,213.71 L86.62,213.76 C86.1199975,213.806667 85.7583345,213.963332 85.535,214.23 C85.3116656,214.496668 85.2,214.826665 85.2,215.22 L85.2,218 L84.39,218 L84.39,213.13 L85.18,213.13 L85.18,213.98 C85.4533347,213.413331 85.989996,213.096667 86.79,213.03 L87.08,213.01 L87.15,213.71 Z M92.14,210.95 L92.14,218 L91.33,218 L91.33,217.11 C91.1833326,217.416668 90.9683347,217.653333 90.685,217.82 C90.4016653,217.986668 90.0700019,218.07 89.69,218.07 C89.2633312,218.07 88.8866683,217.963334 88.56,217.75 C88.2333317,217.536666 87.9800009,217.238335 87.8,216.855 C87.6199991,216.471665 87.53,216.026669 87.53,215.52 C87.53,215.019997 87.6199991,214.580002 87.8,214.2 C87.9800009,213.819998 88.2333317,213.526668 88.56,213.32 C88.8866683,213.113332 89.2633312,213.01 89.69,213.01 C90.0700019,213.01 90.4016653,213.093333 90.685,213.26 C90.9683347,213.426668 91.1833326,213.663332 91.33,213.97 L91.33,210.95 L92.14,210.95 Z M89.85,217.4 C90.3233357,217.4 90.688332,217.238335 90.945,216.915 C91.201668,216.591665 91.33,216.133336 91.33,215.54 C91.33,214.946664 91.201668,214.490002 90.945,214.17 C90.688332,213.849998 90.3233357,213.69 89.85,213.69 C89.3766643,213.69 89.0083346,213.849998 88.745,214.17 C88.4816654,214.490002 88.35,214.939997 88.35,215.52 C88.35,216.113336 88.4816654,216.574998 88.745,216.905 C89.0083346,217.235002 89.3766643,217.4 89.85,217.4 Z M54.57,230 L54.57,223.65 L52.12,223.65 L52.12,222.95 L57.86,222.95 L57.86,223.65 L55.4,223.65 L55.4,230 L54.57,230 Z M58.73,230 L58.73,225.13 L59.54,225.13 L59.54,230 L58.73,230 Z M58.65,223.02 L59.63,223.02 L59.63,223.93 L58.65,223.93 L58.65,223.02 Z M66.47,225.01 C67.55,225.01 68.09,225.653327 68.09,226.94 L68.09,230 L67.28,230 L67.28,226.98 C67.28,226.533331 67.2016675,226.206668 67.045,226 C66.8883326,225.793332 66.6366684,225.69 66.29,225.69 C65.8833313,225.69 65.5633345,225.826665 65.33,226.1 C65.0966655,226.373335 64.98,226.746664 64.98,227.22 L64.98,230 L64.17,230 L64.17,226.98 C64.17,226.526664 64.0900008,226.198334 63.93,225.995 C63.7699992,225.791666 63.5166684,225.69 63.17,225.69 C62.7633313,225.69 62.4433345,225.826665 62.21,226.1 C61.9766655,226.373335 61.86,226.746664 61.86,227.22 L61.86,230 L61.05,230 L61.05,225.13 L61.85,225.13 L61.85,225.9 C61.9966674,225.613332 62.1999987,225.393334 62.46,225.24 C62.7200013,225.086666 63.0199983,225.01 63.36,225.01 C64.1133371,225.01 64.6099988,225.329997 64.85,225.97 C64.9900007,225.669998 65.2033319,225.435001 65.49,225.265 C65.7766681,225.094999 66.1033315,225.01 66.47,225.01 Z M73.65,227.69 L70.09,227.69 C70.1166668,228.256669 70.2699986,228.684999 70.55,228.975 C70.8300014,229.265001 71.2266641,229.41 71.74,229.41 C72.3066695,229.41 72.8266643,229.216669 73.3,228.83 L73.57,229.42 C73.3566656,229.620001 73.083335,229.778333 72.75,229.895 C72.416665,230.011667 72.0766684,230.07 71.73,230.07 C70.9699962,230.07 70.3716688,229.846669 69.935,229.4 C69.4983311,228.953331 69.28,228.336671 69.28,227.55 C69.28,227.049997 69.3766657,226.608335 69.57,226.225 C69.7633343,225.841665 70.0349983,225.543334 70.385,225.33 C70.7350017,225.116666 71.1333311,225.01 71.58,225.01 C72.2266699,225.01 72.7333315,225.221665 73.1,225.645 C73.4666685,226.068335 73.65,226.649996 73.65,227.39 L73.65,227.69 Z M71.59,225.64 C71.1633312,225.64 70.821668,225.773332 70.565,226.04 C70.3083321,226.306668 70.1566669,226.683331 70.11,227.17 L72.94,227.17 C72.9266666,226.676664 72.8033345,226.298335 72.57,226.035 C72.3366655,225.771665 72.0100021,225.64 71.59,225.64 Z" id="PacifcStandardTime" fill="#FFFFFF" fill-rule="nonzero" opacity="0.5"></path>
        <path d="M125.86,1.95 L126.53,1.95 L126.53,9 L125.78,9 L125.79,3.54 L123.5,7.88 L122.92,7.88 L120.62,3.58 L120.63,9 L119.87,9 L119.87,1.95 L120.55,1.95 L123.22,7.06 L125.86,1.95 Z M130.18,9.07 C129.719998,9.07 129.315002,8.9666677 128.965,8.76 C128.614998,8.5533323 128.345001,8.25833525 128.155,7.875 C127.964999,7.49166475 127.87,7.0466692 127.87,6.54 C127.87,6.0333308 127.964999,5.58833525 128.155,5.205 C128.345001,4.82166475 128.614998,4.5266677 128.965,4.32 C129.315002,4.1133323 129.719998,4.01 130.18,4.01 C130.640002,4.01 131.046665,4.1133323 131.4,4.32 C131.753335,4.5266677 132.024999,4.82166475 132.215,5.205 C132.405001,5.58833525 132.5,6.0333308 132.5,6.54 C132.5,7.0466692 132.405001,7.49166475 132.215,7.875 C132.024999,8.25833525 131.753335,8.5533323 131.4,8.76 C131.046665,8.9666677 130.640002,9.07 130.18,9.07 Z M130.18,8.4 C130.660002,8.4 131.028332,8.24166825 131.285,7.925 C131.541668,7.60833175 131.67,7.1466697 131.67,6.54 C131.67,5.9466637 131.540001,5.48833495 131.28,5.165 C131.019999,4.84166505 130.653336,4.68 130.18,4.68 C129.706664,4.68 129.340001,4.84166505 129.08,5.165 C128.819999,5.48833495 128.69,5.9466637 128.69,6.54 C128.69,7.140003 128.818332,7.5999984 129.075,7.92 C129.331668,8.2400016 129.699998,8.4 130.18,8.4 Z M137.81,4.13 L137.81,9 L137.02,9 L137.02,8.17 C136.866666,8.4633348 136.651668,8.6866659 136.375,8.84 C136.098332,8.9933341 135.786668,9.07 135.44,9.07 C134.859997,9.07 134.423335,8.90833495 134.13,8.585 C133.836665,8.26166505 133.69,7.7833365 133.69,7.15 L133.69,4.13 L134.5,4.13 L134.5,7.13 C134.5,7.5633355 134.586666,7.88166565 134.76,8.085 C134.933334,8.28833435 135.206665,8.39 135.58,8.39 C136.006669,8.39 136.349999,8.25166805 136.61,7.975 C136.870001,7.69833195 137,7.3333356 137,6.88 L137,4.13 L137.81,4.13 Z M141.77,4.01 C142.936672,4.01 143.52,4.6533269 143.52,5.94 L143.52,9 L142.71,9 L142.71,5.99 C142.71,5.5366644 142.621668,5.2066677 142.445,5 C142.268332,4.7933323 141.986669,4.69 141.6,4.69 C141.153331,4.69 140.796668,4.8266653 140.53,5.1 C140.263332,5.3733347 140.13,5.743331 140.13,6.21 L140.13,9 L139.32,9 L139.32,4.13 L140.12,4.13 L140.12,4.93 C140.280001,4.6299985 140.503332,4.40166745 140.79,4.245 C141.076668,4.08833255 141.403332,4.01 141.77,4.01 Z M147.14,8.42 C147.286667,8.42 147.433333,8.4100001 147.58,8.39 L147.54,9.03 C147.386666,9.0566668 147.220001,9.07 147.04,9.07 C146.45333,9.07 146.011668,8.9166682 145.715,8.61 C145.418332,8.3033318 145.27,7.8766694 145.27,7.33 L145.27,4.77 L144.32,4.77 L144.32,4.13 L145.27,4.13 L145.27,2.65 L146.08,2.65 L146.08,4.13 L147.46,4.13 L147.46,4.77 L146.08,4.77 L146.08,7.27 C146.08,8.0366705 146.43333,8.42 147.14,8.42 Z M150.38,4.01 C151.000003,4.01 151.461665,4.16833175 151.765,4.485 C152.068335,4.80166825 152.22,5.2833301 152.22,5.93 L152.22,9 L151.43,9 L151.43,8.17 C151.303333,8.4566681 151.110001,8.67833255 150.85,8.835 C150.589999,8.99166745 150.290002,9.07 149.95,9.07 C149.636665,9.07 149.348335,9.0066673 149.085,8.88 C148.821665,8.7533327 148.613334,8.5766678 148.46,8.35 C148.306666,8.1233322 148.23,7.8733347 148.23,7.6 C148.23,7.2333315 148.323332,6.94833435 148.51,6.745 C148.696668,6.54166565 149.003331,6.39500045 149.43,6.305 C149.856669,6.21499955 150.449996,6.17 151.21,6.17 L151.43,6.17 L151.43,5.84 C151.43,5.4333313 151.346667,5.13833425 151.18,4.955 C151.013332,4.77166575 150.743335,4.68 150.37,4.68 C149.809997,4.68 149.253336,4.8533316 148.7,5.2 L148.43,4.61 C148.683335,4.4299991 148.988332,4.28500055 149.345,4.175 C149.701668,4.06499945 150.046665,4.01 150.38,4.01 Z M150.06,8.43 C150.460002,8.43 150.788332,8.29500135 151.045,8.025 C151.301668,7.75499865 151.43,7.4066688 151.43,6.98 L151.43,6.69 L151.25,6.69 C150.66333,6.69 150.216668,6.71499975 149.91,6.765 C149.603332,6.81500025 149.385001,6.89833275 149.255,7.015 C149.124999,7.13166725 149.06,7.3033322 149.06,7.53 C149.06,7.7900013 149.154999,8.00499915 149.345,8.175 C149.535001,8.34500085 149.773332,8.43 150.06,8.43 Z M153.7,9 L153.7,4.13 L154.51,4.13 L154.51,9 L153.7,9 Z M153.62,2.02 L154.6,2.02 L154.6,2.93 L153.62,2.93 L153.62,2.02 Z M158.47,4.01 C159.636673,4.01 160.22,4.6533269 160.22,5.94 L160.22,9 L159.41,9 L159.41,5.99 C159.41,5.5366644 159.321668,5.2066677 159.145,5 C158.968332,4.7933323 158.686669,4.69 158.3,4.69 C157.853331,4.69 157.496668,4.8266653 157.23,5.1 C156.963332,5.3733347 156.83,5.743331 156.83,6.21 L156.83,9 L156.02,9 L156.02,4.13 L156.82,4.13 L156.82,4.93 C156.980001,4.6299985 157.203332,4.40166745 157.49,4.245 C157.776668,4.08833255 158.103331,4.01 158.47,4.01 Z M122.11,21.08 C121.009995,21.08 120.130003,20.7833363 119.47,20.19 L119.79,19.56 C120.136668,19.8533348 120.491665,20.0633327 120.855,20.19 C121.218335,20.3166673 121.639998,20.38 122.12,20.38 C122.686669,20.38 123.123332,20.2700011 123.43,20.05 C123.736668,19.8299989 123.89,19.520002 123.89,19.12 C123.89,18.8866655 123.816667,18.6966674 123.67,18.55 C123.523333,18.4033326 123.330001,18.2866671 123.09,18.2 C122.849999,18.1133329 122.526669,18.0233338 122.12,17.93 C121.573331,17.8033327 121.125002,17.6700007 120.775,17.53 C120.424998,17.3899993 120.141668,17.1900013 119.925,16.93 C119.708332,16.6699987 119.6,16.3300021 119.6,15.91 C119.6,15.509998 119.704999,15.1550015 119.915,14.845 C120.125001,14.5349984 120.424998,14.2950009 120.815,14.125 C121.205002,13.9549991 121.656664,13.87 122.17,13.87 C122.656669,13.87 123.111665,13.9466659 123.535,14.1 C123.958335,14.2533341 124.316665,14.4733319 124.61,14.76 L124.3,15.39 C123.966665,15.1033319 123.628335,14.8950007 123.285,14.765 C122.941665,14.6349994 122.570002,14.57 122.17,14.57 C121.623331,14.57 121.195002,14.6849988 120.885,14.915 C120.574998,15.1450011 120.42,15.4666646 120.42,15.88 C120.42,16.2333351 120.556665,16.4999991 120.83,16.68 C121.103335,16.8600009 121.516664,17.0133327 122.07,17.14 C122.67667,17.2866674 123.153332,17.421666 123.5,17.545 C123.846668,17.668334 124.134999,17.8533321 124.365,18.1 C124.595001,18.3466679 124.71,18.6766646 124.71,19.09 C124.71,19.490002 124.605001,19.8399985 124.395,20.14 C124.184999,20.4400015 123.883335,20.6716659 123.49,20.835 C123.096665,20.9983342 122.636669,21.08 122.11,21.08 Z M128.03,20.42 C128.176667,20.42 128.323333,20.4100001 128.47,20.39 L128.43,21.03 C128.276666,21.0566668 128.110001,21.07 127.93,21.07 C127.34333,21.07 126.901668,20.9166682 126.605,20.61 C126.308332,20.3033318 126.16,19.8766694 126.16,19.33 L126.16,16.77 L125.21,16.77 L125.21,16.13 L126.16,16.13 L126.16,14.65 L126.97,14.65 L126.97,16.13 L128.35,16.13 L128.35,16.77 L126.97,16.77 L126.97,19.27 C126.97,20.0366705 127.32333,20.42 128.03,20.42 Z M131.27,16.01 C131.890003,16.01 132.351665,16.1683318 132.655,16.485 C132.958335,16.8016682 133.11,17.2833301 133.11,17.93 L133.11,21 L132.32,21 L132.32,20.17 C132.193333,20.4566681 132.000001,20.6783326 131.74,20.835 C131.479999,20.9916675 131.180002,21.07 130.84,21.07 C130.526665,21.07 130.238335,21.0066673 129.975,20.88 C129.711665,20.7533327 129.503334,20.5766678 129.35,20.35 C129.196666,20.1233322 129.12,19.8733347 129.12,19.6 C129.12,19.2333315 129.213332,18.9483344 129.4,18.745 C129.586668,18.5416656 129.893331,18.3950005 130.32,18.305 C130.746669,18.2149996 131.339996,18.17 132.1,18.17 L132.32,18.17 L132.32,17.84 C132.32,17.4333313 132.236668,17.1383342 132.07,16.955 C131.903333,16.7716657 131.633335,16.68 131.26,16.68 C130.699997,16.68 130.143336,16.8533316 129.59,17.2 L129.32,16.61 C129.573335,16.4299991 129.878332,16.2850005 130.235,16.175 C130.591668,16.0649994 130.936665,16.01 131.27,16.01 Z M130.95,20.43 C131.350002,20.43 131.678332,20.2950014 131.935,20.025 C132.191668,19.7549987 132.32,19.4066688 132.32,18.98 L132.32,18.69 L132.14,18.69 C131.55333,18.69 131.106668,18.7149998 130.8,18.765 C130.493332,18.8150003 130.275001,18.8983328 130.145,19.015 C130.014999,19.1316673 129.95,19.3033322 129.95,19.53 C129.95,19.7900013 130.044999,20.0049992 130.235,20.175 C130.425001,20.3450009 130.663332,20.43 130.95,20.43 Z M137.04,16.01 C138.206672,16.01 138.79,16.6533269 138.79,17.94 L138.79,21 L137.98,21 L137.98,17.99 C137.98,17.5366644 137.891668,17.2066677 137.715,17 C137.538332,16.7933323 137.256669,16.69 136.87,16.69 C136.423331,16.69 136.066668,16.8266653 135.8,17.1 C135.533332,17.3733347 135.4,17.743331 135.4,18.21 L135.4,21 L134.59,21 L134.59,16.13 L135.39,16.13 L135.39,16.93 C135.550001,16.6299985 135.773332,16.4016675 136.06,16.245 C136.346668,16.0883326 136.673331,16.01 137.04,16.01 Z M144.59,13.95 L144.59,21 L143.78,21 L143.78,20.11 C143.633333,20.4166682 143.418335,20.6533325 143.135,20.82 C142.851665,20.9866675 142.520002,21.07 142.14,21.07 C141.713331,21.07 141.336668,20.9633344 141.01,20.75 C140.683332,20.5366656 140.430001,20.2383352 140.25,19.855 C140.069999,19.4716648 139.98,19.0266692 139.98,18.52 C139.98,18.0199975 140.069999,17.5800019 140.25,17.2 C140.430001,16.8199981 140.683332,16.5266677 141.01,16.32 C141.336668,16.1133323 141.713331,16.01 142.14,16.01 C142.520002,16.01 142.851665,16.0933325 143.135,16.26 C143.418335,16.4266675 143.633333,16.6633318 143.78,16.97 L143.78,13.95 L144.59,13.95 Z M142.3,20.4 C142.773336,20.4 143.138332,20.238335 143.395,19.915 C143.651668,19.591665 143.78,19.1333363 143.78,18.54 C143.78,17.9466637 143.651668,17.4900016 143.395,17.17 C143.138332,16.8499984 142.773336,16.69 142.3,16.69 C141.826664,16.69 141.458335,16.8499984 141.195,17.17 C140.931665,17.4900016 140.8,17.9399971 140.8,18.52 C140.8,19.1133363 140.931665,19.5749984 141.195,19.905 C141.458335,20.2350017 141.826664,20.4 142.3,20.4 Z M148.07,16.01 C148.690003,16.01 149.151665,16.1683318 149.455,16.485 C149.758335,16.8016682 149.91,17.2833301 149.91,17.93 L149.91,21 L149.12,21 L149.12,20.17 C148.993333,20.4566681 148.800001,20.6783326 148.54,20.835 C148.279999,20.9916675 147.980002,21.07 147.64,21.07 C147.326665,21.07 147.038335,21.0066673 146.775,20.88 C146.511665,20.7533327 146.303334,20.5766678 146.15,20.35 C145.996666,20.1233322 145.92,19.8733347 145.92,19.6 C145.92,19.2333315 146.013332,18.9483344 146.2,18.745 C146.386668,18.5416656 146.693331,18.3950005 147.12,18.305 C147.546669,18.2149996 148.139996,18.17 148.9,18.17 L149.12,18.17 L149.12,17.84 C149.12,17.4333313 149.036667,17.1383342 148.87,16.955 C148.703332,16.7716657 148.433335,16.68 148.06,16.68 C147.499997,16.68 146.943336,16.8533316 146.39,17.2 L146.12,16.61 C146.373335,16.4299991 146.678332,16.2850005 147.035,16.175 C147.391668,16.0649994 147.736665,16.01 148.07,16.01 Z M147.75,20.43 C148.150002,20.43 148.478332,20.2950014 148.735,20.025 C148.991668,19.7549987 149.12,19.4066688 149.12,18.98 L149.12,18.69 L148.94,18.69 C148.35333,18.69 147.906668,18.7149998 147.6,18.765 C147.293332,18.8150003 147.075001,18.8983328 146.945,19.015 C146.814999,19.1316673 146.75,19.3033322 146.75,19.53 C146.75,19.7900013 146.844999,20.0049992 147.035,20.175 C147.225001,20.3450009 147.463332,20.43 147.75,20.43 Z M154.15,16.71 L153.62,16.76 C153.119998,16.8066669 152.758334,16.963332 152.535,17.23 C152.311666,17.496668 152.2,17.8266647 152.2,18.22 L152.2,21 L151.39,21 L151.39,16.13 L152.18,16.13 L152.18,16.98 C152.453335,16.4133305 152.989996,16.096667 153.79,16.03 L154.08,16.01 L154.15,16.71 Z M159.14,13.95 L159.14,21 L158.33,21 L158.33,20.11 C158.183333,20.4166682 157.968335,20.6533325 157.685,20.82 C157.401665,20.9866675 157.070002,21.07 156.69,21.07 C156.263331,21.07 155.886668,20.9633344 155.56,20.75 C155.233332,20.5366656 154.980001,20.2383352 154.8,19.855 C154.619999,19.4716648 154.53,19.0266692 154.53,18.52 C154.53,18.0199975 154.619999,17.5800019 154.8,17.2 C154.980001,16.8199981 155.233332,16.5266677 155.56,16.32 C155.886668,16.1133323 156.263331,16.01 156.69,16.01 C157.070002,16.01 157.401665,16.0933325 157.685,16.26 C157.968335,16.4266675 158.183333,16.6633318 158.33,16.97 L158.33,13.95 L159.14,13.95 Z M156.85,20.4 C157.323336,20.4 157.688332,20.238335 157.945,19.915 C158.201668,19.591665 158.33,19.1333363 158.33,18.54 C158.33,17.9466637 158.201668,17.4900016 157.945,17.17 C157.688332,16.8499984 157.323336,16.69 156.85,16.69 C156.376664,16.69 156.008335,16.8499984 155.745,17.17 C155.481665,17.4900016 155.35,17.9399971 155.35,18.52 C155.35,19.1133363 155.481665,19.5749984 155.745,19.905 C156.008335,20.2350017 156.376664,20.4 156.85,20.4 Z M121.57,33 L121.57,26.65 L119.12,26.65 L119.12,25.95 L124.86,25.95 L124.86,26.65 L122.4,26.65 L122.4,33 L121.57,33 Z M125.73,33 L125.73,28.13 L126.54,28.13 L126.54,33 L125.73,33 Z M125.65,26.02 L126.63,26.02 L126.63,26.93 L125.65,26.93 L125.65,26.02 Z M133.47,28.01 C134.55,28.01 135.09,28.6533269 135.09,29.94 L135.09,33 L134.28,33 L134.28,29.98 C134.28,29.5333311 134.201667,29.2066677 134.045,29 C133.888333,28.7933323 133.636668,28.69 133.29,28.69 C132.883331,28.69 132.563334,28.8266653 132.33,29.1 C132.096666,29.3733347 131.98,29.7466643 131.98,30.22 L131.98,33 L131.17,33 L131.17,29.98 C131.17,29.5266644 131.090001,29.1983343 130.93,28.995 C130.769999,28.7916656 130.516668,28.69 130.17,28.69 C129.763331,28.69 129.443334,28.8266653 129.21,29.1 C128.976665,29.3733347 128.86,29.7466643 128.86,30.22 L128.86,33 L128.05,33 L128.05,28.13 L128.85,28.13 L128.85,28.9 C128.996667,28.6133319 129.199999,28.3933341 129.46,28.24 C129.720001,28.0866659 130.019998,28.01 130.36,28.01 C131.113337,28.01 131.609999,28.3299968 131.85,28.97 C131.990001,28.6699985 132.203332,28.4350009 132.49,28.265 C132.776668,28.0949991 133.103331,28.01 133.47,28.01 Z M140.65,30.69 L137.09,30.69 C137.116667,31.2566695 137.269999,31.6849985 137.55,31.975 C137.830001,32.2650014 138.226664,32.41 138.74,32.41 C139.306669,32.41 139.826664,32.2166686 140.3,31.83 L140.57,32.42 C140.356666,32.620001 140.083335,32.7783327 139.75,32.895 C139.416665,33.0116673 139.076668,33.07 138.73,33.07 C137.969996,33.07 137.371669,32.8466689 136.935,32.4 C136.498331,31.9533311 136.28,31.3366706 136.28,30.55 C136.28,30.0499975 136.376666,29.6083352 136.57,29.225 C136.763334,28.8416647 137.034998,28.5433344 137.385,28.33 C137.735002,28.1166656 138.133331,28.01 138.58,28.01 C139.22667,28.01 139.733331,28.2216645 140.1,28.645 C140.466668,29.0683354 140.65,29.6499963 140.65,30.39 L140.65,30.69 Z M138.59,28.64 C138.163331,28.64 137.821668,28.773332 137.565,29.04 C137.308332,29.306668 137.156667,29.6833309 137.11,30.17 L139.94,30.17 C139.926667,29.6766642 139.803335,29.2983347 139.57,29.035 C139.336666,28.7716653 139.010002,28.64 138.59,28.64 Z" id="MountainStandardTime" fill="#FFFFFF" fill-rule="nonzero" opacity="0.5"></path>
        <path d="M130,38.5 L130,45" id="Line-4-Copy" stroke="#FFFFFF" opacity="0.399251302" stroke-dasharray="1"></path>
        <path d="M66,194 L66,168" id="Line-4-Copy" stroke="#FFFFFF" opacity="0.399251302" stroke-dasharray="1"></path>
        <path d="M191.324,270.72 L192.604,270.72 L188.668,282 L187.548,282 L184.332,272.768 L181.116,282 L180.012,282 L176.06,270.72 L177.388,270.72 L180.588,280.144 L183.868,270.72 L184.86,270.736 L188.092,280.16 L191.324,270.72 Z M194.348,282 L194.348,274.208 L195.644,274.208 L195.644,282 L194.348,282 Z M194.22,270.832 L195.788,270.832 L195.788,272.288 L194.22,272.288 L194.22,270.832 Z M201.98,274.016 C203.846676,274.016 204.78,275.045323 204.78,277.104 L204.78,282 L203.484,282 L203.484,277.184 C203.484,276.458663 203.342668,275.930668 203.06,275.6 C202.777332,275.269332 202.32667,275.104 201.708,275.104 C200.99333,275.104 200.422669,275.322664 199.996,275.76 C199.569331,276.197336 199.356,276.78933 199.356,277.536 L199.356,282 L198.06,282 L198.06,274.208 L199.34,274.208 L199.34,275.488 C199.596001,275.007998 199.953331,274.642668 200.412,274.392 C200.870669,274.141332 201.39333,274.016 201.98,274.016 Z M210.572,281.072 C210.806668,281.072 211.041332,281.056 211.276,281.024 L211.212,282.048 C210.966665,282.090667 210.700001,282.112 210.412,282.112 C209.473329,282.112 208.766669,281.866669 208.292,281.376 C207.817331,280.885331 207.58,280.202671 207.58,279.328 L207.58,275.232 L206.06,275.232 L206.06,274.208 L207.58,274.208 L207.58,271.84 L208.876,271.84 L208.876,274.208 L211.084,274.208 L211.084,275.232 L208.876,275.232 L208.876,279.232 C208.876,280.458673 209.441328,281.072 210.572,281.072 Z M219.116,278.304 L213.42,278.304 C213.462667,279.210671 213.707998,279.895998 214.156,280.36 C214.604002,280.824002 215.238663,281.056 216.06,281.056 C216.966671,281.056 217.798663,280.74667 218.556,280.128 L218.988,281.072 C218.646665,281.392002 218.209336,281.645332 217.676,281.832 C217.142664,282.018668 216.598669,282.112 216.044,282.112 C214.827994,282.112 213.87067,281.75467 213.172,281.04 C212.47333,280.32533 212.124,279.338673 212.124,278.08 C212.124,277.279996 212.278665,276.573336 212.588,275.96 C212.897335,275.346664 213.331997,274.869335 213.892,274.528 C214.452003,274.186665 215.08933,274.016 215.804,274.016 C216.838672,274.016 217.64933,274.354663 218.236,275.032 C218.82267,275.709337 219.116,276.639994 219.116,277.824 L219.116,278.304 Z M215.82,275.024 C215.13733,275.024 214.590669,275.237331 214.18,275.664 C213.769331,276.090669 213.526667,276.693329 213.452,277.472 L217.98,277.472 C217.958667,276.682663 217.761335,276.077335 217.388,275.656 C217.014665,275.234665 216.492003,275.024 215.82,275.024 Z M225.436,275.136 L224.588,275.216 C223.787996,275.290667 223.209335,275.541331 222.852,275.968 C222.494665,276.394669 222.316,276.922664 222.316,277.552 L222.316,282 L221.02,282 L221.02,274.208 L222.284,274.208 L222.284,275.568 C222.721336,274.661329 223.579994,274.154667 224.86,274.048 L225.324,274.016 L225.436,275.136 Z" id="Winter" fill="#FFFFFF" fill-rule="nonzero"></path>
    </g>
</svg>