<?xml version="1.0" encoding="UTF-8"?>
<svg width="120px" height="80px" viewBox="0 0 120 80" version="1.1" xmlns="http://www.w3.org/2000/svg" xmlns:xlink="http://www.w3.org/1999/xlink">
    <!-- Generator: Sketch 57.1 (83088) - https://sketch.com -->
    <title>Artboard Copy 5</title>
    <desc>Created with Sketch.</desc>
    <g id="Artboard-Copy-5" stroke="none" stroke-width="1" fill="none" fill-rule="evenodd">
        <g id="Group" transform="translate(5.000000, 5.000000)">
            <g id="Group-Copy-2">
                <polygon id="Path-8" fill="#3057C2" points="4.26364033 0 4.26364033 7.01461378 0 18.315936 0 25.8176757 2.13182017 35.5601949 9.10868616 46.4231037 13.6145788 47.6409186 22.4810127 52.2199026 33.5761676 54.4119694 39.6324749 60.7446068 43.2662593 59.2345164 49.0803143 67.4182324 54.4098647 70 54.4098647 64.1057759 56.977739 60.7446068 63.8092536 59.2345164 69.9624618 59.2345164 75.0982104 56.6527488 82.559581 56.6527488 85.9511131 58.1141267 88.1313837 62.7905358 90.6508075 67.4182324 92.7341772 68.8796103 93.8969882 64.1057759 92.7341772 59.2345164 90.6508075 54.8503827 90.6508075 52.2199026 95.4474029 46.4231037 100.486251 39.1649269 98.6451331 34.9756437 98.6451331 29.4224078 100.486251 25.8176757 100.486251 22.9923452 104.362287 20.6541406 104.362287 13.5421016 111 8.28114127 106.73636 3.50730689 104.362287 3.50730689 102.182017 10.9116214 95.4474029 13.5421016 90.6508075 18.315936 85.9511131 22.9923452 81.39677 24.2588727 81.39677 15.9290188 76.1641205 15.9290188 75.0982104 25.8176757 72.0458315 25.8176757 72.0458315 18.315936 74.0323003 13.5421016 69.9624618 10.9116214 65.0205151 13.5421016 65.0205151 9.54766875 58.8673069 7.01461378 43.2662593 7.01461378 26.4054998 4.62769659 13.6145788 1.55880306"></polygon>
                <polygon id="Path-8" stroke="#080A23" points="4.26364033 0 4.26364033 7.01461378 0 18.315936 0 25.8176757 2.13182017 35.5601949 9.10868616 46.4231037 13.6145788 47.6409186 22.4810127 52.2199026 33.5761676 54.4119694 39.6324749 60.7446068 43.2662593 59.2345164 49.0803143 67.4182324 54.4098647 70 54.4098647 64.1057759 56.977739 60.7446068 63.8092536 59.2345164 69.9624618 59.2345164 75.0982104 56.6527488 82.559581 56.6527488 85.9511131 58.1141267 88.1313837 62.7905358 90.6508075 67.4182324 92.7341772 68.8796103 93.8969882 64.1057759 92.7341772 59.2345164 90.6508075 54.8503827 90.6508075 52.2199026 95.4474029 46.4231037 100.486251 39.1649269 98.6451331 34.9756437 98.6451331 29.4224078 100.486251 25.8176757 100.486251 22.9923452 104.362287 20.6541406 104.362287 13.5421016 111 8.28114127 106.73636 3.50730689 104.362287 3.50730689 102.182017 10.9116214 95.4474029 13.5421016 90.6508075 18.315936 85.9511131 22.9923452 81.39677 24.2588727 81.39677 15.9290188 76.1641205 15.9290188 75.0982104 25.8176757 72.0458315 25.8176757 72.0458315 18.315936 74.0323003 13.5421016 69.9624618 10.9116214 65.0205151 13.5421016 65.0205151 9.54766875 58.8673069 7.01461378 43.2662593 7.01461378 26.4054998 4.62769659 13.6145788 1.55880306"></polygon>
                <polyline id="Path-9" stroke="#080A23" points="21.5 4 23 11.5496689 21.5 14.2317881 16.7222222 14.2317881 13 19.0993377 13 21.4834437 21.5 23.8675497 16.7222222 39.5629139 13.7222222 49"></polyline>
                <polyline id="Path-10" stroke="#080A23" points="42.1569507 8 42.1569507 11.925405 45.6791684 11.925405 47 15.9980126 47 24.0941604 45.6791684 29.2462545 43.4777823 37.8821454 42.1569507 41.513145 40.2980024 53.4365627 36.0909091 53.4365627 35 57"></polyline>
                <polyline id="Path-11" stroke="#080A23" points="73 25 73 28.0576631 73 34.0789074 79.3216783 38.07739 79.3216783 42.969651 81 49.9317147 81 56"></polyline>
            </g>
            <circle id="Oval-Copy-9" stroke="#000000" fill="#FFFFFF" cx="92" cy="67" r="2.5"></circle>
            <circle id="Oval-Copy-10" stroke="#000000" fill="#FFFFFF" cx="5" cy="3" r="2.5"></circle>
            <path d="M5,3 C50.5,-9 84,45.5 92,67" id="Path-17" stroke="#FFFFFF" stroke-dasharray="1"></path>
            <path d="M5,3 L92,67" id="Path-19" stroke-opacity="0.270842439" stroke="#000000" stroke-width="2"></path>
        </g>
    </g>
</svg>