<?xml version="1.0" standalone="no"?>
<!DOCTYPE svg PUBLIC "-//W3C//DTD SVG 20010904//EN"
 "http://www.w3.org/TR/2001/REC-SVG-20010904/DTD/svg10.dtd">
<svg version="1.0" xmlns="http://www.w3.org/2000/svg"
 width="512.000000pt" height="512.000000pt" viewBox="0 0 512.000000 512.000000"
 preserveAspectRatio="xMidYMid meet">
<metadata>
Created by potrace 1.11, written by Peter Selinger 2001-2013
</metadata>
<g transform="translate(0.000000,512.000000) scale(0.100000,-0.100000)"
fill="#000000" stroke="none">
<path d="M2305 5109 c-38 -4 -88 -10 -110 -13 -22 -4 -58 -10 -80 -13 -22 -3
-92 -18 -155 -34 -63 -16 -123 -31 -132 -33 -47 -12 -214 -73 -293 -108 -149
-65 -261 -128 -420 -234 -289 -193 -587 -511 -767 -819 -78 -133 -223 -466
-242 -556 -3 -13 -15 -58 -26 -99 -11 -41 -23 -88 -26 -105 -2 -16 -7 -37 -9
-45 -39 -145 -55 -570 -30 -780 105 -854 591 -1566 1345 -1973 192 -103 470
-205 661 -242 81 -16 149 -28 184 -32 22 -2 51 -6 65 -9 14 -3 126 -7 250 -9
299 -4 471 17 739 91 799 222 1456 845 1724 1634 62 182 107 385 124 558 10
98 10 444 0 541 -9 97 -24 187 -43 269 -9 37 -18 76 -20 86 -37 186 -168 497
-300 714 -113 185 -292 404 -434 532 -40 36 -80 72 -89 81 -9 9 -56 46 -106
83 -49 37 -98 74 -108 82 -9 8 -19 14 -21 14 -2 0 -44 25 -92 56 -198 124
-495 249 -712 299 -110 26 -234 48 -326 59 -117 14 -433 17 -551 5z m1210
-937 c295 -131 408 -182 413 -187 3 -3 -105 -250 -184 -423 -19 -41 -34 -75
-34 -77 0 -3 -29 -67 -80 -180 -10 -22 -40 -87 -65 -145 -26 -58 -60 -133 -76
-168 -16 -35 -29 -65 -29 -67 0 -2 -13 -32 -29 -67 -16 -35 -55 -121 -86 -193
-31 -71 -67 -152 -80 -180 -13 -27 -78 -174 -145 -325 -215 -485 -292 -633
-407 -783 -68 -88 -176 -191 -260 -247 -69 -46 -198 -103 -259 -114 -222 -42
-419 -18 -674 79 -495 189 -769 526 -773 950 0 66 2 140 7 165 9 52 13 79 15
98 1 15 15 14 161 -13 47 -9 123 -23 170 -31 47 -8 96 -17 110 -20 14 -3 63
-12 110 -20 47 -8 99 -18 115 -21 17 -3 36 -6 43 -6 9 0 11 -16 6 -61 -12
-118 44 -254 137 -326 23 -19 72 -45 108 -57 200 -67 362 44 512 347 25 52 53
111 62 130 8 19 25 58 37 85 12 28 141 318 287 645 145 327 270 609 278 625
21 47 241 540 283 633 20 45 41 81 47 78 5 -2 132 -58 280 -124z m809 -1187
c336 -118 398 -566 106 -765 -75 -51 -141 -72 -230 -75 -127 -4 -230 37 -319
126 -90 89 -132 195 -126 316 2 38 5 75 7 83 41 162 159 283 318 325 61 16
184 11 244 -10z"/>
</g>
</svg>
