<?xml version="1.0" encoding="UTF-8"?>
<svg width="218px" height="218px" viewBox="0 0 218 218" version="1.1" xmlns="http://www.w3.org/2000/svg" xmlns:xlink="http://www.w3.org/1999/xlink">
    <!-- Generator: Sketch 44.1 (41455) - http://www.bohemiancoding.com/sketch -->
    <title>Artboard 6</title>
    <desc>Created with Sketch.</desc>
    <defs></defs>
    <g id="Page-1" stroke="none" stroke-width="1" fill="none" fill-rule="evenodd">
        <g id="Artboard-6" fill="#FFFFFF">
            <g id="Group" transform="translate(8.000000, 8.000000)">
                <path d="M13.08,121.136 C13.2933344,120.495997 13.2720013,119.130677 13.016,117.04 C13.016,116.35733 12.8240019,115.354673 12.44,114.032 C9.53865216,114.501336 8.00266752,114.736 7.832,114.736 C6.3386592,114.949334 5.30400288,115.056 4.728,115.056 C4.15199712,115.056 3.77866752,115.034667 3.608,114.992 C3.26666496,114.906666 3.096,114.533337 3.096,113.872 C3.096,113.210663 3.26666496,112.613336 3.608,112.08 C3.94933504,111.546664 4.26933184,111.216001 4.568,111.088 C5.2080032,110.703998 6.14666048,110.298669 7.384,109.872 C7.384,109.786666 8.42932288,109.445336 10.52,108.848 C11.8426733,108.250664 13.5279898,107.824001 15.576,107.568 C15.7466675,107.525333 15.8746662,107.504 15.96,107.504 L17.048,107.312 L18.904,107.312 L20.376,107.76 C20.9306694,107.930668 21.8053274,108.549328 23,109.616 L23.128,110 C23.469335,110.256001 23.64,110.426666 23.64,110.512 C23.64,110.597334 23.6613331,110.725332 23.704,110.896 C23.704,111.962672 23.4053363,112.602666 22.808,112.816 C22.6373325,112.858667 22.1680038,112.837334 21.4,112.752 C19.9493261,112.581332 19.0320019,112.623999 18.648,112.88 C18.648,113.306669 18.7119994,113.669332 18.84,113.968 C18.9680006,114.224001 19.2239981,115.354657 19.608,117.36 C19.608,117.658668 19.7893315,118.565326 20.152,120.08 C20.5146685,121.594674 20.7386662,123.290657 20.824,125.168 C21.2933357,126.192005 21.528,129.02931 21.528,133.68 C21.5706669,133.936001 21.592,134.298664 21.592,134.768 C21.4639994,135.024001 21.4,135.663995 21.4,136.688 C21.3146662,137.029335 21.272,137.455997 21.272,137.968 C21.1866662,138.266668 21.1226669,138.639998 21.08,139.088 C21.0373331,139.536002 20.9946669,139.887999 20.952,140.144 C20.8239994,140.869337 20.6426678,141.349332 20.408,141.584 C20.1733322,141.818668 19.9920006,142.447995 19.864,143.472 C19.864,143.557334 19.7040016,143.855997 19.384,144.368 C19.0639984,144.880003 18.7760013,145.221332 18.52,145.392 L18.008,145.968 C18.008,146.224001 17.5813376,146.778662 16.728,147.632 L16.28,148.144 C16.0239987,148.314668 15.4693376,148.869329 14.616,149.808 C14.5733331,149.978668 14.0720048,150.213332 13.112,150.512 C12.1519952,150.810668 11.1173389,150.810668 10.008,150.512 C9.41066368,150.426666 8.77067008,150.04267 8.088,149.36 C7.91733248,149.402667 7.81066688,149.402667 7.768,149.36 C7.42666496,149.018665 6.74400512,148.634669 5.72,148.208 C5.63466624,148.293334 5.12267136,147.909338 4.184,147.056 C3.9706656,147.013333 3.18134016,146.202675 1.816,144.624 C1.77333312,144.410666 1.56000192,143.920004 1.176,143.152 C1.176,143.109333 1.08000096,142.757337 0.888,142.096 C0.69599904,141.434663 0.55733376,140.48534 0.472,139.248 L0.472,138.8 C0.472,138.543999 0.72799744,137.776006 1.24,136.496 C2.0933376,135.514662 3.1599936,135.493329 4.44,136.432 C4.56800064,137.11467 4.80266496,137.722664 5.144,138.256 C5.48533504,138.789336 5.71999936,139.290664 5.848,139.76 C6.14666816,140.826672 6.91466048,142.063993 8.152,143.472 C8.62133568,143.941336 9.26132928,144.197333 10.072,144.24 C10.2426675,144.197333 10.9039942,143.685338 12.056,142.704 C12.2266675,142.533332 12.3973325,142.234669 12.568,141.808 C12.9946688,141.210664 13.2186666,140.848001 13.24,140.72 C13.2613334,140.591999 13.3573325,140.293336 13.528,139.824 C13.528,139.781333 13.698665,139.312004 14.04,138.416 C14.4240019,137.73333 14.5093344,136.70934 14.296,135.344 C14.2533331,135.301333 14.232,135.152001 14.232,134.896 C14.1039994,133.871995 14.0186669,133.253334 13.976,133.04 L13.976,132.464 C13.9333331,132.421333 13.912,132.357334 13.912,132.272 L14.04,130.992 C13.8693325,130.735999 13.6773344,130.053339 13.464,128.944 C13.0373312,127.109324 12.994665,125.616006 13.336,124.464 C13.336,124.421333 13.2933338,124.240002 13.208,123.92 C13.1226662,123.599998 13.1013331,123.290668 13.144,122.992 L13.08,121.136 Z M39.96,131.12 C39.6613318,129.413325 38.8293402,128.623999 37.464,128.752 C36.6959962,128.794667 36.0346694,129.306662 35.48,130.288 C34.7119962,131.781341 34.3813328,133.711988 34.488,136.08 C34.5946672,138.448012 34.7653322,140.154661 35,141.2 C35.2346678,142.245339 35.6506637,143.151996 36.248,143.92 C36.589335,144.517336 37.1013299,144.794667 37.784,144.752 C38.9786726,144.752 39.8533306,143.749343 40.408,141.744 L40.92,140.208 C41.1333344,139.994666 41.1760006,139.781334 41.048,139.568 C41.4746688,138.501328 41.7093331,137.242674 41.752,135.792 C41.3253312,135.493332 41.0693338,135.216001 40.984,134.96 C40.7279987,134.234663 40.6,133.744001 40.6,133.488 C40.3013318,133.274666 40.1306669,132.869336 40.088,132.272 C40.0453331,131.674664 40.0026669,131.290668 39.96,131.12 Z M28.248,137.136 L28.504,133.872 C28.8026682,130.927985 29.6986592,128.410677 31.192,126.32 C32.6426739,124.570658 34.6906534,123.674667 37.336,123.632 L37.72,123.632 C40.194679,123.632 41.9866611,124.165328 43.096,125.232 C44.2906726,126.170671 45.1759971,127.194661 45.752,128.304 C46.3280029,129.413339 46.7013325,130.223997 46.872,130.736 C47.0426675,131.248003 47.1493331,131.994662 47.192,132.976 C47.2773338,134.810676 46.9146707,135.855999 46.104,136.112 C46.7013363,140.165354 46.3386733,143.386655 45.016,145.776 C44.5893312,146.757338 43.9706707,147.823994 43.16,148.976 C42.5626637,149.744004 41.4960077,150.170666 39.96,150.256 C38.4239923,150.256 37.0906723,150.170668 35.96,150 C34.8293277,149.829332 33.5813402,149.285338 32.216,148.368 C30.8506598,147.450662 29.8906694,145.946677 29.336,143.856 C28.7386637,141.850657 28.3760006,139.610679 28.248,137.136 Z M53.208,131.12 C53.208,130.735998 53.1653338,130.288003 53.08,129.776 L53.08,129.328 C53.1226669,129.029332 53.1013338,128.709335 53.016,128.368 C53.016,127.941331 53.0586662,127.557335 53.144,127.216 C53.144,126.362662 53.2506656,125.808001 53.464,125.552 C53.464,125.338666 53.7626637,124.848004 54.36,124.08 C54.5306675,123.909332 54.8506643,123.632002 55.32,123.248 C56.0026701,123.034666 56.4719987,122.906667 56.728,122.864 C56.8986675,122.693332 57.4746618,122.757332 58.456,123.056 C58.8826688,123.098667 59.5439955,123.247999 60.44,123.504 C60.7386682,123.589334 61.1226643,123.930664 61.592,124.528 C61.5066662,124.698668 61.368001,125.327995 61.176,126.416 C60.983999,127.504005 60.9093331,128.38933 60.952,129.072 C61.2080013,128.858666 61.6559968,128.41067 62.296,127.728 C62.9360032,127.04533 63.2773331,126.682667 63.32,126.64 C64.4293389,126.127997 65.517328,125.765334 66.584,125.552 C68.1200077,125.423999 69.1226643,125.530665 69.592,125.872 C69.9760019,126.000001 70.2746656,126.191999 70.488,126.448 C70.8720019,126.789335 71.1919987,127.375996 71.448,128.208 C71.7040013,129.040004 71.6826682,129.562666 71.384,129.776 C71.1279987,129.989334 70.2746739,130.159999 68.824,130.288 C68.7386662,130.288 68.4400026,130.458665 67.928,130.8 L64.6,133.424 C63.9173299,133.765335 63.4480013,134.063999 63.192,134.32 L61.976,136.56 C61.9333331,136.645334 61.8906669,137.199995 61.848,138.224 C61.8053331,139.248005 61.8053331,139.983998 61.848,140.432 C61.8906669,140.880002 61.8906669,142.319988 61.848,144.752 L61.848,147.504 C61.848,148.997341 61.8266669,149.861332 61.784,150.096 C61.7413331,150.330668 61.5706682,150.746664 61.272,151.344 C61.1439994,151.557334 60.7386701,151.664 60.056,151.664 C58.3919917,152.90134 57.3253357,152.83734 56.856,151.472 L56.024,150.96 C55.682665,150.789332 55.4693338,150.576001 55.384,150.32 C55.042665,149.850664 54.872,149.573334 54.872,149.488 L54.616,148.592 L54.232,147.824 C54.1039994,147.781333 53.9973338,146.960008 53.912,145.36 C53.8266662,143.759992 53.784,142.778668 53.784,142.416 C53.784,142.053332 53.7413338,141.658669 53.656,141.232 C53.9546682,140.933332 54.0933334,140.421337 54.072,139.696 C54.0506666,138.970663 53.9973338,138.405335 53.912,138 C53.8266662,137.594665 53.8266662,137.338667 53.912,137.232 C53.9973338,137.125333 53.9760006,136.538672 53.848,135.472 C53.7199994,135.301332 53.6986662,134.981336 53.784,134.512 L53.208,131.12 Z M82.072,139.056 C82.072,139.610669 82.0293338,140.293329 81.944,141.104 C81.8586662,141.914671 82.0719974,143.215991 82.584,145.008 C82.7973344,146.24534 83.0106656,147.034665 83.224,147.376 C83.5226682,147.376 83.7999987,147.056003 84.056,146.416 C84.056,146.373333 84.2053318,146.074669 84.504,145.52 C84.6320006,145.477333 85.058663,144.880006 85.784,143.728 L86.552,142.192 C86.6800006,141.295996 86.9786643,140.496004 87.448,139.792 C87.9173357,139.087996 88.2799987,138.469336 88.536,137.936 C88.7920013,137.402664 88.8986669,136.688004 88.856,135.792 C88.856,135.450665 88.7066682,134.426675 88.408,132.72 C88.3226662,132.506666 88.1626678,132.02667 87.928,131.28 C87.6933322,130.53333 87.3946685,130.000002 87.032,129.68 C86.6693315,129.359998 86.2960019,129.221333 85.912,129.264 C85.5279981,129.306667 85.0586694,129.903994 84.504,131.056 C83.8213299,132.42134 83.3306682,133.743994 83.032,135.024 C82.7333318,136.304006 82.5413338,137.071999 82.456,137.328 C82.3279994,137.712002 82.264,138.053332 82.264,138.352 L82.072,139.056 Z M90.136,106.032 C91.0320045,105.903999 91.575999,105.850667 91.768,105.872 C91.960001,105.893333 92.3973299,105.840001 93.08,105.712 C93.9760045,106.778672 94.5306656,107.567997 94.744,108.08 L95.192,109.744 C95.533335,110.085335 95.704,110.405332 95.704,110.704 C95.7893338,111.344003 95.8639997,111.887998 95.928,112.336 C95.9920003,112.784002 96.024,113.391996 96.024,114.16 C96.024,115.269339 95.8746682,117.77598 95.576,121.68 C95.2773318,125.58402 95.0000013,128.389325 94.744,130.096 L95.128,133.616 C95.7680032,137.114684 96.1733325,139.013332 96.344,139.312 C96.6000013,140.933341 97.1333293,142.42666 97.944,143.792 L98.072,144.304 L99.032,145.904 C99.3306682,146.544003 99.4693334,147.183997 99.448,147.824 C99.4266666,148.464003 99.3520006,148.911999 99.224,149.168 C98.6266637,150.362673 98.0293363,151.002666 97.432,151.088 C97.1333318,151.216001 96.6640032,151.216001 96.024,151.088 C95.4693306,151.088 95.0640013,150.960001 94.808,150.704 C94.6799994,150.704 94.5093344,150.682667 94.296,150.64 C93.6559968,150.768001 93.2506675,150.618669 93.08,150.192 C92.8239987,149.935999 92.5360016,149.477337 92.216,148.816 C91.8959984,148.154663 91.5226688,147.589336 91.096,147.12 L90.776,146.416 C90.6053325,145.647996 90.5093334,145.253333 90.488,145.232 C90.4666666,145.210667 90.4346669,145.114668 90.392,144.944 L88.152,148.464 C88.0666662,148.762668 87.5120051,149.615993 86.488,151.024 L85.656,151.728 C85.1439974,151.984001 84.3973382,152.048001 83.416,151.92 C83.3306662,151.962667 82.9680032,151.984 82.328,151.984 L78.744,151.344 C77.9759962,150.831997 77.3146694,150.021339 76.76,148.912 C76.418665,148.314664 76.248,147.824002 76.248,147.44 C76.248,147.013331 76.0560019,146.18134 75.672,144.944 L75.544,143.984 L75.544,143.6 L75.48,142.704 C75.5653338,142.533332 75.5226675,142.170669 75.352,141.616 L75.288,141.04 L75.288,139.952 C75.288,139.695999 75.3519994,139.205337 75.48,138.48 C75.5226669,137.925331 75.5333334,137.296004 75.512,136.592 C75.4906666,135.887996 75.5013331,135.386668 75.544,135.088 C75.4586662,134.661331 75.4799994,134.298668 75.608,134 C75.5226662,133.701332 75.5439994,133.189337 75.672,132.464 C75.672,131.994664 76.034663,130.928008 76.76,129.264 C76.6319994,128.58133 76.930663,127.813338 77.656,126.96 C77.656,126.917333 77.8693312,126.597336 78.296,126 C78.4240006,125.871999 78.7439974,125.701334 79.256,125.488 L80.792,124.464 C82.4133414,123.994664 83.9066598,123.909332 85.272,124.208 L87.832,125.104 C87.9173338,124.463997 87.8960006,122.352018 87.768,118.768 C87.768,118.255997 87.8426659,117.136009 87.992,115.408 C88.1413341,113.679991 88.2586662,112.005341 88.344,110.384 L89.112,107.696 C89.112,107.226664 89.1973325,106.885334 89.368,106.672 L90.136,106.032 Z M116.312,133.296 C116.354667,133.167999 116.439999,132.42134 116.568,131.056 C116.482666,130.927999 116.376001,130.458671 116.248,129.648 C115.906665,128.96533 115.458669,128.453335 114.904,128.112 C114.22133,127.813332 113.816001,127.664 113.688,127.664 C113.303998,127.792001 113.037334,127.930666 112.888,128.08 C112.738666,128.229334 112.376003,128.837328 111.8,129.904 C111.223997,130.970672 110.754668,132.741321 110.392,135.216 C110.029332,137.690679 109.848,139.482661 109.848,140.592 C109.848,141.701339 109.890666,143.055992 109.976,144.656 C110.061334,146.256008 110.402664,147.013334 111,146.928 C111.554669,146.842666 112.322662,145.306682 113.304,142.32 C113.346667,142.106666 113.495999,141.722669 113.752,141.168 L116.312,133.296 Z M123.8,130.672 C123.8,132.933345 124.034664,135.002657 124.504,136.88 C124.717334,138.757343 125.101331,140.762656 125.656,142.896 C125.784001,143.749338 125.826667,144.176 125.784,144.176 C126.850672,146.522678 127.447999,147.919998 127.576,148.368 C127.704001,148.816002 127.682668,149.189332 127.512,149.488 L127.512,149.424 C127.383999,149.808002 126.989337,150.159998 126.328,150.48 C125.666663,150.800002 125.080003,151.002666 124.568,151.088 C122.946659,151.600003 121.986668,150.981342 121.688,149.232 C121.517332,149.103999 121.272002,148.837335 120.952,148.432 C120.631998,148.026665 120.450667,147.685335 120.408,147.408 C120.365333,147.130665 120.216001,146.864001 119.96,146.608 C119.874666,146.394666 119.682668,146.117335 119.384,145.776 C119.085332,145.434665 118.914667,145.093335 118.872,144.752 L118.68,143.024 L118.552,142.96 C117.86933,144.368007 117.421334,145.349331 117.208,145.904 C116.695997,147.354674 115.800006,149.018657 114.52,150.896 C113.069326,152.517341 111.298677,152.98667 109.208,152.304 C108.439996,152.261333 107.832002,152.026669 107.384,151.6 C106.935998,151.173331 106.626668,150.938667 106.456,150.896 C106.199999,150.810666 105.837336,150.490669 105.368,149.936 C104.599996,148.911995 104.130668,147.397343 103.96,145.392 L103.96,143.728 C104.088001,143.514666 104.088001,142.490676 103.96,140.656 L103.96,140.272 C103.703999,138.991994 103.576,138.224001 103.576,137.968 C103.576,137.711999 103.618666,137.370669 103.704,136.944 C103.789334,136.517331 103.810667,136.250667 103.768,136.144 C103.725333,136.037333 103.704,135.856001 103.704,135.6 L103.704,134.64 L104.024,131.184 C104.493336,129.690659 105.005331,128.346673 105.56,127.152 C105.730668,126.426663 106.050664,125.850669 106.52,125.424 C107.586672,124.271994 108.162666,123.610668 108.248,123.44 C108.546668,122.799997 109.65599,122.288002 111.576,121.904 L112.664,121.968 C113.090669,121.968 113.474665,122.021333 113.816,122.128 C114.157335,122.234667 114.391999,122.288 114.52,122.288 C115.117336,122.586668 115.607998,122.736 115.992,122.736 C116.376002,122.736 117.015996,123.034664 117.912,123.632 C118.168001,123.674667 118.807995,124.03733 119.832,124.72 C120.941339,125.445337 121.581332,125.850666 121.752,125.936 L123.416,126.512 C123.885336,126.896002 124.12,127.109333 124.12,127.152 C124.12,127.194667 124.013334,128.367988 123.8,130.672 Z M138.881621,138.058503 C139.767637,137.00962 140.82043,135.763452 142.04,134.32 L143.704,130.864 C143.832001,130.735999 143.938666,130.458669 144.024,130.032 L145.688,127.536 L146.968,126.384 C147.224001,126.255999 147.501332,126.042668 147.8,125.744 C147.885334,125.829334 148.226664,125.744001 148.824,125.488 C149.208002,125.488 149.975994,125.551999 151.128,125.68 L152.408,126.128 L155.288,127.856 C155.885336,128.453336 156.141334,129.09333 156.056,129.776 C156.013333,130.288003 155.778669,131.695988 155.352,134 C155.010665,135.834676 154.520003,137.946655 153.88,140.336 C153.538665,142.25601 153.431999,143.642662 153.56,144.496 C153.688001,145.349338 153.752,145.839999 153.752,145.968 C153.837334,146.224001 153.954666,146.586664 154.104,147.056 C154.253334,147.525336 154.285334,147.781333 154.2,147.824 C154.498668,147.866667 154.648,148.079998 154.648,148.464 C154.989335,149.360004 155.106667,149.967998 155,150.288 C154.893333,150.608002 154.616002,150.959998 154.168,151.344 C153.719998,151.728002 152.920006,151.92 151.768,151.92 C151.08533,151.834666 150.541335,151.792 150.136,151.792 C149.730665,151.792 149.229336,151.642668 148.632,151.344 C147.39466,150.447996 146.690668,149.530671 146.52,148.592 C146.306666,147.994664 146.178667,147.546668 146.136,147.248 C146.093333,146.949332 146.072,146.736001 146.072,146.608 C145.858666,145.327994 145.879999,144.00534 146.136,142.64 C146.178667,142.127997 146.370665,141.082675 146.712,139.504 C147.053335,137.882659 147.394665,136.602671 147.736,135.664 C147.736,134.725329 147.714667,134.234667 147.672,134.192 L145.176,139.056 C144.919999,139.73867 144.685334,140.250665 144.472,140.592 C144.258666,140.805334 144.152,141.061332 144.152,141.36 C143.810665,141.701335 143.490668,142.383995 143.192,143.408 C143.192,143.706668 143.170667,143.919999 143.128,144.048 C143.085333,144.176001 142.925335,144.485331 142.648,144.976 C142.370665,145.466669 142.178667,145.925331 142.072,146.352 C141.965333,146.778669 141.698669,147.247997 141.272,147.76 C141.272,147.930668 140.994669,148.805325 140.44,150.384 C140.397333,150.554668 139.949338,150.703999 139.096,150.832 L137.88,150.704 C137.581332,150.618666 136.877339,150.405335 135.768,150.064 C134.658661,149.722665 134.050667,149.552 133.944,149.552 C133.837333,149.552 133.741334,149.509334 133.656,149.424 C132.930663,149.253332 132.482668,148.656005 132.312,147.632 L132.312,146.608 C132.525334,146.351999 132.546668,145.861337 132.376,145.136 C132.461334,144.709331 132.525333,144.218669 132.568,143.664 C132.439999,143.578666 132.418666,143.429334 132.504,143.216 C132.589334,141.85066 132.632,140.890669 132.632,140.336 L132.632,138.8 C132.717334,137.391993 132.823999,135.877341 132.952,134.256 C133.080001,132.634659 133.144,131.589336 133.144,131.12 L133.144,129.84 C133.058666,129.626666 133.037333,129.136004 133.08,128.368 C132.994666,127.557329 132.888001,127.056001 132.76,126.864 C132.631999,126.671999 132.589333,126.384002 132.632,126 L133.08,124.912 C133.76267,124.357331 134.914659,124.250665 136.536,124.592 C137.261337,124.720001 138.263994,125.146663 139.544,125.872 C139.629334,126.000001 139.842665,126.277331 140.184,126.704 C140.440001,126.704 140.589333,127.066663 140.632,127.792 C140.589333,128.176002 140.568,128.495999 140.568,128.752 C140.525333,128.794667 140.290669,129.77599 139.864,131.696 C139.441418,134.365952 139.113958,136.486783 138.881621,138.058503 L138.881621,138.058503 Z M138.879365,138.073765 C138.597121,139.983838 138.456,141.079244 138.456,141.36 C138.456,141.872003 138.498666,142.234666 138.584,142.448 C138.968002,141.551996 139.373331,140.506673 139.8,139.312 L141.208,135.728 L141.784,134.64 C140.671482,135.955292 139.703271,137.09988 138.879365,138.073765 L138.879365,138.073765 Z M138.879365,138.073765 C138.880116,138.068683 138.880868,138.063596 138.881621,138.058503 C134.175335,143.629892 134.174584,143.634979 138.879365,138.073765 L138.879365,138.073765 Z" id="Jordan"></path>
                <path d="M45.392,91.83 C45.199999,91.9380005 45.002001,91.992 44.798,91.992 C44.593999,91.992 44.0600043,92.0159998 43.196,92.064 C42.6439972,92.1840006 42.0920028,92.339999 41.54,92.532 L41.504,92.532 C41.504,92.9640022 41.3840012,93.5999958 41.144,94.44 C41.144,94.7280014 41.0840006,95.1959968 40.964,95.844 C40.964,96.036001 40.9280004,96.227999 40.856,96.42 C40.7839996,96.612001 40.748,96.911998 40.748,97.32 C40.5799992,98.3040049 40.5079999,98.8439995 40.532,98.94 C40.5560001,99.0360005 40.5560001,99.1679992 40.532,99.336 C40.5079999,99.5040008 40.4600004,99.7559983 40.388,100.092 C40.3159996,100.428002 40.28,100.823998 40.28,101.28 C40.28,101.736002 40.2200006,102.143998 40.1,102.504 L40.1,102.9 C40.1480002,103.764004 40.1180005,104.375998 40.01,104.736 C39.9019995,105.096002 39.848,105.401999 39.848,105.654 C39.848,105.906001 39.7880006,106.295997 39.668,106.824 C39.5479994,107.352003 39.5119998,107.975996 39.56,108.696 L39.776,108.696 C40.376003,108.648 40.6939998,108.63 40.73,108.642 C40.7660002,108.654 40.9279986,108.624 41.216,108.552 L41.792,108.588 L42.152,108.588 C42.2240004,108.588 42.3799988,108.677999 42.62,108.858 C42.8600012,109.038001 43.0279995,109.211999 43.124,109.38 C43.2920008,109.548001 43.3460003,109.709999 43.286,109.866 C43.2259997,110.022001 42.9560024,110.279998 42.476,110.64 L41.792,110.856 C41.7199996,110.928 41.5520013,111.012 41.288,111.108 C41.0239987,111.204 40.796001,111.252 40.604,111.252 C40.0519972,111.372001 39.7280005,111.575999 39.632,111.864 C39.5359995,112.056001 38.9600053,112.128 37.904,112.08 L36.68,112.08 L35.996,112.296 C35.395997,112.536001 34.8680023,112.596001 34.412,112.476 C33.9559977,112.355999 33.6500008,112.266 33.494,112.206 C33.3379992,112.146 33.1520011,112.026001 32.936,111.846 C32.7199989,111.665999 32.6299998,111.462001 32.666,111.234 C32.7020002,111.005999 32.7799994,110.676002 32.9,110.244 C33.308002,109.907998 33.5959992,109.692 33.764,109.596 C34.9160058,109.235998 35.6479984,108.996001 35.96,108.876 C35.96,108.083996 35.9360002,107.616001 35.888,107.472 C35.9600004,107.448 36.0439995,106.932005 36.14,105.924 C36.1640001,105.828 36.1040007,105.600002 35.96,105.24 L35.96,105.024 C36.0320004,104.351997 36.0200005,103.740003 35.924,103.188 C35.924,103.164 35.9719995,102.744004 36.068,101.928 C36.1880006,101.783999 36.1880006,101.400003 36.068,100.776 C36.1640005,100.319998 36.2479996,99.9600013 36.32,99.696 L36.356,99.192 C36.356,99.0479993 36.4279993,98.6160036 36.572,97.896 L36.572,97.536 L36.644,97.248 C37.0760022,95.4719911 37.3639993,94.1760041 37.508,93.36 C37.315999,93.4080002 37.1960002,93.432 37.148,93.432 L35.96,93.612 C35.0479954,93.8520012 34.2440035,93.6480032 33.548,93 C32.947997,92.1839959 32.9359971,91.4880029 33.512,90.912 C33.8720018,90.5999984 34.4239963,90.3840006 35.168,90.264 C35.8160032,90.0479989 36.235999,89.8920005 36.428,89.796 C36.6680012,89.796 37.2319956,89.5320026 38.12,89.004 C39.0080044,88.8839994 39.5239993,88.824 39.668,88.824 L41.36,88.608 C41.5760011,88.5839999 41.8639982,88.6019997 42.224,88.662 C42.5840018,88.7220003 42.7999996,88.7999995 42.872,88.896 C43.1840016,88.9680004 43.5679977,89.1119989 44.024,89.328 L44.888,90.12 C45.2240017,90.6000024 45.4519994,90.9599988 45.572,91.2 C45.6440004,91.5120016 45.584001,91.7219995 45.392,91.83 Z M49.28,92.82 C49.3040001,92.7479996 49.316,92.5800013 49.316,92.316 L49.316,91.632 C49.316,91.5119994 49.2320008,91.2300022 49.064,90.786 C48.8959992,90.3419978 48.7760004,90.0120011 48.704,89.796 L47.804,87.888 C47.804,87.6479988 47.9419986,87.4140011 48.218,87.186 C48.4940014,86.9579989 48.8119982,86.8080004 49.172,86.736 L49.928,86.592 C49.9760002,86.592 50.1679983,86.5440005 50.504,86.448 C50.9840024,86.3039993 51.3499987,86.232 51.602,86.232 C51.8540013,86.232 52.2199976,86.435998 52.7,86.844 C52.7,86.8680001 52.801999,87.3119957 53.006,88.176 C53.210001,89.0400043 53.312,89.771997 53.312,90.372 C53.312,90.972003 53.2760004,91.4159986 53.204,91.704 C53.1319996,91.9920014 53.0720002,92.2439989 53.024,92.46 C52.9759998,92.6760011 52.952,92.7899999 52.952,92.802 C52.952,92.8140001 52.9280002,92.8799994 52.88,93 C52.8319998,93.1200006 52.7900002,93.2039998 52.754,93.252 C52.7179998,93.3000002 52.6460005,93.4439988 52.538,93.684 C52.4299995,93.9240012 52.2860009,94.1939985 52.106,94.494 C51.9259991,94.7940015 51.7580008,95.039999 51.602,95.232 C51.4459992,95.424001 51.1340023,95.6519987 50.666,95.916 C50.1979977,96.1800013 49.7300023,96.312 49.262,96.312 C48.7939977,96.312 48.458001,96.2460007 48.254,96.114 C48.049999,95.9819993 47.948,95.8500007 47.948,95.718 C47.948,95.5859993 47.9659998,95.5020002 48.002,95.466 C48.0380002,95.4299998 48.0799998,95.4000001 48.128,95.376 C48.320001,95.3519999 48.7039971,94.5000084 49.28,92.82 Z M56.264,96.132 L56.336,96.132 C56.6480016,96.0359995 57.1519965,96.0719992 57.848,96.24 C58.0880012,96.3120004 58.2319998,96.9959935 58.28,98.292 C58.3760005,99.2760049 58.424,99.9539981 58.424,100.326 C58.424,100.698002 58.4359999,100.92 58.46,100.992 L58.46,103.404 L58.64,103.44 C58.64,103.416 58.6639998,103.272001 58.712,103.008 C58.8320006,102.335997 58.9639993,101.820002 59.108,101.46 C59.2040005,101.364 59.2579999,101.244001 59.27,101.1 C59.2820001,100.955999 59.3479994,100.800001 59.468,100.632 C59.6120007,99.9599966 59.9719971,99.0840054 60.548,98.004 C60.740001,97.5479977 60.9259991,97.2060011 61.106,96.978 C61.2860009,96.7499989 61.5619981,96.6719996 61.934,96.744 C62.3060019,96.8160004 62.6119988,96.947999 62.852,97.14 C63.044001,97.1640001 63.2719987,97.1999998 63.536,97.248 L64.58,97.464 C64.6760005,97.4880001 64.8079992,97.5659993 64.976,97.698 C65.1440008,97.8300007 65.2160001,97.991999 65.192,98.184 C65.1679999,98.376001 65.1440001,98.9399953 65.12,99.876 L65.12,100.452 L64.976,101.856 C64.976,102.240002 64.9999998,102.468 65.048,102.54 L65.192,102.648 L65.48,100.992 C65.48,100.823999 65.5519993,100.668001 65.696,100.524 L66.128,99.48 C66.128,99.4079996 66.1999993,99.2520012 66.344,99.012 C66.3920002,98.8439992 66.5059991,98.6040016 66.686,98.292 C66.8660009,97.9799984 67.0999986,97.6800014 67.388,97.392 C67.388,97.199999 67.6039978,97.0680004 68.036,96.996 C68.3720017,96.6359982 68.9239962,96.6239983 69.692,96.96 C69.8360007,96.96 69.9679994,96.9839998 70.088,97.032 C70.088,97.0800002 70.1779991,97.1159999 70.358,97.14 C70.5380009,97.1640001 70.7599987,97.3199986 71.024,97.608 L71.024,98.004 C71.024,98.2440012 71.0359999,98.4239994 71.06,98.544 C71.0359999,98.7120008 71.0479998,98.9279987 71.096,99.192 L71.096,99.624 C71.1200001,99.816001 71.1799995,100.415995 71.276,101.424 L71.276,101.82 C71.3480004,101.964001 71.3780001,102.113999 71.366,102.27 C71.3539999,102.426001 71.348,102.587999 71.348,102.756 C71.4200004,102.828 71.4799998,103.025998 71.528,103.35 C71.5760002,103.674002 71.5520005,103.991998 71.456,104.304 L71.528,104.628 L71.528,105.636 C71.6480006,105.732 71.708,105.875999 71.708,106.068 L71.816,106.68 C71.816,107.112002 71.8759994,107.543998 71.996,107.976 L71.996,108.372 L72.176,109.308 L72.176,109.524 L72.14,109.884 C72.14,110.148001 71.9960014,110.339999 71.708,110.46 C71.6599998,110.484 71.5940004,110.52 71.51,110.568 C71.4259996,110.616 71.288001,110.64 71.096,110.64 L70.34,110.388 L69.98,110.136 C69.787999,110.184 69.5360016,110.100001 69.224,109.884 C69.224,109.667999 69.1400008,109.476001 68.972,109.308 C68.6839986,109.212 68.5759996,109.020001 68.648,108.732 C68.6720001,108.708 68.6120007,108.576001 68.468,108.336 C68.5160002,108.288 68.4800006,108.024002 68.36,107.544 C68.36,107.327999 68.3420002,107.118001 68.306,106.914 C68.2699998,106.709999 68.2460001,106.500001 68.234,106.284 C68.2219999,106.067999 68.1800004,105.876001 68.108,105.708 C68.1320001,105.708 68.144,105.624001 68.144,105.456 C68.144,105.287999 68.1200002,105.132001 68.072,104.988 L68.072,104.16 L67.892,102.72 L67.352,104.376 C66.9919982,105.312005 66.812,105.816 66.812,105.888 L65.66,109.488 C65.5879996,109.632001 65.450001,109.793999 65.246,109.974 C65.041999,110.154001 64.8680007,110.244 64.724,110.244 C64.6759998,110.172 64.550001,110.136 64.346,110.136 C64.141999,110.136 63.8960014,110.195999 63.608,110.316 C62.7919959,110.412 62.3240006,110.160003 62.204,109.56 L62.132,108.732 L62.168,107.904 C62.1199998,107.832 62.096,107.664001 62.096,107.4 L62.06,106.896 L62.06,105.348 L61.988,103.512 L61.988,101.748 C61.2919965,103.644009 60.8600008,104.879997 60.692,105.456 L59.36,109.74 C59.0959987,110.436003 58.6160035,110.808 57.92,110.856 L57.524,110.928 C56.9959974,111.048001 56.6480008,110.964001 56.48,110.676 L56.12,110.064 C56.0239995,109.535997 55.9280005,109.236 55.832,109.164 C55.7839998,108.827998 55.664001,108.480002 55.472,108.12 L55.292,107.256 C55.292,107.184 55.2680002,107.076001 55.22,106.932 L55.22,106.284 C55.1479996,106.091999 55.0880002,105.702003 55.04,105.114 C54.9919998,104.525997 54.9799999,104.052002 55.004,103.692 C54.9079995,103.403999 54.8839998,103.044002 54.932,102.612 L54.932,101.964 C54.8119994,101.411997 54.752,100.572006 54.752,99.444 L54.752,98.94 C54.8720006,98.2199964 54.932,97.7340013 54.932,97.482 C54.932,97.2299987 54.9919994,97.0380007 55.112,96.906 C55.2320006,96.7739993 55.6159968,96.5160019 56.264,96.132 Z" id="I’m"></path>
                <path d="M80.752,40.688 C80.8480005,40.5439993 80.8480005,40.2080026 80.752,39.68 C80.559999,37.9519914 80.5359993,36.7520034 80.68,36.08 C80.487999,33.487987 80.4279996,31.9760022 80.5,31.544 C80.5720004,31.1119978 80.703999,30.8720002 80.896,30.824 C80.703999,30.5359986 80.5240008,29.4800091 80.356,27.656 C80.1879992,25.8319909 80.1519995,24.6080031 80.248,23.984 C80.1519995,23.5999981 80.1279998,23.1320028 80.176,22.58 C80.2240002,22.0279972 80.2959995,21.656001 80.392,21.464 C80.2959995,21.3679995 80.2240002,21.0080031 80.176,20.384 L80.176,17.144 L80.32,15.272 L80.32,13.688 L80.752,11.456 C80.6079993,11.2159988 80.7279981,10.7840031 81.112,10.16 C80.6319976,9.15199496 81.1359926,7.90400744 82.624,6.416 C82.6720002,6.31999952 83.2239947,6.00800264 84.28,5.48 C85.1440043,5.43199976 85.7319984,5.43199976 86.044,5.48 C86.3560016,5.52800024 86.8359968,5.57599976 87.484,5.624 C88.1320032,5.67200024 88.6239983,5.74399952 88.96,5.84 C89.8240043,6.12800144 90.256,6.89599376 90.256,8.144 L90.256,9.368 C90.3520005,11.0960086 90.4,12.3919957 90.4,13.256 L90.4,14.84 C90.4,15.4640031 90.3520005,15.8239995 90.256,15.92 C90.3040002,16.112001 90.3040002,16.5679964 90.256,17.288 L90.256,18.512 C90.1119993,20.0000074 90.0639998,20.8639988 90.112,21.104 L89.608,24.92 C89.9920019,25.0640007 91.3599882,25.136 93.712,25.136 L97.312,25.136 C99.4240106,25.136 100.755997,25.1240001 101.308,25.1 C101.860003,25.0759999 102.219999,24.9200014 102.388,24.632 C102.556001,24.3439986 102.688,23.9600024 102.784,23.48 C102.88,22.9999976 102.952,22.4480031 103,21.824 C103.048,21.1999969 103.096,20.8160007 103.144,20.672 C103.432001,20.4319988 103.504001,19.4000091 103.36,17.576 C103.36,17.4319993 103.455999,17.0720029 103.648,16.496 C103.648,15.8239966 103.743999,15.0560043 103.936,14.192 C103.936,13.2799954 104.091998,12.4760035 104.404,11.78 C104.716002,11.0839965 104.943999,10.4960024 105.088,10.016 C105.328001,9.19999592 105.903995,8.50400288 106.816,7.928 C108.016006,7.06399568 109.167994,6.5120012 110.272,6.272 L111.568,6.272 C112.864006,6.5120012 113.296002,7.73598896 112.864,9.944 C112.864,10.6640036 112.672002,11.5999942 112.288,12.752 C111.855998,15.0080113 111.64,16.4719966 111.64,17.144 C111.64,17.8160034 111.448002,19.0399911 111.064,20.816 C111.16,21.7280046 111.172,22.3279986 111.1,22.616 C111.028,22.9040014 110.992,23.2639978 110.992,23.696 C110.896,24.7520053 110.848,25.4719981 110.848,25.856 C110.752,27.2960072 110.704,28.4479957 110.704,29.312 C110.704,30.1760043 110.632001,31.111995 110.488,32.12 C110.488,33.128005 110.320002,34.1599947 109.984,35.216 L109.768,39.824 C109.768,40.1600017 109.935998,42.631977 110.272,47.24 C110.560001,47.5280014 110.656,48.0919958 110.56,48.932 C110.464,49.7720042 110.296001,50.3599983 110.056,50.696 C109.815999,51.0320017 109.564001,51.2239998 109.3,51.272 C109.035999,51.3200002 108.640003,51.344 108.112,51.344 C107.007994,51.9680031 106.120003,52.2080007 105.448,52.064 C104.871997,52.064 104.272003,51.8720019 103.648,51.488 C102.639995,50.9599974 101.992001,50.3120038 101.704,49.544 C101.704,49.2079983 101.644001,48.8000024 101.524,48.32 C101.403999,47.8399976 101.392,47.3240028 101.488,46.772 C101.584,46.2199972 101.62,45.6320031 101.596,45.008 C101.572,44.3839969 101.56,43.6640041 101.56,42.848 L101.632,41.984 C101.536,41.791999 101.583999,41.4800022 101.776,41.048 C101.968001,40.6159978 101.992001,40.2800012 101.848,40.04 L101.848,38.096 L102.208,34.424 C101.727998,34.0879983 101.703998,33.2960062 102.136,32.048 L102.28,31.472 C101.703997,31.6160007 101.176002,31.688 100.696,31.688 C99.3519933,32.0240017 97.8640082,32.192 96.232,32.192 L89.752,31.976 L89.752,32.768 C89.6559995,33.5360038 89.6319998,34.6879923 89.68,36.224 L89.68,37.592 C89.7280002,38.8400062 89.752,40.6159885 89.752,42.92 C89.944001,45.4160125 90.04,47.2159945 90.04,48.32 L89.968,48.824 C89.968,49.2080019 89.9200005,49.5439986 89.824,49.832 C89.824,50.7440046 89.5960023,51.3679983 89.14,51.704 C88.6839977,52.0400017 87.952005,52.2559995 86.944,52.352 C85.935995,52.4480005 85.0240041,52.1840031 84.208,51.56 C83.0559942,50.9839971 82.4560002,50.5040019 82.408,50.12 C82.3599998,49.7359981 82.2160012,49.2320031 81.976,48.608 C81.7359988,48.2239981 81.5680005,47.7680026 81.472,47.24 C81.472,45.7039923 81.4480002,44.840001 81.4,44.648 C81.2559993,44.455999 81.184,44.1200024 81.184,43.64 C81.184,43.0159969 81.0400014,42.0320067 80.752,40.688 Z M123.016,7.856 C126.232016,7.856 128.487994,8.50399352 129.784,9.8 C129.784,10.6160041 129.232006,12.2719875 128.128,14.768 C127.935999,15.5840041 127.624002,16.2319976 127.192,16.712 L126.256,17.648 C126.015999,17.7920007 125.776001,17.864 125.536,17.864 C123.807991,18.2960022 122.464005,17.9600055 121.504,16.856 C121.311999,16.5679986 121.084001,16.3520007 120.82,16.208 C120.555999,16.0639993 120.352001,15.6320036 120.208,14.912 C119.775998,14.2879969 119.56,13.8080017 119.56,13.472 C119.464,10.4959851 120.543989,8.62400384 122.8,7.856 L123.016,7.856 Z M122.44,24.848 C122.920002,24.6079988 124.047991,24.8479964 125.824,25.568 C126.016001,25.760001 126.303998,25.951999 126.688,26.144 L127.84,27.08 C128.032001,27.272001 128.128,27.5839978 128.128,28.016 L128.128,34.352 C128.128,35.3120048 128.08,36.1759962 127.984,36.944 L127.984,37.376 C127.839999,39.3440098 127.959998,43.7839654 128.344,50.696 C128.488001,52.0400067 128.176004,52.8559986 127.408,53.144 C126.591996,53.144 126.064001,53.0240012 125.824,52.784 C125.631999,52.6879995 125.464001,52.64 125.32,52.64 L124.816,52.64 L124.384,52.784 C124.239999,52.784 123.976002,52.6760011 123.592,52.46 C123.207998,52.2439989 122.956001,52.0160012 122.836,51.776 C122.715999,51.5359988 122.512001,51.3920002 122.224,51.344 C121.695997,51.151999 121.408,50.7920026 121.36,50.264 C120.687997,48.9679935 120.34,48.2000012 120.316,47.96 C120.292,47.7199988 120.208001,47.4560014 120.064,47.168 L119.704,40.904 C119.704,40.1839964 119.752,39.6320019 119.848,39.248 L119.848,37.52 C119.896,36.9919974 119.944,36.0200071 119.992,34.604 C120.04,33.1879929 120.112,32.0480043 120.208,31.184 C120.112,29.9359938 120.064,29.0960022 120.064,28.664 C120.064,28.2319978 120.088,27.920001 120.136,27.728 C119.607997,27.1999974 119.631997,26.4800046 120.208,25.568 C120.832003,25.0879976 121.431997,24.848 122.008,24.848 L122.44,24.848 Z M134.644,47.852 C135.244003,47.2999972 135.855997,47.024 136.48,47.024 C137.104003,47.024 137.655998,46.928001 138.136,46.736 C138.616002,46.543999 139.059998,46.448 139.468,46.448 C139.876002,46.448 140.523996,46.5559989 141.412,46.772 C142.300004,46.9880011 142.899998,47.1199998 143.212,47.168 C143.524002,47.2160002 143.787999,47.2639998 144.004,47.312 C144.220001,47.3600002 144.435999,47.5279986 144.652,47.816 C144.868001,48.1040014 144.976,48.4639978 144.976,48.896 C144.255996,52.1120161 143.104008,54.1519957 141.52,55.016 L139.36,55.376 C138.735997,55.376 138.040004,55.0400034 137.272,54.368 C135.735992,54.2239993 134.968,53.8640029 134.968,53.288 C134.968,53.1919995 134.704003,52.8320031 134.176,52.208 C133.647997,51.5839969 133.384,51.0800019 133.384,50.696 C133.384,50.3119981 133.443999,49.8800024 133.564,49.4 C133.684001,48.9199976 134.043997,48.4040028 134.644,47.852 Z M145.84,1.808 L145.192,7.208 C144.999999,9.65601224 144.544004,14.2399664 143.824,20.96 C143.103996,27.6800336 142.744,32.2519879 142.744,34.676 C142.744,37.1000121 142.887999,38.6719964 143.176,39.392 C142.647997,40.3040046 141.976004,40.76 141.16,40.76 C140.727998,40.76 140.368001,40.7120005 140.08,40.616 C139.791999,40.5199995 139.6,40.472 139.504,40.472 L139.216,40.472 L138.928,40.4 C137.823994,38.6719914 137.200001,37.1360067 137.056,35.792 C136.239996,33.8239902 135.796,32.5640028 135.724,32.012 C135.652,31.4599972 135.544001,31.088001 135.4,30.896 C135.255999,28.8799899 135.184,27.8000007 135.184,27.656 L135.184,24.632 C135.376001,23.431994 135.472,22.1840065 135.472,20.888 L135.472,19.808 C135.472,18.8479952 135.663998,17.4440092 136.048,15.596 C136.432002,13.7479908 136.624,12.2120061 136.624,10.988 C136.624,9.76399388 136.995996,8.33600816 137.74,6.704 C138.484004,5.07199184 138.987999,3.92000336 139.252,3.248 C139.516001,2.57599664 139.696,2.09600144 139.792,1.808 C139.888,1.51999856 140.007999,1.2560012 140.152,1.016 C140.392001,0.63199808 140.703998,0.44 141.088,0.44 C141.808004,0.15199856 142.311999,0.008 142.6,0.008 C144.760011,0.008 145.84,0.607994 145.84,1.808 Z" id="Hi!"></path>
                <path d="M39.072,169.688 L39.648,172.76 L39.648,174.232 C40.0320019,175.384006 40.3093325,176.557327 40.48,177.752 C41.1626701,181.677353 41.5466662,183.938664 41.632,184.536 C41.7173338,185.133336 41.8133328,185.687997 41.92,186.2 C42.0266672,186.712003 42.0373338,187.010666 41.952,187.096 C41.9946669,187.437335 42.0266666,187.725332 42.048,187.96 C42.0693334,188.194668 42.1119997,188.386666 42.176,188.536 C42.2400003,188.685334 42.3039997,188.781333 42.368,188.824 C42.4320003,188.866667 42.5066662,188.845334 42.592,188.76 C42.8480013,188.589332 43.2106643,187.714675 43.68,186.136 C44.1920026,185.069328 44.5333325,184.088004 44.704,183.192 C44.7893338,182.679997 44.9813318,181.869339 45.28,180.76 C45.5786682,179.863996 45.8559987,179.010671 46.112,178.2 C46.4106682,177.474663 46.6239994,176.696004 46.752,175.864 C46.8800006,175.031996 46.9546666,174.562667 46.976,174.456 C46.9973334,174.349333 47.0719994,174.146668 47.2,173.848 C47.6266688,172.61066 47.84,171.661337 47.84,171 C47.84,170.338663 47.9253325,169.624004 48.096,168.856 C48.096,167.789328 48.3946637,166.360009 48.992,164.568 C48.992,164.482666 49.1199987,163.960005 49.376,163 C49.6320013,162.039995 49.9519981,161.154671 50.336,160.344 C51.0186701,158.551991 52.255991,157.336003 54.048,156.696 C54.773337,156.482666 55.573329,156.376 56.448,156.376 C57.322671,156.376 57.9199984,156.482666 58.24,156.696 C58.5600016,156.909334 58.7413331,157.378663 58.784,158.104 C58.6986662,158.360001 58.6346669,158.765331 58.592,159.32 L56.608,165.464 L55.776,167.576 L55.008,169.112 C55.008,169.197334 54.9013344,169.453331 54.688,169.88 L54.048,171.992 C53.9626662,172.632003 53.8560006,173.058666 53.728,173.272 L52.64,176.856 C52.4693325,177.026668 52.3200006,177.538662 52.192,178.392 C51.850665,179.544006 51.5520013,180.354664 51.296,180.824 C50.9973318,181.677338 50.848,182.274665 50.848,182.616 C50.848,182.957335 50.7413344,183.43733 50.528,184.056 C50.3146656,184.67467 50.1760003,185.016 50.112,185.08 C50.0479997,185.144 49.9520006,185.431997 49.824,185.944 C49.6959994,186.456003 49.632,186.967997 49.632,187.48 C49.4613325,187.565334 49.376,187.94933 49.376,188.632 C49.1199987,189.186669 48.9493338,189.975995 48.864,191 C48.6506656,191.384002 48.5226669,191.938663 48.48,192.664 C48.0533312,194.285341 47.4986701,195.554662 46.816,196.472 C46.1333299,197.389338 45.1520064,197.954666 43.872,198.168 C42.5919936,198.466668 41.6960026,198.466668 41.184,198.168 C41.0133325,198.210667 40.7360019,198.168001 40.352,198.04 C40.1386656,198.04 39.9893338,197.997334 39.904,197.912 C39.6053318,197.912 39.1360032,197.720002 38.496,197.336 C38.0266643,197.165332 37.6106685,196.877335 37.248,196.472 C36.8853315,196.066665 36.4906688,195.586669 36.064,195.032 C35.9786662,194.818666 35.7226688,194.392003 35.296,193.752 C35.1679994,192.642661 34.9973344,191.981334 34.784,191.768 C34.6986662,191.554666 34.656,191.405334 34.656,191.32 L34.272,189.784 C34.3146669,189.826667 34.3573331,189.911999 34.4,190.04 C34.3146662,188.80266 34.2933331,187.778671 34.336,186.968 C34.1653325,186.541331 34.1653325,185.901338 34.336,185.048 C34.336,184.36533 34.2720006,183.768003 34.144,183.256 C33.6746643,182.061327 33.4293334,181.229336 33.408,180.76 C33.3866666,180.290664 33.3120006,179.544005 33.184,178.52 C33.184,177.410661 33.1413338,176.450671 33.056,175.64 L31.968,169.496 C31.7119987,168.13066 31.6053331,167.330668 31.648,167.096 C31.6906669,166.861332 31.7013334,166.712 31.68,166.648 C31.6586666,166.584 31.6373334,166.445334 31.616,166.232 C31.5946666,166.018666 31.5626669,165.741335 31.52,165.4 C31.2213318,164.71733 31.0506669,164.162669 31.008,163.736 C29.4719923,159.981315 29.770656,157.890669 31.904,157.464 C32.1600013,157.378666 32.725329,157.336 33.6,157.336 C34.474671,157.336 35.0399987,157.368 35.296,157.432 C35.5520013,157.496 35.8719981,157.655999 36.256,157.912 C37.2373382,158.509336 37.9413312,160.898646 38.368,165.08 C38.709335,167.298678 38.9119997,168.546665 38.976,168.824 C39.0400003,169.101335 39.072,169.389332 39.072,169.688 Z M64.736,158.872 C67.594681,158.872 69.5999942,159.447994 70.752,160.6 C70.752,161.325337 70.2613382,162.797322 69.28,165.016 C69.1093325,165.741337 68.8320019,166.317331 68.448,166.744 L67.616,167.576 C67.4026656,167.704001 67.1893344,167.768 66.976,167.768 C65.4399923,168.152002 64.2453376,167.853338 63.392,166.872 C63.2213325,166.615999 63.0186678,166.424001 62.784,166.296 C62.5493322,166.167999 62.3680006,165.784003 62.24,165.144 C61.8559981,164.589331 61.664,164.162668 61.664,163.864 C61.5786662,161.218653 62.5386566,159.55467 64.544,158.872 L64.736,158.872 Z M64.224,173.976 C64.6506688,173.762666 65.6533254,173.975997 67.232,174.616 C67.4026675,174.786668 67.658665,174.957332 68,175.128 L69.024,175.96 C69.1946675,176.130668 69.28,176.407998 69.28,176.792 L69.28,182.424 C69.28,183.277338 69.2373338,184.04533 69.152,184.728 L69.152,185.112 C69.0239994,186.861342 69.130665,190.807969 69.472,196.952 C69.6000006,198.146673 69.3226701,198.871999 68.64,199.128 C67.914663,199.128 67.4453344,199.021334 67.232,198.808 C67.0613325,198.722666 66.9120006,198.68 66.784,198.68 L66.336,198.68 L65.952,198.808 C65.8239994,198.808 65.589335,198.712001 65.248,198.52 C64.906665,198.327999 64.6826672,198.125334 64.576,197.912 C64.4693328,197.698666 64.2880013,197.570667 64.032,197.528 C63.5626643,197.357332 63.3066669,197.037336 63.264,196.568 C62.6666637,195.415994 62.3573334,194.733334 62.336,194.52 C62.3146666,194.306666 62.2400006,194.072001 62.112,193.816 L61.792,188.248 C61.792,187.607997 61.8346662,187.117335 61.92,186.776 L61.92,185.24 C61.9626669,184.770664 62.0053331,183.906673 62.048,182.648 C62.0906669,181.389327 62.1546662,180.376004 62.24,179.608 C62.1546662,178.498661 62.112,177.752002 62.112,177.368 C62.112,176.983998 62.1333331,176.706668 62.176,176.536 C61.7066643,176.066664 61.7279974,175.426671 62.24,174.616 C62.7946694,174.189331 63.3279974,173.976 63.84,173.976 L64.224,173.976 Z M90.784,196.632 L90.4,195.544 L89.696,191.256 C89.4826656,190.445329 89.376,189.720003 89.376,189.08 L89.632,186.264 C89.632,185.794664 89.6533331,185.538667 89.696,185.496 C89.1839974,185.496 88.4160051,186.11466 87.392,187.352 C87.3066662,187.480001 87.1786675,187.693332 87.008,187.992 C85.215991,190.850681 84.149335,194.285313 83.808,198.296 C83.466665,199.021337 83.0186694,199.384 82.464,199.384 C81.3119942,199.127999 80.6720006,199 80.544,199 L80.096,199.064 L79.264,199.064 C78.2826618,198.978666 77.6426682,198.59467 77.344,197.912 C77.1733325,197.698666 77.088,197.144004 77.088,196.248 L77.088,195.352 L76.896,191.832 L76.896,186.584 C76.896,185.986664 76.8533338,185.240004 76.768,184.344 C76.6826662,183.362662 76.6613331,181.816011 76.704,179.704 C76.7466669,177.591989 76.7253338,176.461334 76.64,176.312 C76.5546662,176.162666 76.512,175.960001 76.512,175.704 C76.512,175.447999 76.5759994,175.192001 76.704,174.936 C76.8320006,174.679999 77.4079949,174.402668 78.432,174.104 C78.9866694,173.762665 79.4559981,173.592 79.84,173.592 C80.4373363,173.720001 81.2053286,173.975998 82.144,174.36 C82.7840032,174.488001 83.104,175.106661 83.104,176.216 C83.1893338,178.050676 83.2000003,179.373329 83.136,180.184 C83.0719997,180.994671 83.0826662,182.637321 83.168,185.112 C86.3253491,179.053303 89.141321,175.40534 91.616,174.168 C91.8293344,173.954666 92.1493312,173.848 92.576,173.848 C93.0026688,173.848 93.4933306,174.061331 94.048,174.488 C94.6026694,174.914669 94.9866656,175.191999 95.2,175.32 C95.4133344,175.448001 95.6586653,175.661332 95.936,175.96 C96.2133347,176.258668 96.4373325,176.450666 96.608,176.536 C97.1200026,177.389338 97.2266682,179.394651 96.928,182.552 C96.8853331,183.021336 96.8426669,183.437332 96.8,183.8 C96.7573331,184.162668 96.736,184.941327 96.736,186.136 C96.736,187.330673 96.7573331,188.162664 96.8,188.632 C96.9280006,190.125341 96.992,190.999999 96.992,191.256 L97.312,193.688 C97.7386688,194.669338 97.9626666,195.426664 97.984,195.96 C98.0053334,196.493336 98.378663,197.335994 99.104,198.488 C99.4026682,199.128003 99.2746694,199.639998 98.72,200.024 C97.8666624,200.450669 97.4080003,200.632 97.344,200.568 C97.2799997,200.504 97.0346688,200.546666 96.608,200.696 C96.1813312,200.845334 95.4133389,200.877334 94.304,200.792 C93.7493306,200.663999 93.1946694,200.322669 92.64,199.768 L91.68,198.808 C91.338665,198.295997 91.1040006,197.741336 90.976,197.144 C90.7626656,196.930666 90.6986662,196.760001 90.784,196.632 Z M110.624,171.992 C112.074674,170.797327 114.314652,170.626662 117.344,171.48 C118.069337,171.821335 118.730664,172.33333 119.328,173.016 C119.626668,173.485336 119.861332,174.231995 120.032,175.256 C120.202668,176.280005 120.234667,177.346661 120.128,178.456 C120.021333,179.565339 119.722669,180.514663 119.232,181.304 C118.741331,182.093337 117.87734,182.615999 116.64,182.872 C115.743996,182.872 115.189334,182.594669 114.976,182.04 C114.591998,181.229329 114.506666,180.525336 114.72,179.928 C114.848001,179.031996 114.720002,177.96534 114.336,176.728 C114.250666,176.642666 114.037335,176.6 113.696,176.6 L112.928,178.008 C112.842666,178.178668 112.49067,179.447988 111.872,181.816 C111.25333,184.184012 110.922667,185.67733 110.88,186.296 C110.837333,186.91467 110.773334,187.479997 110.688,187.992 C110.688,190.936015 110.901331,192.994661 111.328,194.168 C111.754669,195.341339 112.181331,196.055999 112.608,196.312 C112.736001,196.440001 113.10933,196.504 113.728,196.504 C114.34667,196.504 115.018663,196.333335 115.744,195.992 C116.384003,195.522664 116.981331,194.904004 117.536,194.136 C117.536,193.965332 117.898663,193.709335 118.624,193.368 L119.136,192.856 C120.714675,192.685332 121.546666,193.367992 121.632,194.904 C121.717334,195.330669 121.589335,195.799997 121.248,196.312 C121.034666,196.824003 120.885334,197.101333 120.8,197.144 C120.8,197.314668 120.224006,198.295991 119.072,200.088 C118.645331,200.088 118.346668,200.173332 118.176,200.344 C117.365329,200.984003 116.384006,201.218668 115.232,201.048 C115.103999,201.005333 114.976001,200.984 114.848,200.984 C114.719999,200.984 114.058673,200.877334 112.864,200.664 L111.968,200.664 C110.858661,200.407999 110.112002,200.130668 109.728,199.832 C109.215997,199.703999 108.61867,199.426669 107.936,199 L107.04,198.104 C106.911999,198.061333 106.645335,197.858668 106.24,197.496 C105.834665,197.133332 105.6,196.856001 105.536,196.664 C105.472,196.471999 105.322668,196.173335 105.088,195.768 C104.853332,195.362665 104.736,194.989335 104.736,194.648 L104.416,193.368 C104.416,192.855997 104.352001,192.536001 104.224,192.408 C104.224,192.322666 104.160001,192.088002 104.032,191.704 C104.032,191.234664 103.989334,190.594671 103.904,189.784 C103.775999,188.461327 103.882665,187.629335 104.224,187.288 C104.266667,187.288 104.224001,186.904004 104.096,186.136 L104.096,183.832 C104.096,183.14933 104.287998,182.232006 104.672,181.08 C104.714667,180.525331 104.970664,179.778671 105.44,178.84 L105.76,178.008 C105.845334,177.32533 106.207997,176.621337 106.848,175.896 L107.808,174.744 L108.576,173.464 C109.088003,172.78133 109.770662,172.290668 110.624,171.992 Z M138.144,175.512 C138.058666,175.298666 137.770669,175.213333 137.28,175.256 C136.789331,175.298667 136.416001,175.554664 136.16,176.024 C134.410658,178.797347 133.472001,181.762651 133.344,184.92 C134.794674,185.261335 136.031995,184.621341 137.056,183 C138.378673,178.818646 138.741336,176.322671 138.144,175.512 Z M133.152,200.92 L132.512,200.792 L131.616,199.896 C131.359999,199.896 131.168001,199.789334 131.04,199.576 C130.570664,199.021331 129.71734,197.912008 128.48,196.248 L127.52,192.728 C127.52,192.04533 127.392001,191.448003 127.136,190.936 C126.709331,189.01599 126.453334,187.917335 126.368,187.64 C126.282666,187.362665 126.229333,186.584006 126.208,185.304 C126.186667,184.023994 126.239999,183.085336 126.368,182.488 C126.496001,181.677329 127.285326,179.672016 128.736,176.472 C129.120002,176.087998 129.354666,175.576003 129.44,174.936 L130.464,173.464 C131.402671,172.354661 132.405328,171.544003 133.472,171.032 C133.472,170.946666 134.197326,170.733335 135.648,170.392 C135.946668,170.349333 136.629328,170.455999 137.696,170.712 C140.256013,171.309336 141.855997,172.055996 142.496,172.952 L142.688,173.272 C143.498671,174.424006 143.967999,176.194655 144.096,178.584 C143.967999,179.650672 143.861334,180.546663 143.776,181.272 C143.690666,181.997337 143.221338,183.31999 142.368,185.24 C141.727997,186.434673 141.109336,187.394663 140.512,188.12 C139.573329,188.80267 138.933335,189.144 138.592,189.144 C138.421332,189.229334 138.058669,189.272 137.504,189.272 L136.032,189.272 C135.903999,189.229333 135.626669,189.208 135.2,189.208 C134.773331,189.208 134.154671,189.101334 133.344,188.888 C133.344,189.826671 133.610664,191.159991 134.144,192.888 C134.677336,194.616009 135.114665,195.671998 135.456,196.056 C136.352004,196.73867 137.055997,197.186666 137.568,197.4 C138.080003,197.613334 138.762662,197.645334 139.616,197.496 C140.469338,197.346666 141.087998,197.058669 141.472,196.632 L143.136,194.584 C144.202672,193.133326 145.290661,193.005327 146.4,194.2 C146.912003,194.754669 147.114667,195.298664 147.008,195.832 C146.901333,196.365336 146.464004,197.421325 145.696,199 C145.055997,200.024005 144.373337,200.87733 143.648,201.56 C142.325327,202.24267 141.536001,202.584 141.28,202.584 C140.895998,202.626667 140.298671,202.562668 139.488,202.392 C139.061331,202.605334 138.336005,202.584001 137.312,202.328 C137.312,202.242666 137.194668,202.189333 136.96,202.168 C136.725332,202.146667 136.416002,202.072001 136.032,201.944 L136.16,201.88 L135.392,201.88 L133.6,200.92 L133.152,200.92 Z M157.705621,187.058503 C158.591637,186.00962 159.64443,184.763452 160.864,183.32 L162.528,179.864 C162.656001,179.735999 162.762666,179.458669 162.848,179.032 L164.512,176.536 L165.792,175.384 C166.048001,175.255999 166.325332,175.042668 166.624,174.744 C166.709334,174.829334 167.050664,174.744001 167.648,174.488 C168.032002,174.488 168.799994,174.551999 169.952,174.68 L171.232,175.128 L174.112,176.856 C174.709336,177.453336 174.965334,178.09333 174.88,178.776 C174.837333,179.288003 174.602669,180.695988 174.176,183 C173.834665,184.834676 173.344003,186.946655 172.704,189.336 C172.362665,191.25601 172.255999,192.642662 172.384,193.496 C172.512001,194.349338 172.576,194.839999 172.576,194.968 C172.661334,195.224001 172.778666,195.586664 172.928,196.056 C173.077334,196.525336 173.109334,196.781333 173.024,196.824 C173.322668,196.866667 173.472,197.079998 173.472,197.464 C173.813335,198.360004 173.930667,198.967998 173.824,199.288 C173.717333,199.608002 173.440002,199.959998 172.992,200.344 C172.543998,200.728002 171.744006,200.92 170.592,200.92 C169.90933,200.834666 169.365335,200.792 168.96,200.792 C168.554665,200.792 168.053336,200.642668 167.456,200.344 C166.21866,199.447996 165.514668,198.530671 165.344,197.592 C165.130666,196.994664 165.002667,196.546668 164.96,196.248 C164.917333,195.949332 164.896,195.736001 164.896,195.608 C164.682666,194.327994 164.703999,193.00534 164.96,191.64 C165.002667,191.127997 165.194665,190.082675 165.536,188.504 C165.877335,186.882659 166.218665,185.602671 166.56,184.664 C166.56,183.725329 166.538667,183.234667 166.496,183.192 L164,188.056 C163.743999,188.73867 163.509334,189.250665 163.296,189.592 C163.082666,189.805334 162.976,190.061332 162.976,190.36 C162.634665,190.701335 162.314668,191.383995 162.016,192.408 C162.016,192.706668 161.994667,192.919999 161.952,193.048 C161.909333,193.176001 161.749335,193.485331 161.472,193.976 C161.194665,194.466669 161.002667,194.925331 160.896,195.352 C160.789333,195.778669 160.522669,196.247997 160.096,196.76 C160.096,196.930668 159.818669,197.805325 159.264,199.384 C159.221333,199.554668 158.773338,199.703999 157.92,199.832 L156.704,199.704 C156.405332,199.618666 155.701339,199.405335 154.592,199.064 C153.482661,198.722665 152.874667,198.552 152.768,198.552 C152.661333,198.552 152.565334,198.509334 152.48,198.424 C151.754663,198.253332 151.306668,197.656005 151.136,196.632 L151.136,195.608 C151.349334,195.351999 151.370668,194.861337 151.2,194.136 C151.285334,193.709331 151.349333,193.218669 151.392,192.664 C151.263999,192.578666 151.242666,192.429334 151.328,192.216 C151.413334,190.85066 151.456,189.890669 151.456,189.336 L151.456,187.8 C151.541334,186.391993 151.647999,184.877341 151.776,183.256 C151.904001,181.634659 151.968,180.589336 151.968,180.12 L151.968,178.84 C151.882666,178.626666 151.861333,178.136004 151.904,177.368 C151.818666,176.557329 151.712001,176.056001 151.584,175.864 C151.455999,175.671999 151.413333,175.384002 151.456,175 L151.904,173.912 C152.58667,173.357331 153.738659,173.250665 155.36,173.592 C156.085337,173.720001 157.087994,174.146663 158.368,174.872 C158.453334,175.000001 158.666665,175.277331 159.008,175.704 C159.264001,175.704 159.413333,176.066663 159.456,176.792 C159.413333,177.176002 159.392,177.495999 159.392,177.752 C159.349333,177.794667 159.114669,178.77599 158.688,180.696 C158.265418,183.365952 157.937958,185.486783 157.705621,187.058503 L157.705621,187.058503 Z M157.703365,187.073765 C157.421121,188.983838 157.28,190.079244 157.28,190.36 C157.28,190.872003 157.322666,191.234666 157.408,191.448 C157.792002,190.551996 158.197331,189.506673 158.624,188.312 L160.032,184.728 L160.608,183.64 C159.495482,184.955292 158.527271,186.09988 157.703365,187.073765 L157.703365,187.073765 Z M157.703365,187.073765 C157.704116,187.068683 157.704868,187.063596 157.705621,187.058503 C152.999335,192.629892 152.998584,192.634979 157.703365,187.073765 L157.703365,187.073765 Z M184.736,176.408 L184.8,175.832 C183.903996,175.746666 183.274668,175.672 182.912,175.608 C182.549332,175.544 181.962671,175.469334 181.152,175.384 C180.341329,175.298666 179.701336,175.170668 179.232,175 C178.335996,174.701332 177.824001,173.922673 177.696,172.664 C177.567999,171.405327 177.973329,170.626668 178.912,170.328 C179.765338,170.114666 180.362665,170.008 180.704,170.008 C181.045335,170.008 181.685329,169.965334 182.624,169.88 C183.093336,169.623999 183.733329,169.474667 184.544,169.432 L185.504,169.176 C185.504,169.218667 185.674665,169.176001 186.016,169.048 L186.336,167.704 C186.336,167.02133 186.527998,166.33867 186.912,165.656 C186.912,165.357332 187.189331,164.52534 187.744,163.16 C187.744,162.989332 188.127996,161.752012 188.896,159.448 C189.066668,159.234666 189.706661,158.744004 190.816,157.976 C191.49867,157.634665 192.45866,157.869329 193.696,158.68 C194.37867,158.978668 194.847999,159.383997 195.104,159.896 C194.847999,160.152001 194.72,160.749329 194.72,161.688 C194.677333,161.986668 194.378669,163.565319 193.824,166.424 L193.824,168.216 C194.165335,168.258667 194.730663,168.365332 195.52,168.536 C196.309337,168.706668 197.258661,168.898666 198.368,169.112 C200.501344,169.538669 201.845331,170.391994 202.4,171.672 C202.613334,172.610671 202.570668,173.271998 202.272,173.656 C201.973332,174.040002 201.248006,174.317332 200.096,174.488 C199.157329,174.530667 197.930674,174.552 196.416,174.552 C194.901326,174.552 193.781337,174.658666 193.056,174.872 C192.970666,175.640004 192.928,176.237331 192.928,176.664 L192.864,177.624 C192.864,177.922668 192.672002,179.501319 192.288,182.36 C192.031999,182.744002 191.818668,184.727982 191.648,188.312 L191.648,192.984 C191.648,193.752004 191.711999,194.47733 191.84,195.16 C191.882667,196.098671 191.989332,196.759998 192.16,197.144 C192.16,197.528002 192.266666,198.33866 192.48,199.576 C191.967997,200.81334 191.125339,201.432 189.952,201.432 C188.778661,201.432 187.744004,201.005338 186.848,200.152 L186.144,199.128 C186.015999,198.786665 185.92,198.552001 185.856,198.424 C185.792,198.295999 185.738667,198.146668 185.696,197.976 C185.397332,197.122662 185.162668,196.589334 184.992,196.376 C184.735999,196.034665 184.608,195.778668 184.608,195.608 L184.608,194.968 C184.522666,194.242663 184.416001,193.624003 184.288,193.112 C184.074666,192.898666 183.968,192.17334 183.968,190.936 C184.053334,188.674655 184.053334,187.373335 183.968,187.032 C184.096001,186.903999 184.117334,186.093341 184.032,184.6 L184.224,183.192 C184.224,183.021332 184.309332,182.381339 184.48,181.272 C184.394666,181.101332 184.373333,180.64267 184.416,179.896 C184.458667,179.14933 184.522666,178.626668 184.608,178.328 C184.693334,177.815997 184.736,177.176004 184.736,176.408 Z" id="Vincent"></path>
            </g>
        </g>
    </g>
</svg>