<?xml version="1.0" encoding="UTF-8"?>
<svg width="1200px" height="250px" viewBox="0 0 1200 250" version="1.1" xmlns="http://www.w3.org/2000/svg" xmlns:xlink="http://www.w3.org/1999/xlink">
    <!-- Generator: Sketch 46.2 (44496) - http://www.bohemiancoding.com/sketch -->
    <title>adminca-diagram</title>
    <desc>Created with Sketch.</desc>
    <defs></defs>
    <g id="Page-1" stroke="none" stroke-width="1" fill="none" fill-rule="evenodd">
        <g id="adminca-diagram">
            <path d="M330,48 L387,48 L387,48 C391.418278,48 395,51.581722 395,56 L395,59 L322,59 L322,56 L322,56 C322,51.581722 325.581722,48 330,48 Z" id="Rectangle" fill="#AED5F6"></path>
            <path d="M322,149 L395,149 L395,164 L395,164 C395,168.418278 391.418278,172 387,172 L330,172 L330,172 C325.581722,172 322,168.418278 322,164 L322,149 Z" id="Rectangle" fill="#AED5F6"></path>
            <circle id="Oval" fill="#AED5F6" cx="820" cy="97" r="17"></circle>
            <path d="M798,54 L908,54 L908,54 C912.418278,54 916,57.581722 916,62 L916,74 L790,74 L790,62 L790,62 C790,57.581722 793.581722,54 798,54 Z" id="Rectangle-2" fill="#AED5F6"></path>
            <path d="M562,72 C562,65.9248678 582.371044,61 607.5,61 C632.628956,61 653,65.9248678 653,72 L653,152 C653,158.075132 632.628956,163 607.5,163 C582.371044,163 562,158.075132 562,152 L562,72 Z" id="Combined-Shape" fill="#AED5F6"></path>
            <rect id="Rectangle" stroke="#3E81BB" stroke-width="2" stroke-linejoin="bevel" x="319" y="46" width="73" height="124" rx="8"></rect>
            <path d="M327,46 L384,46 L384,46 C388.418278,46 392,49.581722 392,54 L392,57 L319,57 L319,54 L319,54 C319,49.581722 322.581722,46 327,46 Z" id="Rectangle" stroke="#3E81BB" stroke-width="2" stroke-linejoin="bevel"></path>
            <path d="M319,147 L392,147 L392,162 L392,162 C392,166.418278 388.418278,170 384,170 L327,170 L327,170 C322.581722,170 319,166.418278 319,162 L319,147 Z" id="Rectangle" stroke="#3E81BB" stroke-width="2" stroke-linejoin="bevel"></path>
            <circle id="Oval-2" stroke="#3E81BB" stroke-width="2" stroke-linejoin="bevel" cx="355.5" cy="158.5" r="6.5"></circle>
            <ellipse id="Oval-3" stroke="#3E81BB" stroke-width="2" stroke-linejoin="bevel" cx="604.5" cy="70" rx="45.5" ry="11"></ellipse>
            <path d="M559,70 L559,150 C559,156.075132 579.371044,161 604.5,161 C629.628956,161 650,156.075132 650,150 L650,70" id="Oval-3" stroke="#3E81BB" stroke-width="2" stroke-linejoin="bevel"></path>
            <rect id="Rectangle-2" stroke="#3E81BB" stroke-width="2" stroke-linejoin="bevel" x="787" y="52" width="126" height="111" rx="8"></rect>
            <path d="M795,52 L905,52 L905,52 C909.418278,52 913,55.581722 913,60 L913,72 L787,72 L787,60 L787,60 C787,55.581722 790.581722,52 795,52 Z" id="Rectangle-2" stroke="#3E81BB" stroke-width="2" stroke-linejoin="bevel"></path>
            <path d="M80.0146391,156 C79.9936883,156 79.9727379,155.999835 79.9517897,155.999506 C77.7429275,155.964795 75.9804294,154.14602 76.0151401,151.937158 L76.0151329,151.937158 C76.1060123,146.153927 76.6062196,141.508208 77.515755,138 C79.8490883,129 87.515755,122.666667 100.515755,119 L101.515755,116 L105.515755,115 L105.515755,111.5 L101.515755,107.5 L100.015755,102 C98.3490883,100.333333 97.515755,98.6666667 97.515755,97 C97.515755,95.3333333 98.015755,93.6666667 99.015755,92 C99.015755,86 99.015755,82.3333333 99.015755,81 C99.015755,79 103.515755,71 112.265755,71 C121.015755,71 125.515755,78.5 125.515755,81 C125.515755,82.6666667 125.515755,86.3333333 125.515755,92 C126.515755,93.6666667 127.015755,95.3333333 127.015755,97 C127.015755,98.6666667 125.849088,100.333333 123.515755,102 L120.015755,110.5 L120.015755,114 L122.515755,115 L123.515755,119 C135.849088,121.666667 143.182422,128 145.515755,138 C146.261646,141.196676 147.050379,145.672672 147.881954,151.427988 C147.909326,151.617429 147.923065,151.808591 147.923065,152 C147.923065,154.209139 146.132203,156 143.923064,156 L143.923064,156 L80.0146391,156 Z M151,146 C149.666667,137.666667 148.333333,132.166667 147,129.5 C145.666667,126.833333 142.333333,123.5 137,119.5 L141,115 L141,112 L132,107.5 C133.506344,104.183862 134.673011,100.683862 135.5,97 C136.326989,93.3161383 136.993656,88.6494716 137.5,83 C138.5,78.3333333 142.5,76 149.5,76 C156.5,76 160.5,79.1666667 161.5,85.5 C161.5,89.5 161.833333,93.3333333 162.5,97 C163.166667,100.666667 164.166667,104.166667 165.5,107.5 L156.5,112 L156.5,115 C158.833333,118 161.5,120.166667 164.5,121.5 C169,123.5 173.5,124 175.5,125.5 C176.833333,126.5 177.666667,128.333333 178,131 L178,142 C178,144.209139 176.209139,146 174,146 L151,146 Z M72,146 L54,146 C51.790861,146 50,144.209139 50,142 L50,131 C50.3333333,128.333333 51.1666667,126.5 52.5,125.5 C54.5,124 59,121.5 63.5,119.5 C66.5,118.166667 69.1666667,116.666667 71.5,115 L72,109 L68.5,106.5 L68,101.5 C65.3333333,99.8333333 64.1666667,97.8333333 64.5,95.5 C64.6426728,94.5012902 65.3093395,93.3346236 66.5,92 L66.5,85.5 C67.5,79.1666667 71.5,76 78.5,76 C85.5,76 89.5,78.3333333 90.5,83 L91,92 C91.9175779,93.4968976 92.4175779,94.6635643 92.5,95.5 C92.6665365,97.1900458 92.1665365,99.1900458 91,101.5 L89.5,107 L87,109.5 L87,115 L92.5,117.5 C83.8333333,120.166667 78.3333333,124.166667 76,129.5 C74.7797234,132.289204 73.4463901,137.789204 72,146 Z" id="Combined-Shape" fill="#AED5F6"></path>
            <circle id="Oval-4" stroke="#3E81BB" stroke-width="2" cx="796.5" cy="62.5" r="3.5"></circle>
            <circle id="Oval-4" stroke="#3E81BB" stroke-width="2" cx="808.5" cy="62.5" r="3.5"></circle>
            <circle id="Oval-4" stroke="#3E81BB" stroke-width="2" cx="820.5" cy="62.5" r="3.5"></circle>
            <polyline id="Path-6" stroke="#3E81BB" stroke-width="2" stroke-linejoin="bevel" points="800.5 146.5 825 128 851 134.5 872.5 108.5 885.5 111 895.5 87"></polyline>
            <circle id="Oval" stroke="#3E81BB" stroke-width="2" stroke-linejoin="bevel" cx="817" cy="96" r="17"></circle>
            <path d="M816.5,96 L803,89" id="Path-7" stroke="#3E81BB" stroke-width="2" stroke-linejoin="bevel"></path>
            <path d="M78.0146391,154 L141.923064,154 L141.923064,154 C144.132203,154 145.923065,152.209139 145.923065,150 C145.923065,149.808591 145.909326,149.617429 145.881954,149.427988 C145.050379,143.672672 144.261646,139.196676 143.515755,136 C141.182422,126 133.849088,119.666667 121.515755,117 L120.515755,113 L118.015755,112 L118.015755,108.5 L121.515755,100 C123.849088,98.3333333 125.015755,96.6666667 125.015755,95 C125.015755,93.3333333 124.515755,91.6666667 123.515755,90 C123.515755,84.3333333 123.515755,80.6666667 123.515755,79 C123.515755,76.5 119.015755,69 110.265755,69 C101.515755,69 97.015755,77 97.015755,79 C97.015755,80.3333333 97.015755,84 97.015755,90 C96.015755,91.6666667 95.515755,93.3333333 95.515755,95 C95.515755,96.6666667 96.3490883,98.3333333 98.015755,100 L99.515755,105.5 L103.515755,109.5 L103.515755,113 L99.515755,114 L98.515755,117 C85.515755,120.666667 77.8490883,127 75.515755,136 C74.6062196,139.508208 74.1060123,144.153927 74.0151329,149.937158 L74.0151401,149.937158 C73.9804294,152.14602 75.7429275,153.964795 77.9517897,153.999506 C77.9727379,153.999835 77.9936883,154 78.0146391,154 Z" id="Path-9" stroke="#3E81BB" stroke-width="2"></path>
            <path d="M149,144 L172,144 L172,144 C174.209139,144 176,142.209139 176,140 L176,129 C175.666667,126.333333 174.833333,124.5 173.5,123.5 C171.5,122 167,121.5 162.5,119.5 C159.5,118.166667 156.833333,116 154.5,113 L154.5,110 L163.5,105.5 C162.166667,102.166667 161.166667,98.6666667 160.5,95 C159.833333,91.3333333 159.5,87.5 159.5,83.5 C158.5,77.1666667 154.5,74 147.5,74 C140.5,74 136.5,76.3333333 135.5,81 C134.993656,86.6494716 134.326989,91.3161383 133.5,95 C132.673011,98.6838617 131.506344,102.183862 130,105.5 L139,110 L139,113 L135,117.5 C140.333333,121.5 143.666667,124.833333 145,127.5 C146.333333,130.166667 147.666667,135.666667 149,144 Z" id="Path-10" stroke="#3E81BB" stroke-width="2"></path>
            <path d="M68.5312073,144 L86.5312073,144 L86.5312073,144 C88.7403463,144 90.5312073,142.209139 90.5312073,140 L90.5312073,129 C90.197874,126.333333 89.3645406,124.5 88.0312073,123.5 C86.0312073,122 81.5312073,119.5 77.0312073,117.5 C74.0312073,116.166667 71.3645406,114.666667 69.0312073,113 L68.5312073,107 L72.0312073,104.5 L72.5312073,99.5 C75.197874,97.8333333 76.3645406,95.8333333 76.0312073,93.5 C75.8885345,92.5012902 75.2218678,91.3346236 74.0312073,90 L74.0312073,83.5 C73.0312073,77.1666667 69.0312073,74 62.0312073,74 C55.0312073,74 51.0312073,76.3333333 50.0312073,81 L49.5312073,90 C48.6136294,91.4968976 48.1136294,92.6635643 48.0312073,93.5 C47.8646708,95.1900458 48.3646708,97.1900458 49.5312073,99.5 L51.0312073,105 L53.5312073,107.5 L53.5312073,113 L48.0312073,115.5 C56.697874,118.166667 62.197874,122.166667 64.5312073,127.5 C65.7514839,130.289204 67.0848172,135.789204 68.5312073,144 Z" id="Path-10" stroke="#3E81BB" stroke-width="2" transform="translate(69.265604, 109.000000) scale(-1, 1) translate(-69.265604, -109.000000) "></path>
            <path d="M66.2519531,200.451172 C66.2519531,197.316406 67.7265625,195.714844 69.953125,195.714844 C72.1601562,195.714844 73.3320312,197.335938 73.3320312,198.800781 L74.7773438,198.800781 C74.7773438,196.720703 73.1855469,194.386719 69.953125,194.386719 C66.8085938,194.386719 64.8066406,196.554688 64.8066406,200.441406 L64.8066406,202.306641 C64.8066406,206.193359 66.7597656,208.283203 69.9433594,208.283203 C73.3027344,208.283203 74.7871094,205.939453 74.7871094,204.09375 L73.3417969,204.09375 C73.3417969,205.617188 72.1796875,206.964844 70.0019531,206.964844 C67.6972656,206.964844 66.2519531,205.460938 66.2519531,202.296875 L66.2519531,200.451172 Z M85.2167969,197.775391 L83.7714844,197.775391 L83.7714844,204.113281 C83.7714844,205.792969 82.7070312,206.847656 81.1054688,206.847656 C79.6601562,206.847656 78.5371094,206.154297 78.5371094,204.220703 L78.5371094,197.775391 L77.1015625,197.775391 L77.1015625,204.630859 C77.1015625,206.964844 78.6152344,208.166016 80.7246094,208.166016 C82.3847656,208.166016 83.3613281,207.433594 83.7226562,206.603516 L83.78125,206.603516 L83.78125,208 L85.2167969,208 L85.2167969,197.775391 Z M87.8925781,200.646484 C87.8925781,202.472656 89.4453125,203.029297 91.3691406,203.449219 C92.8730469,203.761719 93.9863281,203.996094 93.9863281,205.207031 C93.9863281,206.173828 93.1855469,206.935547 91.5546875,206.935547 C90.0605469,206.935547 89.2402344,206.222656 89.1035156,205.285156 L87.6972656,205.285156 C87.6972656,207.042969 89.2011719,208.166016 91.4375,208.166016 C93.7617188,208.166016 95.4121094,207.0625 95.4121094,205.041016 C95.4121094,203.029297 93.7519531,202.550781 91.8476562,202.199219 C90.6074219,201.955078 89.3085938,201.671875 89.3085938,200.490234 C89.3085938,199.396484 90.2558594,198.839844 91.5351562,198.839844 C93.234375,198.839844 93.7519531,199.826172 93.8007812,200.626953 L95.1582031,200.626953 C95.1582031,199.025391 94.0058594,197.609375 91.59375,197.609375 C89.6503906,197.609375 87.8925781,198.546875 87.8925781,200.646484 Z M98.5078125,197.775391 L97.1113281,197.775391 L97.1113281,198.996094 L98.5078125,198.996094 L98.5078125,205.207031 C98.5078125,207.179688 98.9570312,208.097656 101.291016,208.097656 C101.632812,208.097656 101.974609,208.058594 102.121094,208.029297 L102.121094,206.847656 C101.974609,206.867188 101.828125,206.867188 101.652344,206.867188 C100.353516,206.867188 99.9433594,206.554688 99.9433594,205.294922 L99.9433594,198.996094 L102.033203,198.996094 L102.033203,197.775391 L99.9433594,197.775391 L99.9433594,195.207031 L98.5078125,195.207031 L98.5078125,197.775391 Z M108.380859,197.609375 C111.154297,197.609375 112.697266,199.630859 112.697266,202.375 L112.697266,203.380859 C112.697266,206.134766 111.173828,208.166016 108.380859,208.166016 C105.587891,208.166016 104.054688,206.134766 104.054688,203.380859 L104.054688,202.375 C104.054688,199.630859 105.597656,197.609375 108.380859,197.609375 Z M108.380859,198.869141 C106.554688,198.869141 105.490234,200.226562 105.490234,202.443359 L105.490234,203.302734 C105.490234,205.519531 106.554688,206.886719 108.380859,206.886719 C110.197266,206.886719 111.261719,205.529297 111.261719,203.302734 L111.261719,202.443359 C111.261719,200.226562 110.197266,198.869141 108.380859,198.869141 Z M115.382812,208 L116.818359,208 L116.818359,201.466797 C116.818359,199.875 117.824219,198.927734 119.191406,198.927734 C120.65625,198.927734 121.525391,199.835938 121.525391,201.466797 L121.525391,208 L122.960938,208 L122.960938,201.466797 C122.960938,200.021484 123.810547,198.927734 125.363281,198.927734 C126.886719,198.927734 127.677734,199.933594 127.677734,201.310547 L127.677734,208 L129.113281,208 L129.113281,201.046875 C129.113281,198.917969 127.814453,197.609375 125.675781,197.609375 C123.976562,197.609375 122.912109,198.419922 122.53125,199.298828 L122.472656,199.298828 C122.072266,198.283203 121.115234,197.609375 119.494141,197.609375 C118.117188,197.609375 117.21875,198.351562 116.886719,199.054688 L116.818359,199.054688 L116.818359,197.775391 L115.382812,197.775391 L115.382812,208 Z M135.949219,208.166016 C133.322266,208.166016 131.740234,206.291016 131.740234,203.400391 L131.740234,202.228516 C131.740234,199.523438 133.224609,197.609375 135.880859,197.609375 C138.498047,197.609375 140.021484,199.503906 140.021484,202.345703 L140.021484,203.244141 L133.185547,203.244141 L133.185547,203.449219 C133.185547,205.529297 134.220703,206.925781 135.998047,206.925781 C137.287109,206.925781 138.097656,206.261719 138.419922,205.285156 L139.875,205.285156 C139.494141,206.925781 138.166016,208.166016 135.949219,208.166016 Z M133.185547,202.003906 L138.576172,202.003906 L138.576172,201.974609 C138.576172,200.197266 137.501953,198.849609 135.880859,198.849609 C134.240234,198.849609 133.185547,200.207031 133.185547,201.974609 L133.185547,202.003906 Z M142.658203,208 L144.09375,208 L144.09375,201.642578 C144.09375,200.148438 144.708984,198.957031 146.544922,198.957031 C146.847656,198.957031 147.169922,198.966797 147.335938,198.996094 L147.335938,197.658203 C147.140625,197.638672 146.925781,197.619141 146.720703,197.619141 C145.207031,197.619141 144.445312,198.429688 144.132812,199.09375 L144.09375,199.09375 L144.09375,197.775391 L142.658203,197.775391 L142.658203,208 Z M148.859375,200.646484 C148.859375,202.472656 150.412109,203.029297 152.335938,203.449219 C153.839844,203.761719 154.953125,203.996094 154.953125,205.207031 C154.953125,206.173828 154.152344,206.935547 152.521484,206.935547 C151.027344,206.935547 150.207031,206.222656 150.070312,205.285156 L148.664062,205.285156 C148.664062,207.042969 150.167969,208.166016 152.404297,208.166016 C154.728516,208.166016 156.378906,207.0625 156.378906,205.041016 C156.378906,203.029297 154.71875,202.550781 152.814453,202.199219 C151.574219,201.955078 150.275391,201.671875 150.275391,200.490234 C150.275391,199.396484 151.222656,198.839844 152.501953,198.839844 C154.201172,198.839844 154.71875,199.826172 154.767578,200.626953 L156.125,200.626953 C156.125,199.025391 154.972656,197.609375 152.560547,197.609375 C150.617188,197.609375 148.859375,198.546875 148.859375,200.646484 Z" id="Customers" fill="#31415C"></path>
            <path d="M311.966797,208 L311.966797,197.941406 L312.005859,197.941406 L315.980469,206.974609 L317.298828,206.974609 L321.263672,197.941406 L321.3125,197.941406 L321.3125,208 L322.630859,208 L322.630859,194.679688 L321.234375,194.679688 L316.664062,205.353516 L316.625,205.353516 L312.044922,194.679688 L310.648438,194.679688 L310.648438,208 L311.966797,208 Z M329.798828,197.609375 C332.572266,197.609375 334.115234,199.630859 334.115234,202.375 L334.115234,203.380859 C334.115234,206.134766 332.591797,208.166016 329.798828,208.166016 C327.005859,208.166016 325.472656,206.134766 325.472656,203.380859 L325.472656,202.375 C325.472656,199.630859 327.015625,197.609375 329.798828,197.609375 Z M329.798828,198.869141 C327.972656,198.869141 326.908203,200.226562 326.908203,202.443359 L326.908203,203.302734 C326.908203,205.519531 327.972656,206.886719 329.798828,206.886719 C331.615234,206.886719 332.679688,205.529297 332.679688,203.302734 L332.679688,202.443359 C332.679688,200.226562 331.615234,198.869141 329.798828,198.869141 Z M341.332031,208.166016 C339.798828,208.166016 338.8125,207.443359 338.226562,206.408203 L338.1875,206.408203 L338.1875,208 L336.830078,208 L336.830078,193.966797 L338.255859,193.966797 L338.255859,199.230469 L338.294922,199.230469 C338.792969,198.390625 339.955078,197.609375 341.351562,197.609375 C343.734375,197.609375 345.414062,199.308594 345.414062,202.326172 L345.414062,203.439453 C345.414062,206.378906 343.763672,208.166016 341.332031,208.166016 Z M341.234375,206.886719 C342.835938,206.886719 343.978516,205.636719 343.978516,203.341797 L343.978516,202.423828 C343.978516,200.138672 342.845703,198.888672 341.234375,198.888672 C339.359375,198.888672 338.236328,200.177734 338.236328,202.423828 L338.236328,203.322266 C338.236328,205.587891 339.359375,206.886719 341.234375,206.886719 Z M348.1875,208 L349.623047,208 L349.623047,197.775391 L348.1875,197.775391 L348.1875,208 Z M347.933594,195.285156 C347.933594,195.832031 348.373047,196.271484 348.900391,196.271484 C349.447266,196.271484 349.886719,195.832031 349.886719,195.285156 C349.886719,194.748047 349.447266,194.308594 348.900391,194.308594 C348.373047,194.308594 347.933594,194.748047 347.933594,195.285156 Z M352.894531,208 L354.330078,208 L354.330078,193.966797 L352.894531,193.966797 L352.894531,208 Z M361.283203,208.166016 C358.65625,208.166016 357.074219,206.291016 357.074219,203.400391 L357.074219,202.228516 C357.074219,199.523438 358.558594,197.609375 361.214844,197.609375 C363.832031,197.609375 365.355469,199.503906 365.355469,202.345703 L365.355469,203.244141 L358.519531,203.244141 L358.519531,203.449219 C358.519531,205.529297 359.554688,206.925781 361.332031,206.925781 C362.621094,206.925781 363.431641,206.261719 363.753906,205.285156 L365.208984,205.285156 C364.828125,206.925781 363.5,208.166016 361.283203,208.166016 Z M358.519531,202.003906 L363.910156,202.003906 L363.910156,201.974609 C363.910156,200.197266 362.835938,198.849609 361.214844,198.849609 C359.574219,198.849609 358.519531,200.207031 358.519531,201.974609 L358.519531,202.003906 Z M377.757812,206.671875 C377.269531,207.492188 376.3125,208.166016 374.75,208.166016 C372.767578,208.166016 371.410156,206.945312 371.410156,205.070312 C371.410156,203.302734 372.640625,202.169922 374.974609,202.160156 L377.757812,202.160156 L377.757812,201.056641 C377.757812,199.621094 376.917969,198.849609 375.462891,198.849609 C374.056641,198.849609 373.285156,199.542969 373.167969,200.626953 L371.810547,200.626953 C371.927734,198.849609 373.148438,197.609375 375.521484,197.609375 C377.650391,197.609375 379.193359,198.791016 379.193359,200.890625 L379.193359,208 L377.796875,208 L377.796875,206.671875 L377.757812,206.671875 Z M375.091797,206.925781 C376.615234,206.925781 377.757812,205.96875 377.757812,204.591797 L377.757812,203.332031 L375.023438,203.332031 C373.529297,203.332031 372.894531,204.044922 372.894531,205.041016 C372.894531,206.310547 373.939453,206.925781 375.091797,206.925781 Z M386.644531,208.166016 C385.257812,208.166016 384.261719,207.462891 383.705078,206.574219 L383.666016,206.574219 L383.666016,211.544922 L382.240234,211.544922 L382.240234,197.775391 L383.597656,197.775391 L383.597656,199.298828 L383.636719,199.298828 C384.203125,198.380859 385.238281,197.609375 386.712891,197.609375 C389.007812,197.609375 390.726562,199.376953 390.726562,202.355469 L390.726562,203.419922 C390.726562,206.388672 389.017578,208.166016 386.644531,208.166016 Z M386.585938,206.886719 C388.177734,206.886719 389.291016,205.636719 389.291016,203.283203 L389.291016,202.414062 C389.291016,200.1875 388.255859,198.869141 386.546875,198.869141 C384.730469,198.869141 383.646484,200.34375 383.646484,202.404297 L383.646484,203.283203 C383.646484,205.431641 384.75,206.886719 386.585938,206.886719 Z M397.845703,208.166016 C396.458984,208.166016 395.462891,207.462891 394.90625,206.574219 L394.867188,206.574219 L394.867188,211.544922 L393.441406,211.544922 L393.441406,197.775391 L394.798828,197.775391 L394.798828,199.298828 L394.837891,199.298828 C395.404297,198.380859 396.439453,197.609375 397.914062,197.609375 C400.208984,197.609375 401.927734,199.376953 401.927734,202.355469 L401.927734,203.419922 C401.927734,206.388672 400.21875,208.166016 397.845703,208.166016 Z M397.787109,206.886719 C399.378906,206.886719 400.492188,205.636719 400.492188,203.283203 L400.492188,202.414062 C400.492188,200.1875 399.457031,198.869141 397.748047,198.869141 C395.931641,198.869141 394.847656,200.34375 394.847656,202.404297 L394.847656,203.283203 C394.847656,205.431641 395.951172,206.886719 397.787109,206.886719 Z" id="Mobile-app" fill="#31415C"></path>
            <path d="M523.068359,208 L523.068359,194.679688 L527.902344,194.679688 C530.109375,194.679688 531.59375,195.890625 531.59375,197.951172 C531.59375,199.601562 530.666016,200.548828 529.455078,200.919922 L529.455078,200.988281 C531.310547,201.232422 532.355469,202.482422 532.355469,204.289062 C532.355469,206.691406 530.490234,208 527.736328,208 L523.068359,208 Z M524.523438,195.998047 L524.523438,200.490234 L526.769531,200.490234 C528.917969,200.490234 530.109375,199.845703 530.109375,198.195312 C530.109375,196.662109 529.064453,195.998047 527.6875,195.998047 L524.523438,195.998047 Z M524.523438,201.808594 L524.523438,206.671875 L527.042969,206.671875 C529.25,206.671875 530.871094,206.261719 530.871094,204.318359 C530.871094,202.609375 529.630859,201.808594 527.912109,201.808594 L524.523438,201.808594 Z M540.568359,206.671875 C540.080078,207.492188 539.123047,208.166016 537.560547,208.166016 C535.578125,208.166016 534.220703,206.945312 534.220703,205.070312 C534.220703,203.302734 535.451172,202.169922 537.785156,202.160156 L540.568359,202.160156 L540.568359,201.056641 C540.568359,199.621094 539.728516,198.849609 538.273438,198.849609 C536.867188,198.849609 536.095703,199.542969 535.978516,200.626953 L534.621094,200.626953 C534.738281,198.849609 535.958984,197.609375 538.332031,197.609375 C540.460938,197.609375 542.003906,198.791016 542.003906,200.890625 L542.003906,208 L540.607422,208 L540.607422,206.671875 L540.568359,206.671875 Z M537.902344,206.925781 C539.425781,206.925781 540.568359,205.96875 540.568359,204.591797 L540.568359,203.332031 L537.833984,203.332031 C536.339844,203.332031 535.705078,204.044922 535.705078,205.041016 C535.705078,206.310547 536.75,206.925781 537.902344,206.925781 Z M544.601562,203.390625 C544.601562,206.105469 546.105469,208.166016 548.771484,208.166016 C551.134766,208.166016 552.335938,206.896484 552.677734,205.265625 L551.242188,205.265625 C551.046875,206.115234 550.265625,206.857422 548.888672,206.857422 C547.150391,206.857422 546.037109,205.5 546.037109,203.400391 L546.037109,202.375 C546.037109,200.207031 547.091797,198.908203 548.869141,198.908203 C550.080078,198.908203 550.949219,199.757812 551.173828,200.675781 L552.609375,200.675781 C552.511719,199.181641 551.115234,197.609375 548.771484,197.609375 C546.164062,197.609375 544.601562,199.533203 544.601562,202.296875 L544.601562,203.390625 Z M556.59375,204.220703 L557.628906,203.126953 L561.291016,208 L563.078125,208 L558.683594,202.189453 L562.824219,197.775391 L561.007812,197.775391 L556.652344,202.404297 L556.59375,202.404297 L556.59375,193.966797 L555.167969,193.966797 L555.167969,208 L556.59375,208 L556.59375,204.220703 Z M568.224609,208.166016 C565.597656,208.166016 564.015625,206.291016 564.015625,203.400391 L564.015625,202.228516 C564.015625,199.523438 565.5,197.609375 568.15625,197.609375 C570.773438,197.609375 572.296875,199.503906 572.296875,202.345703 L572.296875,203.244141 L565.460938,203.244141 L565.460938,203.449219 C565.460938,205.529297 566.496094,206.925781 568.273438,206.925781 C569.5625,206.925781 570.373047,206.261719 570.695312,205.285156 L572.150391,205.285156 C571.769531,206.925781 570.441406,208.166016 568.224609,208.166016 Z M565.460938,202.003906 L570.851562,202.003906 L570.851562,201.974609 C570.851562,200.197266 569.777344,198.849609 568.15625,198.849609 C566.515625,198.849609 565.460938,200.207031 565.460938,201.974609 L565.460938,202.003906 Z M574.933594,208 L576.369141,208 L576.369141,201.740234 C576.369141,200.275391 577.169922,198.927734 579.044922,198.927734 C580.646484,198.927734 581.671875,199.894531 581.671875,201.642578 L581.671875,208 L583.107422,208 L583.107422,201.427734 C583.107422,198.947266 581.535156,197.609375 579.425781,197.609375 C577.746094,197.609375 576.789062,198.488281 576.408203,199.171875 L576.369141,199.171875 L576.369141,197.775391 L574.933594,197.775391 L574.933594,208 Z M589.71875,197.599609 C591.154297,197.599609 592.208984,198.351562 592.707031,199.240234 L592.746094,199.240234 L592.746094,193.966797 L594.181641,193.966797 L594.181641,208 L592.824219,208 L592.824219,206.408203 L592.785156,206.408203 C592.238281,207.414062 591.183594,208.15625 589.71875,208.15625 C587.0625,208.15625 585.626953,206.222656 585.626953,203.400391 L585.626953,202.355469 C585.626953,199.582031 587.179688,197.599609 589.71875,197.599609 Z M589.845703,198.878906 C588.263672,198.878906 587.0625,200.041016 587.0625,202.423828 L587.0625,203.351562 C587.0625,205.695312 588.244141,206.876953 589.865234,206.876953 C591.691406,206.876953 592.775391,205.558594 592.775391,203.361328 L592.775391,202.414062 C592.775391,200.304688 591.662109,198.878906 589.845703,198.878906 Z M605.011719,197.599609 C606.447266,197.599609 607.501953,198.351562 608,199.240234 L608.039062,199.240234 L608.039062,193.966797 L609.474609,193.966797 L609.474609,208 L608.117188,208 L608.117188,206.408203 L608.078125,206.408203 C607.53125,207.414062 606.476562,208.15625 605.011719,208.15625 C602.355469,208.15625 600.919922,206.222656 600.919922,203.400391 L600.919922,202.355469 C600.919922,199.582031 602.472656,197.599609 605.011719,197.599609 Z M605.138672,198.878906 C603.556641,198.878906 602.355469,200.041016 602.355469,202.423828 L602.355469,203.351562 C602.355469,205.695312 603.537109,206.876953 605.158203,206.876953 C606.984375,206.876953 608.068359,205.558594 608.068359,203.361328 L608.068359,202.414062 C608.068359,200.304688 606.955078,198.878906 605.138672,198.878906 Z M618.351562,206.671875 C617.863281,207.492188 616.90625,208.166016 615.34375,208.166016 C613.361328,208.166016 612.003906,206.945312 612.003906,205.070312 C612.003906,203.302734 613.234375,202.169922 615.568359,202.160156 L618.351562,202.160156 L618.351562,201.056641 C618.351562,199.621094 617.511719,198.849609 616.056641,198.849609 C614.650391,198.849609 613.878906,199.542969 613.761719,200.626953 L612.404297,200.626953 C612.521484,198.849609 613.742188,197.609375 616.115234,197.609375 C618.244141,197.609375 619.787109,198.791016 619.787109,200.890625 L619.787109,208 L618.390625,208 L618.390625,206.671875 L618.351562,206.671875 Z M615.685547,206.925781 C617.208984,206.925781 618.351562,205.96875 618.351562,204.591797 L618.351562,203.332031 L615.617188,203.332031 C614.123047,203.332031 613.488281,204.044922 613.488281,205.041016 C613.488281,206.310547 614.533203,206.925781 615.685547,206.925781 Z M623.400391,197.775391 L622.003906,197.775391 L622.003906,198.996094 L623.400391,198.996094 L623.400391,205.207031 C623.400391,207.179688 623.849609,208.097656 626.183594,208.097656 C626.525391,208.097656 626.867188,208.058594 627.013672,208.029297 L627.013672,206.847656 C626.867188,206.867188 626.720703,206.867188 626.544922,206.867188 C625.246094,206.867188 624.835938,206.554688 624.835938,205.294922 L624.835938,198.996094 L626.925781,198.996094 L626.925781,197.775391 L624.835938,197.775391 L624.835938,195.207031 L623.400391,195.207031 L623.400391,197.775391 Z M635.109375,206.671875 C634.621094,207.492188 633.664062,208.166016 632.101562,208.166016 C630.119141,208.166016 628.761719,206.945312 628.761719,205.070312 C628.761719,203.302734 629.992188,202.169922 632.326172,202.160156 L635.109375,202.160156 L635.109375,201.056641 C635.109375,199.621094 634.269531,198.849609 632.814453,198.849609 C631.408203,198.849609 630.636719,199.542969 630.519531,200.626953 L629.162109,200.626953 C629.279297,198.849609 630.5,197.609375 632.873047,197.609375 C635.001953,197.609375 636.544922,198.791016 636.544922,200.890625 L636.544922,208 L635.148438,208 L635.148438,206.671875 L635.109375,206.671875 Z M632.443359,206.925781 C633.966797,206.925781 635.109375,205.96875 635.109375,204.591797 L635.109375,203.332031 L632.375,203.332031 C630.880859,203.332031 630.246094,204.044922 630.246094,205.041016 C630.246094,206.310547 631.291016,206.925781 632.443359,206.925781 Z M644.09375,208.166016 C642.560547,208.166016 641.574219,207.443359 640.988281,206.408203 L640.949219,206.408203 L640.949219,208 L639.591797,208 L639.591797,193.966797 L641.017578,193.966797 L641.017578,199.230469 L641.056641,199.230469 C641.554688,198.390625 642.716797,197.609375 644.113281,197.609375 C646.496094,197.609375 648.175781,199.308594 648.175781,202.326172 L648.175781,203.439453 C648.175781,206.378906 646.525391,208.166016 644.09375,208.166016 Z M643.996094,206.886719 C645.597656,206.886719 646.740234,205.636719 646.740234,203.341797 L646.740234,202.423828 C646.740234,200.138672 645.607422,198.888672 643.996094,198.888672 C642.121094,198.888672 640.998047,200.177734 640.998047,202.423828 L640.998047,203.322266 C640.998047,205.587891 642.121094,206.886719 643.996094,206.886719 Z M656.603516,206.671875 C656.115234,207.492188 655.158203,208.166016 653.595703,208.166016 C651.613281,208.166016 650.255859,206.945312 650.255859,205.070312 C650.255859,203.302734 651.486328,202.169922 653.820312,202.160156 L656.603516,202.160156 L656.603516,201.056641 C656.603516,199.621094 655.763672,198.849609 654.308594,198.849609 C652.902344,198.849609 652.130859,199.542969 652.013672,200.626953 L650.65625,200.626953 C650.773438,198.849609 651.994141,197.609375 654.367188,197.609375 C656.496094,197.609375 658.039062,198.791016 658.039062,200.890625 L658.039062,208 L656.642578,208 L656.642578,206.671875 L656.603516,206.671875 Z M653.9375,206.925781 C655.460938,206.925781 656.603516,205.96875 656.603516,204.591797 L656.603516,203.332031 L653.869141,203.332031 C652.375,203.332031 651.740234,204.044922 651.740234,205.041016 C651.740234,206.310547 652.785156,206.925781 653.9375,206.925781 Z M660.626953,200.646484 C660.626953,202.472656 662.179688,203.029297 664.103516,203.449219 C665.607422,203.761719 666.720703,203.996094 666.720703,205.207031 C666.720703,206.173828 665.919922,206.935547 664.289062,206.935547 C662.794922,206.935547 661.974609,206.222656 661.837891,205.285156 L660.431641,205.285156 C660.431641,207.042969 661.935547,208.166016 664.171875,208.166016 C666.496094,208.166016 668.146484,207.0625 668.146484,205.041016 C668.146484,203.029297 666.486328,202.550781 664.582031,202.199219 C663.341797,201.955078 662.042969,201.671875 662.042969,200.490234 C662.042969,199.396484 662.990234,198.839844 664.269531,198.839844 C665.96875,198.839844 666.486328,199.826172 666.535156,200.626953 L667.892578,200.626953 C667.892578,199.025391 666.740234,197.609375 664.328125,197.609375 C662.384766,197.609375 660.626953,198.546875 660.626953,200.646484 Z M674.435547,208.166016 C671.808594,208.166016 670.226562,206.291016 670.226562,203.400391 L670.226562,202.228516 C670.226562,199.523438 671.710938,197.609375 674.367188,197.609375 C676.984375,197.609375 678.507812,199.503906 678.507812,202.345703 L678.507812,203.244141 L671.671875,203.244141 L671.671875,203.449219 C671.671875,205.529297 672.707031,206.925781 674.484375,206.925781 C675.773438,206.925781 676.583984,206.261719 676.90625,205.285156 L678.361328,205.285156 C677.980469,206.925781 676.652344,208.166016 674.435547,208.166016 Z M671.671875,202.003906 L677.0625,202.003906 L677.0625,201.974609 C677.0625,200.197266 675.988281,198.849609 674.367188,198.849609 C672.726562,198.849609 671.671875,200.207031 671.671875,201.974609 L671.671875,202.003906 Z" id="Backend-database" fill="#31415C"></path>
            <path d="M794.203125,208 L792.708984,208 L797.494141,194.679688 L798.919922,194.679688 L803.705078,208 L802.142578,208 L800.726562,203.849609 L795.619141,203.849609 L794.203125,208 Z M798.197266,196.476562 L798.158203,196.476562 L796.039062,202.648438 L800.316406,202.648438 L798.197266,196.476562 Z M809.232422,197.599609 C810.667969,197.599609 811.722656,198.351562 812.220703,199.240234 L812.259766,199.240234 L812.259766,193.966797 L813.695312,193.966797 L813.695312,208 L812.337891,208 L812.337891,206.408203 L812.298828,206.408203 C811.751953,207.414062 810.697266,208.15625 809.232422,208.15625 C806.576172,208.15625 805.140625,206.222656 805.140625,203.400391 L805.140625,202.355469 C805.140625,199.582031 806.693359,197.599609 809.232422,197.599609 Z M809.359375,198.878906 C807.777344,198.878906 806.576172,200.041016 806.576172,202.423828 L806.576172,203.351562 C806.576172,205.695312 807.757812,206.876953 809.378906,206.876953 C811.205078,206.876953 812.289062,205.558594 812.289062,203.361328 L812.289062,202.414062 C812.289062,200.304688 811.175781,198.878906 809.359375,198.878906 Z M816.830078,208 L818.265625,208 L818.265625,201.466797 C818.265625,199.875 819.271484,198.927734 820.638672,198.927734 C822.103516,198.927734 822.972656,199.835938 822.972656,201.466797 L822.972656,208 L824.408203,208 L824.408203,201.466797 C824.408203,200.021484 825.257812,198.927734 826.810547,198.927734 C828.333984,198.927734 829.125,199.933594 829.125,201.310547 L829.125,208 L830.560547,208 L830.560547,201.046875 C830.560547,198.917969 829.261719,197.609375 827.123047,197.609375 C825.423828,197.609375 824.359375,198.419922 823.978516,199.298828 L823.919922,199.298828 C823.519531,198.283203 822.5625,197.609375 820.941406,197.609375 C819.564453,197.609375 818.666016,198.351562 818.333984,199.054688 L818.265625,199.054688 L818.265625,197.775391 L816.830078,197.775391 L816.830078,208 Z M833.695312,208 L835.130859,208 L835.130859,197.775391 L833.695312,197.775391 L833.695312,208 Z M833.441406,195.285156 C833.441406,195.832031 833.880859,196.271484 834.408203,196.271484 C834.955078,196.271484 835.394531,195.832031 835.394531,195.285156 C835.394531,194.748047 834.955078,194.308594 834.408203,194.308594 C833.880859,194.308594 833.441406,194.748047 833.441406,195.285156 Z M838.333984,208 L839.769531,208 L839.769531,201.740234 C839.769531,200.275391 840.570312,198.927734 842.445312,198.927734 C844.046875,198.927734 845.072266,199.894531 845.072266,201.642578 L845.072266,208 L846.507812,208 L846.507812,201.427734 C846.507812,198.947266 844.935547,197.609375 842.826172,197.609375 C841.146484,197.609375 840.189453,198.488281 839.808594,199.171875 L839.769531,199.171875 L839.769531,197.775391 L838.333984,197.775391 L838.333984,208 Z M857.904297,208.166016 C856.517578,208.166016 855.521484,207.462891 854.964844,206.574219 L854.925781,206.574219 L854.925781,211.544922 L853.5,211.544922 L853.5,197.775391 L854.857422,197.775391 L854.857422,199.298828 L854.896484,199.298828 C855.462891,198.380859 856.498047,197.609375 857.972656,197.609375 C860.267578,197.609375 861.986328,199.376953 861.986328,202.355469 L861.986328,203.419922 C861.986328,206.388672 860.277344,208.166016 857.904297,208.166016 Z M857.845703,206.886719 C859.4375,206.886719 860.550781,205.636719 860.550781,203.283203 L860.550781,202.414062 C860.550781,200.1875 859.515625,198.869141 857.806641,198.869141 C855.990234,198.869141 854.90625,200.34375 854.90625,202.404297 L854.90625,203.283203 C854.90625,205.431641 856.009766,206.886719 857.845703,206.886719 Z M870.414062,206.671875 C869.925781,207.492188 868.96875,208.166016 867.40625,208.166016 C865.423828,208.166016 864.066406,206.945312 864.066406,205.070312 C864.066406,203.302734 865.296875,202.169922 867.630859,202.160156 L870.414062,202.160156 L870.414062,201.056641 C870.414062,199.621094 869.574219,198.849609 868.119141,198.849609 C866.712891,198.849609 865.941406,199.542969 865.824219,200.626953 L864.466797,200.626953 C864.583984,198.849609 865.804688,197.609375 868.177734,197.609375 C870.306641,197.609375 871.849609,198.791016 871.849609,200.890625 L871.849609,208 L870.453125,208 L870.453125,206.671875 L870.414062,206.671875 Z M867.748047,206.925781 C869.271484,206.925781 870.414062,205.96875 870.414062,204.591797 L870.414062,203.332031 L867.679688,203.332031 C866.185547,203.332031 865.550781,204.044922 865.550781,205.041016 C865.550781,206.310547 866.595703,206.925781 867.748047,206.925781 Z M874.867188,208 L876.302734,208 L876.302734,201.740234 C876.302734,200.275391 877.103516,198.927734 878.978516,198.927734 C880.580078,198.927734 881.605469,199.894531 881.605469,201.642578 L881.605469,208 L883.041016,208 L883.041016,201.427734 C883.041016,198.947266 881.46875,197.609375 879.359375,197.609375 C877.679688,197.609375 876.722656,198.488281 876.341797,199.171875 L876.302734,199.171875 L876.302734,197.775391 L874.867188,197.775391 L874.867188,208 Z M889.769531,208.166016 C887.142578,208.166016 885.560547,206.291016 885.560547,203.400391 L885.560547,202.228516 C885.560547,199.523438 887.044922,197.609375 889.701172,197.609375 C892.318359,197.609375 893.841797,199.503906 893.841797,202.345703 L893.841797,203.244141 L887.005859,203.244141 L887.005859,203.449219 C887.005859,205.529297 888.041016,206.925781 889.818359,206.925781 C891.107422,206.925781 891.917969,206.261719 892.240234,205.285156 L893.695312,205.285156 C893.314453,206.925781 891.986328,208.166016 889.769531,208.166016 Z M887.005859,202.003906 L892.396484,202.003906 L892.396484,201.974609 C892.396484,200.197266 891.322266,198.849609 889.701172,198.849609 C888.060547,198.849609 887.005859,200.207031 887.005859,201.974609 L887.005859,202.003906 Z M896.546875,208 L897.982422,208 L897.982422,193.966797 L896.546875,193.966797 L896.546875,208 Z" id="Admin-panel" fill="#31415C"></path>
            <path d="M1004.08594,208 L1004.08594,197.179688 L1004.11523,197.179688 L1011.13672,208 L1012.5918,208 L1012.5918,194.679688 L1011.18555,194.679688 L1011.18555,205.5 L1011.14648,205.5 L1004.13477,194.679688 L1002.67969,194.679688 L1002.67969,208 L1004.08594,208 Z M1019.71094,197.609375 C1022.48438,197.609375 1024.02734,199.630859 1024.02734,202.375 L1024.02734,203.380859 C1024.02734,206.134766 1022.50391,208.166016 1019.71094,208.166016 C1016.91797,208.166016 1015.38477,206.134766 1015.38477,203.380859 L1015.38477,202.375 C1015.38477,199.630859 1016.92773,197.609375 1019.71094,197.609375 Z M1019.71094,198.869141 C1017.88477,198.869141 1016.82031,200.226562 1016.82031,202.443359 L1016.82031,203.302734 C1016.82031,205.519531 1017.88477,206.886719 1019.71094,206.886719 C1021.52734,206.886719 1022.5918,205.529297 1022.5918,203.302734 L1022.5918,202.443359 C1022.5918,200.226562 1021.52734,198.869141 1019.71094,198.869141 Z M1026.71289,208 L1028.14844,208 L1028.14844,201.740234 C1028.14844,200.275391 1028.94922,198.927734 1030.82422,198.927734 C1032.42578,198.927734 1033.45117,199.894531 1033.45117,201.642578 L1033.45117,208 L1034.88672,208 L1034.88672,201.427734 C1034.88672,198.947266 1033.31445,197.609375 1031.20508,197.609375 C1029.52539,197.609375 1028.56836,198.488281 1028.1875,199.171875 L1028.14844,199.171875 L1028.14844,197.775391 L1026.71289,197.775391 L1026.71289,208 Z M1043.16797,203.166016 L1043.16797,201.886719 L1037.01562,201.886719 L1037.01562,203.166016 L1043.16797,203.166016 Z M1045.93164,197.775391 L1044.53516,197.775391 L1044.53516,198.996094 L1045.93164,198.996094 L1045.93164,205.207031 C1045.93164,207.179688 1046.38086,208.097656 1048.71484,208.097656 C1049.05664,208.097656 1049.39844,208.058594 1049.54492,208.029297 L1049.54492,206.847656 C1049.39844,206.867188 1049.25195,206.867188 1049.07617,206.867188 C1047.77734,206.867188 1047.36719,206.554688 1047.36719,205.294922 L1047.36719,198.996094 L1049.45703,198.996094 L1049.45703,197.775391 L1047.36719,197.775391 L1047.36719,195.207031 L1045.93164,195.207031 L1045.93164,197.775391 Z M1055.6875,208.166016 C1053.06055,208.166016 1051.47852,206.291016 1051.47852,203.400391 L1051.47852,202.228516 C1051.47852,199.523438 1052.96289,197.609375 1055.61914,197.609375 C1058.23633,197.609375 1059.75977,199.503906 1059.75977,202.345703 L1059.75977,203.244141 L1052.92383,203.244141 L1052.92383,203.449219 C1052.92383,205.529297 1053.95898,206.925781 1055.73633,206.925781 C1057.02539,206.925781 1057.83594,206.261719 1058.1582,205.285156 L1059.61328,205.285156 C1059.23242,206.925781 1057.9043,208.166016 1055.6875,208.166016 Z M1052.92383,202.003906 L1058.31445,202.003906 L1058.31445,201.974609 C1058.31445,200.197266 1057.24023,198.849609 1055.61914,198.849609 C1053.97852,198.849609 1052.92383,200.207031 1052.92383,201.974609 L1052.92383,202.003906 Z M1061.97656,203.390625 C1061.97656,206.105469 1063.48047,208.166016 1066.14648,208.166016 C1068.50977,208.166016 1069.71094,206.896484 1070.05273,205.265625 L1068.61719,205.265625 C1068.42188,206.115234 1067.64062,206.857422 1066.26367,206.857422 C1064.52539,206.857422 1063.41211,205.5 1063.41211,203.400391 L1063.41211,202.375 C1063.41211,200.207031 1064.4668,198.908203 1066.24414,198.908203 C1067.45508,198.908203 1068.32422,199.757812 1068.54883,200.675781 L1069.98438,200.675781 C1069.88672,199.181641 1068.49023,197.609375 1066.14648,197.609375 C1063.53906,197.609375 1061.97656,199.533203 1061.97656,202.296875 L1061.97656,203.390625 Z M1072.54297,208 L1073.96875,208 L1073.96875,201.740234 C1073.96875,200.275391 1074.7793,198.927734 1076.6543,198.927734 C1078.25586,198.927734 1079.28125,199.894531 1079.28125,201.642578 L1079.28125,208 L1080.7168,208 L1080.7168,201.427734 C1080.7168,198.947266 1079.14453,197.609375 1077.03516,197.609375 C1075.35547,197.609375 1074.39844,198.488281 1074.00781,199.171875 L1073.96875,199.171875 L1073.96875,193.966797 L1072.54297,193.966797 L1072.54297,208 Z M1083.65625,208 L1085.0918,208 L1085.0918,201.740234 C1085.0918,200.275391 1085.89258,198.927734 1087.76758,198.927734 C1089.36914,198.927734 1090.39453,199.894531 1090.39453,201.642578 L1090.39453,208 L1091.83008,208 L1091.83008,201.427734 C1091.83008,198.947266 1090.25781,197.609375 1088.14844,197.609375 C1086.46875,197.609375 1085.51172,198.488281 1085.13086,199.171875 L1085.0918,199.171875 L1085.0918,197.775391 L1083.65625,197.775391 L1083.65625,208 Z M1094.85742,208 L1096.29297,208 L1096.29297,197.775391 L1094.85742,197.775391 L1094.85742,208 Z M1094.60352,195.285156 C1094.60352,195.832031 1095.04297,196.271484 1095.57031,196.271484 C1096.11719,196.271484 1096.55664,195.832031 1096.55664,195.285156 C1096.55664,194.748047 1096.11719,194.308594 1095.57031,194.308594 C1095.04297,194.308594 1094.60352,194.748047 1094.60352,195.285156 Z M1099.07617,203.390625 C1099.07617,206.105469 1100.58008,208.166016 1103.24609,208.166016 C1105.60938,208.166016 1106.81055,206.896484 1107.15234,205.265625 L1105.7168,205.265625 C1105.52148,206.115234 1104.74023,206.857422 1103.36328,206.857422 C1101.625,206.857422 1100.51172,205.5 1100.51172,203.400391 L1100.51172,202.375 C1100.51172,200.207031 1101.56641,198.908203 1103.34375,198.908203 C1104.55469,198.908203 1105.42383,199.757812 1105.64844,200.675781 L1107.08398,200.675781 C1106.98633,199.181641 1105.58984,197.609375 1103.24609,197.609375 C1100.63867,197.609375 1099.07617,199.533203 1099.07617,202.296875 L1099.07617,203.390625 Z M1115.35547,206.671875 C1114.86719,207.492188 1113.91016,208.166016 1112.34766,208.166016 C1110.36523,208.166016 1109.00781,206.945312 1109.00781,205.070312 C1109.00781,203.302734 1110.23828,202.169922 1112.57227,202.160156 L1115.35547,202.160156 L1115.35547,201.056641 C1115.35547,199.621094 1114.51562,198.849609 1113.06055,198.849609 C1111.6543,198.849609 1110.88281,199.542969 1110.76562,200.626953 L1109.4082,200.626953 C1109.52539,198.849609 1110.74609,197.609375 1113.11914,197.609375 C1115.24805,197.609375 1116.79102,198.791016 1116.79102,200.890625 L1116.79102,208 L1115.39453,208 L1115.39453,206.671875 L1115.35547,206.671875 Z M1112.68945,206.925781 C1114.21289,206.925781 1115.35547,205.96875 1115.35547,204.591797 L1115.35547,203.332031 L1112.62109,203.332031 C1111.12695,203.332031 1110.49219,204.044922 1110.49219,205.041016 C1110.49219,206.310547 1111.53711,206.925781 1112.68945,206.925781 Z M1119.87695,208 L1121.3125,208 L1121.3125,193.966797 L1119.87695,193.966797 L1119.87695,208 Z M1129.0957,197.775391 L1127.69922,197.775391 L1127.69922,198.996094 L1129.0957,198.996094 L1129.0957,205.207031 C1129.0957,207.179688 1129.54492,208.097656 1131.87891,208.097656 C1132.2207,208.097656 1132.5625,208.058594 1132.70898,208.029297 L1132.70898,206.847656 C1132.5625,206.867188 1132.41602,206.867188 1132.24023,206.867188 C1130.94141,206.867188 1130.53125,206.554688 1130.53125,205.294922 L1130.53125,198.996094 L1132.62109,198.996094 L1132.62109,197.775391 L1130.53125,197.775391 L1130.53125,195.207031 L1129.0957,195.207031 L1129.0957,197.775391 Z M1138.85156,208.166016 C1136.22461,208.166016 1134.64258,206.291016 1134.64258,203.400391 L1134.64258,202.228516 C1134.64258,199.523438 1136.12695,197.609375 1138.7832,197.609375 C1141.40039,197.609375 1142.92383,199.503906 1142.92383,202.345703 L1142.92383,203.244141 L1136.08789,203.244141 L1136.08789,203.449219 C1136.08789,205.529297 1137.12305,206.925781 1138.90039,206.925781 C1140.18945,206.925781 1141,206.261719 1141.32227,205.285156 L1142.77734,205.285156 C1142.39648,206.925781 1141.06836,208.166016 1138.85156,208.166016 Z M1136.08789,202.003906 L1141.47852,202.003906 L1141.47852,201.974609 C1141.47852,200.197266 1140.4043,198.849609 1138.7832,198.849609 C1137.14258,198.849609 1136.08789,200.207031 1136.08789,201.974609 L1136.08789,202.003906 Z M1151.30273,206.671875 C1150.81445,207.492188 1149.85742,208.166016 1148.29492,208.166016 C1146.3125,208.166016 1144.95508,206.945312 1144.95508,205.070312 C1144.95508,203.302734 1146.18555,202.169922 1148.51953,202.160156 L1151.30273,202.160156 L1151.30273,201.056641 C1151.30273,199.621094 1150.46289,198.849609 1149.00781,198.849609 C1147.60156,198.849609 1146.83008,199.542969 1146.71289,200.626953 L1145.35547,200.626953 C1145.47266,198.849609 1146.69336,197.609375 1149.06641,197.609375 C1151.19531,197.609375 1152.73828,198.791016 1152.73828,200.890625 L1152.73828,208 L1151.3418,208 L1151.3418,206.671875 L1151.30273,206.671875 Z M1148.63672,206.925781 C1150.16016,206.925781 1151.30273,205.96875 1151.30273,204.591797 L1151.30273,203.332031 L1148.56836,203.332031 C1147.07422,203.332031 1146.43945,204.044922 1146.43945,205.041016 C1146.43945,206.310547 1147.48438,206.925781 1148.63672,206.925781 Z M1155.75586,208 L1157.19141,208 L1157.19141,201.466797 C1157.19141,199.875 1158.19727,198.927734 1159.56445,198.927734 C1161.0293,198.927734 1161.89844,199.835938 1161.89844,201.466797 L1161.89844,208 L1163.33398,208 L1163.33398,201.466797 C1163.33398,200.021484 1164.18359,198.927734 1165.73633,198.927734 C1167.25977,198.927734 1168.05078,199.933594 1168.05078,201.310547 L1168.05078,208 L1169.48633,208 L1169.48633,201.046875 C1169.48633,198.917969 1168.1875,197.609375 1166.04883,197.609375 C1164.34961,197.609375 1163.28516,198.419922 1162.9043,199.298828 L1162.8457,199.298828 C1162.44531,198.283203 1161.48828,197.609375 1159.86719,197.609375 C1158.49023,197.609375 1157.5918,198.351562 1157.25977,199.054688 L1157.19141,199.054688 L1157.19141,197.775391 L1155.75586,197.775391 L1155.75586,208 Z" id="Non-technical-team" fill="#31415C"></path>
            <path d="M1049.01464,156 C1048.99369,156 1048.97274,155.999835 1048.95179,155.999506 C1046.74293,155.964795 1044.98043,154.14602 1045.01514,151.937158 L1045.01513,151.937158 C1045.10601,146.153927 1045.60622,141.508208 1046.51575,138 C1048.84909,129 1056.51575,122.666667 1069.51575,119 L1070.51575,116 L1074.51575,115 L1074.51575,111.5 L1070.51575,107.5 L1069.01575,102 C1067.34909,100.333333 1066.51575,98.6666667 1066.51575,97 C1066.51575,95.3333333 1067.01575,93.6666667 1068.01575,92 C1068.01575,86 1068.01575,82.3333333 1068.01575,81 C1068.01575,79 1072.51575,71 1081.26575,71 C1090.01575,71 1094.51575,78.5 1094.51575,81 C1094.51575,82.6666667 1094.51575,86.3333333 1094.51575,92 C1095.51575,93.6666667 1096.01575,95.3333333 1096.01575,97 C1096.01575,98.6666667 1094.84909,100.333333 1092.51575,102 L1089.01575,110.5 L1089.01575,114 L1091.51575,115 L1092.51575,119 C1104.84909,121.666667 1112.18242,128 1114.51575,138 C1115.26165,141.196676 1116.05038,145.672672 1116.88195,151.427988 C1116.90933,151.617429 1116.92306,151.808591 1116.92306,152 C1116.92306,154.209139 1115.1322,156 1112.92306,156 L1112.92306,156 L1049.01464,156 Z M1120,146 C1118.66667,137.666667 1117.33333,132.166667 1116,129.5 C1114.66667,126.833333 1111.33333,123.5 1106,119.5 L1110,115 L1110,112 L1101,107.5 C1102.50634,104.183862 1103.67301,100.683862 1104.5,97 C1105.32699,93.3161383 1105.99366,88.6494716 1106.5,83 C1107.5,78.3333333 1111.5,76 1118.5,76 C1125.5,76 1129.5,79.1666667 1130.5,85.5 C1130.5,89.5 1130.83333,93.3333333 1131.5,97 C1132.16667,100.666667 1133.16667,104.166667 1134.5,107.5 L1125.5,112 L1125.5,115 C1127.83333,118 1130.5,120.166667 1133.5,121.5 C1138,123.5 1142.5,124 1144.5,125.5 C1145.83333,126.5 1146.66667,128.333333 1147,131 L1147,142 C1147,144.209139 1145.20914,146 1143,146 L1120,146 Z M1041,146 L1023,146 C1020.79086,146 1019,144.209139 1019,142 L1019,131 C1019.33333,128.333333 1020.16667,126.5 1021.5,125.5 C1023.5,124 1028,121.5 1032.5,119.5 C1035.5,118.166667 1038.16667,116.666667 1040.5,115 L1041,109 L1037.5,106.5 L1037,101.5 C1034.33333,99.8333333 1033.16667,97.8333333 1033.5,95.5 C1033.64267,94.5012902 1034.30934,93.3346236 1035.5,92 L1035.5,85.5 C1036.5,79.1666667 1040.5,76 1047.5,76 C1054.5,76 1058.5,78.3333333 1059.5,83 L1060,92 C1060.91758,93.4968976 1061.41758,94.6635643 1061.5,95.5 C1061.66654,97.1900458 1061.16654,99.1900458 1060,101.5 L1058.5,107 L1056,109.5 L1056,115 L1061.5,117.5 C1052.83333,120.166667 1047.33333,124.166667 1045,129.5 C1043.77972,132.289204 1042.44639,137.789204 1041,146 Z" id="Combined-Shape" fill="#AED5F6"></path>
            <path d="M1047.01464,154 L1110.92306,154 L1110.92306,154 C1113.1322,154 1114.92306,152.209139 1114.92306,150 C1114.92306,149.808591 1114.90933,149.617429 1114.88195,149.427988 C1114.05038,143.672672 1113.26165,139.196676 1112.51575,136 C1110.18242,126 1102.84909,119.666667 1090.51575,117 L1089.51575,113 L1087.01575,112 L1087.01575,108.5 L1090.51575,100 C1092.84909,98.3333333 1094.01575,96.6666667 1094.01575,95 C1094.01575,93.3333333 1093.51575,91.6666667 1092.51575,90 C1092.51575,84.3333333 1092.51575,80.6666667 1092.51575,79 C1092.51575,76.5 1088.01575,69 1079.26575,69 C1070.51575,69 1066.01575,77 1066.01575,79 C1066.01575,80.3333333 1066.01575,84 1066.01575,90 C1065.01575,91.6666667 1064.51575,93.3333333 1064.51575,95 C1064.51575,96.6666667 1065.34909,98.3333333 1067.01575,100 L1068.51575,105.5 L1072.51575,109.5 L1072.51575,113 L1068.51575,114 L1067.51575,117 C1054.51575,120.666667 1046.84909,127 1044.51575,136 C1043.60622,139.508208 1043.10601,144.153927 1043.01513,149.937158 L1043.01514,149.937158 C1042.98043,152.14602 1044.74293,153.964795 1046.95179,153.999506 C1046.97274,153.999835 1046.99369,154 1047.01464,154 Z" id="Path-9" stroke="#3E81BB" stroke-width="2"></path>
            <rect id="Rectangle-3" fill="#AED5F6" x="328" y="69" width="16" height="16" rx="3"></rect>
            <rect id="Rectangle-3" fill="#AED5F6" x="350" y="69" width="16" height="16" rx="3"></rect>
            <rect id="Rectangle-3" fill="#AED5F6" x="372" y="69" width="16" height="16" rx="3"></rect>
            <rect id="Rectangle-3" fill="#AED5F6" x="328" y="94" width="16" height="16" rx="3"></rect>
            <rect id="Rectangle-3" fill="#AED5F6" x="350" y="94" width="16" height="16" rx="3"></rect>
            <rect id="Rectangle-3" fill="#AED5F6" x="372" y="94" width="16" height="16" rx="3"></rect>
            <rect id="Rectangle-3" fill="#AED5F6" x="328" y="120" width="16" height="16" rx="3"></rect>
            <rect id="Rectangle-3" fill="#AED5F6" x="350" y="120" width="16" height="16" rx="3"></rect>
            <rect id="Rectangle-3" fill="#AED5F6" x="372" y="120" width="16" height="16" rx="3"></rect>
            <path d="M1118,144 L1141,144 L1141,144 C1143.20914,144 1145,142.209139 1145,140 L1145,129 C1144.66667,126.333333 1143.83333,124.5 1142.5,123.5 C1140.5,122 1136,121.5 1131.5,119.5 C1128.5,118.166667 1125.83333,116 1123.5,113 L1123.5,110 L1132.5,105.5 C1131.16667,102.166667 1130.16667,98.6666667 1129.5,95 C1128.83333,91.3333333 1128.5,87.5 1128.5,83.5 C1127.5,77.1666667 1123.5,74 1116.5,74 C1109.5,74 1105.5,76.3333333 1104.5,81 C1103.99366,86.6494716 1103.32699,91.3161383 1102.5,95 C1101.67301,98.6838617 1100.50634,102.183862 1099,105.5 L1108,110 L1108,113 L1104,117.5 C1109.33333,121.5 1112.66667,124.833333 1114,127.5 C1115.33333,130.166667 1116.66667,135.666667 1118,144 Z" id="Path-10" stroke="#3E81BB" stroke-width="2"></path>
            <path d="M1037.53121,144 L1055.53121,144 L1055.53121,144 C1057.74035,144 1059.53121,142.209139 1059.53121,140 L1059.53121,129 C1059.19787,126.333333 1058.36454,124.5 1057.03121,123.5 C1055.03121,122 1050.53121,119.5 1046.03121,117.5 C1043.03121,116.166667 1040.36454,114.666667 1038.03121,113 L1037.53121,107 L1041.03121,104.5 L1041.53121,99.5 C1044.19787,97.8333333 1045.36454,95.8333333 1045.03121,93.5 C1044.88853,92.5012902 1044.22187,91.3346236 1043.03121,90 L1043.03121,83.5 C1042.03121,77.1666667 1038.03121,74 1031.03121,74 C1024.03121,74 1020.03121,76.3333333 1019.03121,81 L1018.53121,90 C1017.61363,91.4968976 1017.11363,92.6635643 1017.03121,93.5 C1016.86467,95.1900458 1017.36467,97.1900458 1018.53121,99.5 L1020.03121,105 L1022.53121,107.5 L1022.53121,113 L1017.03121,115.5 C1025.69787,118.166667 1031.19787,122.166667 1033.53121,127.5 C1034.75148,130.289204 1036.08482,135.789204 1037.53121,144 Z" id="Path-10" stroke="#3E81BB" stroke-width="2" transform="translate(1038.265604, 109.000000) scale(-1, 1) translate(-1038.265604, -109.000000) "></path>
            <rect id="Rectangle-3" stroke="#3E81BB" stroke-width="2" x="326" y="67" width="15" height="15" rx="3"></rect>
            <rect id="Rectangle-3" stroke="#3E81BB" stroke-width="2" x="348" y="67" width="15" height="15" rx="3"></rect>
            <rect id="Rectangle-3" stroke="#3E81BB" stroke-width="2" x="370" y="67" width="15" height="15" rx="3"></rect>
            <rect id="Rectangle-3" stroke="#3E81BB" stroke-width="2" x="326" y="92" width="15" height="15" rx="3"></rect>
            <rect id="Rectangle-3" stroke="#3E81BB" stroke-width="2" x="348" y="92" width="15" height="15" rx="3"></rect>
            <rect id="Rectangle-3" stroke="#3E81BB" stroke-width="2" x="370" y="92" width="15" height="15" rx="3"></rect>
            <rect id="Rectangle-3" stroke="#3E81BB" stroke-width="2" x="326" y="118" width="15" height="15" rx="3"></rect>
            <rect id="Rectangle-3" stroke="#3E81BB" stroke-width="2" x="348" y="118" width="15" height="15" rx="3"></rect>
            <rect id="Rectangle-3" stroke="#3E81BB" stroke-width="2" x="370" y="118" width="15" height="15" rx="3"></rect>
            <path d="M216.5,109 L270,109" id="Line" stroke="#ACB3BD" stroke-width="2" stroke-linecap="square"></path>
            <path d="M452.5,109 L506,109" id="Line" stroke="#ACB3BD" stroke-width="2" stroke-linecap="square"></path>
            <path d="M695.5,109 L749,109" id="Line" stroke="#ACB3BD" stroke-width="2" stroke-linecap="square"></path>
            <path d="M936.5,109 L990,109" id="Line" stroke="#ACB3BD" stroke-width="2" stroke-linecap="square"></path>
        </g>
        <polyline id="Path-8" stroke="#3E81BB" stroke-width="2" stroke-linejoin="bevel" points="807.5 108.5 816.5 96 818 80"></polyline>
    </g>
</svg>