<?xml version="1.0" encoding="UTF-8"?>
<svg width="1429px" height="646px" viewBox="0 0 1429 646" version="1.1" xmlns="http://www.w3.org/2000/svg" xmlns:xlink="http://www.w3.org/1999/xlink">
    <!-- Generator: Sketch 46.2 (44496) - http://www.bohemiancoding.com/sketch -->
    <title>Artboard</title>
    <desc>Created with Sketch.</desc>
    <defs></defs>
    <g id="Page-1" stroke="none" stroke-width="1" fill="none" fill-rule="evenodd">
        <g id="Artboard">
            <polygon id="Path-11" fill="#AED5F6" points="2 649 1432 649 1432 13 1400.48898 39.479183 1373.47954 81.9457973 1349.97132 110.923016 1291.95103 205.84839 1256.43861 239.322074 1225.42777 256.808327 1209.42218 272.795758 1189.41518 272.795758 1086.87933 324.255302 1071.87408 341.241948 1060.87023 341.241948 1034.36097 362.725059 992.84645 382.209741 972.339279 382.209741 888.810073 411.686567 865.802029 411.686567 799.278769 463.146112 776.270724 469.141398 699.743966 532.591516 677.236097 532.591516 647.725778 551.576591 610.212662 551.576591 576.700944 571.061273 529.684505 605.034564 485.16894 605.034564 480.167191 611.029851 360.125219 611.029851 284.098636 617.025137 183.063309 616.025923 99.0339279 618.024352 2 614.027494"></polygon>
            <polygon id="Path-12" fill="#FFFFFF" points="0 646 1431 646 1431 352.5 1399 334 1376 348 1356.5 388 1343 395.5 1326 419 1307.5 487.5 1289.5 512.5 1276 521 1259 525 1240 512.5 1205 512.5 1187.5 500.5 1155.5 500.5 1139.5 512.5 1121 535 1094.5 542 1068.5 563.5 1046.5 563.5 1039.5 573.5 1022 566.5 996.5 566.5 988 577 954 573.5 921.5 554.5 898.5 554.5 863 535 849.5 535 831 542 776 583 740.5 601.5 728 624 710.5 633 660.5 633 643 624 589.5 624 577 628.5 538.5 628.5 525.5 633 182.5 644 164.5 636.5 104.5 636.5 48 633 0 636.5"></polygon>
            <polygon id="Path-12" fill="#9EF3E2" points="3 649 1434 649 1434 355.5 1402 337 1379 351 1359.5 391 1346 398.5 1329 422 1310.5 490.5 1292.5 515.5 1279 524 1262 528 1243 515.5 1208 515.5 1190.5 503.5 1158.5 503.5 1142.5 515.5 1124 538 1097.5 545 1071.5 566.5 1049.5 566.5 1042.5 576.5 1025 569.5 999.5 569.5 991 580 957 576.5 924.5 557.5 901.5 557.5 866 538 852.5 538 834 545 779 586 743.5 604.5 731 627 713.5 636 663.5 636 646 627 592.5 627 580 631.5 541.5 631.5 528.5 636 185.5 647 167.5 639.5 107.5 639.5 51 636 3 639.5"></polygon>
            <polyline id="Path-11" stroke="#3E81BB" stroke-width="3" points="1435.5 3 1397.48898 35.5218827 1370.47954 78.0569777 1346.97132 107.080925 1288.95103 202.159372 1253.43861 235.687036 1222.42777 253.201486 1206.42218 269.214699 1186.41518 269.214699 1083.87933 320.757225 1068.87408 337.771263 1057.87023 337.771263 1031.36097 359.289017 989.84645 378.80512 969.339279 378.80512 885.810073 408.32948 862.802029 408.32948 796.278769 459.872007 773.270724 465.876961 696.743966 529.429397 674.236097 529.429397 644.725778 548.445087 607.212662 548.445087 573.700944 567.961189 526.684505 601.989265 482.16894 601.989265 477.167191 607.99422 357.125219 607.99422 281.098636 613.999174 180.063309 612.998348 96.0339279 615 -1 610.996697"></polyline>
            <polyline id="Path-12" stroke="#17BA9A" stroke-width="3" points="1431 351.5 1399 333 1376 347 1356.5 387 1343 394.5 1326 418 1307.5 486.5 1289.5 511.5 1276 520 1259 524 1240 511.5 1205 511.5 1187.5 499.5 1155.5 499.5 1139.5 511.5 1121 534 1094.5 541 1068.5 562.5 1046.5 562.5 1039.5 572.5 1022 565.5 996.5 565.5 988 576 954 572.5 921.5 553.5 898.5 553.5 863 534 849.5 534 831 541 776 582 740.5 600.5 728 623 710.5 632 660.5 632 643 623 589.5 623 577 627.5 538.5 627.5 525.5 632 182.5 643 164.5 635.5 104.5 635.5 48 632 0 635.5"></polyline>
            <path d="M738.5,491.5 L1301,491.5" id="Line-2" stroke="#3E81BB" opacity="0.495867301" stroke-linecap="square"></path>
            <path d="M1304,491.5 L1431,491.5" id="Line-2" stroke="#17BA9A" opacity="0.5" stroke-linecap="square"></path>
            <path d="M1373,353.5 L1430,353.5" id="Line-3" stroke="#17BA9A" opacity="0.5" stroke-linecap="square"></path>
            <path d="M1036,353.5 L1370,353.5" id="Line-3" stroke="#3E81BB" opacity="0.495867301" stroke-linecap="square"></path>
            <path d="M1279.5,208.5 L1431,208.5" id="Line-4" stroke="#3E81BB" opacity="0.495867301" stroke-linecap="square"></path>
            <path d="M1371.5,75.5 L1431,75.5" id="Line-5" stroke="#3E81BB" opacity="0.495867301" stroke-linecap="square"></path>
            <path d="M1401.20801,54.6757812 L1402.67773,54.6757812 L1402.67773,61.0742188 L1403.92871,61.0742188 L1403.92871,61.9902344 L1402.67773,61.9902344 L1402.67773,64 L1401.7002,64 L1401.7002,61.9902344 L1397.16797,61.9902344 L1397.16797,61.1015625 C1398.22754,59.1943359 1399.92969,56.5419922 1401.20801,54.6757812 Z M1398.2207,61.0742188 L1401.7002,61.0742188 L1401.7002,55.5917969 L1401.68652,55.5917969 C1400.64746,57.0957031 1399.12988,59.4882812 1398.2207,61.0605469 L1398.2207,61.0742188 Z M1406.08203,58.9892578 L1406.08203,59.7001953 C1406.08203,61.9902344 1406.93652,63.2958984 1408.29688,63.2958984 C1409.65723,63.2958984 1410.49805,61.9902344 1410.49805,59.7001953 L1410.49805,58.9892578 C1410.49805,56.6923828 1409.65723,55.3730469 1408.29688,55.3730469 C1406.93652,55.3730469 1406.08203,56.6923828 1406.08203,58.9892578 Z M1405.07715,59.7070312 L1405.07715,58.9824219 C1405.07715,56.2138672 1406.23242,54.4707031 1408.29688,54.4707031 C1410.36133,54.4707031 1411.50293,56.2070312 1411.50293,58.9824219 L1411.50293,59.7070312 C1411.50293,62.4824219 1410.36133,64.1982422 1408.29688,64.1982422 C1406.23242,64.1982422 1405.07715,62.4824219 1405.07715,59.7070312 Z M1413.88867,58.9892578 L1413.88867,59.7001953 C1413.88867,61.9902344 1414.74316,63.2958984 1416.10352,63.2958984 C1417.46387,63.2958984 1418.30469,61.9902344 1418.30469,59.7001953 L1418.30469,58.9892578 C1418.30469,56.6923828 1417.46387,55.3730469 1416.10352,55.3730469 C1414.74316,55.3730469 1413.88867,56.6923828 1413.88867,58.9892578 Z M1412.88379,59.7070312 L1412.88379,58.9824219 C1412.88379,56.2138672 1414.03906,54.4707031 1416.10352,54.4707031 C1418.16797,54.4707031 1419.30957,56.2070312 1419.30957,58.9824219 L1419.30957,59.7070312 C1419.30957,62.4824219 1418.16797,64.1982422 1416.10352,64.1982422 C1414.03906,64.1982422 1412.88379,62.4824219 1412.88379,59.7070312 Z" id="400" fill="#3E81BB"></path>
            <path d="M1399.48535,194.645508 L1400.42871,194.645508 C1401.78906,194.645508 1402.61621,195.349609 1402.62988,196.443359 C1402.64355,197.516602 1401.84375,198.30957 1400.45605,198.30957 C1399.12988,198.30957 1398.49414,197.530273 1398.37793,196.621094 L1397.40723,196.621094 C1397.46875,198.022461 1398.45312,199.205078 1400.42188,199.205078 C1402.33594,199.205078 1403.69629,198.015625 1403.66895,196.429688 C1403.63477,194.912109 1402.4043,194.22168 1401.57715,194.15332 L1401.57715,194.139648 C1402.3291,194.023438 1403.34082,193.175781 1403.30664,191.842773 C1403.27246,190.509766 1402.16504,189.470703 1400.43555,189.470703 C1398.5625,189.470703 1397.66699,190.810547 1397.64648,191.958984 L1398.63086,191.958984 C1398.68555,191.241211 1399.18457,190.373047 1400.43555,190.373047 C1401.56348,190.373047 1402.26074,191.049805 1402.26758,192.013672 C1402.27441,193.004883 1401.50195,193.736328 1400.36719,193.736328 L1399.48535,193.736328 L1399.48535,194.645508 Z M1406.08203,193.989258 L1406.08203,194.700195 C1406.08203,196.990234 1406.93652,198.295898 1408.29688,198.295898 C1409.65723,198.295898 1410.49805,196.990234 1410.49805,194.700195 L1410.49805,193.989258 C1410.49805,191.692383 1409.65723,190.373047 1408.29688,190.373047 C1406.93652,190.373047 1406.08203,191.692383 1406.08203,193.989258 Z M1405.07715,194.707031 L1405.07715,193.982422 C1405.07715,191.213867 1406.23242,189.470703 1408.29688,189.470703 C1410.36133,189.470703 1411.50293,191.207031 1411.50293,193.982422 L1411.50293,194.707031 C1411.50293,197.482422 1410.36133,199.198242 1408.29688,199.198242 C1406.23242,199.198242 1405.07715,197.482422 1405.07715,194.707031 Z M1413.88867,193.989258 L1413.88867,194.700195 C1413.88867,196.990234 1414.74316,198.295898 1416.10352,198.295898 C1417.46387,198.295898 1418.30469,196.990234 1418.30469,194.700195 L1418.30469,193.989258 C1418.30469,191.692383 1417.46387,190.373047 1416.10352,190.373047 C1414.74316,190.373047 1413.88867,191.692383 1413.88867,193.989258 Z M1412.88379,194.707031 L1412.88379,193.982422 C1412.88379,191.213867 1414.03906,189.470703 1416.10352,189.470703 C1418.16797,189.470703 1419.30957,191.207031 1419.30957,193.982422 L1419.30957,194.707031 C1419.30957,197.482422 1418.16797,199.198242 1416.10352,199.198242 C1414.03906,199.198242 1412.88379,197.482422 1412.88379,194.707031 Z" id="300" fill="#3E81BB"></path>
            <path d="M1398.70605,321.191406 L1398.70605,321.157227 C1398.70605,320.213867 1399.38281,319.373047 1400.56543,319.373047 C1401.625,319.373047 1402.37695,320.042969 1402.37695,321.061523 C1402.37695,321.963867 1401.80273,322.633789 1401.2832,323.235352 L1397.75586,327.34375 L1397.75586,328 L1403.60059,328 L1403.60059,327.09082 L1399.18457,327.09082 L1399.18457,327.077148 L1401.86426,323.932617 C1402.71191,322.927734 1403.41602,322.141602 1403.41602,321.006836 C1403.41602,319.571289 1402.31543,318.470703 1400.58594,318.470703 C1398.71289,318.470703 1397.70801,319.769531 1397.70801,321.157227 L1397.70801,321.191406 L1398.70605,321.191406 Z M1406.08203,322.989258 L1406.08203,323.700195 C1406.08203,325.990234 1406.93652,327.295898 1408.29688,327.295898 C1409.65723,327.295898 1410.49805,325.990234 1410.49805,323.700195 L1410.49805,322.989258 C1410.49805,320.692383 1409.65723,319.373047 1408.29688,319.373047 C1406.93652,319.373047 1406.08203,320.692383 1406.08203,322.989258 Z M1405.07715,323.707031 L1405.07715,322.982422 C1405.07715,320.213867 1406.23242,318.470703 1408.29688,318.470703 C1410.36133,318.470703 1411.50293,320.207031 1411.50293,322.982422 L1411.50293,323.707031 C1411.50293,326.482422 1410.36133,328.198242 1408.29688,328.198242 C1406.23242,328.198242 1405.07715,326.482422 1405.07715,323.707031 Z M1413.88867,322.989258 L1413.88867,323.700195 C1413.88867,325.990234 1414.74316,327.295898 1416.10352,327.295898 C1417.46387,327.295898 1418.30469,325.990234 1418.30469,323.700195 L1418.30469,322.989258 C1418.30469,320.692383 1417.46387,319.373047 1416.10352,319.373047 C1414.74316,319.373047 1413.88867,320.692383 1413.88867,322.989258 Z M1412.88379,323.707031 L1412.88379,322.982422 C1412.88379,320.213867 1414.03906,318.470703 1416.10352,318.470703 C1418.16797,318.470703 1419.30957,320.207031 1419.30957,322.982422 L1419.30957,323.707031 C1419.30957,326.482422 1418.16797,328.198242 1416.10352,328.198242 C1414.03906,328.198242 1412.88379,326.482422 1412.88379,323.707031 Z" id="200" fill="#3E81BB"></path>
            <path d="M1402.96484,475 L1402.96484,465.675781 L1402.03516,465.675781 C1401.38574,466.017578 1400.36035,466.632812 1399.72461,467.09082 L1399.72461,468.157227 C1400.3125,467.753906 1401.50195,467.022461 1401.94629,466.783203 L1401.95996,466.783203 L1401.95996,475 L1402.96484,475 Z M1406.08203,469.989258 L1406.08203,470.700195 C1406.08203,472.990234 1406.93652,474.295898 1408.29688,474.295898 C1409.65723,474.295898 1410.49805,472.990234 1410.49805,470.700195 L1410.49805,469.989258 C1410.49805,467.692383 1409.65723,466.373047 1408.29688,466.373047 C1406.93652,466.373047 1406.08203,467.692383 1406.08203,469.989258 Z M1405.07715,470.707031 L1405.07715,469.982422 C1405.07715,467.213867 1406.23242,465.470703 1408.29688,465.470703 C1410.36133,465.470703 1411.50293,467.207031 1411.50293,469.982422 L1411.50293,470.707031 C1411.50293,473.482422 1410.36133,475.198242 1408.29688,475.198242 C1406.23242,475.198242 1405.07715,473.482422 1405.07715,470.707031 Z M1413.88867,469.989258 L1413.88867,470.700195 C1413.88867,472.990234 1414.74316,474.295898 1416.10352,474.295898 C1417.46387,474.295898 1418.30469,472.990234 1418.30469,470.700195 L1418.30469,469.989258 C1418.30469,467.692383 1417.46387,466.373047 1416.10352,466.373047 C1414.74316,466.373047 1413.88867,467.692383 1413.88867,469.989258 Z M1412.88379,470.707031 L1412.88379,469.982422 C1412.88379,467.213867 1414.03906,465.470703 1416.10352,465.470703 C1418.16797,465.470703 1419.30957,467.207031 1419.30957,469.982422 L1419.30957,470.707031 C1419.30957,473.482422 1418.16797,475.198242 1416.10352,475.198242 C1414.03906,475.198242 1412.88379,473.482422 1412.88379,470.707031 Z" id="100" fill="#17BA9A"></path>
            <rect id="Rectangle-4" fill="#AED5F6" x="1119" y="235" width="84" height="22" rx="3"></rect>
            <rect id="Rectangle-4" stroke="#3E81BB" stroke-width="2" x="1117" y="233" width="82" height="20" rx="3"></rect>
            <path d="M1129.88965,247.823242 L1128.88477,247.823242 L1128.88477,239.421875 L1126,239.421875 L1126,238.499023 L1132.78125,238.499023 L1132.78125,239.421875 L1129.88965,239.421875 L1129.88965,247.823242 Z M1135.41992,240.549805 C1137.36133,240.549805 1138.44141,241.964844 1138.44141,243.885742 L1138.44141,244.589844 C1138.44141,246.517578 1137.375,247.939453 1135.41992,247.939453 C1133.46484,247.939453 1132.3916,246.517578 1132.3916,244.589844 L1132.3916,243.885742 C1132.3916,241.964844 1133.47168,240.549805 1135.41992,240.549805 Z M1135.41992,241.431641 C1134.1416,241.431641 1133.39648,242.381836 1133.39648,243.933594 L1133.39648,244.535156 C1133.39648,246.086914 1134.1416,247.043945 1135.41992,247.043945 C1136.69141,247.043945 1137.43652,246.09375 1137.43652,244.535156 L1137.43652,243.933594 C1137.43652,242.381836 1136.69141,241.431641 1135.41992,241.431641 Z M1140.73828,240.666016 L1139.76074,240.666016 L1139.76074,241.520508 L1140.73828,241.520508 L1140.73828,245.868164 C1140.73828,247.249023 1141.05273,247.891602 1142.68652,247.891602 C1142.92578,247.891602 1143.16504,247.864258 1143.26758,247.84375 L1143.26758,247.016602 C1143.16504,247.030273 1143.0625,247.030273 1142.93945,247.030273 C1142.03027,247.030273 1141.74316,246.811523 1141.74316,245.929688 L1141.74316,241.520508 L1143.20605,241.520508 L1143.20605,240.666016 L1141.74316,240.666016 L1141.74316,238.868164 L1140.73828,238.868164 L1140.73828,240.666016 Z M1148.93457,246.893555 C1148.59277,247.467773 1147.92285,247.939453 1146.8291,247.939453 C1145.44141,247.939453 1144.49121,247.084961 1144.49121,245.772461 C1144.49121,244.535156 1145.35254,243.742188 1146.98633,243.735352 L1148.93457,243.735352 L1148.93457,242.962891 C1148.93457,241.958008 1148.34668,241.417969 1147.32812,241.417969 C1146.34375,241.417969 1145.80371,241.90332 1145.72168,242.662109 L1144.77148,242.662109 C1144.85352,241.417969 1145.70801,240.549805 1147.36914,240.549805 C1148.85938,240.549805 1149.93945,241.376953 1149.93945,242.84668 L1149.93945,247.823242 L1148.96191,247.823242 L1148.96191,246.893555 L1148.93457,246.893555 Z M1147.06836,247.071289 C1148.13477,247.071289 1148.93457,246.401367 1148.93457,245.4375 L1148.93457,244.555664 L1147.02051,244.555664 C1145.97461,244.555664 1145.53027,245.054688 1145.53027,245.751953 C1145.53027,246.640625 1146.26172,247.071289 1147.06836,247.071289 Z M1152.09961,247.823242 L1153.10449,247.823242 L1153.10449,238 L1152.09961,238 L1152.09961,247.823242 Z M1159.10645,238.499023 L1158.10156,238.499023 L1158.10156,244.719727 C1158.10156,246.654297 1159.40039,248.021484 1161.58105,248.021484 C1163.76855,248.021484 1165.06055,246.654297 1165.06055,244.719727 L1165.06055,238.499023 L1164.05566,238.499023 L1164.05566,244.589844 C1164.05566,246.107422 1163.09863,247.091797 1161.58105,247.091797 C1160.06348,247.091797 1159.10645,246.107422 1159.10645,244.589844 L1159.10645,238.499023 Z M1166.89941,242.675781 C1166.89941,243.954102 1167.98633,244.34375 1169.33301,244.637695 C1170.38574,244.856445 1171.16504,245.020508 1171.16504,245.868164 C1171.16504,246.544922 1170.60449,247.078125 1169.46289,247.078125 C1168.41699,247.078125 1167.84277,246.579102 1167.74707,245.922852 L1166.7627,245.922852 C1166.7627,247.15332 1167.81543,247.939453 1169.38086,247.939453 C1171.00781,247.939453 1172.16309,247.166992 1172.16309,245.751953 C1172.16309,244.34375 1171.00098,244.008789 1169.66797,243.762695 C1168.7998,243.591797 1167.89062,243.393555 1167.89062,242.566406 C1167.89062,241.800781 1168.55371,241.411133 1169.44922,241.411133 C1170.63867,241.411133 1171.00098,242.101562 1171.03516,242.662109 L1171.98535,242.662109 C1171.98535,241.541016 1171.17871,240.549805 1169.49023,240.549805 C1168.12988,240.549805 1166.89941,241.206055 1166.89941,242.675781 Z M1176.56543,247.939453 C1174.72656,247.939453 1173.61914,246.626953 1173.61914,244.603516 L1173.61914,243.783203 C1173.61914,241.889648 1174.6582,240.549805 1176.51758,240.549805 C1178.34961,240.549805 1179.41602,241.875977 1179.41602,243.865234 L1179.41602,244.494141 L1174.63086,244.494141 L1174.63086,244.637695 C1174.63086,246.09375 1175.35547,247.071289 1176.59961,247.071289 C1177.50195,247.071289 1178.06934,246.606445 1178.29492,245.922852 L1179.31348,245.922852 C1179.04688,247.071289 1178.11719,247.939453 1176.56543,247.939453 Z M1174.63086,243.625977 L1178.4043,243.625977 L1178.4043,243.605469 C1178.4043,242.361328 1177.65234,241.417969 1176.51758,241.417969 C1175.36914,241.417969 1174.63086,242.368164 1174.63086,243.605469 L1174.63086,243.625977 Z M1181.26172,247.823242 L1182.2666,247.823242 L1182.2666,243.373047 C1182.2666,242.327148 1182.69727,241.493164 1183.98242,241.493164 C1184.19434,241.493164 1184.41992,241.5 1184.53613,241.520508 L1184.53613,240.583984 C1184.39941,240.570312 1184.24902,240.556641 1184.10547,240.556641 C1183.0459,240.556641 1182.5127,241.124023 1182.29395,241.588867 L1182.2666,241.588867 L1182.2666,240.666016 L1181.26172,240.666016 L1181.26172,247.823242 Z M1185.60254,242.675781 C1185.60254,243.954102 1186.68945,244.34375 1188.03613,244.637695 C1189.08887,244.856445 1189.86816,245.020508 1189.86816,245.868164 C1189.86816,246.544922 1189.30762,247.078125 1188.16602,247.078125 C1187.12012,247.078125 1186.5459,246.579102 1186.4502,245.922852 L1185.46582,245.922852 C1185.46582,247.15332 1186.51855,247.939453 1188.08398,247.939453 C1189.71094,247.939453 1190.86621,247.166992 1190.86621,245.751953 C1190.86621,244.34375 1189.7041,244.008789 1188.37109,243.762695 C1187.50293,243.591797 1186.59375,243.393555 1186.59375,242.566406 C1186.59375,241.800781 1187.25684,241.411133 1188.15234,241.411133 C1189.3418,241.411133 1189.7041,242.101562 1189.73828,242.662109 L1190.68848,242.662109 C1190.68848,241.541016 1189.88184,240.549805 1188.19336,240.549805 C1186.83301,240.549805 1185.60254,241.206055 1185.60254,242.675781 Z" id="Total-Users" fill="#3E81BB"></path>
            <rect id="Rectangle-4" fill="#FFFFFF" x="1203" y="363" width="144" height="22" rx="3"></rect>
            <path d="M1215.47949,375.823242 L1217.53711,368.242188 L1217.57129,368.242188 L1219.62207,375.823242 L1220.53125,375.823242 L1223.1084,366.499023 L1221.97363,366.499023 L1220.06641,374.032227 L1220.03223,374.032227 L1218.09082,366.499023 L1217.01074,366.499023 L1215.0625,374.032227 L1215.03516,374.032227 L1213.13477,366.499023 L1212,366.499023 L1214.56348,375.823242 L1215.47949,375.823242 Z M1226.68359,375.939453 C1224.84473,375.939453 1223.7373,374.626953 1223.7373,372.603516 L1223.7373,371.783203 C1223.7373,369.889648 1224.77637,368.549805 1226.63574,368.549805 C1228.46777,368.549805 1229.53418,369.875977 1229.53418,371.865234 L1229.53418,372.494141 L1224.74902,372.494141 L1224.74902,372.637695 C1224.74902,374.09375 1225.47363,375.071289 1226.71777,375.071289 C1227.62012,375.071289 1228.1875,374.606445 1228.41309,373.922852 L1229.43164,373.922852 C1229.16504,375.071289 1228.23535,375.939453 1226.68359,375.939453 Z M1224.74902,371.625977 L1228.52246,371.625977 L1228.52246,371.605469 C1228.52246,370.361328 1227.77051,369.417969 1226.63574,369.417969 C1225.4873,369.417969 1224.74902,370.368164 1224.74902,371.605469 L1224.74902,371.625977 Z M1234.03223,375.939453 C1232.19336,375.939453 1231.08594,374.626953 1231.08594,372.603516 L1231.08594,371.783203 C1231.08594,369.889648 1232.125,368.549805 1233.98438,368.549805 C1235.81641,368.549805 1236.88281,369.875977 1236.88281,371.865234 L1236.88281,372.494141 L1232.09766,372.494141 L1232.09766,372.637695 C1232.09766,374.09375 1232.82227,375.071289 1234.06641,375.071289 C1234.96875,375.071289 1235.53613,374.606445 1235.76172,373.922852 L1236.78027,373.922852 C1236.51367,375.071289 1235.58398,375.939453 1234.03223,375.939453 Z M1232.09766,371.625977 L1235.87109,371.625977 L1235.87109,371.605469 C1235.87109,370.361328 1235.11914,369.417969 1233.98438,369.417969 C1232.83594,369.417969 1232.09766,370.368164 1232.09766,371.605469 L1232.09766,371.625977 Z M1239.74707,373.177734 L1240.47168,372.412109 L1243.03516,375.823242 L1244.28613,375.823242 L1241.20996,371.755859 L1244.1084,368.666016 L1242.83691,368.666016 L1239.78809,371.90625 L1239.74707,371.90625 L1239.74707,366 L1238.74902,366 L1238.74902,375.823242 L1239.74707,375.823242 L1239.74707,373.177734 Z M1245.50293,375.823242 L1246.50781,375.823242 L1246.50781,366 L1245.50293,366 L1245.50293,375.823242 Z M1254.13672,368.666016 L1253.06348,368.666016 L1251.01953,374.654297 L1250.98535,374.654297 L1248.94141,368.666016 L1247.82031,368.666016 L1250.49316,375.939453 L1250.35645,376.376953 C1250.14453,377.115234 1249.78223,377.545898 1248.94141,377.545898 C1248.78418,377.545898 1248.53125,377.525391 1248.41504,377.504883 L1248.41504,378.359375 C1248.59277,378.386719 1248.85938,378.414062 1249.09863,378.414062 C1250.49316,378.414062 1250.97168,377.457031 1251.34766,376.424805 L1251.55273,375.891602 L1254.13672,368.666016 Z M1258.27246,375.823242 L1257.22656,375.823242 L1260.57617,366.499023 L1261.57422,366.499023 L1264.92383,375.823242 L1263.83008,375.823242 L1262.83887,372.917969 L1259.26367,372.917969 L1258.27246,375.823242 Z M1261.06836,367.756836 L1261.04102,367.756836 L1259.55762,372.077148 L1262.55176,372.077148 L1261.06836,367.756836 Z M1265.92871,372.59668 C1265.92871,374.49707 1266.98145,375.939453 1268.84766,375.939453 C1270.50195,375.939453 1271.34277,375.050781 1271.58203,373.90918 L1270.57715,373.90918 C1270.44043,374.503906 1269.89355,375.023438 1268.92969,375.023438 C1267.71289,375.023438 1266.93359,374.073242 1266.93359,372.603516 L1266.93359,371.885742 C1266.93359,370.368164 1267.67188,369.458984 1268.91602,369.458984 C1269.76367,369.458984 1270.37207,370.053711 1270.5293,370.696289 L1271.53418,370.696289 C1271.46582,369.650391 1270.48828,368.549805 1268.84766,368.549805 C1267.02246,368.549805 1265.92871,369.896484 1265.92871,371.831055 L1265.92871,372.59668 Z M1273.90625,368.666016 L1272.92871,368.666016 L1272.92871,369.520508 L1273.90625,369.520508 L1273.90625,373.868164 C1273.90625,375.249023 1274.2207,375.891602 1275.85449,375.891602 C1276.09375,375.891602 1276.33301,375.864258 1276.43555,375.84375 L1276.43555,375.016602 C1276.33301,375.030273 1276.23047,375.030273 1276.10742,375.030273 C1275.19824,375.030273 1274.91113,374.811523 1274.91113,373.929688 L1274.91113,369.520508 L1276.37402,369.520508 L1276.37402,368.666016 L1274.91113,368.666016 L1274.91113,366.868164 L1273.90625,366.868164 L1273.90625,368.666016 Z M1278.26758,375.823242 L1279.27246,375.823242 L1279.27246,368.666016 L1278.26758,368.666016 L1278.26758,375.823242 Z M1278.08984,366.922852 C1278.08984,367.305664 1278.39746,367.613281 1278.7666,367.613281 C1279.14941,367.613281 1279.45703,367.305664 1279.45703,366.922852 C1279.45703,366.546875 1279.14941,366.239258 1278.7666,366.239258 C1278.39746,366.239258 1278.08984,366.546875 1278.08984,366.922852 Z M1283.14844,375.823242 L1284.22168,375.823242 L1286.80566,368.666016 L1285.79395,368.666016 L1283.68848,374.551758 L1283.6543,374.551758 L1281.67188,368.666016 L1280.6123,368.666016 L1283.14844,375.823242 Z M1290.60645,375.939453 C1288.76758,375.939453 1287.66016,374.626953 1287.66016,372.603516 L1287.66016,371.783203 C1287.66016,369.889648 1288.69922,368.549805 1290.55859,368.549805 C1292.39062,368.549805 1293.45703,369.875977 1293.45703,371.865234 L1293.45703,372.494141 L1288.67188,372.494141 L1288.67188,372.637695 C1288.67188,374.09375 1289.39648,375.071289 1290.64062,375.071289 C1291.54297,375.071289 1292.11035,374.606445 1292.33594,373.922852 L1293.35449,373.922852 C1293.08789,375.071289 1292.1582,375.939453 1290.60645,375.939453 Z M1288.67188,371.625977 L1292.44531,371.625977 L1292.44531,371.605469 C1292.44531,370.361328 1291.69336,369.417969 1290.55859,369.417969 C1289.41016,369.417969 1288.67188,370.368164 1288.67188,371.605469 L1288.67188,371.625977 Z M1299.08984,366.499023 L1298.08496,366.499023 L1298.08496,372.719727 C1298.08496,374.654297 1299.38379,376.021484 1301.56445,376.021484 C1303.75195,376.021484 1305.04395,374.654297 1305.04395,372.719727 L1305.04395,366.499023 L1304.03906,366.499023 L1304.03906,372.589844 C1304.03906,374.107422 1303.08203,375.091797 1301.56445,375.091797 C1300.04688,375.091797 1299.08984,374.107422 1299.08984,372.589844 L1299.08984,366.499023 Z M1306.88281,370.675781 C1306.88281,371.954102 1307.96973,372.34375 1309.31641,372.637695 C1310.36914,372.856445 1311.14844,373.020508 1311.14844,373.868164 C1311.14844,374.544922 1310.58789,375.078125 1309.44629,375.078125 C1308.40039,375.078125 1307.82617,374.579102 1307.73047,373.922852 L1306.74609,373.922852 C1306.74609,375.15332 1307.79883,375.939453 1309.36426,375.939453 C1310.99121,375.939453 1312.14648,375.166992 1312.14648,373.751953 C1312.14648,372.34375 1310.98438,372.008789 1309.65137,371.762695 C1308.7832,371.591797 1307.87402,371.393555 1307.87402,370.566406 C1307.87402,369.800781 1308.53711,369.411133 1309.43262,369.411133 C1310.62207,369.411133 1310.98438,370.101562 1311.01855,370.662109 L1311.96875,370.662109 C1311.96875,369.541016 1311.16211,368.549805 1309.47363,368.549805 C1308.11328,368.549805 1306.88281,369.206055 1306.88281,370.675781 Z M1316.54883,375.939453 C1314.70996,375.939453 1313.60254,374.626953 1313.60254,372.603516 L1313.60254,371.783203 C1313.60254,369.889648 1314.6416,368.549805 1316.50098,368.549805 C1318.33301,368.549805 1319.39941,369.875977 1319.39941,371.865234 L1319.39941,372.494141 L1314.61426,372.494141 L1314.61426,372.637695 C1314.61426,374.09375 1315.33887,375.071289 1316.58301,375.071289 C1317.48535,375.071289 1318.05273,374.606445 1318.27832,373.922852 L1319.29688,373.922852 C1319.03027,375.071289 1318.10059,375.939453 1316.54883,375.939453 Z M1314.61426,371.625977 L1318.3877,371.625977 L1318.3877,371.605469 C1318.3877,370.361328 1317.63574,369.417969 1316.50098,369.417969 C1315.35254,369.417969 1314.61426,370.368164 1314.61426,371.605469 L1314.61426,371.625977 Z M1321.24512,375.823242 L1322.25,375.823242 L1322.25,371.373047 C1322.25,370.327148 1322.68066,369.493164 1323.96582,369.493164 C1324.17773,369.493164 1324.40332,369.5 1324.51953,369.520508 L1324.51953,368.583984 C1324.38281,368.570312 1324.23242,368.556641 1324.08887,368.556641 C1323.0293,368.556641 1322.49609,369.124023 1322.27734,369.588867 L1322.25,369.588867 L1322.25,368.666016 L1321.24512,368.666016 L1321.24512,375.823242 Z M1325.58594,370.675781 C1325.58594,371.954102 1326.67285,372.34375 1328.01953,372.637695 C1329.07227,372.856445 1329.85156,373.020508 1329.85156,373.868164 C1329.85156,374.544922 1329.29102,375.078125 1328.14941,375.078125 C1327.10352,375.078125 1326.5293,374.579102 1326.43359,373.922852 L1325.44922,373.922852 C1325.44922,375.15332 1326.50195,375.939453 1328.06738,375.939453 C1329.69434,375.939453 1330.84961,375.166992 1330.84961,373.751953 C1330.84961,372.34375 1329.6875,372.008789 1328.35449,371.762695 C1327.48633,371.591797 1326.57715,371.393555 1326.57715,370.566406 C1326.57715,369.800781 1327.24023,369.411133 1328.13574,369.411133 C1329.3252,369.411133 1329.6875,370.101562 1329.72168,370.662109 L1330.67188,370.662109 C1330.67188,369.541016 1329.86523,368.549805 1328.17676,368.549805 C1326.81641,368.549805 1325.58594,369.206055 1325.58594,370.675781 Z" id="Weekly-Active-Users" fill="#17BA9A"></path>
            <rect id="Rectangle-4" stroke="#17BA9A" stroke-width="2" x="1201" y="361" width="142" height="20" rx="3"></rect>
            <path d="M1281.67871,630 L1281.67871,622.958984 L1281.70605,622.958984 L1284.48828,629.282227 L1285.41113,629.282227 L1288.18652,622.958984 L1288.2207,622.958984 L1288.2207,630 L1289.14355,630 L1289.14355,620.675781 L1288.16602,620.675781 L1284.9668,628.147461 L1284.93945,628.147461 L1281.7334,620.675781 L1280.75586,620.675781 L1280.75586,630 L1281.67871,630 Z M1295.44629,629.070312 C1295.10449,629.644531 1294.43457,630.116211 1293.34082,630.116211 C1291.95312,630.116211 1291.00293,629.261719 1291.00293,627.949219 C1291.00293,626.711914 1291.86426,625.918945 1293.49805,625.912109 L1295.44629,625.912109 L1295.44629,625.139648 C1295.44629,624.134766 1294.8584,623.594727 1293.83984,623.594727 C1292.85547,623.594727 1292.31543,624.080078 1292.2334,624.838867 L1291.2832,624.838867 C1291.36523,623.594727 1292.21973,622.726562 1293.88086,622.726562 C1295.37109,622.726562 1296.45117,623.553711 1296.45117,625.023438 L1296.45117,630 L1295.47363,630 L1295.47363,629.070312 L1295.44629,629.070312 Z M1293.58008,629.248047 C1294.64648,629.248047 1295.44629,628.578125 1295.44629,627.614258 L1295.44629,626.732422 L1293.53223,626.732422 C1292.48633,626.732422 1292.04199,627.231445 1292.04199,627.928711 C1292.04199,628.817383 1292.77344,629.248047 1293.58008,629.248047 Z M1298.56348,630 L1299.56836,630 L1299.56836,625.549805 C1299.56836,624.503906 1299.99902,623.669922 1301.28418,623.669922 C1301.49609,623.669922 1301.72168,623.676758 1301.83789,623.697266 L1301.83789,622.760742 C1301.70117,622.74707 1301.55078,622.733398 1301.40723,622.733398 C1300.34766,622.733398 1299.81445,623.300781 1299.5957,623.765625 L1299.56836,623.765625 L1299.56836,622.842773 L1298.56348,622.842773 L1298.56348,630 Z M1302.91113,626.773438 C1302.91113,628.673828 1303.96387,630.116211 1305.83008,630.116211 C1307.48438,630.116211 1308.3252,629.227539 1308.56445,628.085938 L1307.55957,628.085938 C1307.42285,628.680664 1306.87598,629.200195 1305.91211,629.200195 C1304.69531,629.200195 1303.91602,628.25 1303.91602,626.780273 L1303.91602,626.0625 C1303.91602,624.544922 1304.6543,623.635742 1305.89844,623.635742 C1306.74609,623.635742 1307.35449,624.230469 1307.51172,624.873047 L1308.5166,624.873047 C1308.44824,623.827148 1307.4707,622.726562 1305.83008,622.726562 C1304.00488,622.726562 1302.91113,624.073242 1302.91113,626.007812 L1302.91113,626.773438 Z M1310.30762,630 L1311.30566,630 L1311.30566,625.618164 C1311.30566,624.592773 1311.87305,623.649414 1313.18555,623.649414 C1314.30664,623.649414 1315.02441,624.326172 1315.02441,625.549805 L1315.02441,630 L1316.0293,630 L1316.0293,625.399414 C1316.0293,623.663086 1314.92871,622.726562 1313.45215,622.726562 C1312.27637,622.726562 1311.60645,623.341797 1311.33301,623.820312 L1311.30566,623.820312 L1311.30566,620.176758 L1310.30762,620.176758 L1310.30762,630 Z" id="March" fill="#17BA9A"></path>
            <path d="M750.450195,630 L750.450195,625.87793 L754.483398,625.87793 L754.483398,624.948242 L750.450195,624.948242 L750.450195,621.598633 L754.845703,621.598633 L754.845703,620.675781 L749.431641,620.675781 L749.431641,630 L750.450195,630 Z M758.981445,630.116211 C757.142578,630.116211 756.035156,628.803711 756.035156,626.780273 L756.035156,625.959961 C756.035156,624.066406 757.074219,622.726562 758.933594,622.726562 C760.765625,622.726562 761.832031,624.052734 761.832031,626.041992 L761.832031,626.670898 L757.046875,626.670898 L757.046875,626.814453 C757.046875,628.270508 757.771484,629.248047 759.015625,629.248047 C759.917969,629.248047 760.485352,628.783203 760.710938,628.099609 L761.729492,628.099609 C761.462891,629.248047 760.533203,630.116211 758.981445,630.116211 Z M757.046875,625.802734 L760.820312,625.802734 L760.820312,625.782227 C760.820312,624.538086 760.068359,623.594727 758.933594,623.594727 C757.785156,623.594727 757.046875,624.544922 757.046875,625.782227 L757.046875,625.802734 Z M766.849609,630.116211 C765.776367,630.116211 765.085938,629.610352 764.675781,628.885742 L764.648438,628.885742 L764.648438,630 L763.698242,630 L763.698242,620.176758 L764.696289,620.176758 L764.696289,623.861328 L764.723633,623.861328 C765.072266,623.273438 765.885742,622.726562 766.863281,622.726562 C768.53125,622.726562 769.707031,623.916016 769.707031,626.02832 L769.707031,626.807617 C769.707031,628.865234 768.551758,630.116211 766.849609,630.116211 Z M766.78125,629.220703 C767.902344,629.220703 768.702148,628.345703 768.702148,626.739258 L768.702148,626.09668 C768.702148,624.49707 767.90918,623.62207 766.78125,623.62207 C765.46875,623.62207 764.682617,624.524414 764.682617,626.09668 L764.682617,626.725586 C764.682617,628.311523 765.46875,629.220703 766.78125,629.220703 Z M771.586914,630 L772.591797,630 L772.591797,625.549805 C772.591797,624.503906 773.022461,623.669922 774.307617,623.669922 C774.519531,623.669922 774.745117,623.676758 774.861328,623.697266 L774.861328,622.760742 C774.724609,622.74707 774.574219,622.733398 774.430664,622.733398 C773.371094,622.733398 772.837891,623.300781 772.619141,623.765625 L772.591797,623.765625 L772.591797,622.842773 L771.586914,622.842773 L771.586914,630 Z M782.080078,622.842773 L781.068359,622.842773 L781.068359,627.279297 C781.068359,628.455078 780.323242,629.193359 779.202148,629.193359 C778.19043,629.193359 777.404297,628.708008 777.404297,627.354492 L777.404297,622.842773 L776.399414,622.842773 L776.399414,627.641602 C776.399414,629.275391 777.458984,630.116211 778.935547,630.116211 C780.097656,630.116211 780.78125,629.603516 781.03418,629.022461 L781.075195,629.022461 L781.075195,630 L782.080078,630 L782.080078,622.842773 Z M788.273438,629.070312 C787.931641,629.644531 787.261719,630.116211 786.167969,630.116211 C784.780273,630.116211 783.830078,629.261719 783.830078,627.949219 C783.830078,626.711914 784.691406,625.918945 786.325195,625.912109 L788.273438,625.912109 L788.273438,625.139648 C788.273438,624.134766 787.685547,623.594727 786.666992,623.594727 C785.682617,623.594727 785.142578,624.080078 785.060547,624.838867 L784.110352,624.838867 C784.192383,623.594727 785.046875,622.726562 786.708008,622.726562 C788.198242,622.726562 789.27832,623.553711 789.27832,625.023438 L789.27832,630 L788.300781,630 L788.300781,629.070312 L788.273438,629.070312 Z M786.407227,629.248047 C787.473633,629.248047 788.273438,628.578125 788.273438,627.614258 L788.273438,626.732422 L786.359375,626.732422 C785.313477,626.732422 784.869141,627.231445 784.869141,627.928711 C784.869141,628.817383 785.600586,629.248047 786.407227,629.248047 Z M791.390625,630 L792.395508,630 L792.395508,625.549805 C792.395508,624.503906 792.826172,623.669922 794.111328,623.669922 C794.323242,623.669922 794.548828,623.676758 794.665039,623.697266 L794.665039,622.760742 C794.52832,622.74707 794.37793,622.733398 794.234375,622.733398 C793.174805,622.733398 792.641602,623.300781 792.422852,623.765625 L792.395508,623.765625 L792.395508,622.842773 L791.390625,622.842773 L791.390625,630 Z M801.938477,622.842773 L800.865234,622.842773 L798.821289,628.831055 L798.787109,628.831055 L796.743164,622.842773 L795.62207,622.842773 L798.294922,630.116211 L798.158203,630.553711 C797.946289,631.291992 797.583984,631.722656 796.743164,631.722656 C796.585938,631.722656 796.333008,631.702148 796.216797,631.681641 L796.216797,632.536133 C796.394531,632.563477 796.661133,632.59082 796.900391,632.59082 C798.294922,632.59082 798.773438,631.633789 799.149414,630.601562 L799.354492,630.068359 L801.938477,622.842773 Z" id="February" fill="#17BA9A"></path>
            <path d="M202.237305,627.949219 C202.237305,629.248047 203.201172,630.191406 204.725586,630.191406 C206.28418,630.191406 207.384766,629.282227 207.384766,627.361328 L207.384766,620.675781 L206.366211,620.675781 L206.366211,627.470703 C206.366211,628.749023 205.668945,629.261719 204.725586,629.261719 C203.905273,629.261719 203.262695,628.735352 203.235352,627.949219 L202.237305,627.949219 Z M213.612305,629.070312 C213.270508,629.644531 212.600586,630.116211 211.506836,630.116211 C210.119141,630.116211 209.168945,629.261719 209.168945,627.949219 C209.168945,626.711914 210.030273,625.918945 211.664062,625.912109 L213.612305,625.912109 L213.612305,625.139648 C213.612305,624.134766 213.024414,623.594727 212.005859,623.594727 C211.021484,623.594727 210.481445,624.080078 210.399414,624.838867 L209.449219,624.838867 C209.53125,623.594727 210.385742,622.726562 212.046875,622.726562 C213.537109,622.726562 214.617188,623.553711 214.617188,625.023438 L214.617188,630 L213.639648,630 L213.639648,629.070312 L213.612305,629.070312 Z M211.746094,629.248047 C212.8125,629.248047 213.612305,628.578125 213.612305,627.614258 L213.612305,626.732422 L211.698242,626.732422 C210.652344,626.732422 210.208008,627.231445 210.208008,627.928711 C210.208008,628.817383 210.939453,629.248047 211.746094,629.248047 Z M216.729492,630 L217.734375,630 L217.734375,625.618164 C217.734375,624.592773 218.294922,623.649414 219.607422,623.649414 C220.728516,623.649414 221.446289,624.326172 221.446289,625.549805 L221.446289,630 L222.451172,630 L222.451172,625.399414 C222.451172,623.663086 221.350586,622.726562 219.874023,622.726562 C218.698242,622.726562 218.02832,623.341797 217.761719,623.820312 L217.734375,623.820312 L217.734375,622.842773 L216.729492,622.842773 L216.729492,630 Z M230.080078,622.842773 L229.068359,622.842773 L229.068359,627.279297 C229.068359,628.455078 228.323242,629.193359 227.202148,629.193359 C226.19043,629.193359 225.404297,628.708008 225.404297,627.354492 L225.404297,622.842773 L224.399414,622.842773 L224.399414,627.641602 C224.399414,629.275391 225.458984,630.116211 226.935547,630.116211 C228.097656,630.116211 228.78125,629.603516 229.03418,629.022461 L229.075195,629.022461 L229.075195,630 L230.080078,630 L230.080078,622.842773 Z M236.273438,629.070312 C235.931641,629.644531 235.261719,630.116211 234.167969,630.116211 C232.780273,630.116211 231.830078,629.261719 231.830078,627.949219 C231.830078,626.711914 232.691406,625.918945 234.325195,625.912109 L236.273438,625.912109 L236.273438,625.139648 C236.273438,624.134766 235.685547,623.594727 234.666992,623.594727 C233.682617,623.594727 233.142578,624.080078 233.060547,624.838867 L232.110352,624.838867 C232.192383,623.594727 233.046875,622.726562 234.708008,622.726562 C236.198242,622.726562 237.27832,623.553711 237.27832,625.023438 L237.27832,630 L236.300781,630 L236.300781,629.070312 L236.273438,629.070312 Z M234.407227,629.248047 C235.473633,629.248047 236.273438,628.578125 236.273438,627.614258 L236.273438,626.732422 L234.359375,626.732422 C233.313477,626.732422 232.869141,627.231445 232.869141,627.928711 C232.869141,628.817383 233.600586,629.248047 234.407227,629.248047 Z M239.390625,630 L240.395508,630 L240.395508,625.549805 C240.395508,624.503906 240.826172,623.669922 242.111328,623.669922 C242.323242,623.669922 242.548828,623.676758 242.665039,623.697266 L242.665039,622.760742 C242.52832,622.74707 242.37793,622.733398 242.234375,622.733398 C241.174805,622.733398 240.641602,623.300781 240.422852,623.765625 L240.395508,623.765625 L240.395508,622.842773 L239.390625,622.842773 L239.390625,630 Z M249.938477,622.842773 L248.865234,622.842773 L246.821289,628.831055 L246.787109,628.831055 L244.743164,622.842773 L243.62207,622.842773 L246.294922,630.116211 L246.158203,630.553711 C245.946289,631.291992 245.583984,631.722656 244.743164,631.722656 C244.585938,631.722656 244.333008,631.702148 244.216797,631.681641 L244.216797,632.536133 C244.394531,632.563477 244.661133,632.59082 244.900391,632.59082 C246.294922,632.59082 246.773438,631.633789 247.149414,630.601562 L247.354492,630.068359 L249.938477,622.842773 Z" id="January" fill="#3E81BB"></path>
        </g>
    </g>
</svg>