<svg xmlns="http://www.w3.org/2000/svg" xmlns:xlink="http://www.w3.org/1999/xlink" version="1.1" id="Your_Icon" x="0px" y="0px" width="100px" height="95.844px" viewBox="0 0 100 95.844" enable-background="new 0 0 100 95.844" xml:space="preserve">
<path d="M49.996,7.56l10.016,30.836H92.44L66.201,57.452l10.025,30.832L49.996,69.223L23.765,88.284l10.017-30.832L7.559,38.392  H39.97L49.996,7.56 M49.996,0c-3.272,0-6.18,2.109-7.187,5.225l-8.324,25.606H7.559c-3.272,0-6.18,2.109-7.187,5.226  c-1.016,3.111,0.096,6.522,2.743,8.449l21.787,15.833l-8.324,25.61c-1.016,3.111,0.096,6.527,2.743,8.449  c1.328,0.964,2.89,1.445,4.444,1.445c1.562,0,3.125-0.481,4.444-1.445l21.787-15.832l21.787,15.832  c1.319,0.964,2.882,1.445,4.444,1.445c1.554,0,3.116-0.481,4.444-1.445c2.647-1.927,3.758-5.338,2.743-8.449l-8.324-25.61  l21.795-15.828c2.647-1.923,3.759-5.338,2.743-8.45c-1.016-3.116-3.915-5.226-7.188-5.226H65.507l-8.324-25.61  C56.167,2.109,53.268,0,49.996,0L49.996,0z"/>
</svg>