<svg xmlns="http://www.w3.org/2000/svg" xmlns:xlink="http://www.w3.org/1999/xlink" version="1.1" id="Layer_1" x="0px" y="0px" width="30px" height="30px" viewBox="0 0 30 30" enable-background="new 0 0 30 30" xml:space="preserve">
<rect x="-131" y="-29" display="none" fill="#000000" width="198" height="87"/>
<path d="M-58.878-1.958c-0.233-0.233-0.423-0.422-0.607-0.606L-69.695,7.644c-0.488,0.488-1.278,0.488-1.766,0  c0,0-3.327-3.273-4.074-4.017c-0.744-0.749-4.018-4.075-4.018-4.075c-0.488-0.488-0.488-1.277,0-1.765l10.209-10.209  c-0.184-0.184-0.373-0.375-0.606-0.607c-6.623-1.545-13.796,0.221-17.107,5.52C-91.11-0.821-89.786,5.12-87.979,8.922  l-25.412,21.115l0.044,0.045c-3.084,3.088-3.084,8.086,0,11.17c3.085,3.088,8.086,3.088,11.17,0l0.044,0.043l21.057-25.334  c3.789,1.863,9.848,3.327,16.678-0.81C-59.099,11.839-57.333,4.664-58.878-1.958z M-109.681,37.588V33.75h3.84v3.838H-109.681z"/>
<path d="M-9.119,1.319c-0.157-0.157-0.284-0.284-0.408-0.408l-6.864,6.863c-0.328,0.328-0.859,0.328-1.187,0  c0,0-2.237-2.2-2.74-2.701c-0.5-0.503-2.701-2.74-2.701-2.74c-0.328-0.328-0.328-0.858,0-1.186l6.864-6.864  c-0.124-0.124-0.25-0.252-0.407-0.409c-4.453-1.039-9.276,0.148-11.502,3.711c-2.725,4.497-1.835,8.491-0.62,11.048l-17.085,14.196  l0.03,0.03c-2.074,2.076-2.074,5.437,0,7.511c2.074,2.076,5.436,2.076,7.509,0l0.03,0.027l14.157-17.032  c2.547,1.253,6.622,2.237,11.213-0.544C-9.267,10.595-8.08,5.771-9.119,1.319z M-43.274,27.906v-2.58h2.581v2.58H-43.274z"/>
<path d="M28.207,7.386c-0.113-0.113-0.205-0.205-0.294-0.294l-4.947,4.945c-0.236,0.237-0.619,0.237-0.855,0  c0,0-1.612-1.585-1.975-1.946c-0.36-0.363-1.946-1.975-1.946-1.975c-0.236-0.236-0.236-0.619,0-0.855l4.946-4.946  c-0.089-0.089-0.18-0.182-0.293-0.294c-3.208-0.749-6.684,0.107-8.289,2.674c-1.964,3.241-1.322,6.12-0.446,7.962L1.795,22.887  l0.022,0.021c-1.494,1.496-1.494,3.919,0,5.413c1.495,1.496,3.917,1.496,5.412,0l0.021,0.02l10.202-12.274  c1.835,0.903,4.772,1.612,8.082-0.393C28.1,14.07,28.956,10.594,28.207,7.386z M3.593,26.547v-1.861h1.86v1.861H3.593z"/>
<path d="M55.289,8.242c-0.078-0.078-0.141-0.141-0.201-0.201l-3.383,3.382c-0.162,0.162-0.423,0.162-0.584,0  c0,0-1.103-1.084-1.351-1.331c-0.247-0.248-1.332-1.35-1.332-1.35c-0.161-0.162-0.161-0.423,0-0.585l3.383-3.383  c-0.061-0.062-0.123-0.125-0.201-0.202c-2.194-0.512-4.571,0.073-5.668,1.829c-1.343,2.216-0.904,4.186-0.305,5.445l-8.421,6.997  l0.015,0.015c-1.021,1.023-1.021,2.681,0,3.702c1.022,1.023,2.679,1.023,3.702,0l0.014,0.014l6.978-8.395  c1.255,0.618,3.264,1.103,5.527-0.269C55.215,12.813,55.8,10.436,55.289,8.242z M38.454,21.347v-1.273h1.272v1.273H38.454z"/>
</svg>