<?xml version="1.0" encoding="UTF-8"?>
<svg width="400px" height="330px" viewBox="0 0 400 330" version="1.1" xmlns="http://www.w3.org/2000/svg" xmlns:xlink="http://www.w3.org/1999/xlink">
    <!-- Generator: Sketch 57.1 (83088) - https://sketch.com -->
    <title>chicago-detroit</title>
    <desc>Created with Sketch.</desc>
    <defs>
        <linearGradient x1="50%" y1="0%" x2="50%" y2="100%" id="linearGradient-1">
            <stop stop-color="#080A23" stop-opacity="0" offset="0%"></stop>
            <stop stop-color="#080A23" stop-opacity="0.0235294118" offset="11.7956424%"></stop>
            <stop stop-color="#080A23" stop-opacity="0.0862745098" offset="24.0510894%"></stop>
            <stop stop-color="#080A23" stop-opacity="0.184313725" offset="36.4327573%"></stop>
            <stop stop-color="#080A23" stop-opacity="0.301960784" offset="48.6070624%"></stop>
            <stop stop-color="#080A23" stop-opacity="0.431372549" offset="60.2404207%"></stop>
            <stop stop-color="#080A23" stop-opacity="0.568627451" offset="70.9992487%"></stop>
            <stop stop-color="#080A23" stop-opacity="0.698039216" offset="80.5499624%"></stop>
            <stop stop-color="#080A23" stop-opacity="0.815686275" offset="88.5589782%"></stop>
            <stop stop-color="#080A23" stop-opacity="0.91372549" offset="94.6927122%"></stop>
            <stop stop-color="#080A23" stop-opacity="0.976470588" offset="98.6175808%"></stop>
            <stop stop-color="#080A23" offset="100%"></stop>
        </linearGradient>
        <path d="M112.192,167.128 C111.125328,167.128 110.197337,166.896002 109.408,166.432 C108.618663,165.967998 108.013335,165.301338 107.592,164.432 C107.170665,163.562662 106.96,162.536006 106.96,161.352 C106.96,160.167994 107.170665,159.144004 107.592,158.28 C108.013335,157.415996 108.618663,156.752002 109.408,156.288 C110.197337,155.823998 111.125328,155.592 112.192,155.592 C112.970671,155.592 113.68533,155.711999 114.336,155.952 C114.98667,156.192001 115.551998,156.546664 116.032,157.016 L115.536,158.024 C114.991997,157.565331 114.458669,157.234668 113.936,157.032 C113.413331,156.829332 112.837336,156.728 112.208,156.728 C110.97066,156.728 110.013337,157.130663 109.336,157.936 C108.658663,158.741337 108.32,159.879993 108.32,161.352 C108.32,162.834674 108.658663,163.978663 109.336,164.784 C110.013337,165.589337 110.97066,165.992 112.208,165.992 C112.837336,165.992 113.413331,165.890668 113.936,165.688 C114.458669,165.485332 114.991997,165.154669 115.536,164.696 L116.032,165.704 C115.551998,166.173336 114.98667,166.527999 114.336,166.768 C113.68533,167.008001 112.970671,167.128 112.192,167.128 Z M121.936,159.016 C123.802676,159.016 124.736,160.045323 124.736,162.104 L124.736,167 L123.44,167 L123.44,162.184 C123.44,161.458663 123.298668,160.930668 123.016,160.6 C122.733332,160.269332 122.28267,160.104 121.664,160.104 C120.94933,160.104 120.378669,160.322664 119.952,160.76 C119.525331,161.197336 119.312,161.78933 119.312,162.536 L119.312,167 L118.016,167 L118.016,155.72 L119.312,155.72 L119.312,160.456 C119.568001,159.986664 119.922664,159.629335 120.376,159.384 C120.829336,159.138665 121.34933,159.016 121.936,159.016 Z M127.104,167 L127.104,159.208 L128.4,159.208 L128.4,167 L127.104,167 Z M126.976,155.832 L128.544,155.832 L128.544,157.288 L126.976,157.288 L126.976,155.832 Z M134.112,167.112 C133.343996,167.112 132.677336,166.946668 132.112,166.616 C131.546664,166.285332 131.112002,165.81867 130.808,165.216 C130.503998,164.61333 130.352,163.906671 130.352,163.096 C130.352,162.285329 130.509332,161.573336 130.824,160.96 C131.138668,160.346664 131.58133,159.869335 132.152,159.528 C132.72267,159.186665 133.391996,159.016 134.16,159.016 C134.682669,159.016 135.194664,159.109332 135.696,159.296 C136.197336,159.482668 136.602665,159.730665 136.912,160.04 L136.48,161 C135.743996,160.402664 134.997337,160.104 134.24,160.104 C133.439996,160.104 132.816002,160.365331 132.368,160.888 C131.919998,161.410669 131.696,162.146662 131.696,163.096 C131.696,164.034671 131.919998,164.759997 132.368,165.272 C132.816002,165.784003 133.439996,166.04 134.24,166.04 C134.997337,166.04 135.743996,165.741336 136.48,165.144 L136.912,166.104 C136.581332,166.413335 136.165336,166.658666 135.664,166.84 C135.162664,167.021334 134.645336,167.112 134.112,167.112 Z M141.648,159.016 C142.640005,159.016 143.378664,159.269331 143.864,159.776 C144.349336,160.282669 144.592,161.053328 144.592,162.088 L144.592,167 L143.328,167 L143.328,165.672 C143.125332,166.130669 142.816002,166.485332 142.4,166.736 C141.983998,166.986668 141.504003,167.112 140.96,167.112 C140.458664,167.112 139.997335,167.010668 139.576,166.808 C139.154665,166.605332 138.821335,166.322668 138.576,165.96 C138.330665,165.597332 138.208,165.197336 138.208,164.76 C138.208,164.17333 138.357332,163.717335 138.656,163.392 C138.954668,163.066665 139.44533,162.832001 140.128,162.688 C140.81067,162.543999 141.759994,162.472 142.976,162.472 L143.328,162.472 L143.328,161.944 C143.328,161.29333 143.194668,160.821335 142.928,160.528 C142.661332,160.234665 142.229336,160.088 141.632,160.088 C140.735996,160.088 139.845338,160.365331 138.96,160.92 L138.528,159.976 C138.933335,159.687999 139.42133,159.456001 139.992,159.28 C140.56267,159.103999 141.114664,159.016 141.648,159.016 Z M141.136,166.088 C141.776003,166.088 142.301331,165.872002 142.712,165.44 C143.122669,165.007998 143.328,164.45067 143.328,163.768 L143.328,163.304 L143.04,163.304 C142.101329,163.304 141.386669,163.344 140.896,163.424 C140.405331,163.504 140.056001,163.637332 139.848,163.824 C139.639999,164.010668 139.536,164.285332 139.536,164.648 C139.536,165.064002 139.687998,165.407999 139.992,165.68 C140.296002,165.952001 140.677331,166.088 141.136,166.088 Z M153.936,159.208 L153.936,166.472 C153.936,167.634672 153.637336,168.511997 153.04,169.104 C152.442664,169.696003 151.557339,169.992 150.384,169.992 C149.01866,169.992 147.872005,169.640004 146.944,168.936 L147.376,167.976 C147.898669,168.317335 148.389331,168.562666 148.848,168.712 C149.306669,168.861334 149.818664,168.936 150.384,168.936 C151.13067,168.936 151.695998,168.736002 152.08,168.336 C152.464002,167.935998 152.656,167.352004 152.656,166.584 L152.656,165.208 C152.431999,165.709336 152.088002,166.093332 151.624,166.36 C151.159998,166.626668 150.613336,166.76 149.984,166.76 C149.30133,166.76 148.696003,166.600002 148.168,166.28 C147.639997,165.959998 147.229335,165.50667 146.936,164.92 C146.642665,164.33333 146.496,163.656004 146.496,162.888 C146.496,162.119996 146.642665,161.44267 146.936,160.856 C147.229335,160.26933 147.639997,159.816002 148.168,159.496 C148.696003,159.175998 149.30133,159.016 149.984,159.016 C150.60267,159.016 151.141331,159.149332 151.6,159.416 C152.058669,159.682668 152.405332,160.061331 152.64,160.552 L152.64,159.208 L153.936,159.208 Z M150.24,165.688 C150.98667,165.688 151.573331,165.440002 152,164.944 C152.426669,164.447998 152.64,163.762671 152.64,162.888 C152.64,162.023996 152.429335,161.344002 152.008,160.848 C151.586665,160.351998 150.997337,160.104 150.24,160.104 C149.482663,160.104 148.888002,160.351998 148.456,160.848 C148.023998,161.344002 147.808,162.023996 147.808,162.888 C147.808,163.762671 148.023998,164.447998 148.456,164.944 C148.888002,165.440002 149.482663,165.688 150.24,165.688 Z M159.568,167.112 C158.831996,167.112 158.184003,166.946668 157.624,166.616 C157.063997,166.285332 156.632002,165.813336 156.328,165.2 C156.023998,164.586664 155.872,163.874671 155.872,163.064 C155.872,162.253329 156.023998,161.541336 156.328,160.928 C156.632002,160.314664 157.063997,159.842668 157.624,159.512 C158.184003,159.181332 158.831996,159.016 159.568,159.016 C160.304004,159.016 160.954664,159.181332 161.52,159.512 C162.085336,159.842668 162.519998,160.314664 162.824,160.928 C163.128002,161.541336 163.28,162.253329 163.28,163.064 C163.28,163.874671 163.128002,164.586664 162.824,165.2 C162.519998,165.813336 162.085336,166.285332 161.52,166.616 C160.954664,166.946668 160.304004,167.112 159.568,167.112 Z M159.568,166.04 C160.336004,166.04 160.925331,165.786669 161.336,165.28 C161.746669,164.773331 161.952,164.034672 161.952,163.064 C161.952,162.114662 161.744002,161.381336 161.328,160.864 C160.911998,160.346664 160.325337,160.088 159.568,160.088 C158.810663,160.088 158.224002,160.346664 157.808,160.864 C157.391998,161.381336 157.184,162.114662 157.184,163.064 C157.184,164.024005 157.389331,164.759997 157.8,165.272 C158.210669,165.784003 158.799996,166.04 159.568,166.04 Z" id="path-2"></path>
        <filter x="-1.3%" y="-5.2%" width="102.7%" height="110.4%" filterUnits="objectBoundingBox" id="filter-3">
            <feOffset dx="0" dy="0.5" in="SourceAlpha" result="shadowOffsetOuter1"></feOffset>
            <feColorMatrix values="0 0 0 0 0   0 0 0 0 0   0 0 0 0 0  0 0 0 1 0" type="matrix" in="shadowOffsetOuter1" result="shadowMatrixOuter1"></feColorMatrix>
            <feOffset dx="0" dy="-0.5" in="SourceAlpha" result="shadowOffsetOuter2"></feOffset>
            <feColorMatrix values="0 0 0 0 0   0 0 0 0 0   0 0 0 0 0  0 0 0 1 0" type="matrix" in="shadowOffsetOuter2" result="shadowMatrixOuter2"></feColorMatrix>
            <feOffset dx="0.5" dy="0" in="SourceAlpha" result="shadowOffsetOuter3"></feOffset>
            <feColorMatrix values="0 0 0 0 0   0 0 0 0 0   0 0 0 0 0  0 0 0 1 0" type="matrix" in="shadowOffsetOuter3" result="shadowMatrixOuter3"></feColorMatrix>
            <feOffset dx="-0.5" dy="0" in="SourceAlpha" result="shadowOffsetOuter4"></feOffset>
            <feColorMatrix values="0 0 0 0 0   0 0 0 0 0   0 0 0 0 0  0 0 0 1 0" type="matrix" in="shadowOffsetOuter4" result="shadowMatrixOuter4"></feColorMatrix>
            <feMerge>
                <feMergeNode in="shadowMatrixOuter1"></feMergeNode>
                <feMergeNode in="shadowMatrixOuter2"></feMergeNode>
                <feMergeNode in="shadowMatrixOuter3"></feMergeNode>
                <feMergeNode in="shadowMatrixOuter4"></feMergeNode>
            </feMerge>
        </filter>
        <path d="M241.808,139.72 L245.6,139.72 C247.402676,139.72 248.797328,140.207995 249.784,141.184 C250.770672,142.160005 251.264,143.549324 251.264,145.352 C251.264,147.154676 250.770672,148.546662 249.784,149.528 C248.797328,150.509338 247.402676,151 245.6,151 L241.808,151 L241.808,139.72 Z M245.52,149.88 C248.442681,149.88 249.904,148.370682 249.904,145.352 C249.904,142.343985 248.442681,140.84 245.52,140.84 L243.12,140.84 L243.12,149.88 L245.52,149.88 Z M259.968,147.304 L254.272,147.304 C254.314667,148.210671 254.559998,148.895998 255.008,149.36 C255.456002,149.824002 256.090663,150.056 256.912,150.056 C257.818671,150.056 258.650663,149.74667 259.408,149.128 L259.84,150.072 C259.498665,150.392002 259.061336,150.645332 258.528,150.832 C257.994664,151.018668 257.450669,151.112 256.896,151.112 C255.679994,151.112 254.72267,150.75467 254.024,150.04 C253.32533,149.32533 252.976,148.338673 252.976,147.08 C252.976,146.279996 253.130665,145.573336 253.44,144.96 C253.749335,144.346664 254.183997,143.869335 254.744,143.528 C255.304003,143.186665 255.94133,143.016 256.656,143.016 C257.690672,143.016 258.50133,143.354663 259.088,144.032 C259.67467,144.709337 259.968,145.639994 259.968,146.824 L259.968,147.304 Z M256.672,144.024 C255.98933,144.024 255.442669,144.237331 255.032,144.664 C254.621331,145.090669 254.378667,145.693329 254.304,146.472 L258.832,146.472 C258.810667,145.682663 258.613335,145.077335 258.24,144.656 C257.866665,144.234665 257.344003,144.024 256.672,144.024 Z M265.248,150.072 C265.482668,150.072 265.717332,150.056 265.952,150.024 L265.888,151.048 C265.642665,151.090667 265.376001,151.112 265.088,151.112 C264.149329,151.112 263.442669,150.866669 262.968,150.376 C262.493331,149.885331 262.256,149.202671 262.256,148.328 L262.256,144.232 L260.736,144.232 L260.736,143.208 L262.256,143.208 L262.256,140.84 L263.552,140.84 L263.552,143.208 L265.76,143.208 L265.76,144.232 L263.552,144.232 L263.552,148.232 C263.552,149.458673 264.117328,150.072 265.248,150.072 Z M271.68,144.136 L270.832,144.216 C270.031996,144.290667 269.453335,144.541331 269.096,144.968 C268.738665,145.394669 268.56,145.922664 268.56,146.552 L268.56,151 L267.264,151 L267.264,143.208 L268.528,143.208 L268.528,144.568 C268.965336,143.661329 269.823994,143.154667 271.104,143.048 L271.568,143.016 L271.68,144.136 Z M275.984,151.112 C275.247996,151.112 274.600003,150.946668 274.04,150.616 C273.479997,150.285332 273.048002,149.813336 272.744,149.2 C272.439998,148.586664 272.288,147.874671 272.288,147.064 C272.288,146.253329 272.439998,145.541336 272.744,144.928 C273.048002,144.314664 273.479997,143.842668 274.04,143.512 C274.600003,143.181332 275.247996,143.016 275.984,143.016 C276.720004,143.016 277.370664,143.181332 277.936,143.512 C278.501336,143.842668 278.935998,144.314664 279.24,144.928 C279.544002,145.541336 279.696,146.253329 279.696,147.064 C279.696,147.874671 279.544002,148.586664 279.24,149.2 C278.935998,149.813336 278.501336,150.285332 277.936,150.616 C277.370664,150.946668 276.720004,151.112 275.984,151.112 Z M275.984,150.04 C276.752004,150.04 277.341331,149.786669 277.752,149.28 C278.162669,148.773331 278.368,148.034672 278.368,147.064 C278.368,146.114662 278.160002,145.381336 277.744,144.864 C277.327998,144.346664 276.741337,144.088 275.984,144.088 C275.226663,144.088 274.640002,144.346664 274.224,144.864 C273.807998,145.381336 273.6,146.114662 273.6,147.064 C273.6,148.024005 273.805331,148.759997 274.216,149.272 C274.626669,149.784003 275.215996,150.04 275.984,150.04 Z M281.632,151 L281.632,143.208 L282.928,143.208 L282.928,151 L281.632,151 Z M281.504,139.832 L283.072,139.832 L283.072,141.288 L281.504,141.288 L281.504,139.832 Z M288.768,150.072 C289.002668,150.072 289.237332,150.056 289.472,150.024 L289.408,151.048 C289.162665,151.090667 288.896001,151.112 288.608,151.112 C287.669329,151.112 286.962669,150.866669 286.488,150.376 C286.013331,149.885331 285.776,149.202671 285.776,148.328 L285.776,144.232 L284.256,144.232 L284.256,143.208 L285.776,143.208 L285.776,140.84 L287.072,140.84 L287.072,143.208 L289.28,143.208 L289.28,144.232 L287.072,144.232 L287.072,148.232 C287.072,149.458673 287.637328,150.072 288.768,150.072 Z" id="path-4"></path>
        <filter x="-1.6%" y="-6.6%" width="103.1%" height="113.2%" filterUnits="objectBoundingBox" id="filter-5">
            <feOffset dx="0" dy="0.5" in="SourceAlpha" result="shadowOffsetOuter1"></feOffset>
            <feColorMatrix values="0 0 0 0 0   0 0 0 0 0   0 0 0 0 0  0 0 0 1 0" type="matrix" in="shadowOffsetOuter1" result="shadowMatrixOuter1"></feColorMatrix>
            <feOffset dx="0" dy="-0.5" in="SourceAlpha" result="shadowOffsetOuter2"></feOffset>
            <feColorMatrix values="0 0 0 0 0   0 0 0 0 0   0 0 0 0 0  0 0 0 1 0" type="matrix" in="shadowOffsetOuter2" result="shadowMatrixOuter2"></feColorMatrix>
            <feOffset dx="0.5" dy="0" in="SourceAlpha" result="shadowOffsetOuter3"></feOffset>
            <feColorMatrix values="0 0 0 0 0   0 0 0 0 0   0 0 0 0 0  0 0 0 1 0" type="matrix" in="shadowOffsetOuter3" result="shadowMatrixOuter3"></feColorMatrix>
            <feOffset dx="-0.5" dy="0" in="SourceAlpha" result="shadowOffsetOuter4"></feOffset>
            <feColorMatrix values="0 0 0 0 0   0 0 0 0 0   0 0 0 0 0  0 0 0 1 0" type="matrix" in="shadowOffsetOuter4" result="shadowMatrixOuter4"></feColorMatrix>
            <feMerge>
                <feMergeNode in="shadowMatrixOuter1"></feMergeNode>
                <feMergeNode in="shadowMatrixOuter2"></feMergeNode>
                <feMergeNode in="shadowMatrixOuter3"></feMergeNode>
                <feMergeNode in="shadowMatrixOuter4"></feMergeNode>
            </feMerge>
        </filter>
    </defs>
    <g id="chicago-detroit" stroke="none" stroke-width="1" fill="none" fill-rule="evenodd">
        <g id="Group" transform="translate(-4.000000, 0.000000)">
            <polygon id="Path-20" fill="#3561D9" points="146.222222 199.096154 137.737374 178.096154 137.737374 156.692308 137.737374 133.269231 137.737374 113.884615 146.222222 100.961538 150.262626 88.8461538 154.707071 78.3461538 154.707071 72.2884615 141.373737 88.8461538 130.868687 96.5192308 146.222222 72.2884615 159.959596 55.3269231 174.10101 55.3269231 198.343434 48.8653846 212.888889 48.8653846 231.474747 48.8653846 231.474747 37.5576923 226.222222 26.25 212.888889 26.25 209.252525 19.7884615 187.030303 19.7884615 167.232323 26.25 146.222222 23.4230769 134.10101 11.7115385 124.40404 11.7115385 130.868687 2.82692308 114.30303 2.82692308 105.818182 7.67307692 79.959596 19.7884615 67.8383838 19.7884615 67.8383838 7.67307692 50.0606061 11.7115385 33.0909091 14.9423077 50.0606061 0 4 0 4 336 404 336 404 133.269231 391.474747 129.634615 378.545455 129.634615 366.828283 133.269231 369.656566 150.230769 359.555556 168 347.030303 173.25 328.444444 184.153846 315.111111 189.403846 295.313131 199.096154 277.535354 205.961538 260.565657 201.923077 251.676768 196.269231 260.565657 184.153846 266.222222 173.25 270.666667 162.346154 277.535354 150.230769 277.535354 138.519231 270.666667 121.961538 260.565657 113.884615 251.676768 117.519231 241.979798 126.403846 236.323232 121.961538 244.808081 106.615385 251.676768 100.961538 251.676768 78.3461538 244.808081 63.4038462 226.222222 55.3269231 209.252525 55.3269231 204 63.4038462 198.343434 78.3461538 187.030303 85.2115385 174.10101 96.5192308 171.272727 117.519231 171.272727 133.269231 174.10101 150.230769 174.10101 168 171.272727 184.153846 159.959596 196.269231"></polygon>
            <path d="M226.222222,55.3269231 L244.808081,63.4038462 L251.676768,78.3461538 L251.676768,100.961538 L244.808081,106.615385 L236.323232,121.961538 L241.979798,126.403846 L251.676768,117.519231 L260.565657,113.884615 L270.666667,121.961538 L277.535354,138.519231 L277.535354,150.230769 L270.666667,162.346154 L266.222222,173.25 L260.565657,184.153846 L251.676768,196.269231 L260.565657,201.923077 L277.535354,205.961538 L295.313131,199.096154 L315.111111,189.403846 L328.444444,184.153846 L347.030303,173.25 L359.555556,168 L369.656566,150.230769 L366.828283,133.269231 L378.545455,129.634615 L391.474747,129.634615 L404,133.269231 L404,336 L130.105,335.999923 L125.5,333.5 L127,328 L143,311 L143,218.5 L160,218.5 L160,196.224923 L171.272727,184.153846 L174.10101,168 L174.10101,150.230769 L171.272727,133.269231 L171.272727,117.519231 L174.10101,96.5192308 L187.030303,85.2115385 L198.343434,78.3461538 L204,63.4038462 L209.252525,55.3269231 L226.222222,55.3269231 Z" id="Combined-Shape" fill="#3AAE93"></path>
            <polyline id="Path-42" stroke="#000000" points="148 192 143.034483 198.845333 143.034483 280.989333 143.034483 291.861333 143.034483 310.786667 126.896552 328.101333 124 343"></polyline>
            <path d="M155,196.5 L260,196.5" id="Path-43" stroke="#000000"></path>
            <polyline id="Path-44" stroke="#000000" points="75 18 84.9491525 30.8028169 119.118644 41.8309859 136.20339 50.4084507 136.20339 57.3521127 139.050847 69.1971831 148 77.5"></polyline>
            <polyline id="Path-45" stroke="#000000" points="38.300578 12 27.7803468 20.4827586 24.9479769 43.1034483 12 52.3940887 12 67.3399015 12 83.0935961 24.9479769 96.4236453 30.6127168 102.078818 45.1791908 115.408867 51.6531792 136.413793 51.6531792 150.955665 62.982659 164.689655 66.2196532 175.192118 71.0751445 192.157635 66.2196532 200.640394 45.1791908 207.91133 45.1791908 219.221675 41.5375723 237.802956 38.300578 248.70936 45.1791908 268.098522 51.6531792 280.216749 56.5086705 291.931034 66.2196532 296.374384 66.2196532 311.724138 66.2196532 321.014778 82 340"></polyline>
            <polyline id="Path-46" stroke="#000000" points="0 229 29.1473684 232.6 39 243.8 39 249"></polyline>
            <polyline id="Path-47" stroke="#000000" points="216 196 216 288.629213 209.6 304.404494 195.6 308.449438 192 325.438202 185.6 335.955056 182 340"></polyline>
            <polyline id="Path-48" stroke="#000000" points="217 288 228.698864 294.153846 243.221591 301.538462 255.727273 304.410256 266.215909 304.410256 272.670455 308.512821 279.931818 313.025641 279.931818 321.641026 284.369318 333.128205 288 336"></polyline>
            <polyline id="Path-49" stroke="#000000" points="328.909091 176 333 234.829412 328.909091 245.708824 326.045455 267.870588 312.954545 277.138235 303.954545 288.420588 292.909091 299.3 287.181818 308.164706 279 313"></polyline>
            <polyline id="Path-50" stroke="#000000" points="349 168 349 183 407 178.945946"></polyline>
            <polyline id="Path-51" stroke="#000000" points="333 235 335 265 414 259.246575"></polyline>
            <polyline id="Path-52" stroke="#000000" points="346 336 353.760563 325.057895 361.929577 303.578947 368.464789 308.036842 378.267606 293.852632 394.197183 273.994737 394.197183 267.915789 404 260"></polyline>
            <path d="M63,165 L141,168" id="Path-53" stroke="#000000"></path>
        </g>
        <rect id="Rectangle-Copy-🌈ease-in;lrgb;12" fill="url(#linearGradient-1)" x="0" y="130" width="400" height="200"></rect>
        <circle id="Oval-Copy-7" stroke="#000000" stroke-width="2" fill="#FFFFFF" cx="135" cy="182" r="5"></circle>
        <circle id="Oval-Copy-8" stroke="#000000" stroke-width="2" fill="#FFFFFF" cx="265" cy="166" r="5"></circle>
        <g id="Chicago" fill-rule="nonzero">
            <use fill="black" fill-opacity="1" filter="url(#filter-3)" xlink:href="#path-2"></use>
            <use fill="#FFFFFF" xlink:href="#path-2"></use>
        </g>
        <g id="Detroit" fill-rule="nonzero">
            <use fill="black" fill-opacity="1" filter="url(#filter-5)" xlink:href="#path-4"></use>
            <use fill="#FFFFFF" xlink:href="#path-4"></use>
        </g>
        <path d="M350.87,53 L350.87,45.95 L355.33,45.95 L355.33,46.63 L351.68,46.63 L351.68,49.08 L355.13,49.08 L355.13,49.76 L351.68,49.76 L351.68,52.32 L355.33,52.32 L355.33,53 L350.87,53 Z M358.55,48.01 C359.170003,48.01 359.631665,48.1683318 359.935,48.485 C360.238335,48.8016682 360.39,49.2833301 360.39,49.93 L360.39,53 L359.6,53 L359.6,52.17 C359.473333,52.4566681 359.280001,52.6783326 359.02,52.835 C358.759999,52.9916675 358.460002,53.07 358.12,53.07 C357.806665,53.07 357.518335,53.0066673 357.255,52.88 C356.991665,52.7533327 356.783334,52.5766678 356.63,52.35 C356.476666,52.1233322 356.4,51.8733347 356.4,51.6 C356.4,51.2333315 356.493332,50.9483344 356.68,50.745 C356.866668,50.5416656 357.173331,50.3950004 357.6,50.305 C358.026669,50.2149996 358.619996,50.17 359.38,50.17 L359.6,50.17 L359.6,49.84 C359.6,49.4333313 359.516667,49.1383342 359.35,48.955 C359.183333,48.7716657 358.913335,48.68 358.54,48.68 C357.979997,48.68 357.423336,48.8533316 356.87,49.2 L356.6,48.61 C356.853335,48.4299991 357.158332,48.2850005 357.515,48.175 C357.871668,48.0649995 358.216665,48.01 358.55,48.01 Z M358.23,52.43 C358.630002,52.43 358.958332,52.2950013 359.215,52.025 C359.471668,51.7549987 359.6,51.4066688 359.6,50.98 L359.6,50.69 L359.42,50.69 C358.83333,50.69 358.386668,50.7149997 358.08,50.765 C357.773332,50.8150002 357.555001,50.8983328 357.425,51.015 C357.294999,51.1316672 357.23,51.3033322 357.23,51.53 C357.23,51.7900013 357.324999,52.0049992 357.515,52.175 C357.705001,52.3450008 357.943332,52.43 358.23,52.43 Z M363.52,53.07 C362.699996,53.07 362.050002,52.8600021 361.57,52.44 L361.84,51.84 C362.100001,52.0466677 362.364999,52.1949995 362.635,52.285 C362.905001,52.3750005 363.209998,52.42 363.55,52.42 C363.910002,52.42 364.184999,52.358334 364.375,52.235 C364.565001,52.111666 364.66,51.9333345 364.66,51.7 C364.66,51.5066657 364.596667,51.3533339 364.47,51.24 C364.343333,51.1266661 364.133335,51.036667 363.84,50.97 L363.02,50.78 C362.606665,50.6866662 362.290001,50.5266678 362.07,50.3 C361.849999,50.0733322 361.74,49.793335 361.74,49.46 C361.74,49.0266645 361.909998,48.676668 362.25,48.41 C362.590002,48.143332 363.043331,48.01 363.61,48.01 C363.950002,48.01 364.273332,48.0649995 364.58,48.175 C364.886668,48.2850005 365.143332,48.4433323 365.35,48.65 L365.08,49.24 C364.633331,48.8599981 364.143336,48.67 363.61,48.67 C363.269998,48.67 363.005001,48.7349994 362.815,48.865 C362.624999,48.9950006 362.53,49.1766655 362.53,49.41 C362.53,49.6033343 362.588333,49.7583328 362.705,49.875 C362.821667,49.9916672 363.009999,50.0799997 363.27,50.14 L364.1,50.34 C364.553336,50.4466672 364.889999,50.6083323 365.11,50.825 C365.330001,51.0416678 365.44,51.3233316 365.44,51.67 C365.44,52.0966688 365.268335,52.4366654 364.925,52.69 C364.581665,52.9433346 364.113336,53.07 363.52,53.07 Z M368.76,52.42 C368.906667,52.42 369.053333,52.4100001 369.2,52.39 L369.16,53.03 C369.006666,53.0566668 368.840001,53.07 368.66,53.07 C368.07333,53.07 367.631668,52.9166682 367.335,52.61 C367.038332,52.3033318 366.89,51.8766694 366.89,51.33 L366.89,48.77 L365.94,48.77 L365.94,48.13 L366.89,48.13 L366.89,46.65 L367.7,46.65 L367.7,48.13 L369.08,48.13 L369.08,48.77 L367.7,48.77 L367.7,51.27 C367.7,52.0366705 368.05333,52.42 368.76,52.42 Z M374.1,50.69 L370.54,50.69 C370.566667,51.2566695 370.719999,51.6849986 371,51.975 C371.280001,52.2650014 371.676664,52.41 372.19,52.41 C372.756669,52.41 373.276664,52.2166686 373.75,51.83 L374.02,52.42 C373.806666,52.620001 373.533335,52.7783327 373.2,52.895 C372.866665,53.0116673 372.526668,53.07 372.18,53.07 C371.419996,53.07 370.821669,52.8466689 370.385,52.4 C369.948331,51.9533311 369.73,51.3366706 369.73,50.55 C369.73,50.0499975 369.826666,49.6083353 370.02,49.225 C370.213334,48.8416647 370.484998,48.5433344 370.835,48.33 C371.185002,48.1166656 371.583331,48.01 372.03,48.01 C372.67667,48.01 373.183332,48.2216645 373.55,48.645 C373.916669,49.0683354 374.1,49.6499963 374.1,50.39 L374.1,50.69 Z M372.04,48.64 C371.613331,48.64 371.271668,48.773332 371.015,49.04 C370.758332,49.306668 370.606667,49.6833309 370.56,50.17 L373.39,50.17 C373.376667,49.6766642 373.253334,49.2983347 373.02,49.035 C372.786666,48.7716653 372.460002,48.64 372.04,48.64 Z M378.05,48.71 L377.52,48.76 C377.019997,48.8066669 376.658334,48.963332 376.435,49.23 C376.211666,49.496668 376.1,49.8266647 376.1,50.22 L376.1,53 L375.29,53 L375.29,48.13 L376.08,48.13 L376.08,48.98 C376.353335,48.4133305 376.889996,48.096667 377.69,48.03 L377.98,48.01 L378.05,48.71 Z M381.27,48.01 C382.436672,48.01 383.02,48.6533269 383.02,49.94 L383.02,53 L382.21,53 L382.21,49.99 C382.21,49.5366644 382.121668,49.2066677 381.945,49 C381.768332,48.7933323 381.486669,48.69 381.1,48.69 C380.653331,48.69 380.296668,48.8266653 380.03,49.1 C379.763332,49.3733347 379.63,49.743331 379.63,50.21 L379.63,53 L378.82,53 L378.82,48.13 L379.62,48.13 L379.62,48.93 C379.780001,48.6299985 380.003332,48.4016675 380.29,48.245 C380.576668,48.0883326 380.903331,48.01 381.27,48.01 Z M353.11,65.08 C352.009995,65.08 351.130003,64.7833363 350.47,64.19 L350.79,63.56 C351.136668,63.8533348 351.491665,64.0633327 351.855,64.19 C352.218335,64.3166673 352.639998,64.38 353.12,64.38 C353.686669,64.38 354.123332,64.2700011 354.43,64.05 C354.736668,63.8299989 354.89,63.520002 354.89,63.12 C354.89,62.8866655 354.816667,62.6966674 354.67,62.55 C354.523333,62.4033326 354.330001,62.2866671 354.09,62.2 C353.849999,62.1133329 353.526669,62.0233338 353.12,61.93 C352.573331,61.8033327 352.125002,61.6700007 351.775,61.53 C351.424998,61.3899993 351.141668,61.1900013 350.925,60.93 C350.708332,60.6699987 350.6,60.3300021 350.6,59.91 C350.6,59.509998 350.704999,59.1550015 350.915,58.845 C351.125001,58.5349985 351.424998,58.2950009 351.815,58.125 C352.205002,57.9549991 352.656664,57.87 353.17,57.87 C353.656669,57.87 354.111665,57.9466659 354.535,58.1 C354.958335,58.2533341 355.316665,58.4733319 355.61,58.76 L355.3,59.39 C354.966665,59.1033319 354.628335,58.8950007 354.285,58.765 C353.941665,58.6349994 353.570002,58.57 353.17,58.57 C352.623331,58.57 352.195002,58.6849988 351.885,58.915 C351.574998,59.1450011 351.42,59.4666646 351.42,59.88 C351.42,60.2333351 351.556665,60.4999991 351.83,60.68 C352.103335,60.8600009 352.516664,61.0133327 353.07,61.14 C353.67667,61.2866674 354.153332,61.421666 354.5,61.545 C354.846668,61.668334 355.134999,61.8533321 355.365,62.1 C355.595001,62.3466679 355.71,62.6766646 355.71,63.09 C355.71,63.490002 355.605001,63.8399985 355.395,64.14 C355.184999,64.4400015 354.883335,64.6716658 354.49,64.835 C354.096665,64.9983342 353.636669,65.08 353.11,65.08 Z M359.03,64.42 C359.176667,64.42 359.323333,64.4100001 359.47,64.39 L359.43,65.03 C359.276666,65.0566668 359.110001,65.07 358.93,65.07 C358.34333,65.07 357.901668,64.9166682 357.605,64.61 C357.308332,64.3033318 357.16,63.8766694 357.16,63.33 L357.16,60.77 L356.21,60.77 L356.21,60.13 L357.16,60.13 L357.16,58.65 L357.97,58.65 L357.97,60.13 L359.35,60.13 L359.35,60.77 L357.97,60.77 L357.97,63.27 C357.97,64.0366705 358.32333,64.42 359.03,64.42 Z M362.27,60.01 C362.890003,60.01 363.351665,60.1683318 363.655,60.485 C363.958335,60.8016682 364.11,61.2833301 364.11,61.93 L364.11,65 L363.32,65 L363.32,64.17 C363.193333,64.4566681 363.000001,64.6783325 362.74,64.835 C362.479999,64.9916674 362.180002,65.07 361.84,65.07 C361.526665,65.07 361.238335,65.0066673 360.975,64.88 C360.711665,64.7533327 360.503334,64.5766678 360.35,64.35 C360.196666,64.1233322 360.12,63.8733347 360.12,63.6 C360.12,63.2333315 360.213332,62.9483344 360.4,62.745 C360.586668,62.5416656 360.893331,62.3950004 361.32,62.305 C361.746669,62.2149996 362.339996,62.17 363.1,62.17 L363.32,62.17 L363.32,61.84 C363.32,61.4333313 363.236668,61.1383342 363.07,60.955 C362.903332,60.7716657 362.633335,60.68 362.26,60.68 C361.699997,60.68 361.143336,60.8533316 360.59,61.2 L360.32,60.61 C360.573335,60.4299991 360.878332,60.2850005 361.235,60.175 C361.591668,60.0649995 361.936665,60.01 362.27,60.01 Z M361.95,64.43 C362.350002,64.43 362.678332,64.2950014 362.935,64.025 C363.191668,63.7549987 363.32,63.4066688 363.32,62.98 L363.32,62.69 L363.14,62.69 C362.55333,62.69 362.106668,62.7149998 361.8,62.765 C361.493332,62.8150002 361.275001,62.8983328 361.145,63.015 C361.014999,63.1316672 360.95,63.3033322 360.95,63.53 C360.95,63.7900013 361.044999,64.0049992 361.235,64.175 C361.425001,64.3450008 361.663332,64.43 361.95,64.43 Z M368.04,60.01 C369.206673,60.01 369.79,60.6533269 369.79,61.94 L369.79,65 L368.98,65 L368.98,61.99 C368.98,61.5366644 368.891668,61.2066677 368.715,61 C368.538332,60.7933323 368.256669,60.69 367.87,60.69 C367.423331,60.69 367.066668,60.8266653 366.8,61.1 C366.533332,61.3733347 366.4,61.743331 366.4,62.21 L366.4,65 L365.59,65 L365.59,60.13 L366.39,60.13 L366.39,60.93 C366.550001,60.6299985 366.773332,60.4016675 367.06,60.245 C367.346668,60.0883326 367.673332,60.01 368.04,60.01 Z M375.59,57.95 L375.59,65 L374.78,65 L374.78,64.11 C374.633333,64.4166682 374.418335,64.6533325 374.135,64.82 C373.851665,64.9866675 373.520002,65.07 373.14,65.07 C372.713331,65.07 372.336668,64.9633344 372.01,64.75 C371.683332,64.5366656 371.430001,64.2383353 371.25,63.855 C371.069999,63.4716648 370.98,63.0266692 370.98,62.52 C370.98,62.0199975 371.069999,61.5800019 371.25,61.2 C371.430001,60.8199981 371.683332,60.5266677 372.01,60.32 C372.336668,60.1133323 372.713331,60.01 373.14,60.01 C373.520002,60.01 373.851665,60.0933325 374.135,60.26 C374.418335,60.4266675 374.633333,60.6633318 374.78,60.97 L374.78,57.95 L375.59,57.95 Z M373.3,64.4 C373.773336,64.4 374.138332,64.2383349 374.395,63.915 C374.651668,63.5916651 374.78,63.1333363 374.78,62.54 C374.78,61.9466637 374.651668,61.4900016 374.395,61.17 C374.138332,60.8499984 373.773336,60.69 373.3,60.69 C372.826664,60.69 372.458335,60.8499984 372.195,61.17 C371.931665,61.4900016 371.8,61.9399971 371.8,62.52 C371.8,63.1133363 371.931665,63.5749984 372.195,63.905 C372.458335,64.2350017 372.826664,64.4 373.3,64.4 Z M379.07,60.01 C379.690003,60.01 380.151665,60.1683318 380.455,60.485 C380.758335,60.8016682 380.91,61.2833301 380.91,61.93 L380.91,65 L380.12,65 L380.12,64.17 C379.993333,64.4566681 379.800001,64.6783325 379.54,64.835 C379.279999,64.9916674 378.980002,65.07 378.64,65.07 C378.326665,65.07 378.038335,65.0066673 377.775,64.88 C377.511665,64.7533327 377.303334,64.5766678 377.15,64.35 C376.996666,64.1233322 376.92,63.8733347 376.92,63.6 C376.92,63.2333315 377.013332,62.9483344 377.2,62.745 C377.386668,62.5416656 377.693331,62.3950004 378.12,62.305 C378.546669,62.2149996 379.139996,62.17 379.9,62.17 L380.12,62.17 L380.12,61.84 C380.12,61.4333313 380.036668,61.1383342 379.87,60.955 C379.703332,60.7716657 379.433335,60.68 379.06,60.68 C378.499997,60.68 377.943336,60.8533316 377.39,61.2 L377.12,60.61 C377.373335,60.4299991 377.678332,60.2850005 378.035,60.175 C378.391668,60.0649995 378.736665,60.01 379.07,60.01 Z M378.75,64.43 C379.150002,64.43 379.478332,64.2950014 379.735,64.025 C379.991668,63.7549987 380.12,63.4066688 380.12,62.98 L380.12,62.69 L379.94,62.69 C379.35333,62.69 378.906668,62.7149998 378.6,62.765 C378.293332,62.8150002 378.075001,62.8983328 377.945,63.015 C377.814999,63.1316672 377.75,63.3033322 377.75,63.53 C377.75,63.7900013 377.844999,64.0049992 378.035,64.175 C378.225001,64.3450008 378.463332,64.43 378.75,64.43 Z M385.15,60.71 L384.62,60.76 C384.119998,60.8066669 383.758334,60.963332 383.535,61.23 C383.311666,61.496668 383.2,61.8266647 383.2,62.22 L383.2,65 L382.39,65 L382.39,60.13 L383.18,60.13 L383.18,60.98 C383.453335,60.4133305 383.989996,60.096667 384.79,60.03 L385.08,60.01 L385.15,60.71 Z M390.14,57.95 L390.14,65 L389.33,65 L389.33,64.11 C389.183333,64.4166682 388.968335,64.6533325 388.685,64.82 C388.401665,64.9866675 388.070002,65.07 387.69,65.07 C387.263331,65.07 386.886668,64.9633344 386.56,64.75 C386.233332,64.5366656 385.980001,64.2383353 385.8,63.855 C385.619999,63.4716648 385.53,63.0266692 385.53,62.52 C385.53,62.0199975 385.619999,61.5800019 385.8,61.2 C385.980001,60.8199981 386.233332,60.5266677 386.56,60.32 C386.886668,60.1133323 387.263331,60.01 387.69,60.01 C388.070002,60.01 388.401665,60.0933325 388.685,60.26 C388.968335,60.4266675 389.183333,60.6633318 389.33,60.97 L389.33,57.95 L390.14,57.95 Z M387.85,64.4 C388.323336,64.4 388.688332,64.2383349 388.945,63.915 C389.201668,63.5916651 389.33,63.1333363 389.33,62.54 C389.33,61.9466637 389.201668,61.4900016 388.945,61.17 C388.688332,60.8499984 388.323336,60.69 387.85,60.69 C387.376664,60.69 387.008335,60.8499984 386.745,61.17 C386.481665,61.4900016 386.35,61.9399971 386.35,62.52 C386.35,63.1133363 386.481665,63.5749984 386.745,63.905 C387.008335,64.2350017 387.376664,64.4 387.85,64.4 Z M352.57,77 L352.57,70.65 L350.12,70.65 L350.12,69.95 L355.86,69.95 L355.86,70.65 L353.4,70.65 L353.4,77 L352.57,77 Z M356.73,77 L356.73,72.13 L357.54,72.13 L357.54,77 L356.73,77 Z M356.65,70.02 L357.63,70.02 L357.63,70.93 L356.65,70.93 L356.65,70.02 Z M364.47,72.01 C365.55,72.01 366.09,72.6533269 366.09,73.94 L366.09,77 L365.28,77 L365.28,73.98 C365.28,73.5333311 365.201667,73.2066677 365.045,73 C364.888333,72.7933323 364.636668,72.69 364.29,72.69 C363.883331,72.69 363.563334,72.8266653 363.33,73.1 C363.096665,73.3733347 362.98,73.7466643 362.98,74.22 L362.98,77 L362.17,77 L362.17,73.98 C362.17,73.5266644 362.090001,73.1983343 361.93,72.995 C361.769999,72.7916656 361.516668,72.69 361.17,72.69 C360.763331,72.69 360.443334,72.8266653 360.21,73.1 C359.976666,73.3733347 359.86,73.7466643 359.86,74.22 L359.86,77 L359.05,77 L359.05,72.13 L359.85,72.13 L359.85,72.9 C359.996667,72.6133319 360.199999,72.3933341 360.46,72.24 C360.720001,72.0866659 361.019998,72.01 361.36,72.01 C362.113337,72.01 362.609999,72.3299968 362.85,72.97 C362.990001,72.6699985 363.203332,72.4350008 363.49,72.265 C363.776668,72.0949992 364.103332,72.01 364.47,72.01 Z M371.65,74.69 L368.09,74.69 C368.116667,75.2566695 368.269999,75.6849986 368.55,75.975 C368.830001,76.2650014 369.226664,76.41 369.74,76.41 C370.306669,76.41 370.826664,76.2166686 371.3,75.83 L371.57,76.42 C371.356666,76.620001 371.083335,76.7783328 370.75,76.895 C370.416665,77.0116673 370.076668,77.07 369.73,77.07 C368.969996,77.07 368.371669,76.8466689 367.935,76.4 C367.498331,75.9533311 367.28,75.3366706 367.28,74.55 C367.28,74.0499975 367.376666,73.6083352 367.57,73.225 C367.763334,72.8416648 368.034998,72.5433344 368.385,72.33 C368.735002,72.1166656 369.133331,72.01 369.58,72.01 C370.22667,72.01 370.733332,72.2216645 371.1,72.645 C371.466669,73.0683355 371.65,73.6499963 371.65,74.39 L371.65,74.69 Z M369.59,72.64 C369.163331,72.64 368.821668,72.773332 368.565,73.04 C368.308332,73.306668 368.156667,73.6833309 368.11,74.17 L370.94,74.17 C370.926667,73.6766642 370.803335,73.2983347 370.57,73.035 C370.336665,72.7716654 370.010002,72.64 369.59,72.64 Z" id="EasternStandardTime" fill="#FFFFFF" fill-rule="nonzero" opacity="0.5"></path>
        <path d="M261.88,32.08 C261.21333,32.08 260.633336,31.9350014 260.14,31.645 C259.646664,31.3549986 259.268335,30.9383361 259.005,30.395 C258.741665,29.8516639 258.61,29.2100037 258.61,28.47 C258.61,27.7299963 258.741665,27.0900027 259.005,26.55 C259.268335,26.0099973 259.646664,25.5950014 260.14,25.305 C260.633336,25.0149985 261.21333,24.87 261.88,24.87 C262.366669,24.87 262.813331,24.9449992 263.22,25.095 C263.626669,25.2450008 263.979999,25.4666652 264.28,25.76 L263.97,26.39 C263.629998,26.1033319 263.296668,25.8966673 262.97,25.77 C262.643332,25.6433327 262.283335,25.58 261.89,25.58 C261.116663,25.58 260.518335,25.8316642 260.095,26.335 C259.671665,26.8383358 259.46,27.5499954 259.46,28.47 C259.46,29.3966713 259.671665,30.1116641 260.095,30.615 C260.518335,31.1183359 261.116663,31.37 261.89,31.37 C262.283335,31.37 262.643332,31.3066673 262.97,31.18 C263.296668,31.0533327 263.629998,30.8466681 263.97,30.56 L264.28,31.19 C263.979999,31.4833348 263.626669,31.7049993 263.22,31.855 C262.813331,32.0050008 262.366669,32.08 261.88,32.08 Z M269.5,29.69 L265.94,29.69 C265.966667,30.2566695 266.119999,30.6849985 266.4,30.975 C266.680001,31.2650014 267.076664,31.41 267.59,31.41 C268.15667,31.41 268.676664,31.2166686 269.15,30.83 L269.42,31.42 C269.206666,31.620001 268.933335,31.7783327 268.6,31.895 C268.266665,32.0116673 267.926668,32.07 267.58,32.07 C266.819996,32.07 266.221669,31.8466689 265.785,31.4 C265.348331,30.9533311 265.13,30.3366706 265.13,29.55 C265.13,29.0499975 265.226666,28.6083353 265.42,28.225 C265.613334,27.8416647 265.884998,27.5433344 266.235,27.33 C266.585002,27.1166656 266.983331,27.01 267.43,27.01 C268.07667,27.01 268.583331,27.2216645 268.95,27.645 C269.316668,28.0683354 269.5,28.6499963 269.5,29.39 L269.5,29.69 Z M267.44,27.64 C267.013331,27.64 266.671668,27.773332 266.415,28.04 C266.158332,28.306668 266.006667,28.6833309 265.96,29.17 L268.79,29.17 C268.776667,28.6766642 268.653335,28.2983347 268.42,28.035 C268.186666,27.7716653 267.860002,27.64 267.44,27.64 Z M273.14,27.01 C274.306672,27.01 274.89,27.6533269 274.89,28.94 L274.89,32 L274.08,32 L274.08,28.99 C274.08,28.5366644 273.991668,28.2066677 273.815,28 C273.638332,27.7933323 273.356669,27.69 272.97,27.69 C272.523331,27.69 272.166668,27.8266653 271.9,28.1 C271.633332,28.3733347 271.5,28.743331 271.5,29.21 L271.5,32 L270.69,32 L270.69,27.13 L271.49,27.13 L271.49,27.93 C271.650001,27.6299985 271.873332,27.4016675 272.16,27.245 C272.446668,27.0883326 272.773331,27.01 273.14,27.01 Z M278.51,31.42 C278.656667,31.42 278.803333,31.4100001 278.95,31.39 L278.91,32.03 C278.756666,32.0566668 278.590001,32.07 278.41,32.07 C277.82333,32.07 277.381668,31.9166682 277.085,31.61 C276.788332,31.3033318 276.64,30.8766694 276.64,30.33 L276.64,27.77 L275.69,27.77 L275.69,27.13 L276.64,27.13 L276.64,25.65 L277.45,25.65 L277.45,27.13 L278.83,27.13 L278.83,27.77 L277.45,27.77 L277.45,30.27 C277.45,31.0366705 277.80333,31.42 278.51,31.42 Z M282.53,27.71 L282,27.76 C281.499998,27.8066669 281.138334,27.963332 280.915,28.23 C280.691666,28.496668 280.58,28.8266647 280.58,29.22 L280.58,32 L279.77,32 L279.77,27.13 L280.56,27.13 L280.56,27.98 C280.833335,27.4133305 281.369996,27.096667 282.17,27.03 L282.46,27.01 L282.53,27.71 Z M285.24,27.01 C285.860003,27.01 286.321665,27.1683318 286.625,27.485 C286.928335,27.8016682 287.08,28.2833301 287.08,28.93 L287.08,32 L286.29,32 L286.29,31.17 C286.163333,31.4566681 285.970001,31.6783326 285.71,31.835 C285.449999,31.9916675 285.150002,32.07 284.81,32.07 C284.496665,32.07 284.208335,32.0066673 283.945,31.88 C283.681665,31.7533327 283.473334,31.5766678 283.32,31.35 C283.166666,31.1233322 283.09,30.8733347 283.09,30.6 C283.09,30.2333315 283.183332,29.9483344 283.37,29.745 C283.556668,29.5416656 283.863331,29.3950004 284.29,29.305 C284.716669,29.2149996 285.309996,29.17 286.07,29.17 L286.29,29.17 L286.29,28.84 C286.29,28.4333313 286.206667,28.1383342 286.04,27.955 C285.873333,27.7716657 285.603335,27.68 285.23,27.68 C284.669997,27.68 284.113336,27.8533316 283.56,28.2 L283.29,27.61 C283.543335,27.4299991 283.848332,27.2850005 284.205,27.175 C284.561668,27.0649995 284.906665,27.01 285.24,27.01 Z M284.92,31.43 C285.320002,31.43 285.648332,31.2950013 285.905,31.025 C286.161668,30.7549987 286.29,30.4066688 286.29,29.98 L286.29,29.69 L286.11,29.69 C285.52333,29.69 285.076668,29.7149997 284.77,29.765 C284.463332,29.8150002 284.245001,29.8983328 284.115,30.015 C283.984999,30.1316672 283.92,30.3033322 283.92,30.53 C283.92,30.7900013 284.014999,31.0049992 284.205,31.175 C284.395001,31.3450008 284.633332,31.43 284.92,31.43 Z M288.56,32 L288.56,24.95 L289.37,24.95 L289.37,32 L288.56,32 Z M261.11,44.08 C260.009995,44.08 259.130003,43.7833363 258.47,43.19 L258.79,42.56 C259.136668,42.8533348 259.491665,43.0633327 259.855,43.19 C260.218335,43.3166673 260.639998,43.38 261.12,43.38 C261.686669,43.38 262.123332,43.2700011 262.43,43.05 C262.736668,42.8299989 262.89,42.520002 262.89,42.12 C262.89,41.8866655 262.816667,41.6966674 262.67,41.55 C262.523333,41.4033326 262.330001,41.2866671 262.09,41.2 C261.849999,41.1133329 261.526669,41.0233338 261.12,40.93 C260.573331,40.8033327 260.125002,40.6700007 259.775,40.53 C259.424998,40.3899993 259.141668,40.1900013 258.925,39.93 C258.708332,39.6699987 258.6,39.3300021 258.6,38.91 C258.6,38.509998 258.704999,38.1550015 258.915,37.845 C259.125001,37.5349985 259.424998,37.2950009 259.815,37.125 C260.205002,36.9549991 260.656664,36.87 261.17,36.87 C261.656669,36.87 262.111665,36.9466659 262.535,37.1 C262.958335,37.2533341 263.316665,37.4733319 263.61,37.76 L263.3,38.39 C262.966665,38.1033319 262.628335,37.8950007 262.285,37.765 C261.941665,37.6349994 261.570002,37.57 261.17,37.57 C260.623331,37.57 260.195002,37.6849988 259.885,37.915 C259.574998,38.1450011 259.42,38.4666646 259.42,38.88 C259.42,39.2333351 259.556665,39.4999991 259.83,39.68 C260.103335,39.8600009 260.516664,40.0133327 261.07,40.14 C261.67667,40.2866674 262.153332,40.421666 262.5,40.545 C262.846668,40.668334 263.134999,40.8533321 263.365,41.1 C263.595001,41.3466679 263.71,41.6766646 263.71,42.09 C263.71,42.490002 263.605001,42.8399985 263.395,43.14 C263.184999,43.4400015 262.883335,43.6716658 262.49,43.835 C262.096665,43.9983342 261.636669,44.08 261.11,44.08 Z M267.03,43.42 C267.176667,43.42 267.323333,43.4100001 267.47,43.39 L267.43,44.03 C267.276666,44.0566668 267.110001,44.07 266.93,44.07 C266.34333,44.07 265.901668,43.9166682 265.605,43.61 C265.308332,43.3033318 265.16,42.8766694 265.16,42.33 L265.16,39.77 L264.21,39.77 L264.21,39.13 L265.16,39.13 L265.16,37.65 L265.97,37.65 L265.97,39.13 L267.35,39.13 L267.35,39.77 L265.97,39.77 L265.97,42.27 C265.97,43.0366705 266.32333,43.42 267.03,43.42 Z M270.27,39.01 C270.890003,39.01 271.351665,39.1683318 271.655,39.485 C271.958335,39.8016682 272.11,40.2833301 272.11,40.93 L272.11,44 L271.32,44 L271.32,43.17 C271.193333,43.4566681 271.000001,43.6783326 270.74,43.835 C270.479999,43.9916675 270.180002,44.07 269.84,44.07 C269.526665,44.07 269.238335,44.0066673 268.975,43.88 C268.711665,43.7533327 268.503334,43.5766678 268.35,43.35 C268.196666,43.1233322 268.12,42.8733347 268.12,42.6 C268.12,42.2333315 268.213332,41.9483344 268.4,41.745 C268.586668,41.5416656 268.893331,41.3950004 269.32,41.305 C269.746669,41.2149996 270.339996,41.17 271.1,41.17 L271.32,41.17 L271.32,40.84 C271.32,40.4333313 271.236668,40.1383342 271.07,39.955 C270.903332,39.7716657 270.633335,39.68 270.26,39.68 C269.699997,39.68 269.143336,39.8533316 268.59,40.2 L268.32,39.61 C268.573335,39.4299991 268.878332,39.2850005 269.235,39.175 C269.591668,39.0649995 269.936665,39.01 270.27,39.01 Z M269.95,43.43 C270.350002,43.43 270.678332,43.2950013 270.935,43.025 C271.191668,42.7549987 271.32,42.4066688 271.32,41.98 L271.32,41.69 L271.14,41.69 C270.55333,41.69 270.106668,41.7149998 269.8,41.765 C269.493332,41.8150002 269.275001,41.8983328 269.145,42.015 C269.014999,42.1316672 268.95,42.3033322 268.95,42.53 C268.95,42.7900013 269.044999,43.0049992 269.235,43.175 C269.425001,43.3450008 269.663332,43.43 269.95,43.43 Z M276.04,39.01 C277.206673,39.01 277.79,39.6533269 277.79,40.94 L277.79,44 L276.98,44 L276.98,40.99 C276.98,40.5366644 276.891668,40.2066677 276.715,40 C276.538332,39.7933323 276.256669,39.69 275.87,39.69 C275.423331,39.69 275.066668,39.8266653 274.8,40.1 C274.533332,40.3733347 274.4,40.743331 274.4,41.21 L274.4,44 L273.59,44 L273.59,39.13 L274.39,39.13 L274.39,39.93 C274.550001,39.6299985 274.773332,39.4016675 275.06,39.245 C275.346668,39.0883326 275.673332,39.01 276.04,39.01 Z M283.59,36.95 L283.59,44 L282.78,44 L282.78,43.11 C282.633333,43.4166682 282.418335,43.6533325 282.135,43.82 C281.851665,43.9866675 281.520002,44.07 281.14,44.07 C280.713331,44.07 280.336668,43.9633344 280.01,43.75 C279.683332,43.5366656 279.430001,43.2383352 279.25,42.855 C279.069999,42.4716648 278.98,42.0266692 278.98,41.52 C278.98,41.0199975 279.069999,40.5800019 279.25,40.2 C279.430001,39.8199981 279.683332,39.5266677 280.01,39.32 C280.336668,39.1133323 280.713331,39.01 281.14,39.01 C281.520002,39.01 281.851665,39.0933325 282.135,39.26 C282.418335,39.4266675 282.633333,39.6633318 282.78,39.97 L282.78,36.95 L283.59,36.95 Z M281.3,43.4 C281.773336,43.4 282.138332,43.238335 282.395,42.915 C282.651668,42.5916651 282.78,42.1333363 282.78,41.54 C282.78,40.9466637 282.651668,40.4900016 282.395,40.17 C282.138332,39.8499984 281.773336,39.69 281.3,39.69 C280.826664,39.69 280.458335,39.8499984 280.195,40.17 C279.931665,40.4900016 279.8,40.9399971 279.8,41.52 C279.8,42.1133363 279.931665,42.5749984 280.195,42.905 C280.458335,43.2350017 280.826664,43.4 281.3,43.4 Z M287.07,39.01 C287.690003,39.01 288.151665,39.1683318 288.455,39.485 C288.758335,39.8016682 288.91,40.2833301 288.91,40.93 L288.91,44 L288.12,44 L288.12,43.17 C287.993333,43.4566681 287.800001,43.6783326 287.54,43.835 C287.279999,43.9916675 286.980002,44.07 286.64,44.07 C286.326665,44.07 286.038335,44.0066673 285.775,43.88 C285.511665,43.7533327 285.303334,43.5766678 285.15,43.35 C284.996666,43.1233322 284.92,42.8733347 284.92,42.6 C284.92,42.2333315 285.013332,41.9483344 285.2,41.745 C285.386668,41.5416656 285.693331,41.3950004 286.12,41.305 C286.546669,41.2149996 287.139996,41.17 287.9,41.17 L288.12,41.17 L288.12,40.84 C288.12,40.4333313 288.036668,40.1383342 287.87,39.955 C287.703332,39.7716657 287.433335,39.68 287.06,39.68 C286.499997,39.68 285.943336,39.8533316 285.39,40.2 L285.12,39.61 C285.373335,39.4299991 285.678332,39.2850005 286.035,39.175 C286.391668,39.0649995 286.736665,39.01 287.07,39.01 Z M286.75,43.43 C287.150002,43.43 287.478332,43.2950013 287.735,43.025 C287.991668,42.7549987 288.12,42.4066688 288.12,41.98 L288.12,41.69 L287.94,41.69 C287.35333,41.69 286.906668,41.7149998 286.6,41.765 C286.293332,41.8150002 286.075001,41.8983328 285.945,42.015 C285.814999,42.1316672 285.75,42.3033322 285.75,42.53 C285.75,42.7900013 285.844999,43.0049992 286.035,43.175 C286.225001,43.3450008 286.463332,43.43 286.75,43.43 Z M293.15,39.71 L292.62,39.76 C292.119998,39.8066669 291.758334,39.963332 291.535,40.23 C291.311666,40.496668 291.2,40.8266647 291.2,41.22 L291.2,44 L290.39,44 L290.39,39.13 L291.18,39.13 L291.18,39.98 C291.453335,39.4133305 291.989996,39.096667 292.79,39.03 L293.08,39.01 L293.15,39.71 Z M298.14,36.95 L298.14,44 L297.33,44 L297.33,43.11 C297.183333,43.4166682 296.968335,43.6533325 296.685,43.82 C296.401665,43.9866675 296.070002,44.07 295.69,44.07 C295.263331,44.07 294.886668,43.9633344 294.56,43.75 C294.233332,43.5366656 293.980001,43.2383352 293.8,42.855 C293.619999,42.4716648 293.53,42.0266692 293.53,41.52 C293.53,41.0199975 293.619999,40.5800019 293.8,40.2 C293.980001,39.8199981 294.233332,39.5266677 294.56,39.32 C294.886668,39.1133323 295.263331,39.01 295.69,39.01 C296.070002,39.01 296.401665,39.0933325 296.685,39.26 C296.968335,39.4266675 297.183333,39.6633318 297.33,39.97 L297.33,36.95 L298.14,36.95 Z M295.85,43.4 C296.323336,43.4 296.688332,43.238335 296.945,42.915 C297.201668,42.5916651 297.33,42.1333363 297.33,41.54 C297.33,40.9466637 297.201668,40.4900016 296.945,40.17 C296.688332,39.8499984 296.323336,39.69 295.85,39.69 C295.376664,39.69 295.008335,39.8499984 294.745,40.17 C294.481665,40.4900016 294.35,40.9399971 294.35,41.52 C294.35,42.1133363 294.481665,42.5749984 294.745,42.905 C295.008335,43.2350017 295.376664,43.4 295.85,43.4 Z M260.57,56 L260.57,49.65 L258.12,49.65 L258.12,48.95 L263.86,48.95 L263.86,49.65 L261.4,49.65 L261.4,56 L260.57,56 Z M264.73,56 L264.73,51.13 L265.54,51.13 L265.54,56 L264.73,56 Z M264.65,49.02 L265.63,49.02 L265.63,49.93 L264.65,49.93 L264.65,49.02 Z M272.47,51.01 C273.55,51.01 274.09,51.6533269 274.09,52.94 L274.09,56 L273.28,56 L273.28,52.98 C273.28,52.5333311 273.201667,52.2066677 273.045,52 C272.888333,51.7933323 272.636668,51.69 272.29,51.69 C271.883331,51.69 271.563334,51.8266653 271.33,52.1 C271.096665,52.3733347 270.98,52.7466643 270.98,53.22 L270.98,56 L270.17,56 L270.17,52.98 C270.17,52.5266644 270.090001,52.1983343 269.93,51.995 C269.769999,51.7916656 269.516668,51.69 269.17,51.69 C268.763331,51.69 268.443334,51.8266653 268.21,52.1 C267.976666,52.3733347 267.86,52.7466643 267.86,53.22 L267.86,56 L267.05,56 L267.05,51.13 L267.85,51.13 L267.85,51.9 C267.996667,51.6133319 268.199999,51.3933341 268.46,51.24 C268.720001,51.0866659 269.019998,51.01 269.36,51.01 C270.113337,51.01 270.609999,51.3299968 270.85,51.97 C270.990001,51.6699985 271.203332,51.4350009 271.49,51.265 C271.776668,51.0949991 272.103332,51.01 272.47,51.01 Z M279.65,53.69 L276.09,53.69 C276.116667,54.2566695 276.269999,54.6849986 276.55,54.975 C276.830001,55.2650014 277.226664,55.41 277.74,55.41 C278.306669,55.41 278.826664,55.2166686 279.3,54.83 L279.57,55.42 C279.356666,55.620001 279.083335,55.7783327 278.75,55.895 C278.416665,56.0116673 278.076668,56.07 277.73,56.07 C276.969996,56.07 276.371669,55.8466689 275.935,55.4 C275.498331,54.9533311 275.28,54.3366706 275.28,53.55 C275.28,53.0499975 275.376666,52.6083352 275.57,52.225 C275.763334,51.8416647 276.034998,51.5433344 276.385,51.33 C276.735002,51.1166656 277.133331,51.01 277.58,51.01 C278.22667,51.01 278.733332,51.2216645 279.1,51.645 C279.466669,52.0683354 279.65,52.6499963 279.65,53.39 L279.65,53.69 Z M277.59,51.64 C277.163331,51.64 276.821668,51.773332 276.565,52.04 C276.308332,52.306668 276.156667,52.6833309 276.11,53.17 L278.94,53.17 C278.926667,52.6766642 278.803335,52.2983347 278.57,52.035 C278.336665,51.7716653 278.010002,51.64 277.59,51.64 Z" id="CentralStandardTime" fill="#FFFFFF" fill-rule="nonzero" opacity="0.5"></path>
        <path d="M363.5,86.403087 L363.5,130.849427" id="Line-4-Copy" stroke="#FFFFFF" opacity="0.399251302" stroke-dasharray="1"></path>
        <path d="M249.2297,41 L228.812938,41" id="Line-4-Copy-2" stroke="#FFFFFF" opacity="0.399251302" stroke-dasharray="1"></path>
    </g>
</svg>