<?xml version="1.0" encoding="UTF-8"?>
<svg width="400px" height="300px" viewBox="0 0 400 300" version="1.1" xmlns="http://www.w3.org/2000/svg" xmlns:xlink="http://www.w3.org/1999/xlink">
    <!-- Generator: Sketch 57.1 (83088) - https://sketch.com -->
    <title>phoenix-summer</title>
    <desc>Created with Sketch.</desc>
    <defs>
        <path d="M65.488,142.72 L69.952,142.72 C71.1360059,142.72 72.0559967,143.007997 72.712,143.584 C73.3680033,144.160003 73.696,144.975995 73.696,146.032 C73.696,147.088005 73.3653366,147.90933 72.704,148.496 C72.0426634,149.08267 71.1253392,149.376 69.952,149.376 L66.8,149.376 L66.8,154 L65.488,154 L65.488,142.72 Z M69.824,148.288 C71.5413419,148.288 72.4,147.536008 72.4,146.032 C72.4,144.549326 71.5413419,143.808 69.824,143.808 L66.8,143.808 L66.8,148.288 L69.824,148.288 Z M79.536,146.016 C81.402676,146.016 82.336,147.045323 82.336,149.104 L82.336,154 L81.04,154 L81.04,149.184 C81.04,148.458663 80.8986681,147.930668 80.616,147.6 C80.3333319,147.269332 79.8826698,147.104 79.264,147.104 C78.5493298,147.104 77.9786688,147.322664 77.552,147.76 C77.1253312,148.197336 76.912,148.78933 76.912,149.536 L76.912,154 L75.616,154 L75.616,142.72 L76.912,142.72 L76.912,147.456 C77.1680013,146.986664 77.5226644,146.629335 77.976,146.384 C78.4293356,146.138665 78.9493304,146.016 79.536,146.016 Z M87.936,154.112 C87.1999963,154.112 86.5520028,153.946668 85.992,153.616 C85.4319972,153.285332 85.0000015,152.813336 84.696,152.2 C84.3919985,151.586664 84.24,150.874671 84.24,150.064 C84.24,149.253329 84.3919985,148.541336 84.696,147.928 C85.0000015,147.314664 85.4319972,146.842668 85.992,146.512 C86.5520028,146.181332 87.1999963,146.016 87.936,146.016 C88.6720037,146.016 89.3226638,146.181332 89.888,146.512 C90.4533362,146.842668 90.8879985,147.314664 91.192,147.928 C91.4960015,148.541336 91.648,149.253329 91.648,150.064 C91.648,150.874671 91.4960015,151.586664 91.192,152.2 C90.8879985,152.813336 90.4533362,153.285332 89.888,153.616 C89.3226638,153.946668 88.6720037,154.112 87.936,154.112 Z M87.936,153.04 C88.7040038,153.04 89.2933313,152.786669 89.704,152.28 C90.1146687,151.773331 90.32,151.034672 90.32,150.064 C90.32,149.114662 90.1120021,148.381336 89.696,147.864 C89.2799979,147.346664 88.6933371,147.088 87.936,147.088 C87.1786629,147.088 86.5920021,147.346664 86.176,147.864 C85.7599979,148.381336 85.552,149.114662 85.552,150.064 C85.552,151.024005 85.7573313,151.759997 86.168,152.272 C86.5786687,152.784003 87.1679962,153.04 87.936,153.04 Z M100.112,150.304 L94.416,150.304 C94.4586669,151.210671 94.7039978,151.895998 95.152,152.36 C95.6000022,152.824002 96.2346626,153.056 97.056,153.056 C97.9626712,153.056 98.7946629,152.74667 99.552,152.128 L99.984,153.072 C99.642665,153.392002 99.205336,153.645332 98.672,153.832 C98.138664,154.018668 97.5946694,154.112 97.04,154.112 C95.8239939,154.112 94.8666702,153.75467 94.168,153.04 C93.4693298,152.32533 93.12,151.338673 93.12,150.08 C93.12,149.279996 93.2746651,148.573336 93.584,147.96 C93.8933349,147.346664 94.3279972,146.869335 94.888,146.528 C95.4480028,146.186665 96.0853298,146.016 96.8,146.016 C97.8346718,146.016 98.6453304,146.354663 99.232,147.032 C99.8186696,147.709337 100.112,148.639994 100.112,149.824 L100.112,150.304 Z M96.816,147.024 C96.1333299,147.024 95.5866687,147.237331 95.176,147.664 C94.7653313,148.090669 94.522667,148.693329 94.448,149.472 L98.976,149.472 C98.9546666,148.682663 98.7573352,148.077335 98.384,147.656 C98.0106648,147.234665 97.4880034,147.024 96.816,147.024 Z M105.936,146.016 C107.802676,146.016 108.736,147.045323 108.736,149.104 L108.736,154 L107.44,154 L107.44,149.184 C107.44,148.458663 107.298668,147.930668 107.016,147.6 C106.733332,147.269332 106.28267,147.104 105.664,147.104 C104.94933,147.104 104.378669,147.322664 103.952,147.76 C103.525331,148.197336 103.312,148.78933 103.312,149.536 L103.312,154 L102.016,154 L102.016,146.208 L103.296,146.208 L103.296,147.488 C103.552001,147.007998 103.909331,146.642668 104.368,146.392 C104.826669,146.141332 105.34933,146.016 105.936,146.016 Z M111.104,154 L111.104,146.208 L112.4,146.208 L112.4,154 L111.104,154 Z M110.976,142.832 L112.544,142.832 L112.544,144.288 L110.976,144.288 L110.976,142.832 Z M118.528,149.984 L121.76,154 L120.192,154 L117.76,150.96 L115.344,154 L113.76,154 L116.992,149.984 L113.952,146.208 L115.52,146.208 L117.76,149.04 L120,146.208 L121.584,146.208 L118.528,149.984 Z" id="path-1"></path>
        <filter x="-1.3%" y="-6.6%" width="102.7%" height="113.2%" filterUnits="objectBoundingBox" id="filter-2">
            <feOffset dx="0" dy="0.5" in="SourceAlpha" result="shadowOffsetOuter1"></feOffset>
            <feColorMatrix values="0 0 0 0 0   0 0 0 0 0   0 0 0 0 0  0 0 0 1 0" type="matrix" in="shadowOffsetOuter1" result="shadowMatrixOuter1"></feColorMatrix>
            <feOffset dx="0" dy="-0.5" in="SourceAlpha" result="shadowOffsetOuter2"></feOffset>
            <feColorMatrix values="0 0 0 0 0   0 0 0 0 0   0 0 0 0 0  0 0 0 1 0" type="matrix" in="shadowOffsetOuter2" result="shadowMatrixOuter2"></feColorMatrix>
            <feOffset dx="0.5" dy="0" in="SourceAlpha" result="shadowOffsetOuter3"></feOffset>
            <feColorMatrix values="0 0 0 0 0   0 0 0 0 0   0 0 0 0 0  0 0 0 1 0" type="matrix" in="shadowOffsetOuter3" result="shadowMatrixOuter3"></feColorMatrix>
            <feOffset dx="-0.5" dy="0" in="SourceAlpha" result="shadowOffsetOuter4"></feOffset>
            <feColorMatrix values="0 0 0 0 0   0 0 0 0 0   0 0 0 0 0  0 0 0 1 0" type="matrix" in="shadowOffsetOuter4" result="shadowMatrixOuter4"></feColorMatrix>
            <feMerge>
                <feMergeNode in="shadowMatrixOuter1"></feMergeNode>
                <feMergeNode in="shadowMatrixOuter2"></feMergeNode>
                <feMergeNode in="shadowMatrixOuter3"></feMergeNode>
                <feMergeNode in="shadowMatrixOuter4"></feMergeNode>
            </feMerge>
        </filter>
        <path d="M79.15,101.08 C78.0499945,101.08 77.1700033,100.783336 76.51,100.19 L76.83,99.56 C77.1766684,99.8533348 77.5316648,100.063333 77.895,100.19 C78.2583351,100.316667 78.6799976,100.38 79.16,100.38 C79.7266695,100.38 80.1633318,100.270001 80.47,100.05 C80.7766682,99.8299989 80.93,99.520002 80.93,99.12 C80.93,98.8866655 80.8566674,98.6966674 80.71,98.55 C80.5633326,98.4033326 80.3700012,98.2866671 80.13,98.2 C79.8899988,98.1133329 79.5666687,98.0233338 79.16,97.93 C78.6133306,97.8033327 78.1650018,97.6700007 77.815,97.53 C77.4649982,97.3899993 77.1816678,97.1900013 76.965,96.93 C76.7483323,96.6699987 76.64,96.3300021 76.64,95.91 C76.64,95.509998 76.7449989,95.1550015 76.955,94.845 C77.1650011,94.5349985 77.4649981,94.2950008 77.855,94.125 C78.245002,93.9549991 78.6966641,93.87 79.21,93.87 C79.6966691,93.87 80.1516645,93.9466659 80.575,94.1 C80.9983354,94.2533341 81.3566652,94.4733319 81.65,94.76 L81.34,95.39 C81.006665,95.1033319 80.668335,94.8950007 80.325,94.765 C79.9816649,94.6349994 79.610002,94.57 79.21,94.57 C78.6633306,94.57 78.2350015,94.6849988 77.925,94.915 C77.6149985,95.1450011 77.46,95.4666646 77.46,95.88 C77.46,96.2333351 77.5966653,96.4999991 77.87,96.68 C78.1433347,96.8600009 78.5566639,97.0133327 79.11,97.14 C79.7166697,97.2866674 80.1933316,97.421666 80.54,97.545 C80.8866684,97.668334 81.1749988,97.8533321 81.405,98.1 C81.6350011,98.3466679 81.75,98.6766646 81.75,99.09 C81.75,99.490002 81.6450011,99.8399985 81.435,100.14 C81.2249989,100.440001 80.9233353,100.671666 80.53,100.835 C80.1366647,100.998334 79.6766693,101.08 79.15,101.08 Z M84.94,96.01 C85.5600031,96.01 86.0216652,96.1683317 86.325,96.485 C86.6283349,96.8016683 86.78,97.2833301 86.78,97.93 L86.78,101 L85.99,101 L85.99,100.17 C85.8633327,100.456668 85.6700013,100.678333 85.41,100.835 C85.1499987,100.991667 84.8500017,101.07 84.51,101.07 C84.1966651,101.07 83.9083347,101.006667 83.645,100.88 C83.3816653,100.753333 83.1733341,100.576668 83.02,100.35 C82.8666659,100.123332 82.79,99.8733347 82.79,99.6 C82.79,99.2333315 82.8833324,98.9483343 83.07,98.745 C83.2566676,98.5416656 83.5633312,98.3950004 83.99,98.305 C84.4166688,98.2149996 85.0099962,98.17 85.77,98.17 L85.99,98.17 L85.99,97.84 C85.99,97.4333313 85.9066675,97.1383342 85.74,96.955 C85.5733325,96.7716657 85.3033352,96.68 84.93,96.68 C84.3699972,96.68 83.8133361,96.8533316 83.26,97.2 L82.99,96.61 C83.2433346,96.4299991 83.5483316,96.2850006 83.905,96.175 C84.2616685,96.0649995 84.606665,96.01 84.94,96.01 Z M84.62,100.43 C85.020002,100.43 85.348332,100.295001 85.605,100.025 C85.8616679,99.7549987 85.99,99.4066688 85.99,98.98 L85.99,98.69 L85.81,98.69 C85.2233304,98.69 84.7766682,98.7149998 84.47,98.765 C84.1633318,98.8150002 83.9450006,98.8983327 83.815,99.015 C83.6849993,99.1316672 83.62,99.3033322 83.62,99.53 C83.62,99.7900013 83.7149991,100.004999 83.905,100.175 C84.0950009,100.345001 84.3333319,100.43 84.62,100.43 Z M88.26,101 L88.26,93.95 L89.07,93.95 L89.07,101 L88.26,101 Z M92.72,100.42 C92.8666674,100.42 93.0133326,100.41 93.16,100.39 L93.12,101.03 C92.9666659,101.056667 92.8000009,101.07 92.62,101.07 C92.0333304,101.07 91.5916682,100.916668 91.295,100.61 C90.9983318,100.303332 90.85,99.8766694 90.85,99.33 L90.85,96.77 L89.9,96.77 L89.9,96.13 L90.85,96.13 L90.85,94.65 L91.66,94.65 L91.66,96.13 L93.04,96.13 L93.04,96.77 L91.66,96.77 L91.66,99.27 C91.66,100.03667 92.0133298,100.42 92.72,100.42 Z M96.68,101 L96.68,93.95 L97.5,93.95 L97.5,100.3 L101.03,100.3 L101.03,101 L96.68,101 Z M103.94,96.01 C104.560003,96.01 105.021665,96.1683317 105.325,96.485 C105.628335,96.8016683 105.78,97.2833301 105.78,97.93 L105.78,101 L104.99,101 L104.99,100.17 C104.863333,100.456668 104.670001,100.678333 104.41,100.835 C104.149999,100.991667 103.850002,101.07 103.51,101.07 C103.196665,101.07 102.908335,101.006667 102.645,100.88 C102.381665,100.753333 102.173334,100.576668 102.02,100.35 C101.866666,100.123332 101.79,99.8733347 101.79,99.6 C101.79,99.2333315 101.883332,98.9483343 102.07,98.745 C102.256668,98.5416656 102.563331,98.3950004 102.99,98.305 C103.416669,98.2149996 104.009996,98.17 104.77,98.17 L104.99,98.17 L104.99,97.84 C104.99,97.4333313 104.906667,97.1383342 104.74,96.955 C104.573332,96.7716657 104.303335,96.68 103.93,96.68 C103.369997,96.68 102.813336,96.8533316 102.26,97.2 L101.99,96.61 C102.243335,96.4299991 102.548332,96.2850006 102.905,96.175 C103.261668,96.0649995 103.606665,96.01 103.94,96.01 Z M103.62,100.43 C104.020002,100.43 104.348332,100.295001 104.605,100.025 C104.861668,99.7549987 104.99,99.4066688 104.99,98.98 L104.99,98.69 L104.81,98.69 C104.22333,98.69 103.776668,98.7149998 103.47,98.765 C103.163332,98.8150002 102.945001,98.8983327 102.815,99.015 C102.684999,99.1316672 102.62,99.3033322 102.62,99.53 C102.62,99.7900013 102.714999,100.004999 102.905,100.175 C103.095001,100.345001 103.333332,100.43 103.62,100.43 Z M111.6,101 L110.55,101 L108.07,98.67 L108.07,101 L107.26,101 L107.26,93.95 L108.07,93.95 L108.07,98.34 L110.34,96.14 L111.37,96.14 L108.95,98.47 L111.6,101 Z M116.25,98.69 L112.69,98.69 C112.716667,99.2566695 112.869999,99.6849986 113.15,99.975 C113.430001,100.265001 113.826664,100.41 114.34,100.41 C114.906669,100.41 115.426664,100.216669 115.9,99.83 L116.17,100.42 C115.956666,100.620001 115.683335,100.778333 115.35,100.895 C115.016665,101.011667 114.676668,101.07 114.33,101.07 C113.569996,101.07 112.971669,100.846669 112.535,100.4 C112.098331,99.9533311 111.88,99.3366706 111.88,98.55 C111.88,98.0499975 111.976666,97.6083352 112.17,97.225 C112.363334,96.8416648 112.634998,96.5433344 112.985,96.33 C113.335002,96.1166656 113.733331,96.01 114.18,96.01 C114.82667,96.01 115.333331,96.2216645 115.7,96.645 C116.066668,97.0683355 116.25,97.6499963 116.25,98.39 L116.25,98.69 Z M114.19,96.64 C113.763331,96.64 113.421668,96.773332 113.165,97.04 C112.908332,97.306668 112.756667,97.6833309 112.71,98.17 L115.54,98.17 C115.526667,97.6766642 115.403334,97.2983347 115.17,97.035 C114.936665,96.7716654 114.610002,96.64 114.19,96.64 Z M123.15,101.08 C122.48333,101.08 121.903336,100.935001 121.41,100.645 C120.916664,100.354999 120.538335,99.9383361 120.275,99.395 C120.011665,98.851664 119.88,98.2100037 119.88,97.47 C119.88,96.7299963 120.011665,96.0900027 120.275,95.55 C120.538335,95.0099973 120.916664,94.5950014 121.41,94.305 C121.903336,94.0149986 122.48333,93.87 123.15,93.87 C123.636669,93.87 124.083331,93.9449992 124.49,94.095 C124.896669,94.2450008 125.249998,94.4666652 125.55,94.76 L125.24,95.39 C124.899998,95.1033319 124.566668,94.8966673 124.24,94.77 C123.913332,94.6433327 123.553335,94.58 123.16,94.58 C122.386663,94.58 121.788335,94.8316641 121.365,95.335 C120.941665,95.8383358 120.73,96.5499954 120.73,97.47 C120.73,98.3966713 120.941665,99.1116641 121.365,99.615 C121.788335,100.118336 122.386663,100.37 123.16,100.37 C123.553335,100.37 123.913332,100.306667 124.24,100.18 C124.566668,100.053333 124.899998,99.8466681 125.24,99.56 L125.55,100.19 C125.249998,100.483335 124.896669,100.704999 124.49,100.855 C124.083331,101.005001 123.636669,101.08 123.15,101.08 Z M126.79,101 L126.79,96.13 L127.6,96.13 L127.6,101 L126.79,101 Z M126.71,94.02 L127.69,94.02 L127.69,94.93 L126.71,94.93 L126.71,94.02 Z M131.25,100.42 C131.396667,100.42 131.543333,100.41 131.69,100.39 L131.65,101.03 C131.496666,101.056667 131.330001,101.07 131.15,101.07 C130.56333,101.07 130.121668,100.916668 129.825,100.61 C129.528332,100.303332 129.38,99.8766694 129.38,99.33 L129.38,96.77 L128.43,96.77 L128.43,96.13 L129.38,96.13 L129.38,94.65 L130.19,94.65 L130.19,96.13 L131.57,96.13 L131.57,96.77 L130.19,96.77 L130.19,99.27 C130.19,100.03667 130.54333,100.42 131.25,100.42 Z M136.06,96.14 L136.87,96.14 L133.99,102.8 L133.16,102.8 L133.98,100.94 L131.92,96.14 L132.78,96.14 L134.41,100.12 L136.06,96.14 Z" id="path-3"></path>
        <filter x="-1.2%" y="-8.4%" width="102.5%" height="116.8%" filterUnits="objectBoundingBox" id="filter-4">
            <feOffset dx="0" dy="0.5" in="SourceAlpha" result="shadowOffsetOuter1"></feOffset>
            <feColorMatrix values="0 0 0 0 0   0 0 0 0 0   0 0 0 0 0  0 0 0 1 0" type="matrix" in="shadowOffsetOuter1" result="shadowMatrixOuter1"></feColorMatrix>
            <feOffset dx="0" dy="-0.5" in="SourceAlpha" result="shadowOffsetOuter2"></feOffset>
            <feColorMatrix values="0 0 0 0 0   0 0 0 0 0   0 0 0 0 0  0 0 0 1 0" type="matrix" in="shadowOffsetOuter2" result="shadowMatrixOuter2"></feColorMatrix>
            <feOffset dx="0.5" dy="0" in="SourceAlpha" result="shadowOffsetOuter3"></feOffset>
            <feColorMatrix values="0 0 0 0 0   0 0 0 0 0   0 0 0 0 0  0 0 0 1 0" type="matrix" in="shadowOffsetOuter3" result="shadowMatrixOuter3"></feColorMatrix>
            <feOffset dx="-0.5" dy="0" in="SourceAlpha" result="shadowOffsetOuter4"></feOffset>
            <feColorMatrix values="0 0 0 0 0   0 0 0 0 0   0 0 0 0 0  0 0 0 1 0" type="matrix" in="shadowOffsetOuter4" result="shadowMatrixOuter4"></feColorMatrix>
            <feMerge>
                <feMergeNode in="shadowMatrixOuter1"></feMergeNode>
                <feMergeNode in="shadowMatrixOuter2"></feMergeNode>
                <feMergeNode in="shadowMatrixOuter3"></feMergeNode>
                <feMergeNode in="shadowMatrixOuter4"></feMergeNode>
            </feMerge>
        </filter>
        <path d="M57.04,128 L57.04,120.95 L57.86,120.95 L57.86,127.3 L61.39,127.3 L61.39,128 L57.04,128 Z M64.3,123.01 C64.9200031,123.01 65.3816652,123.168332 65.685,123.485 C65.9883349,123.801668 66.14,124.28333 66.14,124.93 L66.14,128 L65.35,128 L65.35,127.17 C65.2233327,127.456668 65.0300013,127.678333 64.77,127.835 C64.5099987,127.991667 64.2100017,128.07 63.87,128.07 C63.5566651,128.07 63.2683346,128.006667 63.005,127.88 C62.7416654,127.753333 62.5333341,127.576668 62.38,127.35 C62.2266659,127.123332 62.15,126.873335 62.15,126.6 C62.15,126.233332 62.2433324,125.948334 62.43,125.745 C62.6166676,125.541666 62.9233312,125.395 63.35,125.305 C63.7766688,125.215 64.3699962,125.17 65.13,125.17 L65.35,125.17 L65.35,124.84 C65.35,124.433331 65.2666675,124.138334 65.1,123.955 C64.9333325,123.771666 64.6633352,123.68 64.29,123.68 C63.7299972,123.68 63.1733361,123.853332 62.62,124.2 L62.35,123.61 C62.6033346,123.429999 62.9083315,123.285001 63.265,123.175 C63.6216685,123.064999 63.966665,123.01 64.3,123.01 Z M63.98,127.43 C64.380002,127.43 64.708332,127.295001 64.965,127.025 C65.2216679,126.754999 65.35,126.406669 65.35,125.98 L65.35,125.69 L65.17,125.69 C64.5833304,125.69 64.1366682,125.715 63.83,125.765 C63.5233318,125.815 63.3050007,125.898333 63.175,126.015 C63.0449994,126.131667 62.98,126.303332 62.98,126.53 C62.98,126.790001 63.0749991,127.004999 63.265,127.175 C63.4550009,127.345001 63.6933319,127.43 63.98,127.43 Z M69.27,128.07 C68.4499959,128.07 67.8000024,127.860002 67.32,127.44 L67.59,126.84 C67.8500013,127.046668 68.1149987,127.195 68.385,127.285 C68.6550014,127.375 68.9599983,127.42 69.3,127.42 C69.6600018,127.42 69.9349991,127.358334 70.125,127.235 C70.3150009,127.111666 70.41,126.933335 70.41,126.7 C70.41,126.506666 70.3466673,126.353334 70.22,126.24 C70.0933327,126.126666 69.8833348,126.036667 69.59,125.97 L68.77,125.78 C68.3566646,125.686666 68.0400011,125.526668 67.82,125.3 C67.5999989,125.073332 67.49,124.793335 67.49,124.46 C67.49,124.026664 67.6599983,123.676668 68,123.41 C68.3400017,123.143332 68.7933305,123.01 69.36,123.01 C69.7000017,123.01 70.0233318,123.064999 70.33,123.175 C70.6366682,123.285001 70.8933323,123.443332 71.1,123.65 L70.83,124.24 C70.3833311,123.859998 69.893336,123.67 69.36,123.67 C69.0199983,123.67 68.7550009,123.734999 68.565,123.865 C68.374999,123.995001 68.28,124.176665 68.28,124.41 C68.28,124.603334 68.3383328,124.758333 68.455,124.875 C68.5716673,124.991667 68.7599987,125.08 69.02,125.14 L69.85,125.34 C70.3033356,125.446667 70.6399989,125.608332 70.86,125.825 C71.0800011,126.041668 71.19,126.323332 71.19,126.67 C71.19,127.096669 71.0183351,127.436665 70.675,127.69 C70.331665,127.943335 69.8633363,128.07 69.27,128.07 Z M80.3,120.95 L81.14,120.95 L78.06,128 L77.35,128 L74.27,120.95 L75.13,120.95 L77.71,126.97 L80.3,120.95 Z M85.43,125.69 L81.87,125.69 C81.8966668,126.25667 82.0499986,126.684999 82.33,126.975 C82.6100014,127.265001 83.0066641,127.41 83.52,127.41 C84.0866695,127.41 84.6066643,127.216669 85.08,126.83 L85.35,127.42 C85.1366656,127.620001 84.863335,127.778333 84.53,127.895 C84.196665,128.011667 83.8566684,128.07 83.51,128.07 C82.7499962,128.07 82.1516688,127.846669 81.715,127.4 C81.2783311,126.953331 81.06,126.336671 81.06,125.55 C81.06,125.049998 81.1566657,124.608335 81.35,124.225 C81.5433343,123.841665 81.8149983,123.543334 82.165,123.33 C82.5150018,123.116666 82.9133311,123.01 83.36,123.01 C84.0066699,123.01 84.5133315,123.221665 84.88,123.645 C85.2466685,124.068335 85.43,124.649996 85.43,125.39 L85.43,125.69 Z M83.37,123.64 C82.9433312,123.64 82.601668,123.773332 82.345,124.04 C82.088332,124.306668 81.9366669,124.683331 81.89,125.17 L84.72,125.17 C84.7066666,124.676664 84.5833345,124.298335 84.35,124.035 C84.1166655,123.771665 83.7900021,123.64 83.37,123.64 Z M90.98,123.13 L90.98,127.67 C90.98,128.39667 90.7933352,128.944998 90.42,129.315 C90.0466648,129.685002 89.493337,129.87 88.76,129.87 C87.9066624,129.87 87.1900029,129.650002 86.61,129.21 L86.88,128.61 C87.2066683,128.823334 87.5133319,128.976666 87.8,129.07 C88.0866681,129.163334 88.4066649,129.21 88.76,129.21 C89.226669,129.21 89.5799988,129.085001 89.82,128.835 C90.0600012,128.584999 90.18,128.220002 90.18,127.74 L90.18,126.88 C90.0399993,127.193335 89.8250015,127.433333 89.535,127.6 C89.2449986,127.766667 88.9033353,127.85 88.51,127.85 C88.0833312,127.85 87.7050016,127.750001 87.375,127.55 C87.0449984,127.349999 86.7883342,127.066669 86.605,126.7 C86.4216658,126.333331 86.33,125.910002 86.33,125.43 C86.33,124.949998 86.4216658,124.526668 86.605,124.16 C86.7883342,123.793331 87.0449984,123.51 87.375,123.31 C87.7050016,123.109999 88.0833312,123.01 88.51,123.01 C88.8966686,123.01 89.2333319,123.093333 89.52,123.26 C89.8066681,123.426667 90.0233326,123.663332 90.17,123.97 L90.17,123.13 L90.98,123.13 Z M88.67,127.18 C89.136669,127.18 89.503332,127.025002 89.77,126.715 C90.036668,126.404998 90.17,125.976669 90.17,125.43 C90.17,124.889997 90.0383346,124.465002 89.775,124.155 C89.5116654,123.844998 89.1433357,123.69 88.67,123.69 C88.1966643,123.69 87.8250014,123.844998 87.555,124.155 C87.2849987,124.465002 87.15,124.889997 87.15,125.43 C87.15,125.976669 87.2849987,126.404998 87.555,126.715 C87.8250014,127.025002 88.1966643,127.18 88.67,127.18 Z M94.46,123.01 C95.0800031,123.01 95.5416652,123.168332 95.845,123.485 C96.1483348,123.801668 96.3,124.28333 96.3,124.93 L96.3,128 L95.51,128 L95.51,127.17 C95.3833327,127.456668 95.1900013,127.678333 94.93,127.835 C94.6699987,127.991667 94.3700017,128.07 94.03,128.07 C93.7166651,128.07 93.4283347,128.006667 93.165,127.88 C92.9016654,127.753333 92.6933341,127.576668 92.54,127.35 C92.3866659,127.123332 92.31,126.873335 92.31,126.6 C92.31,126.233332 92.4033324,125.948334 92.59,125.745 C92.7766676,125.541666 93.0833312,125.395 93.51,125.305 C93.9366688,125.215 94.5299962,125.17 95.29,125.17 L95.51,125.17 L95.51,124.84 C95.51,124.433331 95.4266675,124.138334 95.26,123.955 C95.0933325,123.771666 94.8233352,123.68 94.45,123.68 C93.8899972,123.68 93.3333361,123.853332 92.78,124.2 L92.51,123.61 C92.7633346,123.429999 93.0683316,123.285001 93.425,123.175 C93.7816685,123.064999 94.126665,123.01 94.46,123.01 Z M94.14,127.43 C94.540002,127.43 94.8683321,127.295001 95.125,127.025 C95.381668,126.754999 95.51,126.406669 95.51,125.98 L95.51,125.69 L95.33,125.69 C94.7433304,125.69 94.2966682,125.715 93.99,125.765 C93.6833318,125.815 93.4650007,125.898333 93.335,126.015 C93.2049994,126.131667 93.14,126.303332 93.14,126.53 C93.14,126.790001 93.234999,127.004999 93.425,127.175 C93.6150009,127.345001 93.8533319,127.43 94.14,127.43 Z M99.43,128.07 C98.6099959,128.07 97.9600024,127.860002 97.48,127.44 L97.75,126.84 C98.0100013,127.046668 98.2749987,127.195 98.545,127.285 C98.8150014,127.375 99.1199983,127.42 99.46,127.42 C99.8200018,127.42 100.094999,127.358334 100.285,127.235 C100.475001,127.111666 100.57,126.933335 100.57,126.7 C100.57,126.506666 100.506667,126.353334 100.38,126.24 C100.253333,126.126666 100.043335,126.036667 99.75,125.97 L98.93,125.78 C98.5166646,125.686666 98.2000011,125.526668 97.98,125.3 C97.7599989,125.073332 97.65,124.793335 97.65,124.46 C97.65,124.026664 97.8199983,123.676668 98.16,123.41 C98.5000017,123.143332 98.9533305,123.01 99.52,123.01 C99.8600017,123.01 100.183332,123.064999 100.49,123.175 C100.796668,123.285001 101.053332,123.443332 101.26,123.65 L100.99,124.24 C100.543331,123.859998 100.053336,123.67 99.52,123.67 C99.1799983,123.67 98.915001,123.734999 98.725,123.865 C98.534999,123.995001 98.44,124.176665 98.44,124.41 C98.44,124.603334 98.4983328,124.758333 98.615,124.875 C98.7316673,124.991667 98.9199987,125.08 99.18,125.14 L100.01,125.34 C100.463336,125.446667 100.799999,125.608332 101.02,125.825 C101.240001,126.041668 101.35,126.323332 101.35,126.67 C101.35,127.096669 101.178335,127.436665 100.835,127.69 C100.491665,127.943335 100.023336,128.07 99.43,128.07 Z" id="path-5"></path>
        <filter x="-1.7%" y="-8.4%" width="103.4%" height="116.8%" filterUnits="objectBoundingBox" id="filter-6">
            <feOffset dx="0" dy="0.5" in="SourceAlpha" result="shadowOffsetOuter1"></feOffset>
            <feColorMatrix values="0 0 0 0 0   0 0 0 0 0   0 0 0 0 0  0 0 0 1 0" type="matrix" in="shadowOffsetOuter1" result="shadowMatrixOuter1"></feColorMatrix>
            <feOffset dx="0" dy="-0.5" in="SourceAlpha" result="shadowOffsetOuter2"></feOffset>
            <feColorMatrix values="0 0 0 0 0   0 0 0 0 0   0 0 0 0 0  0 0 0 1 0" type="matrix" in="shadowOffsetOuter2" result="shadowMatrixOuter2"></feColorMatrix>
            <feOffset dx="0.5" dy="0" in="SourceAlpha" result="shadowOffsetOuter3"></feOffset>
            <feColorMatrix values="0 0 0 0 0   0 0 0 0 0   0 0 0 0 0  0 0 0 1 0" type="matrix" in="shadowOffsetOuter3" result="shadowMatrixOuter3"></feColorMatrix>
            <feOffset dx="-0.5" dy="0" in="SourceAlpha" result="shadowOffsetOuter4"></feOffset>
            <feColorMatrix values="0 0 0 0 0   0 0 0 0 0   0 0 0 0 0  0 0 0 1 0" type="matrix" in="shadowOffsetOuter4" result="shadowMatrixOuter4"></feColorMatrix>
            <feMerge>
                <feMergeNode in="shadowMatrixOuter1"></feMergeNode>
                <feMergeNode in="shadowMatrixOuter2"></feMergeNode>
                <feMergeNode in="shadowMatrixOuter3"></feMergeNode>
                <feMergeNode in="shadowMatrixOuter4"></feMergeNode>
            </feMerge>
        </filter>
        <path d="M138.26,113.95 L140.63,113.95 C141.756672,113.95 142.62833,114.254997 143.245,114.865 C143.86167,115.475003 144.17,116.343328 144.17,117.47 C144.17,118.596672 143.86167,119.466664 143.245,120.08 C142.62833,120.693336 141.756672,121 140.63,121 L138.26,121 L138.26,113.95 Z M140.58,120.3 C142.406676,120.3 143.32,119.356676 143.32,117.47 C143.32,115.589991 142.406676,114.65 140.58,114.65 L139.08,114.65 L139.08,120.3 L140.58,120.3 Z M149.61,118.69 L146.05,118.69 C146.076667,119.25667 146.229999,119.684999 146.51,119.975 C146.790001,120.265001 147.186664,120.41 147.7,120.41 C148.26667,120.41 148.786664,120.216669 149.26,119.83 L149.53,120.42 C149.316666,120.620001 149.043335,120.778333 148.71,120.895 C148.376665,121.011667 148.036668,121.07 147.69,121.07 C146.929996,121.07 146.331669,120.846669 145.895,120.4 C145.458331,119.953331 145.24,119.336671 145.24,118.55 C145.24,118.049998 145.336666,117.608335 145.53,117.225 C145.723334,116.841665 145.994998,116.543334 146.345,116.33 C146.695002,116.116666 147.093331,116.01 147.54,116.01 C148.18667,116.01 148.693331,116.221665 149.06,116.645 C149.426669,117.068335 149.61,117.649996 149.61,118.39 L149.61,118.69 Z M147.55,116.64 C147.123331,116.64 146.781668,116.773332 146.525,117.04 C146.268332,117.306668 146.116667,117.683331 146.07,118.17 L148.9,118.17 C148.886667,117.676664 148.763335,117.298335 148.53,117.035 C148.296665,116.771665 147.970002,116.64 147.55,116.64 Z M153.25,116.01 C154.416673,116.01 155,116.653327 155,117.94 L155,121 L154.19,121 L154.19,117.99 C154.19,117.536664 154.101668,117.206668 153.925,117 C153.748332,116.793332 153.466669,116.69 153.08,116.69 C152.633331,116.69 152.276668,116.826665 152.01,117.1 C151.743332,117.373335 151.61,117.743331 151.61,118.21 L151.61,121 L150.8,121 L150.8,116.13 L151.6,116.13 L151.6,116.93 C151.760001,116.629998 151.983332,116.401667 152.27,116.245 C152.556668,116.088333 152.883331,116.01 153.25,116.01 Z M159.97,116.14 L160.78,116.14 L158.68,121 L157.92,121 L155.83,116.14 L156.69,116.14 L158.32,120.12 L159.97,116.14 Z M165.64,118.69 L162.08,118.69 C162.106667,119.25667 162.259999,119.684999 162.54,119.975 C162.820001,120.265001 163.216664,120.41 163.73,120.41 C164.29667,120.41 164.816664,120.216669 165.29,119.83 L165.56,120.42 C165.346666,120.620001 165.073335,120.778333 164.74,120.895 C164.406665,121.011667 164.066668,121.07 163.72,121.07 C162.959996,121.07 162.361669,120.846669 161.925,120.4 C161.488331,119.953331 161.27,119.336671 161.27,118.55 C161.27,118.049998 161.366666,117.608335 161.56,117.225 C161.753334,116.841665 162.024998,116.543334 162.375,116.33 C162.725002,116.116666 163.123331,116.01 163.57,116.01 C164.21667,116.01 164.723332,116.221665 165.09,116.645 C165.456669,117.068335 165.64,117.649996 165.64,118.39 L165.64,118.69 Z M163.58,116.64 C163.153331,116.64 162.811668,116.773332 162.555,117.04 C162.298332,117.306668 162.146667,117.683331 162.1,118.17 L164.93,118.17 C164.916667,117.676664 164.793335,117.298335 164.56,117.035 C164.326665,116.771665 164.000002,116.64 163.58,116.64 Z M169.59,116.71 L169.06,116.76 C168.559998,116.806667 168.198334,116.963332 167.975,117.23 C167.751666,117.496668 167.64,117.826665 167.64,118.22 L167.64,121 L166.83,121 L166.83,116.13 L167.62,116.13 L167.62,116.98 C167.893335,116.413331 168.429996,116.096667 169.23,116.03 L169.52,116.01 L169.59,116.71 Z" id="path-7"></path>
        <filter x="-2.4%" y="-10.5%" width="104.8%" height="121.1%" filterUnits="objectBoundingBox" id="filter-8">
            <feOffset dx="0" dy="0.5" in="SourceAlpha" result="shadowOffsetOuter1"></feOffset>
            <feColorMatrix values="0 0 0 0 0   0 0 0 0 0   0 0 0 0 0  0 0 0 1 0" type="matrix" in="shadowOffsetOuter1" result="shadowMatrixOuter1"></feColorMatrix>
            <feOffset dx="0" dy="-0.5" in="SourceAlpha" result="shadowOffsetOuter2"></feOffset>
            <feColorMatrix values="0 0 0 0 0   0 0 0 0 0   0 0 0 0 0  0 0 0 1 0" type="matrix" in="shadowOffsetOuter2" result="shadowMatrixOuter2"></feColorMatrix>
            <feOffset dx="0.5" dy="0" in="SourceAlpha" result="shadowOffsetOuter3"></feOffset>
            <feColorMatrix values="0 0 0 0 0   0 0 0 0 0   0 0 0 0 0  0 0 0 1 0" type="matrix" in="shadowOffsetOuter3" result="shadowMatrixOuter3"></feColorMatrix>
            <feOffset dx="-0.5" dy="0" in="SourceAlpha" result="shadowOffsetOuter4"></feOffset>
            <feColorMatrix values="0 0 0 0 0   0 0 0 0 0   0 0 0 0 0  0 0 0 1 0" type="matrix" in="shadowOffsetOuter4" result="shadowMatrixOuter4"></feColorMatrix>
            <feMerge>
                <feMergeNode in="shadowMatrixOuter1"></feMergeNode>
                <feMergeNode in="shadowMatrixOuter2"></feMergeNode>
                <feMergeNode in="shadowMatrixOuter3"></feMergeNode>
                <feMergeNode in="shadowMatrixOuter4"></feMergeNode>
            </feMerge>
        </filter>
    </defs>
    <g id="phoenix-summer" stroke="none" stroke-width="1" fill="none" fill-rule="evenodd">
        <g id="Group-3" transform="translate(32.000000, 31.000000)">
            <polygon id="Path-79" fill="#3AAE93" points="27.6863553 0.826872716 27.6863553 3.98269755 27.6863553 6.27784288 25.965608 6.27784288 22.8109045 6.27784288 19.9429922 3.98269755 17.07508 2.11789196 16.262301 5.01969067 17.07508 7.10097163 17.07508 11.2516211 16.262301 17.5224494 14.8223748 23.4130507 9.59943243 37.252845 4.92056757 44.0247107 4.19902703 48.6592899 4.19902703 55.4721972 2.57310811 59.6633486 0 63.0724789 0 64.5557762 1.78021622 68.317329 0.905716216 71.426677 0 75.9060119 2.57310811 81.8610603 4.92056757 85.7890101 4.19902703 91.8216807 6.93981081 94.1757739 6.93981081 96.2809408 5.50832432 96.2809408 5.50832432 98.7844791 9.59943243 108.611268 10.9956892 110.755692 9.59943243 115.294359 16.262301 117.50436 19.9429922 121.218626 22.8109045 123.161411 25.2244865 126.486674 27.6863553 130.882587 28.7755541 135.575606 44.2935811 137.781593 43.6924459 139.360802 66.4517432 152.702448 85.8075811 155.098921 85.8075811 152.11359 97.7839054 152.702448 107.420797 163.576691 108.78673 168.61544 111.160946 173.153661 118.345135 177.632104 120.219446 176.336616 123.283095 171.317495 130.967189 172.386361 135.3825 177.632104 138.30523 184.615423 143.518784 190.708764 143.518784 194.700953 145.419405 196.92746 146.000027 199.302074 157.224041 204 160.040189 203.381253 157.224041 197.906659 157.959851 192.225965 161.162635 186.983345 166.871189 183.3641 173.153676 179.619945 180.568419 174.190408 187.151473 173.153661 192.559014 174.190408 196.5645 172.386361 201.910054 176.336616 207.508905 176.336616 209.956257 174.190408 212.397365 173.153661 213.541662 171.317495 212.397365 168.61544 217.284932 166.328263 224.423189 166.328263 231.462 164.757529 236.776784 165.700594 241.663014 168.61544 243.715703 170.04922 247.340351 167.968143 250.114581 165.700594 253.550595 167.968143 257.023176 170.04922 260.186716 172.386361 261.364014 176.336616 262.181878 181.213876 263.113014 184.615423 265.579986 189.174611 269.156919 192.225965 271.673392 195.770265 274.667919 197.906659 277.39577 201.160991 281.494014 200.229525 282.363608 195.770265 282.363608 189.174611 281.494014 186.983345 278.02723 181.213876 274.667919 174.190408 271.673392 167.968143 267.883743 160.717161 267.139014 154.038977 269.156919 146.906659 274.016838 141.545822 278.02723 136.882692 280.1205 132.466704 283.362081 129.413565 286.154595 129.413565 286.154595 126.486674 290.146703 123.161411 294.531689 119.967749 293.095297 118.600439 293.095297 116.161586 295.608649 114.036344 297.679622 110.755692 295.608649 109.62571 294.531689 107.120791 293.095297 103.7349 290.146703 99.5098449 289.136189 95.2562389 287.788095 90.0189726 287.145486 85.7890101 290.146703 90.8808464 291.862257 94.1757739 293.095297 98.7844791 294.531689 94.1757739 296.670446 89.1285481 295.608649 85.7890101 293.095297 84.0822144 296.670446 84.0822144 297.679622 81.8610603 299.974905 75.9060119 299.974905 73.1928046 299.026824 71.426677 302.387027 70.6611618 306.692189 67.6401424 308.420676 66.1077736 304.467811 67.6401424 301.547757 67.6401424 304.467811 64.5557762 311.009392 63.0724789 316.193514 58.7617715 320.100446 56.3902802 317.233459 55.4721972 314.269257 53.4500057 314.269257 51.1440917 313.050932 47.1496724 314.269257 42.4999256 317.233459 38.3747977 320.100446 35.8891037 324.880986 32.8011686 330 28.4614644 327.361338 26.2184512 325.814797 25.0318134 324.880986 22.8191353 323.147595 22.8191353 321.370946 17.5224494 320.100446 12.7113004 317.233459 11.2516211 314.269257 13.5780814 312.053351 11.2516211 311.009392 14.6594386 309.227392 19.3689634 309.227392 23.4130507 308.420676 28.4614644 305.51623 32.1047996 302.387027 34.8639556 293.095297 37.252845 286.154595 38.3747977 282.363608 43.1802349 280.1205 47.1496724 280.1205 50.1724762 278.648432 53.4500057 275.924595 55.4721972 270.219162 55.4721972 265.579986 57.1419662 267.139014 59.6633486 265.579986 62.2056979 261.364014 66.6828022 255.897608 70.6611618 251.77573 73.1928046 246.659838 75.0329855 241.663014 73.1928046 243.715703 69.6601034 244.820757 66.1077736 247.340351 63.760818 246.659838 60.7509513 244.820757 56.3902802 242.278865 53.4500057 240.578919 55.4721972 238.510176 57.9391549 236.776784 56.3902802 238.510176 53.4500057 239.810554 49.3949162 238.510176 46.0214742 236.776784 44.0247107 234.077473 42.4999256 229.840541 42.4999256 228.383189 45.2653272 224.423189 50.1724762 223.558054 53.4500057 222.913662 59.6633486 224.423189 64.5557762 225.050635 69.6601034 222.913662 73.8958652 219.23773 75.9060119 217.284932 73.8958652 216.546 70.6611618 215.289324 66.6828022 215.289324 60.7509513 216.546 55.4721972 217.284932 51.1440917 219.23773 47.1496724 216.546 50.1724762 214.611932 52.7027807 214.611932 50.1724762 216.546 46.0214742 218.304365 42.4999256 222.115419 41.8334456 226.374649 40.4041269 229.840541 40.4041269 232.254892 40.4041269 236.776784 39.6212136 234.077473 38.3747977 231.462 37.252845 227.728541 34.8639556 224.423189 35.8891037 220.792297 37.252845 217.284932 37.252845 214.611932 35.8891037 210.823176 34.8639556 209.956257 34.8639556 210.823176 32.1047996 213.541662 30.2084095 209.956257 30.2084095 207.508905 33.6010339 204.232095 35.8891037 201.910054 35.8891037 199.636176 38.3747977 196.5645 38.3747977 196.5645 34.8639556 192.559014 37.252845 189.645203 38.3747977 188.441595 38.3747977 193.878568 32.8011686 196.5645 30.2084095 202.548649 26.8911768 199.636176 26.2184512 196.5645 26.2184512 192.559014 26.8911768 189.645203 26.2184512 187.151473 25.0318134 183.866189 22.8191353 181.157959 23.4130507 178.034108 22.8191353 174.811257 21.1025253 171.915284 21.1025253 169.224 20.2379749 141.307784 19.3689634 123.283095 18.3826264 94.7849189 14.6594386 66.4517432 9.66039205 48.0444324 5.01969067 31.8664054 0.826872716 27.6863553 0"></polygon>
            <path d="M27.6863553,-2.84217094e-14 L31.8664054,0.826872716 L48.0444324,5.01969067 L63.395,8.889 L63.4066837,9 L62.261672,16.6842134 L62.8341778,20.9877244 L66.1315484,26.4862207 L67.6296803,28.8973419 L69.1258615,28.8973419 L67.6296803,32.0019676 L66.1315484,36.2719124 L64.5305175,38.0926631 L62.261672,36.2719124 L60.6671709,37.3832547 L58.6877057,36.2719124 L56.0854818,36.2719124 L57.2744289,32.7807747 L54.6717174,30.855926 L54.6717174,32.7807747 L55.2989478,34.6288018 L52.3814551,39.0138159 L48.940581,43.86034 L47.1091523,43.86034 L46.6630177,41.9433193 L44.4377655,41.9433193 L43.2554817,43.3744555 L40,56.3800362 L46.6630177,58.4234834 L46.0721468,61.8380677 L63.4066837,65.7969285 L56.0854818,104.557784 L72.4669163,107.639917 L68.568477,111.252114 L68.568477,117.167076 L71.2035878,118.134004 L71.2035878,121.701932 L80.681499,123.676175 L82.434441,122.868459 L85,124.196142 L80.755,154.473 L66.4517432,152.702448 L43.6924459,139.360802 L44.2935811,137.781593 L28.7755541,135.575606 L27.6863553,130.882587 L25.2244865,126.486674 L22.8109045,123.161411 L19.9429922,121.218626 L16.262301,117.50436 L9.59943243,115.294359 L10.9956892,110.755692 L9.59943243,108.611268 L5.50832432,98.7844791 L5.50832432,96.2809408 L6.93981081,96.2809408 L6.93981081,94.1757739 L4.19902703,91.8216807 L4.92056757,85.7890101 L2.57310811,81.8610603 L2.27373675e-13,75.9060119 L0.905716216,71.426677 L1.78021622,68.317329 L2.27373675e-13,64.5557762 L2.27373675e-13,63.0724789 L2.57310811,59.6633486 L4.19902703,55.4721972 L4.19902703,48.6592899 L4.92056757,44.0247107 L9.59943243,37.252845 L14.8223748,23.4130507 L16.262301,17.5224494 L17.07508,11.2516211 L17.07508,7.10097163 L16.262301,5.01969067 L17.07508,2.11789196 L19.9429922,3.98269755 L22.8109045,6.27784288 L27.6863553,6.27784288 L27.6863553,-2.84217094e-14 Z" id="Combined-Shape" fill="#2C4FB5"></path>
            <polyline id="Path-83" stroke="#080A23" points="63.4066837 9 62.261672 16.6842134 62.8341778 20.9877244 66.1315484 26.4862207 67.6296803 28.8973419 69.1258615 28.8973419 67.6296803 32.0019676 66.1315484 36.2719124 64.5305175 38.0926631 62.261672 36.2719124 60.6671709 37.3832547 58.6877057 36.2719124 56.0854818 36.2719124 57.2744289 32.7807747 54.6717174 30.855926 54.6717174 32.7807747 55.2989478 34.6288018 52.3814551 39.0138159 48.940581 43.86034 47.1091523 43.86034 46.6630177 41.9433193 44.4377655 41.9433193 43.2554817 43.3744555 40 56.3800362 46.6630177 58.4234834 46.0721468 61.8380677 63.4066837 65.7969285 56.0854818 104.557784 72.4669163 107.639917 68.568477 111.252114 68.568477 117.167076 71.2035878 118.134004 71.2035878 121.701932 80.681499 123.676175 82.434441 122.868459 85 124.196142 80.681499 155"></polyline>
            <polyline id="Path-81" stroke="#080A23" points="125.814994 19 125.814994 26.1221959 125.814994 29.2792305 128.259315 30.4371033 132.163035 30.4371033 135.10848 30.4371033 139.590051 31.1152636 139.590051 33.3544427 137.326069 33.3544427 137.326069 34.9779647 135.10848 35.6451869 135.10848 37.3296496 137.326069 37.3296496 140.388528 38.8156645 140.388528 41.3428794 139.590051 43.1195344 139.590051 44.0930226 143.649446 44.0930226 145 46.233759 145 48.2057367 143.649446 51.6126849 142.551476 53.7258158 142.551476 55.654562 143.649446 56.4155392 142.551476 58.3395977 139.590051 58.3395977 139.590051 60.9751516 138.657551 60.9751516 138.657551 67.5442436 140.388528 67.5442436 140.388528 77.5244507 137.326069 77.5244507 137.326069 91.1595356 132.163035 91.1595356 132.163035 94.5690881 135.407497 94.5690881 135.10848 101.35017 134.070306 101.35017 134.070306 109.3709 131.061457 109.3709 131.061457 115.12745 124.859218 115.12745 121.300353 154.178963 111.104185 153.445591 111.104185 154.967545 108.633496 154.967545 108 164"></polyline>
            <polyline id="Path-82" stroke="#080A23" points="200 37 202.435815 38.5728888 204.796662 39.7698712 206.584335 39.7698712 206.584335 39.0407849 211.045029 39.0407849 211.045029 39.7698712 214.151679 39.7698712 214.151679 41.9924102 215.67751 41.9924102 215.67751 44.5054039 216.558798 45.8241545 219.563698 45.8241545 222.815822 47.3603607 219.563698 53.8442382 219.563698 64.1837627 219.563698 72.8389988 219.996024 75.1896103 223.654627 75.1896103 224.449055 81.3086479 221.396362 81.8666708 220.627615 83.1392078 218.59625 83.1392078 219.563698 94.4890132 219.070586 96.4826183 219.563698 99.3517135 219.563698 101.217888 221.396362 100.745492 221.807527 102.696887 227.22916 102.696887 227.22916 104.568848 229.087998 106.198824 229.087998 107.865888 230.010619 108.21019 230.63814 108.630506 233.369216 108.630506 234.735954 110.141068 235.965671 108.999007 238.101482 111.859159 236.927746 112.705579 237.529142 114.621991 239.339996 114.621991 239.943259 116.23303 238.465359 117.043678 238.465359 117.972688 239.943259 119.737334 238.101482 121.844704 235.965671 126.546569 235.965671 127.823564 234.735954 127.823564 239.943259 144.61563 241.630211 148.531255 241.630211 149.471173 240.85242 152.98899 242.08466 154.411678 242.08466 157.574526 244 161.66948 243.022695 162.088505 243.022695 164.538916 242.569512 165.485395 242.569512 166.613109 244 167.032135 244 170"></polyline>
        </g>
        <g id="Phoenix" fill-rule="nonzero">
            <use fill="black" fill-opacity="1" filter="url(#filter-2)" xlink:href="#path-1"></use>
            <use fill="#FFFFFF" xlink:href="#path-1"></use>
        </g>
        <circle id="Oval-Copy-8" stroke="#000000" stroke-width="2" fill="#FFFFFF" cx="92" cy="166" r="5"></circle>
        <circle id="Oval-Copy-11" stroke="#000000" fill="#FFFFFF" cx="106" cy="109" r="2.5"></circle>
        <circle id="Oval-Copy-13" stroke="#000000" fill="#FFFFFF" cx="78" cy="136" r="2.5"></circle>
        <circle id="Oval-Copy-12" stroke="#000000" fill="#FFFFFF" cx="153" cy="129" r="2.5"></circle>
        <g id="SaltLakeCity" fill-rule="nonzero">
            <use fill="black" fill-opacity="1" filter="url(#filter-4)" xlink:href="#path-3"></use>
            <use fill="#FFFFFF" xlink:href="#path-3"></use>
        </g>
        <g id="LasVegas" fill-rule="nonzero">
            <use fill="black" fill-opacity="1" filter="url(#filter-6)" xlink:href="#path-5"></use>
            <use fill="#FFFFFF" xlink:href="#path-5"></use>
        </g>
        <g id="Denver" fill-rule="nonzero">
            <use fill="black" fill-opacity="1" filter="url(#filter-8)" xlink:href="#path-7"></use>
            <use fill="#FFFFFF" xlink:href="#path-7"></use>
        </g>
        <path d="M125.86,1.95 L126.53,1.95 L126.53,9 L125.78,9 L125.79,3.54 L123.5,7.88 L122.92,7.88 L120.62,3.58 L120.63,9 L119.87,9 L119.87,1.95 L120.55,1.95 L123.22,7.06 L125.86,1.95 Z M130.18,9.07 C129.719998,9.07 129.315002,8.9666677 128.965,8.76 C128.614998,8.5533323 128.345001,8.25833525 128.155,7.875 C127.964999,7.49166475 127.87,7.0466692 127.87,6.54 C127.87,6.0333308 127.964999,5.58833525 128.155,5.205 C128.345001,4.82166475 128.614998,4.5266677 128.965,4.32 C129.315002,4.1133323 129.719998,4.01 130.18,4.01 C130.640002,4.01 131.046665,4.1133323 131.4,4.32 C131.753335,4.5266677 132.024999,4.82166475 132.215,5.205 C132.405001,5.58833525 132.5,6.0333308 132.5,6.54 C132.5,7.0466692 132.405001,7.49166475 132.215,7.875 C132.024999,8.25833525 131.753335,8.5533323 131.4,8.76 C131.046665,8.9666677 130.640002,9.07 130.18,9.07 Z M130.18,8.4 C130.660002,8.4 131.028332,8.24166825 131.285,7.925 C131.541668,7.60833175 131.67,7.1466697 131.67,6.54 C131.67,5.9466637 131.540001,5.48833495 131.28,5.165 C131.019999,4.84166505 130.653336,4.68 130.18,4.68 C129.706664,4.68 129.340001,4.84166505 129.08,5.165 C128.819999,5.48833495 128.69,5.9466637 128.69,6.54 C128.69,7.140003 128.818332,7.5999984 129.075,7.92 C129.331668,8.2400016 129.699998,8.4 130.18,8.4 Z M137.81,4.13 L137.81,9 L137.02,9 L137.02,8.17 C136.866666,8.4633348 136.651668,8.6866659 136.375,8.84 C136.098332,8.9933341 135.786668,9.07 135.44,9.07 C134.859997,9.07 134.423335,8.90833495 134.13,8.585 C133.836665,8.26166505 133.69,7.7833365 133.69,7.15 L133.69,4.13 L134.5,4.13 L134.5,7.13 C134.5,7.5633355 134.586666,7.88166565 134.76,8.085 C134.933334,8.28833435 135.206665,8.39 135.58,8.39 C136.006669,8.39 136.349999,8.25166805 136.61,7.975 C136.870001,7.69833195 137,7.3333356 137,6.88 L137,4.13 L137.81,4.13 Z M141.77,4.01 C142.936672,4.01 143.52,4.6533269 143.52,5.94 L143.52,9 L142.71,9 L142.71,5.99 C142.71,5.5366644 142.621668,5.2066677 142.445,5 C142.268332,4.7933323 141.986669,4.69 141.6,4.69 C141.153331,4.69 140.796668,4.8266653 140.53,5.1 C140.263332,5.3733347 140.13,5.743331 140.13,6.21 L140.13,9 L139.32,9 L139.32,4.13 L140.12,4.13 L140.12,4.93 C140.280001,4.6299985 140.503332,4.40166745 140.79,4.245 C141.076668,4.08833255 141.403332,4.01 141.77,4.01 Z M147.14,8.42 C147.286667,8.42 147.433333,8.4100001 147.58,8.39 L147.54,9.03 C147.386666,9.0566668 147.220001,9.07 147.04,9.07 C146.45333,9.07 146.011668,8.9166682 145.715,8.61 C145.418332,8.3033318 145.27,7.8766694 145.27,7.33 L145.27,4.77 L144.32,4.77 L144.32,4.13 L145.27,4.13 L145.27,2.65 L146.08,2.65 L146.08,4.13 L147.46,4.13 L147.46,4.77 L146.08,4.77 L146.08,7.27 C146.08,8.0366705 146.43333,8.42 147.14,8.42 Z M150.38,4.01 C151.000003,4.01 151.461665,4.16833175 151.765,4.485 C152.068335,4.80166825 152.22,5.2833301 152.22,5.93 L152.22,9 L151.43,9 L151.43,8.17 C151.303333,8.4566681 151.110001,8.67833255 150.85,8.835 C150.589999,8.99166745 150.290002,9.07 149.95,9.07 C149.636665,9.07 149.348335,9.0066673 149.085,8.88 C148.821665,8.7533327 148.613334,8.5766678 148.46,8.35 C148.306666,8.1233322 148.23,7.8733347 148.23,7.6 C148.23,7.2333315 148.323332,6.94833435 148.51,6.745 C148.696668,6.54166565 149.003331,6.39500045 149.43,6.305 C149.856669,6.21499955 150.449996,6.17 151.21,6.17 L151.43,6.17 L151.43,5.84 C151.43,5.4333313 151.346667,5.13833425 151.18,4.955 C151.013332,4.77166575 150.743335,4.68 150.37,4.68 C149.809997,4.68 149.253336,4.8533316 148.7,5.2 L148.43,4.61 C148.683335,4.4299991 148.988332,4.28500055 149.345,4.175 C149.701668,4.06499945 150.046665,4.01 150.38,4.01 Z M150.06,8.43 C150.460002,8.43 150.788332,8.29500135 151.045,8.025 C151.301668,7.75499865 151.43,7.4066688 151.43,6.98 L151.43,6.69 L151.25,6.69 C150.66333,6.69 150.216668,6.71499975 149.91,6.765 C149.603332,6.81500025 149.385001,6.89833275 149.255,7.015 C149.124999,7.13166725 149.06,7.3033322 149.06,7.53 C149.06,7.7900013 149.154999,8.00499915 149.345,8.175 C149.535001,8.34500085 149.773332,8.43 150.06,8.43 Z M153.7,9 L153.7,4.13 L154.51,4.13 L154.51,9 L153.7,9 Z M153.62,2.02 L154.6,2.02 L154.6,2.93 L153.62,2.93 L153.62,2.02 Z M158.47,4.01 C159.636673,4.01 160.22,4.6533269 160.22,5.94 L160.22,9 L159.41,9 L159.41,5.99 C159.41,5.5366644 159.321668,5.2066677 159.145,5 C158.968332,4.7933323 158.686669,4.69 158.3,4.69 C157.853331,4.69 157.496668,4.8266653 157.23,5.1 C156.963332,5.3733347 156.83,5.743331 156.83,6.21 L156.83,9 L156.02,9 L156.02,4.13 L156.82,4.13 L156.82,4.93 C156.980001,4.6299985 157.203332,4.40166745 157.49,4.245 C157.776668,4.08833255 158.103331,4.01 158.47,4.01 Z M119.87,13.95 L122.24,13.95 C123.366672,13.95 124.23833,14.2549969 124.855,14.865 C125.47167,15.4750031 125.78,16.3433277 125.78,17.47 C125.78,18.5966723 125.47167,19.4666636 124.855,20.08 C124.23833,20.6933364 123.366672,21 122.24,21 L119.87,21 L119.87,13.95 Z M122.19,20.3 C124.016676,20.3 124.93,19.3566761 124.93,17.47 C124.93,15.5899906 124.016676,14.65 122.19,14.65 L120.69,14.65 L120.69,20.3 L122.19,20.3 Z M129.12,16.01 C129.740003,16.01 130.201665,16.1683318 130.505,16.485 C130.808335,16.8016682 130.96,17.2833301 130.96,17.93 L130.96,21 L130.17,21 L130.17,20.17 C130.043333,20.4566681 129.850001,20.6783326 129.59,20.835 C129.329999,20.9916675 129.030002,21.07 128.69,21.07 C128.376665,21.07 128.088335,21.0066673 127.825,20.88 C127.561665,20.7533327 127.353334,20.5766678 127.2,20.35 C127.046666,20.1233322 126.97,19.8733347 126.97,19.6 C126.97,19.2333315 127.063332,18.9483344 127.25,18.745 C127.436668,18.5416656 127.743331,18.3950005 128.17,18.305 C128.596669,18.2149996 129.189996,18.17 129.95,18.17 L130.17,18.17 L130.17,17.84 C130.17,17.4333313 130.086668,17.1383342 129.92,16.955 C129.753332,16.7716657 129.483335,16.68 129.11,16.68 C128.549997,16.68 127.993336,16.8533316 127.44,17.2 L127.17,16.61 C127.423335,16.4299991 127.728332,16.2850005 128.085,16.175 C128.441668,16.0649994 128.786665,16.01 129.12,16.01 Z M128.8,20.43 C129.200002,20.43 129.528332,20.2950014 129.785,20.025 C130.041668,19.7549987 130.17,19.4066688 130.17,18.98 L130.17,18.69 L129.99,18.69 C129.40333,18.69 128.956668,18.7149998 128.65,18.765 C128.343332,18.8150003 128.125001,18.8983328 127.995,19.015 C127.864999,19.1316673 127.8,19.3033322 127.8,19.53 C127.8,19.7900013 127.894999,20.0049992 128.085,20.175 C128.275001,20.3450009 128.513332,20.43 128.8,20.43 Z M135.93,16.14 L136.74,16.14 L133.86,22.8 L133.03,22.8 L133.85,20.94 L131.79,16.14 L132.65,16.14 L134.28,20.12 L135.93,16.14 Z M137.58,21 L137.58,13.95 L138.39,13.95 L138.39,21 L137.58,21 Z M139.9,21 L139.9,16.13 L140.71,16.13 L140.71,21 L139.9,21 Z M139.82,14.02 L140.8,14.02 L140.8,14.93 L139.82,14.93 L139.82,14.02 Z M146.58,16.13 L146.58,20.67 C146.58,21.3966703 146.393335,21.9449981 146.02,22.315 C145.646665,22.6850018 145.093337,22.87 144.36,22.87 C143.506662,22.87 142.790003,22.6500022 142.21,22.21 L142.48,21.61 C142.806668,21.8233344 143.113332,21.9766662 143.4,22.07 C143.686668,22.1633338 144.006665,22.21 144.36,22.21 C144.826669,22.21 145.179999,22.0850012 145.42,21.835 C145.660001,21.5849987 145.78,21.2200024 145.78,20.74 L145.78,19.88 C145.639999,20.1933349 145.425001,20.4333325 145.135,20.6 C144.844999,20.7666675 144.503335,20.85 144.11,20.85 C143.683331,20.85 143.305002,20.750001 142.975,20.55 C142.644998,20.349999 142.388334,20.0666685 142.205,19.7 C142.021666,19.3333315 141.93,18.9100024 141.93,18.43 C141.93,17.9499976 142.021666,17.5266685 142.205,17.16 C142.388334,16.7933315 142.644998,16.51 142.975,16.31 C143.305002,16.109999 143.683331,16.01 144.11,16.01 C144.496669,16.01 144.833332,16.0933325 145.12,16.26 C145.406668,16.4266675 145.623333,16.6633318 145.77,16.97 L145.77,16.13 L146.58,16.13 Z M144.27,20.18 C144.736669,20.18 145.103332,20.0250015 145.37,19.715 C145.636668,19.4049985 145.77,18.9766694 145.77,18.43 C145.77,17.8899973 145.638335,17.4650016 145.375,17.155 C145.111665,16.8449984 144.743336,16.69 144.27,16.69 C143.796664,16.69 143.425001,16.8449984 143.155,17.155 C142.884999,17.4650016 142.75,17.8899973 142.75,18.43 C142.75,18.9766694 142.884999,19.4049985 143.155,19.715 C143.425001,20.0250015 143.796664,20.18 144.27,20.18 Z M150.53,16.01 C151.696673,16.01 152.28,16.6533269 152.28,17.94 L152.28,21 L151.47,21 L151.47,17.99 C151.47,17.5366644 151.381668,17.2066677 151.205,17 C151.028332,16.7933323 150.746669,16.69 150.36,16.69 C149.913331,16.69 149.556668,16.8266653 149.29,17.1 C149.023332,17.3733347 148.89,17.743331 148.89,18.21 L148.89,21 L148.08,21 L148.08,13.95 L148.89,13.95 L148.89,16.91 C149.050001,16.6166652 149.271665,16.3933341 149.555,16.24 C149.838335,16.0866659 150.163331,16.01 150.53,16.01 Z M155.9,20.42 C156.046667,20.42 156.193333,20.4100001 156.34,20.39 L156.3,21.03 C156.146666,21.0566668 155.980001,21.07 155.8,21.07 C155.21333,21.07 154.771668,20.9166682 154.475,20.61 C154.178332,20.3033318 154.03,19.8766694 154.03,19.33 L154.03,16.77 L153.08,16.77 L153.08,16.13 L154.03,16.13 L154.03,14.65 L154.84,14.65 L154.84,16.13 L156.22,16.13 L156.22,16.77 L154.84,16.77 L154.84,19.27 C154.84,20.0366705 155.19333,20.42 155.9,20.42 Z M121.57,33 L121.57,26.65 L119.12,26.65 L119.12,25.95 L124.86,25.95 L124.86,26.65 L122.4,26.65 L122.4,33 L121.57,33 Z M125.73,33 L125.73,28.13 L126.54,28.13 L126.54,33 L125.73,33 Z M125.65,26.02 L126.63,26.02 L126.63,26.93 L125.65,26.93 L125.65,26.02 Z M133.47,28.01 C134.55,28.01 135.09,28.6533269 135.09,29.94 L135.09,33 L134.28,33 L134.28,29.98 C134.28,29.5333311 134.201667,29.2066677 134.045,29 C133.888333,28.7933323 133.636668,28.69 133.29,28.69 C132.883331,28.69 132.563334,28.8266653 132.33,29.1 C132.096666,29.3733347 131.98,29.7466643 131.98,30.22 L131.98,33 L131.17,33 L131.17,29.98 C131.17,29.5266644 131.090001,29.1983343 130.93,28.995 C130.769999,28.7916656 130.516668,28.69 130.17,28.69 C129.763331,28.69 129.443334,28.8266653 129.21,29.1 C128.976665,29.3733347 128.86,29.7466643 128.86,30.22 L128.86,33 L128.05,33 L128.05,28.13 L128.85,28.13 L128.85,28.9 C128.996667,28.6133319 129.199999,28.3933341 129.46,28.24 C129.720001,28.0866659 130.019998,28.01 130.36,28.01 C131.113337,28.01 131.609999,28.3299968 131.85,28.97 C131.990001,28.6699985 132.203332,28.4350009 132.49,28.265 C132.776668,28.0949991 133.103331,28.01 133.47,28.01 Z M140.65,30.69 L137.09,30.69 C137.116667,31.2566695 137.269999,31.6849985 137.55,31.975 C137.830001,32.2650014 138.226664,32.41 138.74,32.41 C139.306669,32.41 139.826664,32.2166686 140.3,31.83 L140.57,32.42 C140.356666,32.620001 140.083335,32.7783327 139.75,32.895 C139.416665,33.0116673 139.076668,33.07 138.73,33.07 C137.969996,33.07 137.371669,32.8466689 136.935,32.4 C136.498331,31.9533311 136.28,31.3366706 136.28,30.55 C136.28,30.0499975 136.376666,29.6083352 136.57,29.225 C136.763334,28.8416647 137.034998,28.5433344 137.385,28.33 C137.735002,28.1166656 138.133331,28.01 138.58,28.01 C139.22667,28.01 139.733331,28.2216645 140.1,28.645 C140.466668,29.0683354 140.65,29.6499963 140.65,30.39 L140.65,30.69 Z M138.59,28.64 C138.163331,28.64 137.821668,28.773332 137.565,29.04 C137.308332,29.306668 137.156667,29.6833309 137.11,30.17 L139.94,30.17 C139.926667,29.6766642 139.803335,29.2983347 139.57,29.035 C139.336666,28.7716653 139.010002,28.64 138.59,28.64 Z" id="MountainDaylightTime" fill="#FFFFFF" fill-rule="nonzero" opacity="0.5"></path>
        <path d="M175.38,276.128 C173.619991,276.128 172.212005,275.653338 171.156,274.704 L171.668,273.696 C172.222669,274.165336 172.790664,274.501332 173.372,274.704 C173.953336,274.906668 174.627996,275.008 175.396,275.008 C176.302671,275.008 177.001331,274.832002 177.492,274.48 C177.982669,274.127998 178.228,273.632003 178.228,272.992 C178.228,272.618665 178.110668,272.314668 177.876,272.08 C177.641332,271.845332 177.332002,271.658667 176.948,271.52 C176.563998,271.381333 176.04667,271.237334 175.396,271.088 C174.521329,270.885332 173.804003,270.672001 173.244,270.448 C172.683997,270.223999 172.230668,269.904002 171.884,269.488 C171.537332,269.071998 171.364,268.528003 171.364,267.856 C171.364,267.215997 171.531998,266.648002 171.868,266.152 C172.204002,265.655998 172.683997,265.272001 173.308,265 C173.932003,264.727999 174.654663,264.592 175.476,264.592 C176.254671,264.592 176.982663,264.714665 177.66,264.96 C178.337337,265.205335 178.910664,265.557331 179.38,266.016 L178.884,267.024 C178.350664,266.565331 177.809336,266.232001 177.26,266.024 C176.710664,265.815999 176.116003,265.712 175.476,265.712 C174.601329,265.712 173.916002,265.895998 173.42,266.264 C172.923998,266.632002 172.676,267.146663 172.676,267.808 C172.676,268.373336 172.894664,268.799999 173.332,269.088 C173.769336,269.376001 174.430662,269.621332 175.316,269.824 C176.286672,270.058668 177.049331,270.274666 177.604,270.472 C178.158669,270.669334 178.619998,270.965331 178.988,271.36 C179.356002,271.754669 179.54,272.282663 179.54,272.944 C179.54,273.584003 179.372002,274.143998 179.036,274.624 C178.699998,275.104002 178.217336,275.474665 177.588,275.736 C176.958664,275.997335 176.222671,276.128 175.38,276.128 Z M188.036,268.208 L188.036,276 L186.772,276 L186.772,274.672 C186.526665,275.141336 186.182669,275.498665 185.74,275.744 C185.297331,275.989335 184.798669,276.112 184.244,276.112 C183.315995,276.112 182.617336,275.853336 182.148,275.336 C181.678664,274.818664 181.444,274.053338 181.444,273.04 L181.444,268.208 L182.74,268.208 L182.74,273.008 C182.74,273.701337 182.878665,274.210665 183.156,274.536 C183.433335,274.861335 183.870664,275.024 184.468,275.024 C185.15067,275.024 185.699998,274.802669 186.116,274.36 C186.532002,273.917331 186.74,273.333337 186.74,272.608 L186.74,268.208 L188.036,268.208 Z M199.124,268.016 C200.852009,268.016 201.716,269.045323 201.716,271.104 L201.716,276 L200.42,276 L200.42,271.168 C200.42,270.45333 200.294668,269.930668 200.044,269.6 C199.793332,269.269332 199.390669,269.104 198.836,269.104 C198.18533,269.104 197.673335,269.322664 197.3,269.76 C196.926665,270.197336 196.74,270.794663 196.74,271.552 L196.74,276 L195.444,276 L195.444,271.168 C195.444,270.442663 195.316001,269.917335 195.06,269.592 C194.803999,269.266665 194.398669,269.104 193.844,269.104 C193.19333,269.104 192.681335,269.322664 192.308,269.76 C191.934665,270.197336 191.748,270.794663 191.748,271.552 L191.748,276 L190.452,276 L190.452,268.208 L191.732,268.208 L191.732,269.44 C191.966668,268.981331 192.291998,268.629335 192.708,268.384 C193.124002,268.138665 193.603997,268.016 194.148,268.016 C195.353339,268.016 196.147998,268.527995 196.532,269.552 C196.756001,269.071998 197.097331,268.696001 197.556,268.424 C198.014669,268.151999 198.53733,268.016 199.124,268.016 Z M212.756,268.016 C214.484009,268.016 215.348,269.045323 215.348,271.104 L215.348,276 L214.052,276 L214.052,271.168 C214.052,270.45333 213.926668,269.930668 213.676,269.6 C213.425332,269.269332 213.022669,269.104 212.468,269.104 C211.81733,269.104 211.305335,269.322664 210.932,269.76 C210.558665,270.197336 210.372,270.794663 210.372,271.552 L210.372,276 L209.076,276 L209.076,271.168 C209.076,270.442663 208.948001,269.917335 208.692,269.592 C208.435999,269.266665 208.030669,269.104 207.476,269.104 C206.82533,269.104 206.313335,269.322664 205.94,269.76 C205.566665,270.197336 205.38,270.794663 205.38,271.552 L205.38,276 L204.084,276 L204.084,268.208 L205.364,268.208 L205.364,269.44 C205.598668,268.981331 205.923998,268.629335 206.34,268.384 C206.756002,268.138665 207.235997,268.016 207.78,268.016 C208.985339,268.016 209.779998,268.527995 210.164,269.552 C210.388001,269.071998 210.729331,268.696001 211.188,268.424 C211.646669,268.151999 212.16933,268.016 212.756,268.016 Z M224.244,272.304 L218.548,272.304 C218.590667,273.210671 218.835998,273.895998 219.284,274.36 C219.732002,274.824002 220.366663,275.056 221.188,275.056 C222.094671,275.056 222.926663,274.74667 223.684,274.128 L224.116,275.072 C223.774665,275.392002 223.337336,275.645332 222.804,275.832 C222.270664,276.018668 221.726669,276.112 221.172,276.112 C219.955994,276.112 218.99867,275.75467 218.3,275.04 C217.60133,274.32533 217.252,273.338673 217.252,272.08 C217.252,271.279996 217.406665,270.573336 217.716,269.96 C218.025335,269.346664 218.459997,268.869335 219.02,268.528 C219.580003,268.186665 220.21733,268.016 220.932,268.016 C221.966672,268.016 222.77733,268.354663 223.364,269.032 C223.95067,269.709337 224.244,270.639994 224.244,271.824 L224.244,272.304 Z M220.948,269.024 C220.26533,269.024 219.718669,269.237331 219.308,269.664 C218.897331,270.090669 218.654667,270.693329 218.58,271.472 L223.108,271.472 C223.086667,270.682663 222.889335,270.077335 222.516,269.656 C222.142665,269.234665 221.620003,269.024 220.948,269.024 Z M230.564,269.136 L229.716,269.216 C228.915996,269.290667 228.337335,269.541331 227.98,269.968 C227.622665,270.394669 227.444,270.922664 227.444,271.552 L227.444,276 L226.148,276 L226.148,268.208 L227.412,268.208 L227.412,269.568 C227.849336,268.661329 228.707994,268.154667 229.988,268.048 L230.452,268.016 L230.564,269.136 Z" id="Summer" fill="#FFFFFF" fill-rule="nonzero"></path>
        <path d="M52.87,198.95 L55.66,198.95 C56.4000037,198.95 56.974998,199.129998 57.385,199.49 C57.7950021,199.850002 58,200.359997 58,201.02 C58,201.680003 57.7933354,202.193331 57.38,202.56 C56.9666646,202.926669 56.393337,203.11 55.66,203.11 L53.69,203.11 L53.69,206 L52.87,206 L52.87,198.95 Z M55.58,202.43 C56.6533387,202.43 57.19,201.960005 57.19,201.02 C57.19,200.093329 56.6533387,199.63 55.58,199.63 L53.69,199.63 L53.69,202.43 L55.58,202.43 Z M61.07,201.01 C61.6900031,201.01 62.1516651,201.168332 62.455,201.485 C62.7583348,201.801668 62.91,202.28333 62.91,202.93 L62.91,206 L62.12,206 L62.12,205.17 C61.9933327,205.456668 61.8000013,205.678333 61.54,205.835 C61.2799987,205.991667 60.9800017,206.07 60.64,206.07 C60.3266651,206.07 60.0383346,206.006667 59.775,205.88 C59.5116654,205.753333 59.3033341,205.576668 59.15,205.35 C58.9966659,205.123332 58.92,204.873335 58.92,204.6 C58.92,204.233331 59.0133324,203.948334 59.2,203.745 C59.3866676,203.541666 59.6933312,203.395 60.12,203.305 C60.5466688,203.215 61.1399962,203.17 61.9,203.17 L62.12,203.17 L62.12,202.84 C62.12,202.433331 62.0366675,202.138334 61.87,201.955 C61.7033325,201.771666 61.4333352,201.68 61.06,201.68 C60.4999972,201.68 59.9433361,201.853332 59.39,202.2 L59.12,201.61 C59.3733346,201.429999 59.6783316,201.285001 60.035,201.175 C60.3916684,201.064999 60.736665,201.01 61.07,201.01 Z M60.75,205.43 C61.150002,205.43 61.478332,205.295001 61.735,205.025 C61.991668,204.754999 62.12,204.406669 62.12,203.98 L62.12,203.69 L61.94,203.69 C61.3533304,203.69 60.9066682,203.715 60.6,203.765 C60.2933318,203.815 60.0750006,203.898333 59.945,204.015 C59.8149994,204.131667 59.75,204.303332 59.75,204.53 C59.75,204.790001 59.844999,205.004999 60.035,205.175 C60.225001,205.345001 60.4633319,205.43 60.75,205.43 Z M66.45,206.07 C65.9699976,206.07 65.5533351,205.966668 65.2,205.76 C64.8466649,205.553332 64.575001,205.261669 64.385,204.885 C64.1949991,204.508331 64.1,204.066669 64.1,203.56 C64.1,203.053331 64.1983324,202.608335 64.395,202.225 C64.5916677,201.841665 64.8683316,201.543334 65.225,201.33 C65.5816684,201.116666 65.9999976,201.01 66.48,201.01 C66.8066683,201.01 67.1266651,201.068333 67.44,201.185 C67.7533349,201.301667 68.0066657,201.456666 68.2,201.65 L67.93,202.25 C67.4699977,201.876665 67.0033357,201.69 66.53,201.69 C66.0299975,201.69 65.6400014,201.853332 65.36,202.18 C65.0799986,202.506668 64.94,202.966664 64.94,203.56 C64.94,204.14667 65.0799986,204.599998 65.36,204.92 C65.6400014,205.240002 66.0299975,205.4 66.53,205.4 C67.0033357,205.4 67.4699977,205.213335 67.93,204.84 L68.2,205.44 C67.9933323,205.633334 67.7333349,205.786666 67.42,205.9 C67.1066651,206.013334 66.783335,206.07 66.45,206.07 Z M69.18,206 L69.18,201.13 L69.99,201.13 L69.99,206 L69.18,206 Z M69.1,199.02 L70.08,199.02 L70.08,199.93 L69.1,199.93 L69.1,199.02 Z M72.58,201.13 L75.58,201.13 L75.58,206 L74.77,206 L74.77,201.77 L72.58,201.77 L72.58,206 L71.77,206 L71.77,201.77 L70.82,201.77 L70.82,201.13 L71.77,201.13 L71.77,200.97 C71.77,200.316663 71.9333317,199.823335 72.26,199.49 C72.5866683,199.156665 73.0866633,198.973333 73.76,198.94 L74.13,198.92 L74.18,199.55 L73.72,199.58 C73.32,199.606667 73.0300009,199.723332 72.85,199.93 C72.6699991,200.136668 72.58,200.446665 72.58,200.86 L72.58,201.13 Z M74.68,199.01 L75.68,199.01 L75.68,199.94 L74.68,199.94 L74.68,199.01 Z M79.15,206.07 C78.6699976,206.07 78.2533351,205.966668 77.9,205.76 C77.5466649,205.553332 77.2750009,205.261669 77.085,204.885 C76.894999,204.508331 76.8,204.066669 76.8,203.56 C76.8,203.053331 76.8983324,202.608335 77.095,202.225 C77.2916676,201.841665 77.5683315,201.543334 77.925,201.33 C78.2816684,201.116666 78.6999976,201.01 79.18,201.01 C79.5066683,201.01 79.8266651,201.068333 80.14,201.185 C80.4533349,201.301667 80.7066657,201.456666 80.9,201.65 L80.63,202.25 C80.1699977,201.876665 79.7033357,201.69 79.23,201.69 C78.7299975,201.69 78.3400014,201.853332 78.06,202.18 C77.7799986,202.506668 77.64,202.966664 77.64,203.56 C77.64,204.14667 77.7799986,204.599998 78.06,204.92 C78.3400014,205.240002 78.7299975,205.4 79.23,205.4 C79.7033357,205.4 80.1699977,205.213335 80.63,204.84 L80.9,205.44 C80.6933323,205.633334 80.4333349,205.786666 80.12,205.9 C79.8066651,206.013334 79.483335,206.07 79.15,206.07 Z M52.87,210.95 L55.24,210.95 C56.3666723,210.95 57.2383303,211.254997 57.855,211.865 C58.4716698,212.475003 58.78,213.343328 58.78,214.47 C58.78,215.596672 58.4716698,216.466664 57.855,217.08 C57.2383303,217.693336 56.3666723,218 55.24,218 L52.87,218 L52.87,210.95 Z M55.19,217.3 C57.0166758,217.3 57.93,216.356676 57.93,214.47 C57.93,212.589991 57.0166758,211.65 55.19,211.65 L53.69,211.65 L53.69,217.3 L55.19,217.3 Z M62.12,213.01 C62.7400031,213.01 63.2016651,213.168332 63.505,213.485 C63.8083349,213.801668 63.96,214.28333 63.96,214.93 L63.96,218 L63.17,218 L63.17,217.17 C63.0433327,217.456668 62.8500013,217.678333 62.59,217.835 C62.3299987,217.991667 62.0300017,218.07 61.69,218.07 C61.3766651,218.07 61.0883347,218.006667 60.825,217.88 C60.5616653,217.753333 60.3533341,217.576668 60.2,217.35 C60.0466659,217.123332 59.97,216.873335 59.97,216.6 C59.97,216.233331 60.0633324,215.948334 60.25,215.745 C60.4366676,215.541666 60.7433312,215.395 61.17,215.305 C61.5966688,215.215 62.1899962,215.17 62.95,215.17 L63.17,215.17 L63.17,214.84 C63.17,214.433331 63.0866675,214.138334 62.92,213.955 C62.7533325,213.771666 62.4833352,213.68 62.11,213.68 C61.5499972,213.68 60.9933361,213.853332 60.44,214.2 L60.17,213.61 C60.4233346,213.429999 60.7283316,213.285001 61.085,213.175 C61.4416685,213.064999 61.786665,213.01 62.12,213.01 Z M61.8,217.43 C62.200002,217.43 62.5283321,217.295001 62.785,217.025 C63.041668,216.754999 63.17,216.406669 63.17,215.98 L63.17,215.69 L62.99,215.69 C62.4033304,215.69 61.9566682,215.715 61.65,215.765 C61.3433318,215.815 61.1250007,215.898333 60.995,216.015 C60.8649994,216.131667 60.8,216.303332 60.8,216.53 C60.8,216.790001 60.8949991,217.004999 61.085,217.175 C61.2750009,217.345001 61.5133319,217.43 61.8,217.43 Z M68.93,213.14 L69.74,213.14 L66.86,219.8 L66.03,219.8 L66.85,217.94 L64.79,213.14 L65.65,213.14 L67.28,217.12 L68.93,213.14 Z M70.58,218 L70.58,210.95 L71.39,210.95 L71.39,218 L70.58,218 Z M72.9,218 L72.9,213.13 L73.71,213.13 L73.71,218 L72.9,218 Z M72.82,211.02 L73.8,211.02 L73.8,211.93 L72.82,211.93 L72.82,211.02 Z M79.58,213.13 L79.58,217.67 C79.58,218.39667 79.3933352,218.944998 79.02,219.315 C78.6466648,219.685002 78.093337,219.87 77.36,219.87 C76.5066624,219.87 75.7900029,219.650002 75.21,219.21 L75.48,218.61 C75.8066683,218.823334 76.1133319,218.976666 76.4,219.07 C76.6866681,219.163334 77.0066649,219.21 77.36,219.21 C77.826669,219.21 78.1799988,219.085001 78.42,218.835 C78.6600012,218.584999 78.78,218.220002 78.78,217.74 L78.78,216.88 C78.6399993,217.193335 78.4250014,217.433333 78.135,217.6 C77.8449985,217.766668 77.5033353,217.85 77.11,217.85 C76.6833312,217.85 76.3050017,217.750001 75.975,217.55 C75.6449984,217.349999 75.3883342,217.066668 75.205,216.7 C75.0216658,216.333331 74.93,215.910002 74.93,215.43 C74.93,214.949998 75.0216658,214.526668 75.205,214.16 C75.3883342,213.793331 75.6449984,213.51 75.975,213.31 C76.3050017,213.109999 76.6833312,213.01 77.11,213.01 C77.4966686,213.01 77.8333319,213.093333 78.12,213.26 C78.4066681,213.426668 78.6233326,213.663332 78.77,213.97 L78.77,213.13 L79.58,213.13 Z M77.27,217.18 C77.736669,217.18 78.103332,217.025002 78.37,216.715 C78.636668,216.404998 78.77,215.976669 78.77,215.43 C78.77,214.889997 78.6383347,214.465002 78.375,214.155 C78.1116654,213.844998 77.7433357,213.69 77.27,213.69 C76.7966643,213.69 76.4250014,213.844998 76.155,214.155 C75.8849986,214.465002 75.75,214.889997 75.75,215.43 C75.75,215.976669 75.8849986,216.404998 76.155,216.715 C76.4250014,217.025002 76.7966643,217.18 77.27,217.18 Z M83.53,213.01 C84.6966725,213.01 85.28,213.653327 85.28,214.94 L85.28,218 L84.47,218 L84.47,214.99 C84.47,214.536664 84.3816676,214.206668 84.205,214 C84.0283324,213.793332 83.7466686,213.69 83.36,213.69 C82.9133311,213.69 82.556668,213.826665 82.29,214.1 C82.023332,214.373335 81.89,214.743331 81.89,215.21 L81.89,218 L81.08,218 L81.08,210.95 L81.89,210.95 L81.89,213.91 C82.0500008,213.616665 82.2716653,213.393334 82.555,213.24 C82.8383348,213.086666 83.1633315,213.01 83.53,213.01 Z M88.9,217.42 C89.0466674,217.42 89.1933326,217.41 89.34,217.39 L89.3,218.03 C89.1466659,218.056667 88.9800009,218.07 88.8,218.07 C88.2133304,218.07 87.7716682,217.916668 87.475,217.61 C87.1783319,217.303332 87.03,216.876669 87.03,216.33 L87.03,213.77 L86.08,213.77 L86.08,213.13 L87.03,213.13 L87.03,211.65 L87.84,211.65 L87.84,213.13 L89.22,213.13 L89.22,213.77 L87.84,213.77 L87.84,216.27 C87.84,217.036671 88.1933298,217.42 88.9,217.42 Z M54.57,230 L54.57,223.65 L52.12,223.65 L52.12,222.95 L57.86,222.95 L57.86,223.65 L55.4,223.65 L55.4,230 L54.57,230 Z M58.73,230 L58.73,225.13 L59.54,225.13 L59.54,230 L58.73,230 Z M58.65,223.02 L59.63,223.02 L59.63,223.93 L58.65,223.93 L58.65,223.02 Z M66.47,225.01 C67.55,225.01 68.09,225.653327 68.09,226.94 L68.09,230 L67.28,230 L67.28,226.98 C67.28,226.533331 67.2016675,226.206668 67.045,226 C66.8883326,225.793332 66.6366684,225.69 66.29,225.69 C65.8833313,225.69 65.5633345,225.826665 65.33,226.1 C65.0966655,226.373335 64.98,226.746664 64.98,227.22 L64.98,230 L64.17,230 L64.17,226.98 C64.17,226.526664 64.0900008,226.198334 63.93,225.995 C63.7699992,225.791666 63.5166684,225.69 63.17,225.69 C62.7633313,225.69 62.4433345,225.826665 62.21,226.1 C61.9766655,226.373335 61.86,226.746664 61.86,227.22 L61.86,230 L61.05,230 L61.05,225.13 L61.85,225.13 L61.85,225.9 C61.9966674,225.613332 62.1999987,225.393334 62.46,225.24 C62.7200013,225.086666 63.0199983,225.01 63.36,225.01 C64.1133371,225.01 64.6099988,225.329997 64.85,225.97 C64.9900007,225.669998 65.2033319,225.435001 65.49,225.265 C65.7766681,225.094999 66.1033315,225.01 66.47,225.01 Z M73.65,227.69 L70.09,227.69 C70.1166668,228.256669 70.2699986,228.684999 70.55,228.975 C70.8300014,229.265001 71.2266641,229.41 71.74,229.41 C72.3066695,229.41 72.8266643,229.216669 73.3,228.83 L73.57,229.42 C73.3566656,229.620001 73.083335,229.778333 72.75,229.895 C72.416665,230.011667 72.0766684,230.07 71.73,230.07 C70.9699962,230.07 70.3716688,229.846669 69.935,229.4 C69.4983311,228.953331 69.28,228.336671 69.28,227.55 C69.28,227.049997 69.3766657,226.608335 69.57,226.225 C69.7633343,225.841665 70.0349983,225.543334 70.385,225.33 C70.7350017,225.116666 71.1333311,225.01 71.58,225.01 C72.2266699,225.01 72.7333315,225.221665 73.1,225.645 C73.4666685,226.068335 73.65,226.649996 73.65,227.39 L73.65,227.69 Z M71.59,225.64 C71.1633312,225.64 70.821668,225.773332 70.565,226.04 C70.3083321,226.306668 70.1566669,226.683331 70.11,227.17 L72.94,227.17 C72.9266666,226.676664 72.8033345,226.298335 72.57,226.035 C72.3366655,225.771665 72.0100021,225.64 71.59,225.64 Z" id="PacifcDaylightTime" fill="#FFFFFF" fill-rule="nonzero" opacity="0.5"></path>
        <path d="M66,194 L66,168" id="Line-4-Copy" stroke="#FFFFFF" opacity="0.399251302" stroke-dasharray="1"></path>
        <path d="M130,38.5 L130,45" id="Line-4-Copy" stroke="#FFFFFF" opacity="0.399251302" stroke-dasharray="1"></path>
    </g>
</svg>